%TF.GenerationSoftware,KiCad,Pcbnew,7.0.2-0*%
%TF.CreationDate,2023-07-19T09:36:40-04:00*%
%TF.ProjectId,ESPWatchS3,45535057-6174-4636-9853-332e6b696361,rev?*%
%TF.SameCoordinates,Original*%
%TF.FileFunction,Profile,NP*%
%FSLAX46Y46*%
G04 Gerber Fmt 4.6, Leading zero omitted, Abs format (unit mm)*
G04 Created by KiCad (PCBNEW 7.0.2-0) date 2023-07-19 09:36:40*
%MOMM*%
%LPD*%
G01*
G04 APERTURE LIST*
%TA.AperFunction,Profile*%
%ADD10C,0.100000*%
%TD*%
%TA.AperFunction,Profile*%
%ADD11C,0.010000*%
%TD*%
G04 APERTURE END LIST*
D10*
X27000000Y-17500000D02*
X61000000Y-17500000D01*
X61000000Y-57500000D01*
X27000000Y-57500000D01*
X27000000Y-17500000D01*
D11*
X27000000Y-21450000D02*
X28150000Y-21450000D01*
X27000000Y-21450000D02*
X27000000Y-26550000D01*
X28650000Y-26060000D02*
X28650000Y-21940000D01*
X27000000Y-26550000D02*
X28150000Y-26550000D01*
X28649999Y-21940000D02*
G75*
G03*
X28150001Y-21450000I-249999J245000D01*
G01*
X28150001Y-26550000D02*
G75*
G03*
X28649999Y-26060000I249999J245000D01*
G01*
X61000000Y-53550000D02*
X59850000Y-53550000D01*
X61000000Y-53550000D02*
X61000000Y-48450000D01*
X59350000Y-48940000D02*
X59350000Y-53060000D01*
X61000000Y-48450000D02*
X59850000Y-48450000D01*
X59350001Y-53060000D02*
G75*
G03*
X59849999Y-53550000I249999J-245000D01*
G01*
X59849999Y-48450000D02*
G75*
G03*
X59350001Y-48940000I-249999J-245000D01*
G01*
X61000000Y-26550000D02*
X59850000Y-26550000D01*
X61000000Y-26550000D02*
X61000000Y-21450000D01*
X59350000Y-21940000D02*
X59350000Y-26060000D01*
X61000000Y-21450000D02*
X59850000Y-21450000D01*
X59350001Y-26060000D02*
G75*
G03*
X59849999Y-26550000I249999J-245000D01*
G01*
X59849999Y-21450000D02*
G75*
G03*
X59350001Y-21940000I-249999J-245000D01*
G01*
X27000000Y-48450000D02*
X28150000Y-48450000D01*
X27000000Y-48450000D02*
X27000000Y-53550000D01*
X28650000Y-53060000D02*
X28650000Y-48940000D01*
X27000000Y-53550000D02*
X28150000Y-53550000D01*
X28649999Y-48940000D02*
G75*
G03*
X28150001Y-48450000I-249999J245000D01*
G01*
X28150001Y-53550000D02*
G75*
G03*
X28649999Y-53060000I249999J245000D01*
G01*
M02*
