%TF.GenerationSoftware,KiCad,Pcbnew,7.0.2-0*%
%TF.CreationDate,2023-07-16T12:38:20-04:00*%
%TF.ProjectId,ESPWatchS3,45535057-6174-4636-9853-332e6b696361,rev?*%
%TF.SameCoordinates,Original*%
%TF.FileFunction,Legend,Top*%
%TF.FilePolarity,Positive*%
%FSLAX46Y46*%
G04 Gerber Fmt 4.6, Leading zero omitted, Abs format (unit mm)*
G04 Created by KiCad (PCBNEW 7.0.2-0) date 2023-07-16 12:38:20*
%MOMM*%
%LPD*%
G01*
G04 APERTURE LIST*
%ADD10C,0.100000*%
%ADD11C,0.120000*%
%ADD12C,0.127000*%
%ADD13C,0.200000*%
G04 APERTURE END LIST*
D10*
X38007142Y-43633047D02*
X38121428Y-43671142D01*
X38121428Y-43671142D02*
X38159523Y-43709238D01*
X38159523Y-43709238D02*
X38197619Y-43785428D01*
X38197619Y-43785428D02*
X38197619Y-43899714D01*
X38197619Y-43899714D02*
X38159523Y-43975904D01*
X38159523Y-43975904D02*
X38121428Y-44014000D01*
X38121428Y-44014000D02*
X38045238Y-44052095D01*
X38045238Y-44052095D02*
X37740476Y-44052095D01*
X37740476Y-44052095D02*
X37740476Y-43252095D01*
X37740476Y-43252095D02*
X38007142Y-43252095D01*
X38007142Y-43252095D02*
X38083333Y-43290190D01*
X38083333Y-43290190D02*
X38121428Y-43328285D01*
X38121428Y-43328285D02*
X38159523Y-43404476D01*
X38159523Y-43404476D02*
X38159523Y-43480666D01*
X38159523Y-43480666D02*
X38121428Y-43556857D01*
X38121428Y-43556857D02*
X38083333Y-43594952D01*
X38083333Y-43594952D02*
X38007142Y-43633047D01*
X38007142Y-43633047D02*
X37740476Y-43633047D01*
X38540476Y-44052095D02*
X38540476Y-43252095D01*
X38540476Y-43252095D02*
X38807142Y-43823523D01*
X38807142Y-43823523D02*
X39073809Y-43252095D01*
X39073809Y-43252095D02*
X39073809Y-44052095D01*
X39454762Y-44052095D02*
X39454762Y-43252095D01*
X39454762Y-43252095D02*
X39759524Y-43252095D01*
X39759524Y-43252095D02*
X39835714Y-43290190D01*
X39835714Y-43290190D02*
X39873809Y-43328285D01*
X39873809Y-43328285D02*
X39911905Y-43404476D01*
X39911905Y-43404476D02*
X39911905Y-43518761D01*
X39911905Y-43518761D02*
X39873809Y-43594952D01*
X39873809Y-43594952D02*
X39835714Y-43633047D01*
X39835714Y-43633047D02*
X39759524Y-43671142D01*
X39759524Y-43671142D02*
X39454762Y-43671142D01*
X49483047Y-35742857D02*
X49483047Y-36009523D01*
X49902095Y-36009523D02*
X49102095Y-36009523D01*
X49102095Y-36009523D02*
X49102095Y-35628571D01*
X49902095Y-35209524D02*
X49864000Y-35285714D01*
X49864000Y-35285714D02*
X49787809Y-35323809D01*
X49787809Y-35323809D02*
X49102095Y-35323809D01*
X49902095Y-34561904D02*
X49483047Y-34561904D01*
X49483047Y-34561904D02*
X49406857Y-34599999D01*
X49406857Y-34599999D02*
X49368761Y-34676190D01*
X49368761Y-34676190D02*
X49368761Y-34828571D01*
X49368761Y-34828571D02*
X49406857Y-34904761D01*
X49864000Y-34561904D02*
X49902095Y-34638095D01*
X49902095Y-34638095D02*
X49902095Y-34828571D01*
X49902095Y-34828571D02*
X49864000Y-34904761D01*
X49864000Y-34904761D02*
X49787809Y-34942857D01*
X49787809Y-34942857D02*
X49711619Y-34942857D01*
X49711619Y-34942857D02*
X49635428Y-34904761D01*
X49635428Y-34904761D02*
X49597333Y-34828571D01*
X49597333Y-34828571D02*
X49597333Y-34638095D01*
X49597333Y-34638095D02*
X49559238Y-34561904D01*
X49864000Y-34219047D02*
X49902095Y-34142856D01*
X49902095Y-34142856D02*
X49902095Y-33990475D01*
X49902095Y-33990475D02*
X49864000Y-33914285D01*
X49864000Y-33914285D02*
X49787809Y-33876189D01*
X49787809Y-33876189D02*
X49749714Y-33876189D01*
X49749714Y-33876189D02*
X49673523Y-33914285D01*
X49673523Y-33914285D02*
X49635428Y-33990475D01*
X49635428Y-33990475D02*
X49635428Y-34104761D01*
X49635428Y-34104761D02*
X49597333Y-34180951D01*
X49597333Y-34180951D02*
X49521142Y-34219047D01*
X49521142Y-34219047D02*
X49483047Y-34219047D01*
X49483047Y-34219047D02*
X49406857Y-34180951D01*
X49406857Y-34180951D02*
X49368761Y-34104761D01*
X49368761Y-34104761D02*
X49368761Y-33990475D01*
X49368761Y-33990475D02*
X49406857Y-33914285D01*
X49902095Y-33533332D02*
X49102095Y-33533332D01*
X49902095Y-33190475D02*
X49483047Y-33190475D01*
X49483047Y-33190475D02*
X49406857Y-33228570D01*
X49406857Y-33228570D02*
X49368761Y-33304761D01*
X49368761Y-33304761D02*
X49368761Y-33419047D01*
X49368761Y-33419047D02*
X49406857Y-33495237D01*
X49406857Y-33495237D02*
X49444952Y-33533332D01*
X40490476Y-39202095D02*
X40490476Y-38402095D01*
X40871428Y-39202095D02*
X40871428Y-38402095D01*
X40871428Y-38402095D02*
X41138094Y-38973523D01*
X41138094Y-38973523D02*
X41404761Y-38402095D01*
X41404761Y-38402095D02*
X41404761Y-39202095D01*
X41785714Y-38402095D02*
X41785714Y-39049714D01*
X41785714Y-39049714D02*
X41823809Y-39125904D01*
X41823809Y-39125904D02*
X41861904Y-39164000D01*
X41861904Y-39164000D02*
X41938095Y-39202095D01*
X41938095Y-39202095D02*
X42090476Y-39202095D01*
X42090476Y-39202095D02*
X42166666Y-39164000D01*
X42166666Y-39164000D02*
X42204761Y-39125904D01*
X42204761Y-39125904D02*
X42242857Y-39049714D01*
X42242857Y-39049714D02*
X42242857Y-38402095D01*
X48459523Y-24040190D02*
X48383333Y-24002095D01*
X48383333Y-24002095D02*
X48269047Y-24002095D01*
X48269047Y-24002095D02*
X48154761Y-24040190D01*
X48154761Y-24040190D02*
X48078571Y-24116380D01*
X48078571Y-24116380D02*
X48040476Y-24192571D01*
X48040476Y-24192571D02*
X48002380Y-24344952D01*
X48002380Y-24344952D02*
X48002380Y-24459238D01*
X48002380Y-24459238D02*
X48040476Y-24611619D01*
X48040476Y-24611619D02*
X48078571Y-24687809D01*
X48078571Y-24687809D02*
X48154761Y-24764000D01*
X48154761Y-24764000D02*
X48269047Y-24802095D01*
X48269047Y-24802095D02*
X48345238Y-24802095D01*
X48345238Y-24802095D02*
X48459523Y-24764000D01*
X48459523Y-24764000D02*
X48497619Y-24725904D01*
X48497619Y-24725904D02*
X48497619Y-24459238D01*
X48497619Y-24459238D02*
X48345238Y-24459238D01*
X48840476Y-24802095D02*
X48840476Y-24002095D01*
X48840476Y-24002095D02*
X49297619Y-24802095D01*
X49297619Y-24802095D02*
X49297619Y-24002095D01*
X49640475Y-24764000D02*
X49754761Y-24802095D01*
X49754761Y-24802095D02*
X49945237Y-24802095D01*
X49945237Y-24802095D02*
X50021428Y-24764000D01*
X50021428Y-24764000D02*
X50059523Y-24725904D01*
X50059523Y-24725904D02*
X50097618Y-24649714D01*
X50097618Y-24649714D02*
X50097618Y-24573523D01*
X50097618Y-24573523D02*
X50059523Y-24497333D01*
X50059523Y-24497333D02*
X50021428Y-24459238D01*
X50021428Y-24459238D02*
X49945237Y-24421142D01*
X49945237Y-24421142D02*
X49792856Y-24383047D01*
X49792856Y-24383047D02*
X49716666Y-24344952D01*
X49716666Y-24344952D02*
X49678571Y-24306857D01*
X49678571Y-24306857D02*
X49640475Y-24230666D01*
X49640475Y-24230666D02*
X49640475Y-24154476D01*
X49640475Y-24154476D02*
X49678571Y-24078285D01*
X49678571Y-24078285D02*
X49716666Y-24040190D01*
X49716666Y-24040190D02*
X49792856Y-24002095D01*
X49792856Y-24002095D02*
X49983333Y-24002095D01*
X49983333Y-24002095D02*
X50097618Y-24040190D01*
X50402380Y-24764000D02*
X50516666Y-24802095D01*
X50516666Y-24802095D02*
X50707142Y-24802095D01*
X50707142Y-24802095D02*
X50783333Y-24764000D01*
X50783333Y-24764000D02*
X50821428Y-24725904D01*
X50821428Y-24725904D02*
X50859523Y-24649714D01*
X50859523Y-24649714D02*
X50859523Y-24573523D01*
X50859523Y-24573523D02*
X50821428Y-24497333D01*
X50821428Y-24497333D02*
X50783333Y-24459238D01*
X50783333Y-24459238D02*
X50707142Y-24421142D01*
X50707142Y-24421142D02*
X50554761Y-24383047D01*
X50554761Y-24383047D02*
X50478571Y-24344952D01*
X50478571Y-24344952D02*
X50440476Y-24306857D01*
X50440476Y-24306857D02*
X50402380Y-24230666D01*
X50402380Y-24230666D02*
X50402380Y-24154476D01*
X50402380Y-24154476D02*
X50440476Y-24078285D01*
X50440476Y-24078285D02*
X50478571Y-24040190D01*
X50478571Y-24040190D02*
X50554761Y-24002095D01*
X50554761Y-24002095D02*
X50745238Y-24002095D01*
X50745238Y-24002095D02*
X50859523Y-24040190D01*
X37140476Y-29652095D02*
X37140476Y-28852095D01*
X37140476Y-28852095D02*
X37407142Y-29423523D01*
X37407142Y-29423523D02*
X37673809Y-28852095D01*
X37673809Y-28852095D02*
X37673809Y-29652095D01*
X38511905Y-29575904D02*
X38473809Y-29614000D01*
X38473809Y-29614000D02*
X38359524Y-29652095D01*
X38359524Y-29652095D02*
X38283333Y-29652095D01*
X38283333Y-29652095D02*
X38169047Y-29614000D01*
X38169047Y-29614000D02*
X38092857Y-29537809D01*
X38092857Y-29537809D02*
X38054762Y-29461619D01*
X38054762Y-29461619D02*
X38016666Y-29309238D01*
X38016666Y-29309238D02*
X38016666Y-29194952D01*
X38016666Y-29194952D02*
X38054762Y-29042571D01*
X38054762Y-29042571D02*
X38092857Y-28966380D01*
X38092857Y-28966380D02*
X38169047Y-28890190D01*
X38169047Y-28890190D02*
X38283333Y-28852095D01*
X38283333Y-28852095D02*
X38359524Y-28852095D01*
X38359524Y-28852095D02*
X38473809Y-28890190D01*
X38473809Y-28890190D02*
X38511905Y-28928285D01*
X38854762Y-28852095D02*
X38854762Y-29499714D01*
X38854762Y-29499714D02*
X38892857Y-29575904D01*
X38892857Y-29575904D02*
X38930952Y-29614000D01*
X38930952Y-29614000D02*
X39007143Y-29652095D01*
X39007143Y-29652095D02*
X39159524Y-29652095D01*
X39159524Y-29652095D02*
X39235714Y-29614000D01*
X39235714Y-29614000D02*
X39273809Y-29575904D01*
X39273809Y-29575904D02*
X39311905Y-29499714D01*
X39311905Y-29499714D02*
X39311905Y-28852095D01*
X27664285Y-18602095D02*
X27854761Y-19402095D01*
X27854761Y-19402095D02*
X28007142Y-18830666D01*
X28007142Y-18830666D02*
X28159523Y-19402095D01*
X28159523Y-19402095D02*
X28350000Y-18602095D01*
X28654762Y-19402095D02*
X28654762Y-18868761D01*
X28654762Y-18602095D02*
X28616666Y-18640190D01*
X28616666Y-18640190D02*
X28654762Y-18678285D01*
X28654762Y-18678285D02*
X28692857Y-18640190D01*
X28692857Y-18640190D02*
X28654762Y-18602095D01*
X28654762Y-18602095D02*
X28654762Y-18678285D01*
X29302380Y-18983047D02*
X29035714Y-18983047D01*
X29035714Y-19402095D02*
X29035714Y-18602095D01*
X29035714Y-18602095D02*
X29416666Y-18602095D01*
X29721428Y-19402095D02*
X29721428Y-18868761D01*
X29721428Y-18602095D02*
X29683332Y-18640190D01*
X29683332Y-18640190D02*
X29721428Y-18678285D01*
X29721428Y-18678285D02*
X29759523Y-18640190D01*
X29759523Y-18640190D02*
X29721428Y-18602095D01*
X29721428Y-18602095D02*
X29721428Y-18678285D01*
X32640476Y-46095047D02*
X32907142Y-46095047D01*
X33021428Y-46514095D02*
X32640476Y-46514095D01*
X32640476Y-46514095D02*
X32640476Y-45714095D01*
X32640476Y-45714095D02*
X33021428Y-45714095D01*
X33326190Y-46476000D02*
X33440476Y-46514095D01*
X33440476Y-46514095D02*
X33630952Y-46514095D01*
X33630952Y-46514095D02*
X33707143Y-46476000D01*
X33707143Y-46476000D02*
X33745238Y-46437904D01*
X33745238Y-46437904D02*
X33783333Y-46361714D01*
X33783333Y-46361714D02*
X33783333Y-46285523D01*
X33783333Y-46285523D02*
X33745238Y-46209333D01*
X33745238Y-46209333D02*
X33707143Y-46171238D01*
X33707143Y-46171238D02*
X33630952Y-46133142D01*
X33630952Y-46133142D02*
X33478571Y-46095047D01*
X33478571Y-46095047D02*
X33402381Y-46056952D01*
X33402381Y-46056952D02*
X33364286Y-46018857D01*
X33364286Y-46018857D02*
X33326190Y-45942666D01*
X33326190Y-45942666D02*
X33326190Y-45866476D01*
X33326190Y-45866476D02*
X33364286Y-45790285D01*
X33364286Y-45790285D02*
X33402381Y-45752190D01*
X33402381Y-45752190D02*
X33478571Y-45714095D01*
X33478571Y-45714095D02*
X33669048Y-45714095D01*
X33669048Y-45714095D02*
X33783333Y-45752190D01*
X34126191Y-46514095D02*
X34126191Y-45714095D01*
X34126191Y-45714095D02*
X34430953Y-45714095D01*
X34430953Y-45714095D02*
X34507143Y-45752190D01*
X34507143Y-45752190D02*
X34545238Y-45790285D01*
X34545238Y-45790285D02*
X34583334Y-45866476D01*
X34583334Y-45866476D02*
X34583334Y-45980761D01*
X34583334Y-45980761D02*
X34545238Y-46056952D01*
X34545238Y-46056952D02*
X34507143Y-46095047D01*
X34507143Y-46095047D02*
X34430953Y-46133142D01*
X34430953Y-46133142D02*
X34126191Y-46133142D01*
X34850000Y-45714095D02*
X35040476Y-46514095D01*
X35040476Y-46514095D02*
X35192857Y-45942666D01*
X35192857Y-45942666D02*
X35345238Y-46514095D01*
X35345238Y-46514095D02*
X35535715Y-45714095D01*
X36183334Y-46514095D02*
X36183334Y-46095047D01*
X36183334Y-46095047D02*
X36145239Y-46018857D01*
X36145239Y-46018857D02*
X36069048Y-45980761D01*
X36069048Y-45980761D02*
X35916667Y-45980761D01*
X35916667Y-45980761D02*
X35840477Y-46018857D01*
X36183334Y-46476000D02*
X36107143Y-46514095D01*
X36107143Y-46514095D02*
X35916667Y-46514095D01*
X35916667Y-46514095D02*
X35840477Y-46476000D01*
X35840477Y-46476000D02*
X35802381Y-46399809D01*
X35802381Y-46399809D02*
X35802381Y-46323619D01*
X35802381Y-46323619D02*
X35840477Y-46247428D01*
X35840477Y-46247428D02*
X35916667Y-46209333D01*
X35916667Y-46209333D02*
X36107143Y-46209333D01*
X36107143Y-46209333D02*
X36183334Y-46171238D01*
X36450001Y-45980761D02*
X36754763Y-45980761D01*
X36564287Y-45714095D02*
X36564287Y-46399809D01*
X36564287Y-46399809D02*
X36602382Y-46476000D01*
X36602382Y-46476000D02*
X36678572Y-46514095D01*
X36678572Y-46514095D02*
X36754763Y-46514095D01*
X37364287Y-46476000D02*
X37288096Y-46514095D01*
X37288096Y-46514095D02*
X37135715Y-46514095D01*
X37135715Y-46514095D02*
X37059525Y-46476000D01*
X37059525Y-46476000D02*
X37021430Y-46437904D01*
X37021430Y-46437904D02*
X36983334Y-46361714D01*
X36983334Y-46361714D02*
X36983334Y-46133142D01*
X36983334Y-46133142D02*
X37021430Y-46056952D01*
X37021430Y-46056952D02*
X37059525Y-46018857D01*
X37059525Y-46018857D02*
X37135715Y-45980761D01*
X37135715Y-45980761D02*
X37288096Y-45980761D01*
X37288096Y-45980761D02*
X37364287Y-46018857D01*
X37707144Y-46514095D02*
X37707144Y-45714095D01*
X38050001Y-46514095D02*
X38050001Y-46095047D01*
X38050001Y-46095047D02*
X38011906Y-46018857D01*
X38011906Y-46018857D02*
X37935715Y-45980761D01*
X37935715Y-45980761D02*
X37821429Y-45980761D01*
X37821429Y-45980761D02*
X37745239Y-46018857D01*
X37745239Y-46018857D02*
X37707144Y-46056952D01*
X38392858Y-46476000D02*
X38507144Y-46514095D01*
X38507144Y-46514095D02*
X38697620Y-46514095D01*
X38697620Y-46514095D02*
X38773811Y-46476000D01*
X38773811Y-46476000D02*
X38811906Y-46437904D01*
X38811906Y-46437904D02*
X38850001Y-46361714D01*
X38850001Y-46361714D02*
X38850001Y-46285523D01*
X38850001Y-46285523D02*
X38811906Y-46209333D01*
X38811906Y-46209333D02*
X38773811Y-46171238D01*
X38773811Y-46171238D02*
X38697620Y-46133142D01*
X38697620Y-46133142D02*
X38545239Y-46095047D01*
X38545239Y-46095047D02*
X38469049Y-46056952D01*
X38469049Y-46056952D02*
X38430954Y-46018857D01*
X38430954Y-46018857D02*
X38392858Y-45942666D01*
X38392858Y-45942666D02*
X38392858Y-45866476D01*
X38392858Y-45866476D02*
X38430954Y-45790285D01*
X38430954Y-45790285D02*
X38469049Y-45752190D01*
X38469049Y-45752190D02*
X38545239Y-45714095D01*
X38545239Y-45714095D02*
X38735716Y-45714095D01*
X38735716Y-45714095D02*
X38850001Y-45752190D01*
X39116668Y-45714095D02*
X39611906Y-45714095D01*
X39611906Y-45714095D02*
X39345240Y-46018857D01*
X39345240Y-46018857D02*
X39459525Y-46018857D01*
X39459525Y-46018857D02*
X39535716Y-46056952D01*
X39535716Y-46056952D02*
X39573811Y-46095047D01*
X39573811Y-46095047D02*
X39611906Y-46171238D01*
X39611906Y-46171238D02*
X39611906Y-46361714D01*
X39611906Y-46361714D02*
X39573811Y-46437904D01*
X39573811Y-46437904D02*
X39535716Y-46476000D01*
X39535716Y-46476000D02*
X39459525Y-46514095D01*
X39459525Y-46514095D02*
X39230954Y-46514095D01*
X39230954Y-46514095D02*
X39154763Y-46476000D01*
X39154763Y-46476000D02*
X39116668Y-46437904D01*
X32526190Y-47010095D02*
X32792857Y-47810095D01*
X32792857Y-47810095D02*
X33059523Y-47010095D01*
X33745237Y-47810095D02*
X33288094Y-47810095D01*
X33516666Y-47810095D02*
X33516666Y-47010095D01*
X33516666Y-47010095D02*
X33440475Y-47124380D01*
X33440475Y-47124380D02*
X33364285Y-47200571D01*
X33364285Y-47200571D02*
X33288094Y-47238666D01*
X34088095Y-47733904D02*
X34126190Y-47772000D01*
X34126190Y-47772000D02*
X34088095Y-47810095D01*
X34088095Y-47810095D02*
X34049999Y-47772000D01*
X34049999Y-47772000D02*
X34088095Y-47733904D01*
X34088095Y-47733904D02*
X34088095Y-47810095D01*
X34621428Y-47010095D02*
X34697618Y-47010095D01*
X34697618Y-47010095D02*
X34773809Y-47048190D01*
X34773809Y-47048190D02*
X34811904Y-47086285D01*
X34811904Y-47086285D02*
X34849999Y-47162476D01*
X34849999Y-47162476D02*
X34888094Y-47314857D01*
X34888094Y-47314857D02*
X34888094Y-47505333D01*
X34888094Y-47505333D02*
X34849999Y-47657714D01*
X34849999Y-47657714D02*
X34811904Y-47733904D01*
X34811904Y-47733904D02*
X34773809Y-47772000D01*
X34773809Y-47772000D02*
X34697618Y-47810095D01*
X34697618Y-47810095D02*
X34621428Y-47810095D01*
X34621428Y-47810095D02*
X34545237Y-47772000D01*
X34545237Y-47772000D02*
X34507142Y-47733904D01*
X34507142Y-47733904D02*
X34469047Y-47657714D01*
X34469047Y-47657714D02*
X34430951Y-47505333D01*
X34430951Y-47505333D02*
X34430951Y-47314857D01*
X34430951Y-47314857D02*
X34469047Y-47162476D01*
X34469047Y-47162476D02*
X34507142Y-47086285D01*
X34507142Y-47086285D02*
X34545237Y-47048190D01*
X34545237Y-47048190D02*
X34621428Y-47010095D01*
X32640476Y-49106095D02*
X32640476Y-48306095D01*
X32640476Y-48306095D02*
X32830952Y-48306095D01*
X32830952Y-48306095D02*
X32945238Y-48344190D01*
X32945238Y-48344190D02*
X33021428Y-48420380D01*
X33021428Y-48420380D02*
X33059523Y-48496571D01*
X33059523Y-48496571D02*
X33097619Y-48648952D01*
X33097619Y-48648952D02*
X33097619Y-48763238D01*
X33097619Y-48763238D02*
X33059523Y-48915619D01*
X33059523Y-48915619D02*
X33021428Y-48991809D01*
X33021428Y-48991809D02*
X32945238Y-49068000D01*
X32945238Y-49068000D02*
X32830952Y-49106095D01*
X32830952Y-49106095D02*
X32640476Y-49106095D01*
X33745238Y-49068000D02*
X33669047Y-49106095D01*
X33669047Y-49106095D02*
X33516666Y-49106095D01*
X33516666Y-49106095D02*
X33440476Y-49068000D01*
X33440476Y-49068000D02*
X33402380Y-48991809D01*
X33402380Y-48991809D02*
X33402380Y-48687047D01*
X33402380Y-48687047D02*
X33440476Y-48610857D01*
X33440476Y-48610857D02*
X33516666Y-48572761D01*
X33516666Y-48572761D02*
X33669047Y-48572761D01*
X33669047Y-48572761D02*
X33745238Y-48610857D01*
X33745238Y-48610857D02*
X33783333Y-48687047D01*
X33783333Y-48687047D02*
X33783333Y-48763238D01*
X33783333Y-48763238D02*
X33402380Y-48839428D01*
X34088094Y-49068000D02*
X34164285Y-49106095D01*
X34164285Y-49106095D02*
X34316666Y-49106095D01*
X34316666Y-49106095D02*
X34392856Y-49068000D01*
X34392856Y-49068000D02*
X34430952Y-48991809D01*
X34430952Y-48991809D02*
X34430952Y-48953714D01*
X34430952Y-48953714D02*
X34392856Y-48877523D01*
X34392856Y-48877523D02*
X34316666Y-48839428D01*
X34316666Y-48839428D02*
X34202380Y-48839428D01*
X34202380Y-48839428D02*
X34126190Y-48801333D01*
X34126190Y-48801333D02*
X34088094Y-48725142D01*
X34088094Y-48725142D02*
X34088094Y-48687047D01*
X34088094Y-48687047D02*
X34126190Y-48610857D01*
X34126190Y-48610857D02*
X34202380Y-48572761D01*
X34202380Y-48572761D02*
X34316666Y-48572761D01*
X34316666Y-48572761D02*
X34392856Y-48610857D01*
X34773809Y-49106095D02*
X34773809Y-48572761D01*
X34773809Y-48306095D02*
X34735713Y-48344190D01*
X34735713Y-48344190D02*
X34773809Y-48382285D01*
X34773809Y-48382285D02*
X34811904Y-48344190D01*
X34811904Y-48344190D02*
X34773809Y-48306095D01*
X34773809Y-48306095D02*
X34773809Y-48382285D01*
X35497618Y-48572761D02*
X35497618Y-49220380D01*
X35497618Y-49220380D02*
X35459523Y-49296571D01*
X35459523Y-49296571D02*
X35421427Y-49334666D01*
X35421427Y-49334666D02*
X35345237Y-49372761D01*
X35345237Y-49372761D02*
X35230951Y-49372761D01*
X35230951Y-49372761D02*
X35154761Y-49334666D01*
X35497618Y-49068000D02*
X35421427Y-49106095D01*
X35421427Y-49106095D02*
X35269046Y-49106095D01*
X35269046Y-49106095D02*
X35192856Y-49068000D01*
X35192856Y-49068000D02*
X35154761Y-49029904D01*
X35154761Y-49029904D02*
X35116665Y-48953714D01*
X35116665Y-48953714D02*
X35116665Y-48725142D01*
X35116665Y-48725142D02*
X35154761Y-48648952D01*
X35154761Y-48648952D02*
X35192856Y-48610857D01*
X35192856Y-48610857D02*
X35269046Y-48572761D01*
X35269046Y-48572761D02*
X35421427Y-48572761D01*
X35421427Y-48572761D02*
X35497618Y-48610857D01*
X35878571Y-48572761D02*
X35878571Y-49106095D01*
X35878571Y-48648952D02*
X35916666Y-48610857D01*
X35916666Y-48610857D02*
X35992856Y-48572761D01*
X35992856Y-48572761D02*
X36107142Y-48572761D01*
X36107142Y-48572761D02*
X36183333Y-48610857D01*
X36183333Y-48610857D02*
X36221428Y-48687047D01*
X36221428Y-48687047D02*
X36221428Y-49106095D01*
X37478571Y-48687047D02*
X37592857Y-48725142D01*
X37592857Y-48725142D02*
X37630952Y-48763238D01*
X37630952Y-48763238D02*
X37669048Y-48839428D01*
X37669048Y-48839428D02*
X37669048Y-48953714D01*
X37669048Y-48953714D02*
X37630952Y-49029904D01*
X37630952Y-49029904D02*
X37592857Y-49068000D01*
X37592857Y-49068000D02*
X37516667Y-49106095D01*
X37516667Y-49106095D02*
X37211905Y-49106095D01*
X37211905Y-49106095D02*
X37211905Y-48306095D01*
X37211905Y-48306095D02*
X37478571Y-48306095D01*
X37478571Y-48306095D02*
X37554762Y-48344190D01*
X37554762Y-48344190D02*
X37592857Y-48382285D01*
X37592857Y-48382285D02*
X37630952Y-48458476D01*
X37630952Y-48458476D02*
X37630952Y-48534666D01*
X37630952Y-48534666D02*
X37592857Y-48610857D01*
X37592857Y-48610857D02*
X37554762Y-48648952D01*
X37554762Y-48648952D02*
X37478571Y-48687047D01*
X37478571Y-48687047D02*
X37211905Y-48687047D01*
X37935714Y-48572761D02*
X38126190Y-49106095D01*
X38316667Y-48572761D02*
X38126190Y-49106095D01*
X38126190Y-49106095D02*
X38050000Y-49296571D01*
X38050000Y-49296571D02*
X38011905Y-49334666D01*
X38011905Y-49334666D02*
X37935714Y-49372761D01*
X38621429Y-49029904D02*
X38659524Y-49068000D01*
X38659524Y-49068000D02*
X38621429Y-49106095D01*
X38621429Y-49106095D02*
X38583333Y-49068000D01*
X38583333Y-49068000D02*
X38621429Y-49029904D01*
X38621429Y-49029904D02*
X38621429Y-49106095D01*
X38621429Y-48610857D02*
X38659524Y-48648952D01*
X38659524Y-48648952D02*
X38621429Y-48687047D01*
X38621429Y-48687047D02*
X38583333Y-48648952D01*
X38583333Y-48648952D02*
X38621429Y-48610857D01*
X38621429Y-48610857D02*
X38621429Y-48687047D01*
X32602380Y-50364000D02*
X32716666Y-50402095D01*
X32716666Y-50402095D02*
X32907142Y-50402095D01*
X32907142Y-50402095D02*
X32983333Y-50364000D01*
X32983333Y-50364000D02*
X33021428Y-50325904D01*
X33021428Y-50325904D02*
X33059523Y-50249714D01*
X33059523Y-50249714D02*
X33059523Y-50173523D01*
X33059523Y-50173523D02*
X33021428Y-50097333D01*
X33021428Y-50097333D02*
X32983333Y-50059238D01*
X32983333Y-50059238D02*
X32907142Y-50021142D01*
X32907142Y-50021142D02*
X32754761Y-49983047D01*
X32754761Y-49983047D02*
X32678571Y-49944952D01*
X32678571Y-49944952D02*
X32640476Y-49906857D01*
X32640476Y-49906857D02*
X32602380Y-49830666D01*
X32602380Y-49830666D02*
X32602380Y-49754476D01*
X32602380Y-49754476D02*
X32640476Y-49678285D01*
X32640476Y-49678285D02*
X32678571Y-49640190D01*
X32678571Y-49640190D02*
X32754761Y-49602095D01*
X32754761Y-49602095D02*
X32945238Y-49602095D01*
X32945238Y-49602095D02*
X33059523Y-49640190D01*
X33745238Y-50402095D02*
X33745238Y-49983047D01*
X33745238Y-49983047D02*
X33707143Y-49906857D01*
X33707143Y-49906857D02*
X33630952Y-49868761D01*
X33630952Y-49868761D02*
X33478571Y-49868761D01*
X33478571Y-49868761D02*
X33402381Y-49906857D01*
X33745238Y-50364000D02*
X33669047Y-50402095D01*
X33669047Y-50402095D02*
X33478571Y-50402095D01*
X33478571Y-50402095D02*
X33402381Y-50364000D01*
X33402381Y-50364000D02*
X33364285Y-50287809D01*
X33364285Y-50287809D02*
X33364285Y-50211619D01*
X33364285Y-50211619D02*
X33402381Y-50135428D01*
X33402381Y-50135428D02*
X33478571Y-50097333D01*
X33478571Y-50097333D02*
X33669047Y-50097333D01*
X33669047Y-50097333D02*
X33745238Y-50059238D01*
X34126191Y-50402095D02*
X34126191Y-49868761D01*
X34126191Y-49944952D02*
X34164286Y-49906857D01*
X34164286Y-49906857D02*
X34240476Y-49868761D01*
X34240476Y-49868761D02*
X34354762Y-49868761D01*
X34354762Y-49868761D02*
X34430953Y-49906857D01*
X34430953Y-49906857D02*
X34469048Y-49983047D01*
X34469048Y-49983047D02*
X34469048Y-50402095D01*
X34469048Y-49983047D02*
X34507143Y-49906857D01*
X34507143Y-49906857D02*
X34583334Y-49868761D01*
X34583334Y-49868761D02*
X34697619Y-49868761D01*
X34697619Y-49868761D02*
X34773810Y-49906857D01*
X34773810Y-49906857D02*
X34811905Y-49983047D01*
X34811905Y-49983047D02*
X34811905Y-50402095D01*
X36069048Y-49983047D02*
X36183334Y-50021142D01*
X36183334Y-50021142D02*
X36221429Y-50059238D01*
X36221429Y-50059238D02*
X36259525Y-50135428D01*
X36259525Y-50135428D02*
X36259525Y-50249714D01*
X36259525Y-50249714D02*
X36221429Y-50325904D01*
X36221429Y-50325904D02*
X36183334Y-50364000D01*
X36183334Y-50364000D02*
X36107144Y-50402095D01*
X36107144Y-50402095D02*
X35802382Y-50402095D01*
X35802382Y-50402095D02*
X35802382Y-49602095D01*
X35802382Y-49602095D02*
X36069048Y-49602095D01*
X36069048Y-49602095D02*
X36145239Y-49640190D01*
X36145239Y-49640190D02*
X36183334Y-49678285D01*
X36183334Y-49678285D02*
X36221429Y-49754476D01*
X36221429Y-49754476D02*
X36221429Y-49830666D01*
X36221429Y-49830666D02*
X36183334Y-49906857D01*
X36183334Y-49906857D02*
X36145239Y-49944952D01*
X36145239Y-49944952D02*
X36069048Y-49983047D01*
X36069048Y-49983047D02*
X35802382Y-49983047D01*
X36945239Y-50402095D02*
X36945239Y-49983047D01*
X36945239Y-49983047D02*
X36907144Y-49906857D01*
X36907144Y-49906857D02*
X36830953Y-49868761D01*
X36830953Y-49868761D02*
X36678572Y-49868761D01*
X36678572Y-49868761D02*
X36602382Y-49906857D01*
X36945239Y-50364000D02*
X36869048Y-50402095D01*
X36869048Y-50402095D02*
X36678572Y-50402095D01*
X36678572Y-50402095D02*
X36602382Y-50364000D01*
X36602382Y-50364000D02*
X36564286Y-50287809D01*
X36564286Y-50287809D02*
X36564286Y-50211619D01*
X36564286Y-50211619D02*
X36602382Y-50135428D01*
X36602382Y-50135428D02*
X36678572Y-50097333D01*
X36678572Y-50097333D02*
X36869048Y-50097333D01*
X36869048Y-50097333D02*
X36945239Y-50059238D01*
X37669049Y-50364000D02*
X37592858Y-50402095D01*
X37592858Y-50402095D02*
X37440477Y-50402095D01*
X37440477Y-50402095D02*
X37364287Y-50364000D01*
X37364287Y-50364000D02*
X37326192Y-50325904D01*
X37326192Y-50325904D02*
X37288096Y-50249714D01*
X37288096Y-50249714D02*
X37288096Y-50021142D01*
X37288096Y-50021142D02*
X37326192Y-49944952D01*
X37326192Y-49944952D02*
X37364287Y-49906857D01*
X37364287Y-49906857D02*
X37440477Y-49868761D01*
X37440477Y-49868761D02*
X37592858Y-49868761D01*
X37592858Y-49868761D02*
X37669049Y-49906857D01*
X38011906Y-50402095D02*
X38011906Y-49602095D01*
X38354763Y-50402095D02*
X38354763Y-49983047D01*
X38354763Y-49983047D02*
X38316668Y-49906857D01*
X38316668Y-49906857D02*
X38240477Y-49868761D01*
X38240477Y-49868761D02*
X38126191Y-49868761D01*
X38126191Y-49868761D02*
X38050001Y-49906857D01*
X38050001Y-49906857D02*
X38011906Y-49944952D01*
X58009523Y-18640190D02*
X57933333Y-18602095D01*
X57933333Y-18602095D02*
X57819047Y-18602095D01*
X57819047Y-18602095D02*
X57704761Y-18640190D01*
X57704761Y-18640190D02*
X57628571Y-18716380D01*
X57628571Y-18716380D02*
X57590476Y-18792571D01*
X57590476Y-18792571D02*
X57552380Y-18944952D01*
X57552380Y-18944952D02*
X57552380Y-19059238D01*
X57552380Y-19059238D02*
X57590476Y-19211619D01*
X57590476Y-19211619D02*
X57628571Y-19287809D01*
X57628571Y-19287809D02*
X57704761Y-19364000D01*
X57704761Y-19364000D02*
X57819047Y-19402095D01*
X57819047Y-19402095D02*
X57895238Y-19402095D01*
X57895238Y-19402095D02*
X58009523Y-19364000D01*
X58009523Y-19364000D02*
X58047619Y-19325904D01*
X58047619Y-19325904D02*
X58047619Y-19059238D01*
X58047619Y-19059238D02*
X57895238Y-19059238D01*
X58390476Y-19402095D02*
X58390476Y-18602095D01*
X58390476Y-18602095D02*
X58847619Y-19402095D01*
X58847619Y-19402095D02*
X58847619Y-18602095D01*
X59190475Y-19364000D02*
X59304761Y-19402095D01*
X59304761Y-19402095D02*
X59495237Y-19402095D01*
X59495237Y-19402095D02*
X59571428Y-19364000D01*
X59571428Y-19364000D02*
X59609523Y-19325904D01*
X59609523Y-19325904D02*
X59647618Y-19249714D01*
X59647618Y-19249714D02*
X59647618Y-19173523D01*
X59647618Y-19173523D02*
X59609523Y-19097333D01*
X59609523Y-19097333D02*
X59571428Y-19059238D01*
X59571428Y-19059238D02*
X59495237Y-19021142D01*
X59495237Y-19021142D02*
X59342856Y-18983047D01*
X59342856Y-18983047D02*
X59266666Y-18944952D01*
X59266666Y-18944952D02*
X59228571Y-18906857D01*
X59228571Y-18906857D02*
X59190475Y-18830666D01*
X59190475Y-18830666D02*
X59190475Y-18754476D01*
X59190475Y-18754476D02*
X59228571Y-18678285D01*
X59228571Y-18678285D02*
X59266666Y-18640190D01*
X59266666Y-18640190D02*
X59342856Y-18602095D01*
X59342856Y-18602095D02*
X59533333Y-18602095D01*
X59533333Y-18602095D02*
X59647618Y-18640190D01*
X59952380Y-19364000D02*
X60066666Y-19402095D01*
X60066666Y-19402095D02*
X60257142Y-19402095D01*
X60257142Y-19402095D02*
X60333333Y-19364000D01*
X60333333Y-19364000D02*
X60371428Y-19325904D01*
X60371428Y-19325904D02*
X60409523Y-19249714D01*
X60409523Y-19249714D02*
X60409523Y-19173523D01*
X60409523Y-19173523D02*
X60371428Y-19097333D01*
X60371428Y-19097333D02*
X60333333Y-19059238D01*
X60333333Y-19059238D02*
X60257142Y-19021142D01*
X60257142Y-19021142D02*
X60104761Y-18983047D01*
X60104761Y-18983047D02*
X60028571Y-18944952D01*
X60028571Y-18944952D02*
X59990476Y-18906857D01*
X59990476Y-18906857D02*
X59952380Y-18830666D01*
X59952380Y-18830666D02*
X59952380Y-18754476D01*
X59952380Y-18754476D02*
X59990476Y-18678285D01*
X59990476Y-18678285D02*
X60028571Y-18640190D01*
X60028571Y-18640190D02*
X60104761Y-18602095D01*
X60104761Y-18602095D02*
X60295238Y-18602095D01*
X60295238Y-18602095D02*
X60409523Y-18640190D01*
%TO.C,J3*%
X30620095Y-27976189D02*
X31267714Y-27976189D01*
X31267714Y-27976189D02*
X31343904Y-27938094D01*
X31343904Y-27938094D02*
X31382000Y-27899999D01*
X31382000Y-27899999D02*
X31420095Y-27823808D01*
X31420095Y-27823808D02*
X31420095Y-27671427D01*
X31420095Y-27671427D02*
X31382000Y-27595237D01*
X31382000Y-27595237D02*
X31343904Y-27557142D01*
X31343904Y-27557142D02*
X31267714Y-27519046D01*
X31267714Y-27519046D02*
X30620095Y-27519046D01*
X31191523Y-27176190D02*
X31191523Y-26795237D01*
X31420095Y-27252380D02*
X30620095Y-26985713D01*
X30620095Y-26985713D02*
X31420095Y-26719047D01*
X31420095Y-25995237D02*
X31039142Y-26261904D01*
X31420095Y-26452380D02*
X30620095Y-26452380D01*
X30620095Y-26452380D02*
X30620095Y-26147618D01*
X30620095Y-26147618D02*
X30658190Y-26071428D01*
X30658190Y-26071428D02*
X30696285Y-26033333D01*
X30696285Y-26033333D02*
X30772476Y-25995237D01*
X30772476Y-25995237D02*
X30886761Y-25995237D01*
X30886761Y-25995237D02*
X30962952Y-26033333D01*
X30962952Y-26033333D02*
X31001047Y-26071428D01*
X31001047Y-26071428D02*
X31039142Y-26147618D01*
X31039142Y-26147618D02*
X31039142Y-26452380D01*
X30620095Y-25766666D02*
X30620095Y-25309523D01*
X31420095Y-25538095D02*
X30620095Y-25538095D01*
%TO.C,TP7*%
X57611904Y-32708190D02*
X57535714Y-32670095D01*
X57535714Y-32670095D02*
X57421428Y-32670095D01*
X57421428Y-32670095D02*
X57307142Y-32708190D01*
X57307142Y-32708190D02*
X57230952Y-32784380D01*
X57230952Y-32784380D02*
X57192857Y-32860571D01*
X57192857Y-32860571D02*
X57154761Y-33012952D01*
X57154761Y-33012952D02*
X57154761Y-33127238D01*
X57154761Y-33127238D02*
X57192857Y-33279619D01*
X57192857Y-33279619D02*
X57230952Y-33355809D01*
X57230952Y-33355809D02*
X57307142Y-33432000D01*
X57307142Y-33432000D02*
X57421428Y-33470095D01*
X57421428Y-33470095D02*
X57497619Y-33470095D01*
X57497619Y-33470095D02*
X57611904Y-33432000D01*
X57611904Y-33432000D02*
X57650000Y-33393904D01*
X57650000Y-33393904D02*
X57650000Y-33127238D01*
X57650000Y-33127238D02*
X57497619Y-33127238D01*
X57802381Y-33546285D02*
X58411904Y-33546285D01*
X59059524Y-33470095D02*
X58792857Y-33089142D01*
X58602381Y-33470095D02*
X58602381Y-32670095D01*
X58602381Y-32670095D02*
X58907143Y-32670095D01*
X58907143Y-32670095D02*
X58983333Y-32708190D01*
X58983333Y-32708190D02*
X59021428Y-32746285D01*
X59021428Y-32746285D02*
X59059524Y-32822476D01*
X59059524Y-32822476D02*
X59059524Y-32936761D01*
X59059524Y-32936761D02*
X59021428Y-33012952D01*
X59021428Y-33012952D02*
X58983333Y-33051047D01*
X58983333Y-33051047D02*
X58907143Y-33089142D01*
X58907143Y-33089142D02*
X58602381Y-33089142D01*
X59402381Y-33051047D02*
X59669047Y-33051047D01*
X59783333Y-33470095D02*
X59402381Y-33470095D01*
X59402381Y-33470095D02*
X59402381Y-32670095D01*
X59402381Y-32670095D02*
X59783333Y-32670095D01*
X60088095Y-33432000D02*
X60202381Y-33470095D01*
X60202381Y-33470095D02*
X60392857Y-33470095D01*
X60392857Y-33470095D02*
X60469048Y-33432000D01*
X60469048Y-33432000D02*
X60507143Y-33393904D01*
X60507143Y-33393904D02*
X60545238Y-33317714D01*
X60545238Y-33317714D02*
X60545238Y-33241523D01*
X60545238Y-33241523D02*
X60507143Y-33165333D01*
X60507143Y-33165333D02*
X60469048Y-33127238D01*
X60469048Y-33127238D02*
X60392857Y-33089142D01*
X60392857Y-33089142D02*
X60240476Y-33051047D01*
X60240476Y-33051047D02*
X60164286Y-33012952D01*
X60164286Y-33012952D02*
X60126191Y-32974857D01*
X60126191Y-32974857D02*
X60088095Y-32898666D01*
X60088095Y-32898666D02*
X60088095Y-32822476D01*
X60088095Y-32822476D02*
X60126191Y-32746285D01*
X60126191Y-32746285D02*
X60164286Y-32708190D01*
X60164286Y-32708190D02*
X60240476Y-32670095D01*
X60240476Y-32670095D02*
X60430953Y-32670095D01*
X60430953Y-32670095D02*
X60545238Y-32708190D01*
%TO.C,TP8*%
X57597619Y-33770095D02*
X57864286Y-34570095D01*
X57864286Y-34570095D02*
X58130952Y-33770095D01*
X58778571Y-34570095D02*
X58397619Y-34570095D01*
X58397619Y-34570095D02*
X58397619Y-33770095D01*
X59045238Y-34151047D02*
X59311904Y-34151047D01*
X59426190Y-34570095D02*
X59045238Y-34570095D01*
X59045238Y-34570095D02*
X59045238Y-33770095D01*
X59045238Y-33770095D02*
X59426190Y-33770095D01*
X59769048Y-34570095D02*
X59769048Y-33770095D01*
X59769048Y-33770095D02*
X59959524Y-33770095D01*
X59959524Y-33770095D02*
X60073810Y-33808190D01*
X60073810Y-33808190D02*
X60150000Y-33884380D01*
X60150000Y-33884380D02*
X60188095Y-33960571D01*
X60188095Y-33960571D02*
X60226191Y-34112952D01*
X60226191Y-34112952D02*
X60226191Y-34227238D01*
X60226191Y-34227238D02*
X60188095Y-34379619D01*
X60188095Y-34379619D02*
X60150000Y-34455809D01*
X60150000Y-34455809D02*
X60073810Y-34532000D01*
X60073810Y-34532000D02*
X59959524Y-34570095D01*
X59959524Y-34570095D02*
X59769048Y-34570095D01*
%TO.C,TP4*%
X36932000Y-38002381D02*
X36970095Y-37888095D01*
X36970095Y-37888095D02*
X36970095Y-37697619D01*
X36970095Y-37697619D02*
X36932000Y-37621428D01*
X36932000Y-37621428D02*
X36893904Y-37583333D01*
X36893904Y-37583333D02*
X36817714Y-37545238D01*
X36817714Y-37545238D02*
X36741523Y-37545238D01*
X36741523Y-37545238D02*
X36665333Y-37583333D01*
X36665333Y-37583333D02*
X36627238Y-37621428D01*
X36627238Y-37621428D02*
X36589142Y-37697619D01*
X36589142Y-37697619D02*
X36551047Y-37850000D01*
X36551047Y-37850000D02*
X36512952Y-37926190D01*
X36512952Y-37926190D02*
X36474857Y-37964285D01*
X36474857Y-37964285D02*
X36398666Y-38002381D01*
X36398666Y-38002381D02*
X36322476Y-38002381D01*
X36322476Y-38002381D02*
X36246285Y-37964285D01*
X36246285Y-37964285D02*
X36208190Y-37926190D01*
X36208190Y-37926190D02*
X36170095Y-37850000D01*
X36170095Y-37850000D02*
X36170095Y-37659523D01*
X36170095Y-37659523D02*
X36208190Y-37545238D01*
X36893904Y-36745237D02*
X36932000Y-36783333D01*
X36932000Y-36783333D02*
X36970095Y-36897618D01*
X36970095Y-36897618D02*
X36970095Y-36973809D01*
X36970095Y-36973809D02*
X36932000Y-37088095D01*
X36932000Y-37088095D02*
X36855809Y-37164285D01*
X36855809Y-37164285D02*
X36779619Y-37202380D01*
X36779619Y-37202380D02*
X36627238Y-37240476D01*
X36627238Y-37240476D02*
X36512952Y-37240476D01*
X36512952Y-37240476D02*
X36360571Y-37202380D01*
X36360571Y-37202380D02*
X36284380Y-37164285D01*
X36284380Y-37164285D02*
X36208190Y-37088095D01*
X36208190Y-37088095D02*
X36170095Y-36973809D01*
X36170095Y-36973809D02*
X36170095Y-36897618D01*
X36170095Y-36897618D02*
X36208190Y-36783333D01*
X36208190Y-36783333D02*
X36246285Y-36745237D01*
X36970095Y-36021428D02*
X36970095Y-36402380D01*
X36970095Y-36402380D02*
X36170095Y-36402380D01*
%TO.C,TP5*%
X27578571Y-45970095D02*
X27845238Y-46770095D01*
X27845238Y-46770095D02*
X28111904Y-45970095D01*
X28340475Y-46732000D02*
X28454761Y-46770095D01*
X28454761Y-46770095D02*
X28645237Y-46770095D01*
X28645237Y-46770095D02*
X28721428Y-46732000D01*
X28721428Y-46732000D02*
X28759523Y-46693904D01*
X28759523Y-46693904D02*
X28797618Y-46617714D01*
X28797618Y-46617714D02*
X28797618Y-46541523D01*
X28797618Y-46541523D02*
X28759523Y-46465333D01*
X28759523Y-46465333D02*
X28721428Y-46427238D01*
X28721428Y-46427238D02*
X28645237Y-46389142D01*
X28645237Y-46389142D02*
X28492856Y-46351047D01*
X28492856Y-46351047D02*
X28416666Y-46312952D01*
X28416666Y-46312952D02*
X28378571Y-46274857D01*
X28378571Y-46274857D02*
X28340475Y-46198666D01*
X28340475Y-46198666D02*
X28340475Y-46122476D01*
X28340475Y-46122476D02*
X28378571Y-46046285D01*
X28378571Y-46046285D02*
X28416666Y-46008190D01*
X28416666Y-46008190D02*
X28492856Y-45970095D01*
X28492856Y-45970095D02*
X28683333Y-45970095D01*
X28683333Y-45970095D02*
X28797618Y-46008190D01*
X29292857Y-46389142D02*
X29292857Y-46770095D01*
X29026190Y-45970095D02*
X29292857Y-46389142D01*
X29292857Y-46389142D02*
X29559523Y-45970095D01*
X29788094Y-46732000D02*
X29902380Y-46770095D01*
X29902380Y-46770095D02*
X30092856Y-46770095D01*
X30092856Y-46770095D02*
X30169047Y-46732000D01*
X30169047Y-46732000D02*
X30207142Y-46693904D01*
X30207142Y-46693904D02*
X30245237Y-46617714D01*
X30245237Y-46617714D02*
X30245237Y-46541523D01*
X30245237Y-46541523D02*
X30207142Y-46465333D01*
X30207142Y-46465333D02*
X30169047Y-46427238D01*
X30169047Y-46427238D02*
X30092856Y-46389142D01*
X30092856Y-46389142D02*
X29940475Y-46351047D01*
X29940475Y-46351047D02*
X29864285Y-46312952D01*
X29864285Y-46312952D02*
X29826190Y-46274857D01*
X29826190Y-46274857D02*
X29788094Y-46198666D01*
X29788094Y-46198666D02*
X29788094Y-46122476D01*
X29788094Y-46122476D02*
X29826190Y-46046285D01*
X29826190Y-46046285D02*
X29864285Y-46008190D01*
X29864285Y-46008190D02*
X29940475Y-45970095D01*
X29940475Y-45970095D02*
X30130952Y-45970095D01*
X30130952Y-45970095D02*
X30245237Y-46008190D01*
%TO.C,TP3*%
X35382000Y-38021428D02*
X35420095Y-37907142D01*
X35420095Y-37907142D02*
X35420095Y-37716666D01*
X35420095Y-37716666D02*
X35382000Y-37640475D01*
X35382000Y-37640475D02*
X35343904Y-37602380D01*
X35343904Y-37602380D02*
X35267714Y-37564285D01*
X35267714Y-37564285D02*
X35191523Y-37564285D01*
X35191523Y-37564285D02*
X35115333Y-37602380D01*
X35115333Y-37602380D02*
X35077238Y-37640475D01*
X35077238Y-37640475D02*
X35039142Y-37716666D01*
X35039142Y-37716666D02*
X35001047Y-37869047D01*
X35001047Y-37869047D02*
X34962952Y-37945237D01*
X34962952Y-37945237D02*
X34924857Y-37983332D01*
X34924857Y-37983332D02*
X34848666Y-38021428D01*
X34848666Y-38021428D02*
X34772476Y-38021428D01*
X34772476Y-38021428D02*
X34696285Y-37983332D01*
X34696285Y-37983332D02*
X34658190Y-37945237D01*
X34658190Y-37945237D02*
X34620095Y-37869047D01*
X34620095Y-37869047D02*
X34620095Y-37678570D01*
X34620095Y-37678570D02*
X34658190Y-37564285D01*
X35420095Y-37221427D02*
X34620095Y-37221427D01*
X34620095Y-37221427D02*
X34620095Y-37030951D01*
X34620095Y-37030951D02*
X34658190Y-36916665D01*
X34658190Y-36916665D02*
X34734380Y-36840475D01*
X34734380Y-36840475D02*
X34810571Y-36802380D01*
X34810571Y-36802380D02*
X34962952Y-36764284D01*
X34962952Y-36764284D02*
X35077238Y-36764284D01*
X35077238Y-36764284D02*
X35229619Y-36802380D01*
X35229619Y-36802380D02*
X35305809Y-36840475D01*
X35305809Y-36840475D02*
X35382000Y-36916665D01*
X35382000Y-36916665D02*
X35420095Y-37030951D01*
X35420095Y-37030951D02*
X35420095Y-37221427D01*
X35191523Y-36459523D02*
X35191523Y-36078570D01*
X35420095Y-36535713D02*
X34620095Y-36269046D01*
X34620095Y-36269046D02*
X35420095Y-36002380D01*
%TO.C,TP2*%
X40885714Y-48720095D02*
X41152381Y-49520095D01*
X41152381Y-49520095D02*
X41419047Y-48720095D01*
X41952380Y-49101047D02*
X42066666Y-49139142D01*
X42066666Y-49139142D02*
X42104761Y-49177238D01*
X42104761Y-49177238D02*
X42142857Y-49253428D01*
X42142857Y-49253428D02*
X42142857Y-49367714D01*
X42142857Y-49367714D02*
X42104761Y-49443904D01*
X42104761Y-49443904D02*
X42066666Y-49482000D01*
X42066666Y-49482000D02*
X41990476Y-49520095D01*
X41990476Y-49520095D02*
X41685714Y-49520095D01*
X41685714Y-49520095D02*
X41685714Y-48720095D01*
X41685714Y-48720095D02*
X41952380Y-48720095D01*
X41952380Y-48720095D02*
X42028571Y-48758190D01*
X42028571Y-48758190D02*
X42066666Y-48796285D01*
X42066666Y-48796285D02*
X42104761Y-48872476D01*
X42104761Y-48872476D02*
X42104761Y-48948666D01*
X42104761Y-48948666D02*
X42066666Y-49024857D01*
X42066666Y-49024857D02*
X42028571Y-49062952D01*
X42028571Y-49062952D02*
X41952380Y-49101047D01*
X41952380Y-49101047D02*
X41685714Y-49101047D01*
X42447618Y-49291523D02*
X42828571Y-49291523D01*
X42371428Y-49520095D02*
X42638095Y-48720095D01*
X42638095Y-48720095D02*
X42904761Y-49520095D01*
X43057142Y-48720095D02*
X43514285Y-48720095D01*
X43285713Y-49520095D02*
X43285713Y-48720095D01*
%TO.C,TP6*%
X50959523Y-43370095D02*
X51454761Y-43370095D01*
X51454761Y-43370095D02*
X51188095Y-43674857D01*
X51188095Y-43674857D02*
X51302380Y-43674857D01*
X51302380Y-43674857D02*
X51378571Y-43712952D01*
X51378571Y-43712952D02*
X51416666Y-43751047D01*
X51416666Y-43751047D02*
X51454761Y-43827238D01*
X51454761Y-43827238D02*
X51454761Y-44017714D01*
X51454761Y-44017714D02*
X51416666Y-44093904D01*
X51416666Y-44093904D02*
X51378571Y-44132000D01*
X51378571Y-44132000D02*
X51302380Y-44170095D01*
X51302380Y-44170095D02*
X51073809Y-44170095D01*
X51073809Y-44170095D02*
X50997618Y-44132000D01*
X50997618Y-44132000D02*
X50959523Y-44093904D01*
X51683333Y-43370095D02*
X51950000Y-44170095D01*
X51950000Y-44170095D02*
X52216666Y-43370095D01*
X52407142Y-43370095D02*
X52902380Y-43370095D01*
X52902380Y-43370095D02*
X52635714Y-43674857D01*
X52635714Y-43674857D02*
X52749999Y-43674857D01*
X52749999Y-43674857D02*
X52826190Y-43712952D01*
X52826190Y-43712952D02*
X52864285Y-43751047D01*
X52864285Y-43751047D02*
X52902380Y-43827238D01*
X52902380Y-43827238D02*
X52902380Y-44017714D01*
X52902380Y-44017714D02*
X52864285Y-44093904D01*
X52864285Y-44093904D02*
X52826190Y-44132000D01*
X52826190Y-44132000D02*
X52749999Y-44170095D01*
X52749999Y-44170095D02*
X52521428Y-44170095D01*
X52521428Y-44170095D02*
X52445237Y-44132000D01*
X52445237Y-44132000D02*
X52407142Y-44093904D01*
%TO.C,TP1*%
X51340476Y-39708190D02*
X51264286Y-39670095D01*
X51264286Y-39670095D02*
X51150000Y-39670095D01*
X51150000Y-39670095D02*
X51035714Y-39708190D01*
X51035714Y-39708190D02*
X50959524Y-39784380D01*
X50959524Y-39784380D02*
X50921429Y-39860571D01*
X50921429Y-39860571D02*
X50883333Y-40012952D01*
X50883333Y-40012952D02*
X50883333Y-40127238D01*
X50883333Y-40127238D02*
X50921429Y-40279619D01*
X50921429Y-40279619D02*
X50959524Y-40355809D01*
X50959524Y-40355809D02*
X51035714Y-40432000D01*
X51035714Y-40432000D02*
X51150000Y-40470095D01*
X51150000Y-40470095D02*
X51226191Y-40470095D01*
X51226191Y-40470095D02*
X51340476Y-40432000D01*
X51340476Y-40432000D02*
X51378572Y-40393904D01*
X51378572Y-40393904D02*
X51378572Y-40127238D01*
X51378572Y-40127238D02*
X51226191Y-40127238D01*
X51721429Y-40470095D02*
X51721429Y-39670095D01*
X51721429Y-39670095D02*
X52178572Y-40470095D01*
X52178572Y-40470095D02*
X52178572Y-39670095D01*
X52559524Y-40470095D02*
X52559524Y-39670095D01*
X52559524Y-39670095D02*
X52750000Y-39670095D01*
X52750000Y-39670095D02*
X52864286Y-39708190D01*
X52864286Y-39708190D02*
X52940476Y-39784380D01*
X52940476Y-39784380D02*
X52978571Y-39860571D01*
X52978571Y-39860571D02*
X53016667Y-40012952D01*
X53016667Y-40012952D02*
X53016667Y-40127238D01*
X53016667Y-40127238D02*
X52978571Y-40279619D01*
X52978571Y-40279619D02*
X52940476Y-40355809D01*
X52940476Y-40355809D02*
X52864286Y-40432000D01*
X52864286Y-40432000D02*
X52750000Y-40470095D01*
X52750000Y-40470095D02*
X52559524Y-40470095D01*
D11*
%TO.C,R16*%
X56996359Y-46470000D02*
X57303641Y-46470000D01*
X56996359Y-47230000D02*
X57303641Y-47230000D01*
%TO.C,C25*%
X51757836Y-45960000D02*
X51542164Y-45960000D01*
X51757836Y-45240000D02*
X51542164Y-45240000D01*
%TO.C,Y2*%
X44775000Y-35725000D02*
X46125000Y-35725000D01*
X44775000Y-37475000D02*
X46125000Y-37475000D01*
%TO.C,C6*%
X57257836Y-38260000D02*
X57042164Y-38260000D01*
X57257836Y-37540000D02*
X57042164Y-37540000D01*
%TO.C,J1*%
X29500000Y-32830000D02*
X31300000Y-32830000D01*
X27400000Y-32830000D02*
X26250000Y-32830000D01*
X29500000Y-42170000D02*
X31300000Y-42170000D01*
X27400000Y-42170000D02*
X26250000Y-42170000D01*
%TO.C,R14*%
X34080000Y-30996359D02*
X34080000Y-31303641D01*
X33320000Y-30996359D02*
X33320000Y-31303641D01*
%TO.C,R32*%
X45296359Y-37970000D02*
X45603641Y-37970000D01*
X45296359Y-38730000D02*
X45603641Y-38730000D01*
D12*
%TO.C,S1*%
X28790000Y-20900000D02*
X28600000Y-20900000D01*
X29600000Y-22850000D02*
X29600000Y-25150000D01*
X28790000Y-27100000D02*
X28600000Y-27100000D01*
D13*
X30250000Y-20300000D02*
G75*
G03*
X30250000Y-20300000I-100000J0D01*
G01*
D11*
%TO.C,C10*%
X49842164Y-53440000D02*
X50057836Y-53440000D01*
X49842164Y-54160000D02*
X50057836Y-54160000D01*
D10*
%TO.C,U3*%
X50600000Y-29200000D02*
X50600000Y-29200000D01*
X50700000Y-29200000D02*
X50700000Y-29200000D01*
X50700000Y-29200000D02*
G75*
G03*
X50600000Y-29200000I-50000J0D01*
G01*
X50600000Y-29200000D02*
G75*
G03*
X50700000Y-29200000I50000J0D01*
G01*
D11*
%TO.C,C2*%
X55509420Y-51240000D02*
X55790580Y-51240000D01*
X55509420Y-52260000D02*
X55790580Y-52260000D01*
%TO.C,R15*%
X38380000Y-30996359D02*
X38380000Y-31303641D01*
X37620000Y-30996359D02*
X37620000Y-31303641D01*
%TO.C,C34*%
X39940000Y-24957836D02*
X39940000Y-24742164D01*
X40660000Y-24957836D02*
X40660000Y-24742164D01*
%TO.C,J3*%
X34855000Y-28775000D02*
X34220000Y-28775000D01*
X34855000Y-28140000D02*
X34855000Y-28775000D01*
D12*
%TO.C,ANT1*%
X34300000Y-19500000D02*
X32300000Y-19500000D01*
X34300000Y-17900000D02*
X32300000Y-17900000D01*
D13*
X30995000Y-19120000D02*
G75*
G03*
X30995000Y-19120000I-100000J0D01*
G01*
D11*
%TO.C,C12*%
X40990000Y-24957836D02*
X40990000Y-24742164D01*
X41710000Y-24957836D02*
X41710000Y-24742164D01*
%TO.C,TH1*%
X47577500Y-39887258D02*
X47577500Y-39412742D01*
X48622500Y-39887258D02*
X48622500Y-39412742D01*
%TO.C,TP7*%
X59500000Y-31950000D02*
G75*
G03*
X59500000Y-31950000I-350000J0D01*
G01*
%TO.C,C36*%
X58090000Y-28907836D02*
X58090000Y-28692164D01*
X58810000Y-28907836D02*
X58810000Y-28692164D01*
D13*
%TO.C,U8*%
X54375000Y-47500000D02*
X54850000Y-47500000D01*
X55200000Y-47600000D02*
X55700000Y-47600000D01*
X55200000Y-49700000D02*
X55200000Y-47600000D01*
X55700000Y-47600000D02*
X55700000Y-49700000D01*
X55700000Y-49700000D02*
X55200000Y-49700000D01*
D11*
%TO.C,R12*%
X31296359Y-47270000D02*
X31603641Y-47270000D01*
X31296359Y-48030000D02*
X31603641Y-48030000D01*
%TO.C,TP8*%
X59300000Y-35350000D02*
G75*
G03*
X59300000Y-35350000I-350000J0D01*
G01*
%TO.C,R30*%
X60030000Y-43996359D02*
X60030000Y-44303641D01*
X59270000Y-43996359D02*
X59270000Y-44303641D01*
D12*
%TO.C,S4*%
X59260000Y-54100000D02*
X59450000Y-54100000D01*
X58450000Y-52150000D02*
X58450000Y-49850000D01*
X59260000Y-47900000D02*
X59450000Y-47900000D01*
D13*
X58000000Y-54700000D02*
G75*
G03*
X58000000Y-54700000I-100000J0D01*
G01*
D12*
%TO.C,ANT2*%
X55700000Y-19500000D02*
X53700000Y-19500000D01*
X55700000Y-17900000D02*
X53700000Y-17900000D01*
D13*
X52395000Y-19120000D02*
G75*
G03*
X52395000Y-19120000I-100000J0D01*
G01*
D11*
%TO.C,R11*%
X58780000Y-55746359D02*
X58780000Y-56053641D01*
X58020000Y-55746359D02*
X58020000Y-56053641D01*
%TO.C,C11*%
X49842164Y-54540000D02*
X50057836Y-54540000D01*
X49842164Y-55260000D02*
X50057836Y-55260000D01*
%TO.C,R29*%
X35670000Y-26253641D02*
X35670000Y-25946359D01*
X36430000Y-26253641D02*
X36430000Y-25946359D01*
%TO.C,R2*%
X38253641Y-33230000D02*
X37946359Y-33230000D01*
X38253641Y-32470000D02*
X37946359Y-32470000D01*
%TO.C,C44*%
X37340000Y-25157836D02*
X37340000Y-24942164D01*
X38060000Y-25157836D02*
X38060000Y-24942164D01*
%TO.C,U11*%
X60260000Y-40712500D02*
X60260000Y-38912500D01*
X60260000Y-40712500D02*
X60260000Y-41512500D01*
X57140000Y-40712500D02*
X57140000Y-39912500D01*
X57140000Y-40712500D02*
X57140000Y-41512500D01*
%TO.C,U6*%
X44740000Y-51860000D02*
X44740000Y-51385000D01*
X45215000Y-48640000D02*
X44740000Y-48640000D01*
X45215000Y-51860000D02*
X44740000Y-51860000D01*
X47485000Y-48640000D02*
X47960000Y-48640000D01*
X47485000Y-51860000D02*
X47960000Y-51860000D01*
X47960000Y-48640000D02*
X47960000Y-49115000D01*
X47960000Y-51860000D02*
X47960000Y-51385000D01*
%TO.C,U9*%
X30750000Y-30400000D02*
X29350000Y-30400000D01*
X30550000Y-28500000D02*
X29350000Y-28500000D01*
%TO.C,R10*%
X59930000Y-28646359D02*
X59930000Y-28953641D01*
X59170000Y-28646359D02*
X59170000Y-28953641D01*
%TO.C,C46*%
X51507836Y-22560000D02*
X51292164Y-22560000D01*
X51507836Y-21840000D02*
X51292164Y-21840000D01*
%TO.C,TP4*%
X36950000Y-38700000D02*
G75*
G03*
X36950000Y-38700000I-350000J0D01*
G01*
%TO.C,C17*%
X28510000Y-30342164D02*
X28510000Y-30557836D01*
X27790000Y-30342164D02*
X27790000Y-30557836D01*
%TO.C,C31*%
X46742164Y-42590000D02*
X46957836Y-42590000D01*
X46742164Y-43310000D02*
X46957836Y-43310000D01*
D12*
%TO.C,U5*%
X42000000Y-44250000D02*
X42000000Y-44542500D01*
X41957500Y-44250000D02*
X42000000Y-44250000D01*
X40000000Y-44250000D02*
X40042500Y-44250000D01*
X40000000Y-44250000D02*
X40000000Y-44542500D01*
X42000000Y-45957500D02*
X42000000Y-46250000D01*
X42000000Y-46250000D02*
X41957500Y-46250000D01*
X40042500Y-46250000D02*
X40000000Y-46250000D01*
X40000000Y-46250000D02*
X40000000Y-45957500D01*
D13*
X42687500Y-45500000D02*
G75*
G03*
X42687500Y-45500000I-100000J0D01*
G01*
D11*
%TO.C,C29*%
X52810000Y-30342164D02*
X52810000Y-30557836D01*
X52090000Y-30342164D02*
X52090000Y-30557836D01*
%TO.C,R25*%
X35970000Y-33553641D02*
X35970000Y-33246359D01*
X36730000Y-33553641D02*
X36730000Y-33246359D01*
%TO.C,C41*%
X42507836Y-36960000D02*
X42292164Y-36960000D01*
X42507836Y-36240000D02*
X42292164Y-36240000D01*
D13*
%TO.C,Y1*%
X45550000Y-24950000D02*
G75*
G03*
X45550000Y-24950000I-100000J0D01*
G01*
D11*
%TO.C,TP5*%
X28900000Y-45200000D02*
G75*
G03*
X28900000Y-45200000I-350000J0D01*
G01*
%TO.C,C40*%
X45440000Y-24257836D02*
X45440000Y-24042164D01*
X46160000Y-24257836D02*
X46160000Y-24042164D01*
%TO.C,C16*%
X58340000Y-37707836D02*
X58340000Y-37492164D01*
X59060000Y-37707836D02*
X59060000Y-37492164D01*
%TO.C,C30*%
X56642164Y-27640000D02*
X56857836Y-27640000D01*
X56642164Y-28360000D02*
X56857836Y-28360000D01*
%TO.C,C27*%
X43142164Y-45690000D02*
X43357836Y-45690000D01*
X43142164Y-46410000D02*
X43357836Y-46410000D01*
%TO.C,C47*%
X51540000Y-18807836D02*
X51540000Y-18592164D01*
X52260000Y-18807836D02*
X52260000Y-18592164D01*
%TO.C,L2*%
X56560000Y-40122936D02*
X56560000Y-41327064D01*
X53840000Y-40122936D02*
X53840000Y-41327064D01*
%TO.C,R24*%
X34920000Y-33553641D02*
X34920000Y-33246359D01*
X35680000Y-33553641D02*
X35680000Y-33246359D01*
D12*
%TO.C,S3*%
X59260000Y-27100000D02*
X59450000Y-27100000D01*
X58450000Y-25150000D02*
X58450000Y-22850000D01*
X59260000Y-20900000D02*
X59450000Y-20900000D01*
D13*
X58000000Y-27700000D02*
G75*
G03*
X58000000Y-27700000I-100000J0D01*
G01*
D11*
%TO.C,R3*%
X38253641Y-34280000D02*
X37946359Y-34280000D01*
X38253641Y-33520000D02*
X37946359Y-33520000D01*
%TO.C,R28*%
X51570000Y-52553641D02*
X51570000Y-52246359D01*
X52330000Y-52553641D02*
X52330000Y-52246359D01*
%TO.C,C9*%
X48357836Y-35110000D02*
X48142164Y-35110000D01*
X48357836Y-34390000D02*
X48142164Y-34390000D01*
%TO.C,C42*%
X47690000Y-36457836D02*
X47690000Y-36242164D01*
X48410000Y-36457836D02*
X48410000Y-36242164D01*
%TO.C,R1*%
X54946359Y-46470000D02*
X55253641Y-46470000D01*
X54946359Y-47230000D02*
X55253641Y-47230000D01*
%TO.C,C28*%
X41892164Y-46690000D02*
X42107836Y-46690000D01*
X41892164Y-47410000D02*
X42107836Y-47410000D01*
%TO.C,TP3*%
X35400000Y-38700000D02*
G75*
G03*
X35400000Y-38700000I-350000J0D01*
G01*
%TO.C,C3*%
X44110000Y-50742164D02*
X44110000Y-50957836D01*
X43390000Y-50742164D02*
X43390000Y-50957836D01*
%TO.C,TP2*%
X42550000Y-50350000D02*
G75*
G03*
X42550000Y-50350000I-350000J0D01*
G01*
%TO.C,C43*%
X38440000Y-25157836D02*
X38440000Y-24942164D01*
X39160000Y-25157836D02*
X39160000Y-24942164D01*
%TO.C,R21*%
X44970000Y-47203641D02*
X44970000Y-46896359D01*
X45730000Y-47203641D02*
X45730000Y-46896359D01*
%TO.C,C38*%
X31557836Y-49060000D02*
X31342164Y-49060000D01*
X31557836Y-48340000D02*
X31342164Y-48340000D01*
D10*
%TO.C,L1*%
X51900000Y-50750000D02*
X51900000Y-50750000D01*
X51900000Y-50650000D02*
X51900000Y-50650000D01*
X51900000Y-50650000D02*
G75*
G03*
X51900000Y-50750000I0J-50000D01*
G01*
X51900000Y-50750000D02*
G75*
G03*
X51900000Y-50650000I0J50000D01*
G01*
D11*
%TO.C,C33*%
X33010000Y-31042164D02*
X33010000Y-31257836D01*
X32290000Y-31042164D02*
X32290000Y-31257836D01*
%TO.C,C13*%
X47640000Y-47157836D02*
X47640000Y-46942164D01*
X48360000Y-47157836D02*
X48360000Y-46942164D01*
%TO.C,L6*%
X51520000Y-20843641D02*
X51520000Y-20536359D01*
X52280000Y-20843641D02*
X52280000Y-20536359D01*
D12*
%TO.C,S2*%
X28740000Y-47900000D02*
X28550000Y-47900000D01*
X29550000Y-49850000D02*
X29550000Y-52150000D01*
X28740000Y-54100000D02*
X28550000Y-54100000D01*
D13*
X30200000Y-47300000D02*
G75*
G03*
X30200000Y-47300000I-100000J0D01*
G01*
D11*
%TO.C,R26*%
X46470000Y-47203641D02*
X46470000Y-46896359D01*
X47230000Y-47203641D02*
X47230000Y-46896359D01*
%TO.C,C45*%
X38440000Y-19957836D02*
X38440000Y-19742164D01*
X39160000Y-19957836D02*
X39160000Y-19742164D01*
%TO.C,R17*%
X31220000Y-31303641D02*
X31220000Y-30996359D01*
X31980000Y-31303641D02*
X31980000Y-30996359D01*
%TO.C,R27*%
X48720000Y-48003641D02*
X48720000Y-47696359D01*
X49480000Y-48003641D02*
X49480000Y-47696359D01*
%TO.C,C1*%
X55638748Y-44565000D02*
X56161252Y-44565000D01*
X55638748Y-46035000D02*
X56161252Y-46035000D01*
%TO.C,C20*%
X46490000Y-24257836D02*
X46490000Y-24042164D01*
X47210000Y-24257836D02*
X47210000Y-24042164D01*
%TO.C,U7*%
X48450000Y-53750000D02*
X48450000Y-53900000D01*
X47850701Y-56547393D02*
X48750701Y-56547393D01*
X47850000Y-53750000D02*
X48450000Y-53750000D01*
X45650000Y-56550000D02*
X47050000Y-56550000D01*
X45650000Y-53750000D02*
X47050000Y-53750000D01*
X44850000Y-56550000D02*
X44250000Y-56550000D01*
X44250000Y-56550000D02*
X44250000Y-56400000D01*
X44250000Y-53750000D02*
X44850000Y-53750000D01*
X44250000Y-53750000D02*
X44250000Y-53900000D01*
%TO.C,C18*%
X51162164Y-37790000D02*
X51377836Y-37790000D01*
X51162164Y-38510000D02*
X51377836Y-38510000D01*
%TO.C,C8*%
X46742164Y-41540000D02*
X46957836Y-41540000D01*
X46742164Y-42260000D02*
X46957836Y-42260000D01*
%TO.C,C23*%
X54992164Y-50090000D02*
X55207836Y-50090000D01*
X54992164Y-50810000D02*
X55207836Y-50810000D01*
%TO.C,C37*%
X59140000Y-56007836D02*
X59140000Y-55792164D01*
X59860000Y-56007836D02*
X59860000Y-55792164D01*
%TO.C,R18*%
X42603641Y-57080000D02*
X42296359Y-57080000D01*
X42603641Y-56320000D02*
X42296359Y-56320000D01*
%TO.C,R6*%
X58596359Y-45370000D02*
X58903641Y-45370000D01*
X58596359Y-46130000D02*
X58903641Y-46130000D01*
%TO.C,C7*%
X51760000Y-30342164D02*
X51760000Y-30557836D01*
X51040000Y-30342164D02*
X51040000Y-30557836D01*
%TO.C,D3*%
X58060000Y-44050000D02*
X58060000Y-43250000D01*
X56700000Y-44050000D02*
X58060000Y-44050000D01*
X56700000Y-43250000D02*
X58060000Y-43250000D01*
D12*
%TO.C,U4*%
X42515000Y-39900000D02*
X43025000Y-39900000D01*
X42515000Y-42400000D02*
X43025000Y-42400000D01*
X45005000Y-39900000D02*
X45515000Y-39900000D01*
X45515000Y-42400000D02*
X45005000Y-42400000D01*
D13*
X42115000Y-40350000D02*
G75*
G03*
X42115000Y-40350000I-100000J0D01*
G01*
D11*
%TO.C,R33*%
X42780000Y-24696359D02*
X42780000Y-25003641D01*
X42020000Y-24696359D02*
X42020000Y-25003641D01*
%TO.C,C5*%
X49610000Y-52172164D02*
X49610000Y-52387836D01*
X48890000Y-52172164D02*
X48890000Y-52387836D01*
%TO.C,R13*%
X59470000Y-37753641D02*
X59470000Y-37446359D01*
X60230000Y-37753641D02*
X60230000Y-37446359D01*
%TO.C,R31*%
X43185000Y-54172936D02*
X43185000Y-54627064D01*
X41715000Y-54172936D02*
X41715000Y-54627064D01*
%TO.C,BT1*%
X40460000Y-55985000D02*
X39410000Y-55985000D01*
X40460000Y-53485000D02*
X40460000Y-55985000D01*
X39410000Y-55985000D02*
X39410000Y-56975000D01*
X39290000Y-51515000D02*
X37410000Y-51515000D01*
X36240000Y-55985000D02*
X37290000Y-55985000D01*
X36240000Y-53485000D02*
X36240000Y-55985000D01*
%TO.C,U2*%
X56450000Y-32190000D02*
X50450000Y-32190000D01*
X53450000Y-37410000D02*
X50450000Y-37410000D01*
%TO.C,C32*%
X43860000Y-43592164D02*
X43860000Y-43807836D01*
X43140000Y-43592164D02*
X43140000Y-43807836D01*
%TO.C,C39*%
X42107836Y-23610000D02*
X41892164Y-23610000D01*
X42107836Y-22890000D02*
X41892164Y-22890000D01*
%TO.C,D1*%
X51215000Y-56435000D02*
X52685000Y-56435000D01*
X52685000Y-56435000D02*
X52685000Y-54150000D01*
X51215000Y-54150000D02*
X51215000Y-56435000D01*
%TO.C,TP6*%
X52300000Y-42550000D02*
G75*
G03*
X52300000Y-42550000I-350000J0D01*
G01*
%TO.C,U1*%
X40390000Y-33660000D02*
X40390000Y-33010000D01*
X41040000Y-26440000D02*
X40390000Y-26440000D01*
X41040000Y-33660000D02*
X40390000Y-33660000D01*
X46960000Y-26440000D02*
X47610000Y-26440000D01*
X46960000Y-33660000D02*
X47610000Y-33660000D01*
X47610000Y-26440000D02*
X47610000Y-27090000D01*
X47610000Y-33660000D02*
X47610000Y-33010000D01*
%TO.C,TP1*%
X52300000Y-41250000D02*
G75*
G03*
X52300000Y-41250000I-350000J0D01*
G01*
%TD*%
M02*
