%TF.GenerationSoftware,KiCad,Pcbnew,7.0.2-0*%
%TF.CreationDate,2023-07-16T12:39:22-04:00*%
%TF.ProjectId,ESPWatchS3,45535057-6174-4636-9853-332e6b696361,rev?*%
%TF.SameCoordinates,Original*%
%TF.FileFunction,Drillmap*%
%TF.FilePolarity,Positive*%
%FSLAX45Y45*%
G04 Gerber Fmt 4.5, Leading zero omitted, Abs format (unit mm)*
G04 Created by KiCad (PCBNEW 7.0.2-0) date 2023-07-16 12:39:22*
%MOMM*%
%LPD*%
G01*
G04 APERTURE LIST*
%ADD10C,0.100000*%
%ADD11C,0.200000*%
%ADD12C,0.030000*%
%ADD13C,0.040000*%
%ADD14C,0.060000*%
G04 APERTURE END LIST*
D10*
X2700000Y-1750000D02*
X6100000Y-1750000D01*
X6100000Y-5750000D01*
X2700000Y-5750000D01*
X2700000Y-1750000D01*
D11*
D12*
X2800000Y-2980000D02*
X2830000Y-3010000D01*
X2830000Y-2980000D02*
X2800000Y-3010000D01*
X2820000Y-2880000D02*
X2850000Y-2910000D01*
X2850000Y-2880000D02*
X2820000Y-2910000D01*
X2930000Y-4505000D02*
X2960000Y-4535000D01*
X2960000Y-4505000D02*
X2930000Y-4535000D01*
X2935000Y-3140000D02*
X2965000Y-3170000D01*
X2965000Y-3140000D02*
X2935000Y-3170000D01*
X2945000Y-2160000D02*
X2975000Y-2190000D01*
X2975000Y-2160000D02*
X2945000Y-2190000D01*
X2945000Y-2725000D02*
X2975000Y-2755000D01*
X2975000Y-2725000D02*
X2945000Y-2755000D01*
X2950000Y-5315000D02*
X2980000Y-5345000D01*
X2980000Y-5315000D02*
X2950000Y-5345000D01*
X3035000Y-3142500D02*
X3065000Y-3172500D01*
X3065000Y-3142500D02*
X3035000Y-3172500D01*
X3040000Y-2245000D02*
X3070000Y-2275000D01*
X3070000Y-2245000D02*
X3040000Y-2275000D01*
X3079000Y-3910000D02*
X3109000Y-3940000D01*
X3109000Y-3910000D02*
X3079000Y-3940000D01*
X3080000Y-3610000D02*
X3110000Y-3640000D01*
X3110000Y-3610000D02*
X3080000Y-3640000D01*
X3085000Y-1770000D02*
X3115000Y-1800000D01*
X3115000Y-1770000D02*
X3085000Y-1800000D01*
X3085000Y-1825000D02*
X3115000Y-1855000D01*
X3115000Y-1825000D02*
X3085000Y-1855000D01*
X3085000Y-1880000D02*
X3115000Y-1910000D01*
X3115000Y-1880000D02*
X3085000Y-1910000D01*
X3085000Y-1935000D02*
X3115000Y-1965000D01*
X3115000Y-1935000D02*
X3085000Y-1965000D01*
X3085000Y-1990000D02*
X3115000Y-2020000D01*
X3115000Y-1990000D02*
X3085000Y-2020000D01*
X3085000Y-2045000D02*
X3115000Y-2075000D01*
X3115000Y-2045000D02*
X3085000Y-2075000D01*
X3085000Y-2100000D02*
X3115000Y-2130000D01*
X3115000Y-2100000D02*
X3085000Y-2130000D01*
X3085000Y-2155000D02*
X3115000Y-2185000D01*
X3115000Y-2155000D02*
X3085000Y-2185000D01*
X3085000Y-2210000D02*
X3115000Y-2240000D01*
X3115000Y-2210000D02*
X3085000Y-2240000D01*
X3085000Y-2265000D02*
X3115000Y-2295000D01*
X3115000Y-2265000D02*
X3085000Y-2295000D01*
X3085000Y-2320000D02*
X3115000Y-2350000D01*
X3115000Y-2320000D02*
X3085000Y-2350000D01*
X3145000Y-3150000D02*
X3175000Y-3180000D01*
X3175000Y-3150000D02*
X3145000Y-3180000D01*
X3160000Y-2980000D02*
X3190000Y-3010000D01*
X3190000Y-2980000D02*
X3160000Y-3010000D01*
X3178000Y-4855000D02*
X3208000Y-4885000D01*
X3208000Y-4855000D02*
X3178000Y-4885000D01*
X3181000Y-3610000D02*
X3211000Y-3640000D01*
X3211000Y-3610000D02*
X3181000Y-3640000D01*
X3181000Y-3910000D02*
X3211000Y-3940000D01*
X3211000Y-3910000D02*
X3181000Y-3940000D01*
X3185000Y-2672000D02*
X3215000Y-2702000D01*
X3215000Y-2672000D02*
X3185000Y-2702000D01*
X3190000Y-2545000D02*
X3220000Y-2575000D01*
X3220000Y-2545000D02*
X3190000Y-2575000D01*
X3250000Y-3150000D02*
X3280000Y-3180000D01*
X3280000Y-3150000D02*
X3250000Y-3180000D01*
X3270000Y-3415000D02*
X3300000Y-3445000D01*
X3300000Y-3415000D02*
X3270000Y-3445000D01*
X3270000Y-4055000D02*
X3300000Y-4085000D01*
X3300000Y-4055000D02*
X3270000Y-4085000D01*
X3300000Y-3495000D02*
X3330000Y-3525000D01*
X3330000Y-3495000D02*
X3300000Y-3525000D01*
X3300000Y-3975000D02*
X3330000Y-4005000D01*
X3330000Y-3975000D02*
X3300000Y-4005000D01*
X3335000Y-3415000D02*
X3365000Y-3445000D01*
X3365000Y-3415000D02*
X3335000Y-3445000D01*
X3335000Y-4055000D02*
X3365000Y-4085000D01*
X3365000Y-4055000D02*
X3335000Y-4085000D01*
X3355000Y-3150000D02*
X3385000Y-3180000D01*
X3385000Y-3150000D02*
X3355000Y-3180000D01*
X3450000Y-3376000D02*
X3480000Y-3406000D01*
X3480000Y-3376000D02*
X3450000Y-3406000D01*
X3495000Y-2799000D02*
X3525000Y-2829000D01*
X3525000Y-2799000D02*
X3495000Y-2829000D01*
X3515000Y-3274000D02*
X3545000Y-3304000D01*
X3545000Y-3274000D02*
X3515000Y-3304000D01*
X3515000Y-3955000D02*
X3545000Y-3985000D01*
X3545000Y-3955000D02*
X3515000Y-3985000D01*
X3535000Y-4495000D02*
X3565000Y-4525000D01*
X3565000Y-4495000D02*
X3535000Y-4525000D01*
X3545000Y-1770000D02*
X3575000Y-1800000D01*
X3575000Y-1770000D02*
X3545000Y-1800000D01*
X3545000Y-1825000D02*
X3575000Y-1855000D01*
X3575000Y-1825000D02*
X3545000Y-1855000D01*
X3545000Y-1990000D02*
X3575000Y-2020000D01*
X3575000Y-1990000D02*
X3545000Y-2020000D01*
X3545000Y-2045000D02*
X3575000Y-2075000D01*
X3575000Y-2045000D02*
X3545000Y-2075000D01*
X3545000Y-2100000D02*
X3575000Y-2130000D01*
X3575000Y-2100000D02*
X3545000Y-2130000D01*
X3545000Y-2155000D02*
X3575000Y-2185000D01*
X3575000Y-2155000D02*
X3545000Y-2185000D01*
X3545000Y-2210000D02*
X3575000Y-2240000D01*
X3575000Y-2210000D02*
X3545000Y-2240000D01*
X3545000Y-2265000D02*
X3575000Y-2295000D01*
X3575000Y-2265000D02*
X3545000Y-2295000D01*
X3545000Y-2320000D02*
X3575000Y-2350000D01*
X3575000Y-2320000D02*
X3545000Y-2350000D01*
X3590000Y-2740000D02*
X3620000Y-2770000D01*
X3620000Y-2740000D02*
X3590000Y-2770000D01*
X3596500Y-2910000D02*
X3626500Y-2940000D01*
X3626500Y-2910000D02*
X3596500Y-2940000D01*
X3596500Y-3010000D02*
X3626500Y-3040000D01*
X3626500Y-3010000D02*
X3596500Y-3040000D01*
X3600000Y-1845000D02*
X3630000Y-1875000D01*
X3630000Y-1845000D02*
X3600000Y-1875000D01*
X3605000Y-2095000D02*
X3635000Y-2125000D01*
X3635000Y-2095000D02*
X3605000Y-2125000D01*
X3605000Y-2150000D02*
X3635000Y-2180000D01*
X3635000Y-2150000D02*
X3605000Y-2180000D01*
X3605000Y-2205000D02*
X3635000Y-2235000D01*
X3635000Y-2205000D02*
X3605000Y-2235000D01*
X3605000Y-2260000D02*
X3635000Y-2290000D01*
X3635000Y-2260000D02*
X3605000Y-2290000D01*
X3605000Y-2315000D02*
X3635000Y-2345000D01*
X3635000Y-2315000D02*
X3605000Y-2345000D01*
X3605000Y-2370000D02*
X3635000Y-2400000D01*
X3635000Y-2370000D02*
X3605000Y-2400000D01*
X3605000Y-2425000D02*
X3635000Y-2455000D01*
X3635000Y-2425000D02*
X3605000Y-2455000D01*
X3620000Y-3274000D02*
X3650000Y-3304000D01*
X3650000Y-3274000D02*
X3620000Y-3304000D01*
X3620000Y-3955000D02*
X3650000Y-3985000D01*
X3650000Y-3955000D02*
X3620000Y-3985000D01*
X3632450Y-3185000D02*
X3662450Y-3215000D01*
X3662450Y-3185000D02*
X3632450Y-3215000D01*
X3655000Y-1860000D02*
X3685000Y-1890000D01*
X3685000Y-1860000D02*
X3655000Y-1890000D01*
X3675000Y-2575000D02*
X3705000Y-2605000D01*
X3705000Y-2575000D02*
X3675000Y-2605000D01*
X3675000Y-2630000D02*
X3705000Y-2660000D01*
X3705000Y-2630000D02*
X3675000Y-2660000D01*
X3685000Y-2685000D02*
X3715000Y-2715000D01*
X3715000Y-2685000D02*
X3685000Y-2715000D01*
X3695000Y-1895000D02*
X3725000Y-1925000D01*
X3725000Y-1895000D02*
X3695000Y-1925000D01*
X3725000Y-1940000D02*
X3755000Y-1970000D01*
X3755000Y-1940000D02*
X3725000Y-1970000D01*
X3725000Y-2095000D02*
X3755000Y-2125000D01*
X3755000Y-2095000D02*
X3725000Y-2125000D01*
X3725000Y-2150000D02*
X3755000Y-2180000D01*
X3755000Y-2150000D02*
X3725000Y-2180000D01*
X3725000Y-2205000D02*
X3755000Y-2235000D01*
X3755000Y-2205000D02*
X3725000Y-2235000D01*
X3725000Y-2260000D02*
X3755000Y-2290000D01*
X3755000Y-2260000D02*
X3725000Y-2290000D01*
X3725000Y-2315000D02*
X3755000Y-2345000D01*
X3755000Y-2315000D02*
X3725000Y-2345000D01*
X3725000Y-2365000D02*
X3755000Y-2395000D01*
X3755000Y-2365000D02*
X3725000Y-2395000D01*
X3730000Y-2720000D02*
X3760000Y-2750000D01*
X3760000Y-2720000D02*
X3730000Y-2750000D01*
X3745000Y-3460000D02*
X3775000Y-3490000D01*
X3775000Y-3460000D02*
X3745000Y-3490000D01*
X3750000Y-4175000D02*
X3780000Y-4205000D01*
X3780000Y-4175000D02*
X3750000Y-4205000D01*
X3760000Y-4935000D02*
X3790000Y-4965000D01*
X3790000Y-4935000D02*
X3760000Y-4965000D01*
X3770000Y-5560000D02*
X3800000Y-5590000D01*
X3800000Y-5560000D02*
X3770000Y-5590000D01*
X3770000Y-5650000D02*
X3800000Y-5680000D01*
X3800000Y-5650000D02*
X3770000Y-5680000D01*
X3780000Y-1940000D02*
X3810000Y-1970000D01*
X3810000Y-1940000D02*
X3780000Y-1970000D01*
X3780000Y-2095000D02*
X3810000Y-2125000D01*
X3810000Y-2095000D02*
X3780000Y-2125000D01*
X3780000Y-2365000D02*
X3810000Y-2395000D01*
X3810000Y-2365000D02*
X3780000Y-2395000D01*
X3785000Y-3150000D02*
X3815000Y-3180000D01*
X3815000Y-3150000D02*
X3785000Y-3180000D01*
X3790000Y-1885000D02*
X3820000Y-1915000D01*
X3820000Y-1885000D02*
X3790000Y-1915000D01*
X3790000Y-2720000D02*
X3820000Y-2750000D01*
X3820000Y-2720000D02*
X3790000Y-2750000D01*
X3815000Y-4175000D02*
X3845000Y-4205000D01*
X3845000Y-4175000D02*
X3815000Y-4205000D01*
X3815000Y-4772450D02*
X3845000Y-4802450D01*
X3845000Y-4772450D02*
X3815000Y-4802450D01*
X3835000Y-1850000D02*
X3865000Y-1880000D01*
X3865000Y-1850000D02*
X3835000Y-1880000D01*
X3835000Y-2095000D02*
X3865000Y-2125000D01*
X3865000Y-2095000D02*
X3835000Y-2125000D01*
X3835000Y-2365000D02*
X3865000Y-2395000D01*
X3865000Y-2365000D02*
X3835000Y-2395000D01*
X3845000Y-2720000D02*
X3875000Y-2750000D01*
X3875000Y-2720000D02*
X3845000Y-2750000D01*
X3870000Y-3100000D02*
X3900000Y-3130000D01*
X3900000Y-3100000D02*
X3870000Y-3130000D01*
X3870000Y-5605000D02*
X3900000Y-5635000D01*
X3900000Y-5605000D02*
X3870000Y-5635000D01*
X3879819Y-4776582D02*
X3909819Y-4806582D01*
X3909819Y-4776582D02*
X3879819Y-4806582D01*
X3879950Y-4175000D02*
X3909950Y-4205000D01*
X3909950Y-4175000D02*
X3879950Y-4205000D01*
X3890000Y-2095000D02*
X3920000Y-2125000D01*
X3920000Y-2095000D02*
X3890000Y-2125000D01*
X3890000Y-2365000D02*
X3920000Y-2395000D01*
X3920000Y-2365000D02*
X3890000Y-2395000D01*
X3895000Y-1850000D02*
X3925000Y-1880000D01*
X3925000Y-1850000D02*
X3895000Y-1880000D01*
X3900000Y-3665000D02*
X3930000Y-3695000D01*
X3930000Y-3665000D02*
X3900000Y-3695000D01*
X3910000Y-2810000D02*
X3940000Y-2840000D01*
X3940000Y-2810000D02*
X3910000Y-2840000D01*
X3935000Y-2430000D02*
X3965000Y-2460000D01*
X3965000Y-2430000D02*
X3935000Y-2460000D01*
X3935000Y-2500000D02*
X3965000Y-2530000D01*
X3965000Y-2500000D02*
X3935000Y-2530000D01*
X3935000Y-2580000D02*
X3965000Y-2610000D01*
X3965000Y-2580000D02*
X3935000Y-2610000D01*
X3935000Y-3825000D02*
X3965000Y-3855000D01*
X3965000Y-3825000D02*
X3935000Y-3855000D01*
X3935000Y-4485000D02*
X3965000Y-4515000D01*
X3965000Y-4485000D02*
X3935000Y-4515000D01*
X3937225Y-3904950D02*
X3967225Y-3934950D01*
X3967225Y-3904950D02*
X3937225Y-3934950D01*
X3940000Y-1885000D02*
X3970000Y-1915000D01*
X3970000Y-1885000D02*
X3940000Y-1915000D01*
X3940000Y-1940000D02*
X3970000Y-1970000D01*
X3970000Y-1940000D02*
X3940000Y-1970000D01*
X3940000Y-1995000D02*
X3970000Y-2025000D01*
X3970000Y-1995000D02*
X3940000Y-2025000D01*
X3940000Y-2050000D02*
X3970000Y-2080000D01*
X3970000Y-2050000D02*
X3940000Y-2080000D01*
X3950000Y-3210000D02*
X3980000Y-3240000D01*
X3980000Y-3210000D02*
X3950000Y-3240000D01*
X3950000Y-3285000D02*
X3980000Y-3315000D01*
X3980000Y-3285000D02*
X3950000Y-3315000D01*
X3992892Y-3450000D02*
X4022892Y-3480000D01*
X4022892Y-3450000D02*
X3992892Y-3480000D01*
X4000000Y-3990000D02*
X4030000Y-4020000D01*
X4030000Y-3990000D02*
X4000000Y-4020000D01*
X4010000Y-3755000D02*
X4040000Y-3785000D01*
X4040000Y-3755000D02*
X4010000Y-3785000D01*
X4015000Y-2420000D02*
X4045000Y-2450000D01*
X4045000Y-2420000D02*
X4015000Y-2450000D01*
X4035000Y-4374950D02*
X4065000Y-4404950D01*
X4065000Y-4374950D02*
X4035000Y-4404950D01*
X4035000Y-4650050D02*
X4065000Y-4680050D01*
X4065000Y-4650050D02*
X4035000Y-4680050D01*
X4055000Y-2590000D02*
X4085000Y-2620000D01*
X4085000Y-2590000D02*
X4055000Y-2620000D01*
X4055000Y-2660000D02*
X4085000Y-2690000D01*
X4085000Y-2660000D02*
X4055000Y-2690000D01*
X4058000Y-3540000D02*
X4088000Y-3570000D01*
X4088000Y-3540000D02*
X4058000Y-3570000D01*
X4075000Y-5430000D02*
X4105000Y-5460000D01*
X4105000Y-5430000D02*
X4075000Y-5460000D01*
X4088948Y-4240000D02*
X4118948Y-4270000D01*
X4118948Y-4240000D02*
X4088948Y-4270000D01*
X4090000Y-4320000D02*
X4120000Y-4350000D01*
X4120000Y-4320000D02*
X4090000Y-4350000D01*
X4115050Y-4075000D02*
X4145050Y-4105000D01*
X4145050Y-4075000D02*
X4115050Y-4105000D01*
X4120000Y-2422000D02*
X4150000Y-2452000D01*
X4150000Y-2422000D02*
X4120000Y-2452000D01*
X4130000Y-3040000D02*
X4160000Y-3070000D01*
X4160000Y-3040000D02*
X4130000Y-3070000D01*
X4135000Y-2310000D02*
X4165000Y-2340000D01*
X4165000Y-2310000D02*
X4135000Y-2340000D01*
X4135000Y-2880000D02*
X4165000Y-2910000D01*
X4165000Y-2880000D02*
X4135000Y-2910000D01*
X4135000Y-4790000D02*
X4165000Y-4820000D01*
X4165000Y-4790000D02*
X4135000Y-4820000D01*
X4142550Y-3160897D02*
X4172550Y-3190897D01*
X4172550Y-3160897D02*
X4142550Y-3190897D01*
X4153024Y-4355735D02*
X4183024Y-4385735D01*
X4183024Y-4355735D02*
X4153024Y-4385735D01*
X4160000Y-3762996D02*
X4190000Y-3792996D01*
X4190000Y-3762996D02*
X4160000Y-3792996D01*
X4173948Y-3506052D02*
X4203948Y-3536052D01*
X4203948Y-3506052D02*
X4173948Y-3536052D01*
X4180000Y-4075000D02*
X4210000Y-4105000D01*
X4210000Y-4075000D02*
X4180000Y-4105000D01*
X4180000Y-4230000D02*
X4210000Y-4260000D01*
X4210000Y-4230000D02*
X4180000Y-4260000D01*
X4180000Y-5655000D02*
X4210000Y-5685000D01*
X4210000Y-5655000D02*
X4180000Y-5685000D01*
X4235000Y-4790000D02*
X4265000Y-4820000D01*
X4265000Y-4790000D02*
X4235000Y-4820000D01*
X4260000Y-3525000D02*
X4290000Y-3555000D01*
X4290000Y-3525000D02*
X4260000Y-3555000D01*
X4260000Y-3755000D02*
X4290000Y-3785000D01*
X4290000Y-3755000D02*
X4260000Y-3785000D01*
X4260000Y-4590000D02*
X4290000Y-4620000D01*
X4290000Y-4590000D02*
X4260000Y-4620000D01*
X4270000Y-3425000D02*
X4300000Y-3455000D01*
X4300000Y-3425000D02*
X4270000Y-3455000D01*
X4270000Y-3935000D02*
X4300000Y-3965000D01*
X4300000Y-3935000D02*
X4270000Y-3965000D01*
X4310388Y-2726466D02*
X4340388Y-2756466D01*
X4340388Y-2726466D02*
X4310388Y-2756466D01*
X4325000Y-3240000D02*
X4355000Y-3270000D01*
X4355000Y-3240000D02*
X4325000Y-3270000D01*
X4325000Y-3477500D02*
X4355000Y-3507500D01*
X4355000Y-3477500D02*
X4325000Y-3507500D01*
X4335000Y-4307000D02*
X4365000Y-4337000D01*
X4365000Y-4307000D02*
X4335000Y-4337000D01*
X4335000Y-4400000D02*
X4365000Y-4430000D01*
X4365000Y-4400000D02*
X4335000Y-4430000D01*
X4360000Y-4590000D02*
X4390000Y-4620000D01*
X4390000Y-4590000D02*
X4360000Y-4620000D01*
X4360000Y-5115000D02*
X4390000Y-5145000D01*
X4390000Y-5115000D02*
X4360000Y-5145000D01*
X4375000Y-3810000D02*
X4405000Y-3840000D01*
X4405000Y-3810000D02*
X4375000Y-3840000D01*
X4385000Y-2747550D02*
X4415000Y-2777550D01*
X4415000Y-2747550D02*
X4385000Y-2777550D01*
X4385000Y-5665000D02*
X4415000Y-5695000D01*
X4415000Y-5665000D02*
X4385000Y-5695000D01*
X4435000Y-4270000D02*
X4465000Y-4300000D01*
X4465000Y-4270000D02*
X4435000Y-4300000D01*
X4440000Y-4595000D02*
X4470000Y-4625000D01*
X4470000Y-4595000D02*
X4440000Y-4625000D01*
X4450000Y-2747550D02*
X4480000Y-2777550D01*
X4480000Y-2747550D02*
X4450000Y-2777550D01*
X4468552Y-2553552D02*
X4498552Y-2583552D01*
X4498552Y-2553552D02*
X4468552Y-2583552D01*
X4471250Y-5155000D02*
X4501250Y-5185000D01*
X4501250Y-5155000D02*
X4471250Y-5185000D01*
X4485000Y-5226448D02*
X4515000Y-5256448D01*
X4515000Y-5226448D02*
X4485000Y-5256448D01*
X4502450Y-3440000D02*
X4532450Y-3470000D01*
X4532450Y-3440000D02*
X4502450Y-3470000D01*
X4520000Y-2745000D02*
X4550000Y-2775000D01*
X4550000Y-2745000D02*
X4520000Y-2775000D01*
X4520000Y-5435000D02*
X4550000Y-5465000D01*
X4550000Y-5435000D02*
X4520000Y-5465000D01*
X4520000Y-5540000D02*
X4550000Y-5570000D01*
X4550000Y-5540000D02*
X4520000Y-5570000D01*
X4525000Y-4380000D02*
X4555000Y-4410000D01*
X4555000Y-4380000D02*
X4525000Y-4410000D01*
X4533948Y-5273948D02*
X4563948Y-5303948D01*
X4563948Y-5273948D02*
X4533948Y-5303948D01*
X4560000Y-4950000D02*
X4590000Y-4980000D01*
X4590000Y-4950000D02*
X4560000Y-4980000D01*
X4560000Y-5070000D02*
X4590000Y-5100000D01*
X4590000Y-5070000D02*
X4560000Y-5100000D01*
X4565000Y-2350000D02*
X4595000Y-2380000D01*
X4595000Y-2350000D02*
X4565000Y-2380000D01*
X4568843Y-3906295D02*
X4598843Y-3936295D01*
X4598843Y-3906295D02*
X4568843Y-3936295D01*
X4585000Y-3440000D02*
X4615000Y-3470000D01*
X4615000Y-3440000D02*
X4585000Y-3470000D01*
X4595000Y-4785000D02*
X4625000Y-4815000D01*
X4625000Y-4785000D02*
X4595000Y-4815000D01*
X4610000Y-2740000D02*
X4640000Y-2770000D01*
X4640000Y-2740000D02*
X4610000Y-2770000D01*
X4620000Y-4100000D02*
X4650000Y-4130000D01*
X4650000Y-4100000D02*
X4620000Y-4130000D01*
X4625000Y-4280000D02*
X4655000Y-4310000D01*
X4655000Y-4280000D02*
X4625000Y-4310000D01*
X4625000Y-5490000D02*
X4655000Y-5520000D01*
X4655000Y-5490000D02*
X4625000Y-5520000D01*
X4645000Y-3250000D02*
X4675000Y-3280000D01*
X4675000Y-3250000D02*
X4645000Y-3280000D01*
X4647550Y-3090000D02*
X4677550Y-3120000D01*
X4677550Y-3090000D02*
X4647550Y-3120000D01*
X4660000Y-3835000D02*
X4690000Y-3865000D01*
X4690000Y-3835000D02*
X4660000Y-3865000D01*
X4665000Y-3450000D02*
X4695000Y-3480000D01*
X4695000Y-3450000D02*
X4665000Y-3480000D01*
X4670000Y-2350000D02*
X4700000Y-2380000D01*
X4700000Y-2350000D02*
X4670000Y-2380000D01*
X4670000Y-2450000D02*
X4700000Y-2480000D01*
X4700000Y-2450000D02*
X4670000Y-2480000D01*
X4675000Y-3930000D02*
X4705000Y-3960000D01*
X4705000Y-3930000D02*
X4675000Y-3960000D01*
X4680000Y-4950000D02*
X4710000Y-4980000D01*
X4710000Y-4950000D02*
X4680000Y-4980000D01*
X4680000Y-5070000D02*
X4710000Y-5100000D01*
X4710000Y-5070000D02*
X4680000Y-5100000D01*
X4695748Y-5225577D02*
X4725748Y-5255577D01*
X4725748Y-5225577D02*
X4695748Y-5255577D01*
X4715000Y-4280000D02*
X4745000Y-4310000D01*
X4745000Y-4280000D02*
X4715000Y-4310000D01*
X4720000Y-5435000D02*
X4750000Y-5465000D01*
X4750000Y-5435000D02*
X4720000Y-5465000D01*
X4720000Y-5540000D02*
X4750000Y-5570000D01*
X4750000Y-5540000D02*
X4720000Y-5570000D01*
X4725000Y-3345000D02*
X4755000Y-3375000D01*
X4755000Y-3345000D02*
X4725000Y-3375000D01*
X4760000Y-3460000D02*
X4790000Y-3490000D01*
X4790000Y-3460000D02*
X4760000Y-3490000D01*
X4770000Y-5155000D02*
X4800000Y-5185000D01*
X4800000Y-5155000D02*
X4770000Y-5185000D01*
X4785000Y-4640000D02*
X4815000Y-4670000D01*
X4815000Y-4640000D02*
X4785000Y-4670000D01*
X4875221Y-3151012D02*
X4905221Y-3181012D01*
X4905221Y-3151012D02*
X4875221Y-3181012D01*
X4880000Y-4425000D02*
X4910000Y-4455000D01*
X4910000Y-4425000D02*
X4880000Y-4455000D01*
X4900000Y-4550000D02*
X4930000Y-4580000D01*
X4930000Y-4550000D02*
X4900000Y-4580000D01*
X4912550Y-3255445D02*
X4942550Y-3285445D01*
X4942550Y-3255445D02*
X4912550Y-3285445D01*
X4932000Y-5365000D02*
X4962000Y-5395000D01*
X4962000Y-5365000D02*
X4932000Y-5395000D01*
X4951745Y-3093255D02*
X4981745Y-3123255D01*
X4981745Y-3093255D02*
X4951745Y-3123255D01*
X4964605Y-4377500D02*
X4994605Y-4407500D01*
X4994605Y-4377500D02*
X4964605Y-4407500D01*
X4983136Y-5544290D02*
X5013136Y-5574290D01*
X5013136Y-5544290D02*
X4983136Y-5574290D01*
X4992621Y-5647550D02*
X5022621Y-5677550D01*
X5022621Y-5647550D02*
X4992621Y-5677550D01*
X5005000Y-2750000D02*
X5035000Y-2780000D01*
X5035000Y-2750000D02*
X5005000Y-2780000D01*
X5005000Y-2814950D02*
X5035000Y-2844950D01*
X5035000Y-2814950D02*
X5005000Y-2844950D01*
X5020000Y-2195000D02*
X5050000Y-2225000D01*
X5050000Y-2195000D02*
X5020000Y-2225000D01*
X5025000Y-2250000D02*
X5055000Y-2280000D01*
X5055000Y-2250000D02*
X5025000Y-2280000D01*
X5028000Y-5365000D02*
X5058000Y-5395000D01*
X5058000Y-5365000D02*
X5028000Y-5395000D01*
X5028000Y-5475000D02*
X5058000Y-5505000D01*
X5058000Y-5475000D02*
X5028000Y-5505000D01*
X5050000Y-2150000D02*
X5080000Y-2180000D01*
X5080000Y-2150000D02*
X5050000Y-2180000D01*
X5050000Y-2684221D02*
X5080000Y-2714221D01*
X5080000Y-2684221D02*
X5050000Y-2714221D01*
X5050000Y-4450000D02*
X5080000Y-4480000D01*
X5080000Y-4450000D02*
X5050000Y-4480000D01*
X5060000Y-5050000D02*
X5090000Y-5080000D01*
X5090000Y-5050000D02*
X5060000Y-5080000D01*
X5065000Y-2285000D02*
X5095000Y-2315000D01*
X5095000Y-2285000D02*
X5065000Y-2315000D01*
X5075000Y-5695000D02*
X5105000Y-5725000D01*
X5105000Y-5695000D02*
X5075000Y-5725000D01*
X5095000Y-1850000D02*
X5125000Y-1880000D01*
X5125000Y-1850000D02*
X5095000Y-1880000D01*
X5095000Y-1905000D02*
X5125000Y-1935000D01*
X5125000Y-1905000D02*
X5095000Y-1935000D01*
X5095000Y-1960000D02*
X5125000Y-1990000D01*
X5125000Y-1960000D02*
X5095000Y-1990000D01*
X5095000Y-2015000D02*
X5125000Y-2045000D01*
X5125000Y-2015000D02*
X5095000Y-2045000D01*
X5095000Y-2070000D02*
X5125000Y-2100000D01*
X5125000Y-2070000D02*
X5095000Y-2100000D01*
X5095000Y-2125000D02*
X5125000Y-2155000D01*
X5125000Y-2125000D02*
X5095000Y-2155000D01*
X5105000Y-4545000D02*
X5135000Y-4575000D01*
X5135000Y-4545000D02*
X5105000Y-4575000D01*
X5115000Y-2285000D02*
X5145000Y-2315000D01*
X5145000Y-2285000D02*
X5115000Y-2315000D01*
X5115000Y-2340000D02*
X5145000Y-2370000D01*
X5145000Y-2340000D02*
X5115000Y-2370000D01*
X5115000Y-2395000D02*
X5145000Y-2425000D01*
X5145000Y-2395000D02*
X5115000Y-2425000D01*
X5115000Y-2450000D02*
X5145000Y-2480000D01*
X5145000Y-2450000D02*
X5115000Y-2480000D01*
X5125000Y-2982000D02*
X5155000Y-3012000D01*
X5155000Y-2982000D02*
X5125000Y-3012000D01*
X5125000Y-3078000D02*
X5155000Y-3108000D01*
X5155000Y-3078000D02*
X5125000Y-3108000D01*
X5160000Y-3800000D02*
X5190000Y-3830000D01*
X5190000Y-3800000D02*
X5160000Y-3830000D01*
X5180000Y-5555000D02*
X5210000Y-5585000D01*
X5210000Y-5555000D02*
X5180000Y-5585000D01*
X5190000Y-3295000D02*
X5220000Y-3325000D01*
X5220000Y-3295000D02*
X5190000Y-3325000D01*
X5190000Y-3635000D02*
X5220000Y-3665000D01*
X5220000Y-3635000D02*
X5190000Y-3665000D01*
X5230000Y-2982000D02*
X5260000Y-3012000D01*
X5260000Y-2982000D02*
X5230000Y-3012000D01*
X5230000Y-3078000D02*
X5260000Y-3108000D01*
X5260000Y-3078000D02*
X5230000Y-3108000D01*
X5269050Y-2755000D02*
X5299050Y-2785000D01*
X5299050Y-2755000D02*
X5269050Y-2785000D01*
X5270000Y-3732550D02*
X5300000Y-3762550D01*
X5300000Y-3732550D02*
X5270000Y-3762550D01*
X5280000Y-4110000D02*
X5310000Y-4140000D01*
X5310000Y-4110000D02*
X5280000Y-4140000D01*
X5280000Y-4240000D02*
X5310000Y-4270000D01*
X5310000Y-4240000D02*
X5280000Y-4270000D01*
X5285000Y-2390000D02*
X5315000Y-2420000D01*
X5315000Y-2390000D02*
X5285000Y-2420000D01*
X5337377Y-3732277D02*
X5367377Y-3762277D01*
X5367377Y-3732277D02*
X5337377Y-3762277D01*
X5340000Y-2390000D02*
X5370000Y-2420000D01*
X5370000Y-2390000D02*
X5340000Y-2420000D01*
X5350000Y-2684221D02*
X5380000Y-2714221D01*
X5380000Y-2684221D02*
X5350000Y-2714221D01*
X5395000Y-2390000D02*
X5425000Y-2420000D01*
X5425000Y-2390000D02*
X5395000Y-2420000D01*
X5400000Y-3002550D02*
X5430000Y-3032550D01*
X5430000Y-3002550D02*
X5400000Y-3032550D01*
X5450000Y-2390000D02*
X5480000Y-2420000D01*
X5480000Y-2390000D02*
X5450000Y-2420000D01*
X5470000Y-3135050D02*
X5500000Y-3165050D01*
X5500000Y-3135050D02*
X5470000Y-3165050D01*
X5470000Y-3200000D02*
X5500000Y-3230000D01*
X5500000Y-3200000D02*
X5470000Y-3230000D01*
X5470000Y-3295000D02*
X5500000Y-3325000D01*
X5500000Y-3295000D02*
X5470000Y-3325000D01*
X5470000Y-3635000D02*
X5500000Y-3665000D01*
X5500000Y-3635000D02*
X5470000Y-3665000D01*
X5472500Y-5160000D02*
X5502500Y-5190000D01*
X5502500Y-5160000D02*
X5472500Y-5190000D01*
X5500000Y-3005000D02*
X5530000Y-3035000D01*
X5530000Y-3005000D02*
X5500000Y-3035000D01*
X5505000Y-2390000D02*
X5535000Y-2420000D01*
X5535000Y-2390000D02*
X5505000Y-2420000D01*
X5545000Y-5030000D02*
X5575000Y-5060000D01*
X5575000Y-5030000D02*
X5545000Y-5060000D01*
X5560000Y-2390000D02*
X5590000Y-2420000D01*
X5590000Y-2390000D02*
X5560000Y-2420000D01*
X5588656Y-3081344D02*
X5618656Y-3111344D01*
X5618656Y-3081344D02*
X5588656Y-3111344D01*
X5595000Y-3275000D02*
X5625000Y-3305000D01*
X5625000Y-3275000D02*
X5595000Y-3305000D01*
X5595000Y-3400000D02*
X5625000Y-3430000D01*
X5625000Y-3400000D02*
X5595000Y-3430000D01*
X5595000Y-3530000D02*
X5625000Y-3560000D01*
X5625000Y-3530000D02*
X5595000Y-3560000D01*
X5596250Y-3655500D02*
X5626250Y-3685500D01*
X5626250Y-3655500D02*
X5596250Y-3685500D01*
X5612000Y-2785000D02*
X5642000Y-2815000D01*
X5642000Y-2785000D02*
X5612000Y-2815000D01*
X5615000Y-2390000D02*
X5645000Y-2420000D01*
X5645000Y-2390000D02*
X5615000Y-2420000D01*
X5625000Y-5025000D02*
X5655000Y-5055000D01*
X5655000Y-5025000D02*
X5625000Y-5055000D01*
X5655000Y-3775000D02*
X5685000Y-3805000D01*
X5685000Y-3775000D02*
X5655000Y-3805000D01*
X5680000Y-3082237D02*
X5710000Y-3112237D01*
X5710000Y-3082237D02*
X5680000Y-3112237D01*
X5685000Y-1790000D02*
X5715000Y-1820000D01*
X5715000Y-1790000D02*
X5685000Y-1820000D01*
X5685000Y-1845000D02*
X5715000Y-1875000D01*
X5715000Y-1845000D02*
X5685000Y-1875000D01*
X5685000Y-1900000D02*
X5715000Y-1930000D01*
X5715000Y-1900000D02*
X5685000Y-1930000D01*
X5685000Y-1955000D02*
X5715000Y-1985000D01*
X5715000Y-1955000D02*
X5685000Y-1985000D01*
X5685000Y-2010000D02*
X5715000Y-2040000D01*
X5715000Y-2010000D02*
X5685000Y-2040000D01*
X5685000Y-2065000D02*
X5715000Y-2095000D01*
X5715000Y-2065000D02*
X5685000Y-2095000D01*
X5685000Y-2120000D02*
X5715000Y-2150000D01*
X5715000Y-2120000D02*
X5685000Y-2150000D01*
X5685000Y-2175000D02*
X5715000Y-2205000D01*
X5715000Y-2175000D02*
X5685000Y-2205000D01*
X5685000Y-2230000D02*
X5715000Y-2260000D01*
X5715000Y-2230000D02*
X5685000Y-2260000D01*
X5685000Y-2285000D02*
X5715000Y-2315000D01*
X5715000Y-2285000D02*
X5685000Y-2315000D01*
X5685000Y-2340000D02*
X5715000Y-2370000D01*
X5715000Y-2340000D02*
X5685000Y-2370000D01*
X5708000Y-2785000D02*
X5738000Y-2815000D01*
X5738000Y-2785000D02*
X5708000Y-2815000D01*
X5750000Y-4670000D02*
X5780000Y-4700000D01*
X5780000Y-4670000D02*
X5750000Y-4700000D01*
X5810000Y-4560000D02*
X5840000Y-4590000D01*
X5840000Y-4560000D02*
X5810000Y-4590000D01*
X5820000Y-3585000D02*
X5850000Y-3615000D01*
X5850000Y-3585000D02*
X5820000Y-3615000D01*
X5825000Y-5524000D02*
X5855000Y-5554000D01*
X5855000Y-5524000D02*
X5825000Y-5554000D01*
X5830000Y-2155000D02*
X5860000Y-2185000D01*
X5860000Y-2155000D02*
X5830000Y-2185000D01*
X5830000Y-4860000D02*
X5860000Y-4890000D01*
X5860000Y-4860000D02*
X5830000Y-4890000D01*
X5830000Y-5015000D02*
X5860000Y-5045000D01*
X5860000Y-5015000D02*
X5830000Y-5045000D01*
X5855000Y-3695000D02*
X5885000Y-3725000D01*
X5885000Y-3695000D02*
X5855000Y-3725000D01*
X5855000Y-3793000D02*
X5885000Y-3823000D01*
X5885000Y-3793000D02*
X5855000Y-3823000D01*
X5900000Y-3100000D02*
X5930000Y-3130000D01*
X5930000Y-3100000D02*
X5900000Y-3130000D01*
X5910000Y-4560000D02*
X5940000Y-4590000D01*
X5940000Y-4560000D02*
X5910000Y-4590000D01*
X5935000Y-5625000D02*
X5965000Y-5655000D01*
X5965000Y-5625000D02*
X5935000Y-5655000D01*
X5940000Y-2814000D02*
X5970000Y-2844000D01*
X5970000Y-2814000D02*
X5940000Y-2844000D01*
X5940000Y-2916000D02*
X5970000Y-2946000D01*
X5970000Y-2916000D02*
X5940000Y-2946000D01*
X5950000Y-4451000D02*
X5980000Y-4481000D01*
X5980000Y-4451000D02*
X5950000Y-4481000D01*
X5970000Y-3796000D02*
X6000000Y-3826000D01*
X6000000Y-3796000D02*
X5970000Y-3826000D01*
D13*
X2760000Y-1790000D02*
G75*
G03*
X2760000Y-1790000I-20000J0D01*
G01*
X2850000Y-1790000D02*
G75*
G03*
X2850000Y-1790000I-20000J0D01*
G01*
X2945000Y-1790000D02*
G75*
G03*
X2945000Y-1790000I-20000J0D01*
G01*
X3040000Y-1790000D02*
G75*
G03*
X3040000Y-1790000I-20000J0D01*
G01*
X3660000Y-1790000D02*
G75*
G03*
X3660000Y-1790000I-20000J0D01*
G01*
X3750000Y-1790000D02*
G75*
G03*
X3750000Y-1790000I-20000J0D01*
G01*
X3825000Y-2185000D02*
G75*
G03*
X3825000Y-2185000I-20000J0D01*
G01*
X3845000Y-1790000D02*
G75*
G03*
X3845000Y-1790000I-20000J0D01*
G01*
X3940000Y-1790000D02*
G75*
G03*
X3940000Y-1790000I-20000J0D01*
G01*
X3945000Y-2230000D02*
G75*
G03*
X3945000Y-2230000I-20000J0D01*
G01*
X4025000Y-2325000D02*
G75*
G03*
X4025000Y-2325000I-20000J0D01*
G01*
X4030000Y-1790000D02*
G75*
G03*
X4030000Y-1790000I-20000J0D01*
G01*
X4050000Y-2160000D02*
G75*
G03*
X4050000Y-2160000I-20000J0D01*
G01*
X4070000Y-1950000D02*
G75*
G03*
X4070000Y-1950000I-20000J0D01*
G01*
X4125000Y-1790000D02*
G75*
G03*
X4125000Y-1790000I-20000J0D01*
G01*
X4130000Y-2080000D02*
G75*
G03*
X4130000Y-2080000I-20000J0D01*
G01*
X4220000Y-2200000D02*
G75*
G03*
X4220000Y-2200000I-20000J0D01*
G01*
X4260000Y-2845000D02*
G75*
G03*
X4260000Y-2845000I-20000J0D01*
G01*
X4260000Y-3005000D02*
G75*
G03*
X4260000Y-3005000I-20000J0D01*
G01*
X4260000Y-3165000D02*
G75*
G03*
X4260000Y-3165000I-20000J0D01*
G01*
X4420000Y-2845000D02*
G75*
G03*
X4420000Y-2845000I-20000J0D01*
G01*
X4420000Y-3005000D02*
G75*
G03*
X4420000Y-3005000I-20000J0D01*
G01*
X4420000Y-3165000D02*
G75*
G03*
X4420000Y-3165000I-20000J0D01*
G01*
X4440000Y-2205000D02*
G75*
G03*
X4440000Y-2205000I-20000J0D01*
G01*
X4575000Y-2200000D02*
G75*
G03*
X4575000Y-2200000I-20000J0D01*
G01*
X4580000Y-2845000D02*
G75*
G03*
X4580000Y-2845000I-20000J0D01*
G01*
X4580000Y-3005000D02*
G75*
G03*
X4580000Y-3005000I-20000J0D01*
G01*
X4580000Y-3165000D02*
G75*
G03*
X4580000Y-3165000I-20000J0D01*
G01*
X4665000Y-2255000D02*
G75*
G03*
X4665000Y-2255000I-20000J0D01*
G01*
X4695000Y-2115000D02*
G75*
G03*
X4695000Y-2115000I-20000J0D01*
G01*
X4715000Y-1790000D02*
G75*
G03*
X4715000Y-1790000I-20000J0D01*
G01*
X4755000Y-1930000D02*
G75*
G03*
X4755000Y-1930000I-20000J0D01*
G01*
X4775000Y-2265000D02*
G75*
G03*
X4775000Y-2265000I-20000J0D01*
G01*
X4805000Y-1790000D02*
G75*
G03*
X4805000Y-1790000I-20000J0D01*
G01*
X4820000Y-4750000D02*
G75*
G03*
X4820000Y-4750000I-20000J0D01*
G01*
X4830000Y-2000000D02*
G75*
G03*
X4830000Y-2000000I-20000J0D01*
G01*
X4835000Y-2450000D02*
G75*
G03*
X4835000Y-2450000I-20000J0D01*
G01*
X4855000Y-2120000D02*
G75*
G03*
X4855000Y-2120000I-20000J0D01*
G01*
X4870000Y-2555000D02*
G75*
G03*
X4870000Y-2555000I-20000J0D01*
G01*
X4900000Y-1790000D02*
G75*
G03*
X4900000Y-1790000I-20000J0D01*
G01*
X4905000Y-2365000D02*
G75*
G03*
X4905000Y-2365000I-20000J0D01*
G01*
X4930000Y-3720000D02*
G75*
G03*
X4930000Y-3720000I-20000J0D01*
G01*
X4945000Y-2040000D02*
G75*
G03*
X4945000Y-2040000I-20000J0D01*
G01*
X4945000Y-2230000D02*
G75*
G03*
X4945000Y-2230000I-20000J0D01*
G01*
X4980000Y-1920000D02*
G75*
G03*
X4980000Y-1920000I-20000J0D01*
G01*
X4985000Y-2500000D02*
G75*
G03*
X4985000Y-2500000I-20000J0D01*
G01*
X4995000Y-1790000D02*
G75*
G03*
X4995000Y-1790000I-20000J0D01*
G01*
X5010000Y-2385000D02*
G75*
G03*
X5010000Y-2385000I-20000J0D01*
G01*
X5090000Y-1790000D02*
G75*
G03*
X5090000Y-1790000I-20000J0D01*
G01*
X5320000Y-4490000D02*
G75*
G03*
X5320000Y-4490000I-20000J0D01*
G01*
X5320000Y-4575000D02*
G75*
G03*
X5320000Y-4575000I-20000J0D01*
G01*
X5320000Y-4655000D02*
G75*
G03*
X5320000Y-4655000I-20000J0D01*
G01*
X5400000Y-4495000D02*
G75*
G03*
X5400000Y-4495000I-20000J0D01*
G01*
X5400000Y-4575000D02*
G75*
G03*
X5400000Y-4575000I-20000J0D01*
G01*
X5400000Y-4655000D02*
G75*
G03*
X5400000Y-4655000I-20000J0D01*
G01*
X5450000Y-3930000D02*
G75*
G03*
X5450000Y-3930000I-20000J0D01*
G01*
X5540000Y-3930000D02*
G75*
G03*
X5540000Y-3930000I-20000J0D01*
G01*
X5630000Y-3930000D02*
G75*
G03*
X5630000Y-3930000I-20000J0D01*
G01*
X5665000Y-5175000D02*
G75*
G03*
X5665000Y-5175000I-20000J0D01*
G01*
X5705000Y-4485000D02*
G75*
G03*
X5705000Y-4485000I-20000J0D01*
G01*
X5705000Y-4575000D02*
G75*
G03*
X5705000Y-4575000I-20000J0D01*
G01*
X5721508Y-4840401D02*
G75*
G03*
X5721508Y-4840401I-20000J0D01*
G01*
X5795000Y-1795000D02*
G75*
G03*
X5795000Y-1795000I-20000J0D01*
G01*
X5890000Y-1795000D02*
G75*
G03*
X5890000Y-1795000I-20000J0D01*
G01*
X5890000Y-4285000D02*
G75*
G03*
X5890000Y-4285000I-20000J0D01*
G01*
X5985000Y-1795000D02*
G75*
G03*
X5985000Y-1795000I-20000J0D01*
G01*
X6080000Y-1795000D02*
G75*
G03*
X6080000Y-1795000I-20000J0D01*
G01*
D14*
X2842500Y-3288000D02*
X2842500Y-3348000D01*
X2812500Y-3318000D02*
X2872500Y-3318000D01*
D11*
X2882500Y-3288000D02*
X2802500Y-3288000D01*
X2802500Y-3288000D02*
G75*
G03*
X2802500Y-3348000I0J-30000D01*
G01*
X2802500Y-3348000D02*
X2882500Y-3348000D01*
X2882500Y-3348000D02*
G75*
G03*
X2882500Y-3288000I0J30000D01*
G01*
D14*
X2842500Y-4152000D02*
X2842500Y-4212000D01*
X2812500Y-4182000D02*
X2872500Y-4182000D01*
D11*
X2882500Y-4152000D02*
X2802500Y-4152000D01*
X2802500Y-4152000D02*
G75*
G03*
X2802500Y-4212000I0J-30000D01*
G01*
X2802500Y-4212000D02*
X2882500Y-4212000D01*
X2882500Y-4212000D02*
G75*
G03*
X2882500Y-4152000I0J30000D01*
G01*
D14*
X3260500Y-3288000D02*
X3260500Y-3348000D01*
X3230500Y-3318000D02*
X3290500Y-3318000D01*
D11*
X3315500Y-3288000D02*
X3205500Y-3288000D01*
X3205500Y-3288000D02*
G75*
G03*
X3205500Y-3348000I0J-30000D01*
G01*
X3205500Y-3348000D02*
X3315500Y-3348000D01*
X3315500Y-3348000D02*
G75*
G03*
X3315500Y-3288000I0J30000D01*
G01*
D14*
X3260500Y-4152000D02*
X3260500Y-4212000D01*
X3230500Y-4182000D02*
X3290500Y-4182000D01*
D11*
X3315500Y-4152000D02*
X3205500Y-4152000D01*
X3205500Y-4152000D02*
G75*
G03*
X3205500Y-4212000I0J-30000D01*
G01*
X3205500Y-4212000D02*
X3315500Y-4212000D01*
X3315500Y-4212000D02*
G75*
G03*
X3315500Y-4152000I0J30000D01*
G01*
X2942619Y-6067524D02*
X2942619Y-5867524D01*
X2942619Y-5867524D02*
X2990238Y-5867524D01*
X2990238Y-5867524D02*
X3018809Y-5877048D01*
X3018809Y-5877048D02*
X3037857Y-5896095D01*
X3037857Y-5896095D02*
X3047381Y-5915143D01*
X3047381Y-5915143D02*
X3056905Y-5953238D01*
X3056905Y-5953238D02*
X3056905Y-5981809D01*
X3056905Y-5981809D02*
X3047381Y-6019905D01*
X3047381Y-6019905D02*
X3037857Y-6038952D01*
X3037857Y-6038952D02*
X3018809Y-6058000D01*
X3018809Y-6058000D02*
X2990238Y-6067524D01*
X2990238Y-6067524D02*
X2942619Y-6067524D01*
X3142619Y-6067524D02*
X3142619Y-5934190D01*
X3142619Y-5972286D02*
X3152143Y-5953238D01*
X3152143Y-5953238D02*
X3161667Y-5943714D01*
X3161667Y-5943714D02*
X3180714Y-5934190D01*
X3180714Y-5934190D02*
X3199762Y-5934190D01*
X3266428Y-6067524D02*
X3266428Y-5934190D01*
X3266428Y-5867524D02*
X3256905Y-5877048D01*
X3256905Y-5877048D02*
X3266428Y-5886571D01*
X3266428Y-5886571D02*
X3275952Y-5877048D01*
X3275952Y-5877048D02*
X3266428Y-5867524D01*
X3266428Y-5867524D02*
X3266428Y-5886571D01*
X3390238Y-6067524D02*
X3371190Y-6058000D01*
X3371190Y-6058000D02*
X3361667Y-6038952D01*
X3361667Y-6038952D02*
X3361667Y-5867524D01*
X3495000Y-6067524D02*
X3475952Y-6058000D01*
X3475952Y-6058000D02*
X3466428Y-6038952D01*
X3466428Y-6038952D02*
X3466428Y-5867524D01*
X3723571Y-6067524D02*
X3723571Y-5867524D01*
X3723571Y-5867524D02*
X3790238Y-6010381D01*
X3790238Y-6010381D02*
X3856905Y-5867524D01*
X3856905Y-5867524D02*
X3856905Y-6067524D01*
X4037857Y-6067524D02*
X4037857Y-5962762D01*
X4037857Y-5962762D02*
X4028333Y-5943714D01*
X4028333Y-5943714D02*
X4009286Y-5934190D01*
X4009286Y-5934190D02*
X3971190Y-5934190D01*
X3971190Y-5934190D02*
X3952143Y-5943714D01*
X4037857Y-6058000D02*
X4018809Y-6067524D01*
X4018809Y-6067524D02*
X3971190Y-6067524D01*
X3971190Y-6067524D02*
X3952143Y-6058000D01*
X3952143Y-6058000D02*
X3942619Y-6038952D01*
X3942619Y-6038952D02*
X3942619Y-6019905D01*
X3942619Y-6019905D02*
X3952143Y-6000857D01*
X3952143Y-6000857D02*
X3971190Y-5991333D01*
X3971190Y-5991333D02*
X4018809Y-5991333D01*
X4018809Y-5991333D02*
X4037857Y-5981809D01*
X4133095Y-5934190D02*
X4133095Y-6134190D01*
X4133095Y-5943714D02*
X4152143Y-5934190D01*
X4152143Y-5934190D02*
X4190238Y-5934190D01*
X4190238Y-5934190D02*
X4209286Y-5943714D01*
X4209286Y-5943714D02*
X4218810Y-5953238D01*
X4218810Y-5953238D02*
X4228333Y-5972286D01*
X4228333Y-5972286D02*
X4228333Y-6029428D01*
X4228333Y-6029428D02*
X4218810Y-6048476D01*
X4218810Y-6048476D02*
X4209286Y-6058000D01*
X4209286Y-6058000D02*
X4190238Y-6067524D01*
X4190238Y-6067524D02*
X4152143Y-6067524D01*
X4152143Y-6067524D02*
X4133095Y-6058000D01*
X4314048Y-6048476D02*
X4323571Y-6058000D01*
X4323571Y-6058000D02*
X4314048Y-6067524D01*
X4314048Y-6067524D02*
X4304524Y-6058000D01*
X4304524Y-6058000D02*
X4314048Y-6048476D01*
X4314048Y-6048476D02*
X4314048Y-6067524D01*
X4314048Y-5943714D02*
X4323571Y-5953238D01*
X4323571Y-5953238D02*
X4314048Y-5962762D01*
X4314048Y-5962762D02*
X4304524Y-5953238D01*
X4304524Y-5953238D02*
X4314048Y-5943714D01*
X4314048Y-5943714D02*
X4314048Y-5962762D01*
D12*
X2665000Y-6380000D02*
X2695000Y-6410000D01*
X2695000Y-6380000D02*
X2665000Y-6410000D01*
D11*
X2980714Y-6287524D02*
X2999762Y-6287524D01*
X2999762Y-6287524D02*
X3018809Y-6297048D01*
X3018809Y-6297048D02*
X3028333Y-6306571D01*
X3028333Y-6306571D02*
X3037857Y-6325619D01*
X3037857Y-6325619D02*
X3047381Y-6363714D01*
X3047381Y-6363714D02*
X3047381Y-6411333D01*
X3047381Y-6411333D02*
X3037857Y-6449428D01*
X3037857Y-6449428D02*
X3028333Y-6468476D01*
X3028333Y-6468476D02*
X3018809Y-6478000D01*
X3018809Y-6478000D02*
X2999762Y-6487524D01*
X2999762Y-6487524D02*
X2980714Y-6487524D01*
X2980714Y-6487524D02*
X2961667Y-6478000D01*
X2961667Y-6478000D02*
X2952143Y-6468476D01*
X2952143Y-6468476D02*
X2942619Y-6449428D01*
X2942619Y-6449428D02*
X2933095Y-6411333D01*
X2933095Y-6411333D02*
X2933095Y-6363714D01*
X2933095Y-6363714D02*
X2942619Y-6325619D01*
X2942619Y-6325619D02*
X2952143Y-6306571D01*
X2952143Y-6306571D02*
X2961667Y-6297048D01*
X2961667Y-6297048D02*
X2980714Y-6287524D01*
X3133095Y-6468476D02*
X3142619Y-6478000D01*
X3142619Y-6478000D02*
X3133095Y-6487524D01*
X3133095Y-6487524D02*
X3123571Y-6478000D01*
X3123571Y-6478000D02*
X3133095Y-6468476D01*
X3133095Y-6468476D02*
X3133095Y-6487524D01*
X3209286Y-6287524D02*
X3333095Y-6287524D01*
X3333095Y-6287524D02*
X3266428Y-6363714D01*
X3266428Y-6363714D02*
X3295000Y-6363714D01*
X3295000Y-6363714D02*
X3314048Y-6373238D01*
X3314048Y-6373238D02*
X3323571Y-6382762D01*
X3323571Y-6382762D02*
X3333095Y-6401809D01*
X3333095Y-6401809D02*
X3333095Y-6449428D01*
X3333095Y-6449428D02*
X3323571Y-6468476D01*
X3323571Y-6468476D02*
X3314048Y-6478000D01*
X3314048Y-6478000D02*
X3295000Y-6487524D01*
X3295000Y-6487524D02*
X3237857Y-6487524D01*
X3237857Y-6487524D02*
X3218809Y-6478000D01*
X3218809Y-6478000D02*
X3209286Y-6468476D01*
X3456905Y-6287524D02*
X3475952Y-6287524D01*
X3475952Y-6287524D02*
X3495000Y-6297048D01*
X3495000Y-6297048D02*
X3504524Y-6306571D01*
X3504524Y-6306571D02*
X3514048Y-6325619D01*
X3514048Y-6325619D02*
X3523571Y-6363714D01*
X3523571Y-6363714D02*
X3523571Y-6411333D01*
X3523571Y-6411333D02*
X3514048Y-6449428D01*
X3514048Y-6449428D02*
X3504524Y-6468476D01*
X3504524Y-6468476D02*
X3495000Y-6478000D01*
X3495000Y-6478000D02*
X3475952Y-6487524D01*
X3475952Y-6487524D02*
X3456905Y-6487524D01*
X3456905Y-6487524D02*
X3437857Y-6478000D01*
X3437857Y-6478000D02*
X3428333Y-6468476D01*
X3428333Y-6468476D02*
X3418809Y-6449428D01*
X3418809Y-6449428D02*
X3409286Y-6411333D01*
X3409286Y-6411333D02*
X3409286Y-6363714D01*
X3409286Y-6363714D02*
X3418809Y-6325619D01*
X3418809Y-6325619D02*
X3428333Y-6306571D01*
X3428333Y-6306571D02*
X3437857Y-6297048D01*
X3437857Y-6297048D02*
X3456905Y-6287524D01*
X3647381Y-6287524D02*
X3666429Y-6287524D01*
X3666429Y-6287524D02*
X3685476Y-6297048D01*
X3685476Y-6297048D02*
X3695000Y-6306571D01*
X3695000Y-6306571D02*
X3704524Y-6325619D01*
X3704524Y-6325619D02*
X3714048Y-6363714D01*
X3714048Y-6363714D02*
X3714048Y-6411333D01*
X3714048Y-6411333D02*
X3704524Y-6449428D01*
X3704524Y-6449428D02*
X3695000Y-6468476D01*
X3695000Y-6468476D02*
X3685476Y-6478000D01*
X3685476Y-6478000D02*
X3666429Y-6487524D01*
X3666429Y-6487524D02*
X3647381Y-6487524D01*
X3647381Y-6487524D02*
X3628333Y-6478000D01*
X3628333Y-6478000D02*
X3618809Y-6468476D01*
X3618809Y-6468476D02*
X3609286Y-6449428D01*
X3609286Y-6449428D02*
X3599762Y-6411333D01*
X3599762Y-6411333D02*
X3599762Y-6363714D01*
X3599762Y-6363714D02*
X3609286Y-6325619D01*
X3609286Y-6325619D02*
X3618809Y-6306571D01*
X3618809Y-6306571D02*
X3628333Y-6297048D01*
X3628333Y-6297048D02*
X3647381Y-6287524D01*
X3799762Y-6487524D02*
X3799762Y-6354190D01*
X3799762Y-6373238D02*
X3809286Y-6363714D01*
X3809286Y-6363714D02*
X3828333Y-6354190D01*
X3828333Y-6354190D02*
X3856905Y-6354190D01*
X3856905Y-6354190D02*
X3875952Y-6363714D01*
X3875952Y-6363714D02*
X3885476Y-6382762D01*
X3885476Y-6382762D02*
X3885476Y-6487524D01*
X3885476Y-6382762D02*
X3895000Y-6363714D01*
X3895000Y-6363714D02*
X3914048Y-6354190D01*
X3914048Y-6354190D02*
X3942619Y-6354190D01*
X3942619Y-6354190D02*
X3961667Y-6363714D01*
X3961667Y-6363714D02*
X3971190Y-6382762D01*
X3971190Y-6382762D02*
X3971190Y-6487524D01*
X4066429Y-6487524D02*
X4066429Y-6354190D01*
X4066429Y-6373238D02*
X4075952Y-6363714D01*
X4075952Y-6363714D02*
X4095000Y-6354190D01*
X4095000Y-6354190D02*
X4123571Y-6354190D01*
X4123571Y-6354190D02*
X4142619Y-6363714D01*
X4142619Y-6363714D02*
X4152143Y-6382762D01*
X4152143Y-6382762D02*
X4152143Y-6487524D01*
X4152143Y-6382762D02*
X4161667Y-6363714D01*
X4161667Y-6363714D02*
X4180714Y-6354190D01*
X4180714Y-6354190D02*
X4209286Y-6354190D01*
X4209286Y-6354190D02*
X4228333Y-6363714D01*
X4228333Y-6363714D02*
X4237857Y-6382762D01*
X4237857Y-6382762D02*
X4237857Y-6487524D01*
X4628333Y-6278000D02*
X4456905Y-6535143D01*
X4885476Y-6287524D02*
X4904524Y-6287524D01*
X4904524Y-6287524D02*
X4923572Y-6297048D01*
X4923572Y-6297048D02*
X4933095Y-6306571D01*
X4933095Y-6306571D02*
X4942619Y-6325619D01*
X4942619Y-6325619D02*
X4952143Y-6363714D01*
X4952143Y-6363714D02*
X4952143Y-6411333D01*
X4952143Y-6411333D02*
X4942619Y-6449428D01*
X4942619Y-6449428D02*
X4933095Y-6468476D01*
X4933095Y-6468476D02*
X4923572Y-6478000D01*
X4923572Y-6478000D02*
X4904524Y-6487524D01*
X4904524Y-6487524D02*
X4885476Y-6487524D01*
X4885476Y-6487524D02*
X4866429Y-6478000D01*
X4866429Y-6478000D02*
X4856905Y-6468476D01*
X4856905Y-6468476D02*
X4847381Y-6449428D01*
X4847381Y-6449428D02*
X4837857Y-6411333D01*
X4837857Y-6411333D02*
X4837857Y-6363714D01*
X4837857Y-6363714D02*
X4847381Y-6325619D01*
X4847381Y-6325619D02*
X4856905Y-6306571D01*
X4856905Y-6306571D02*
X4866429Y-6297048D01*
X4866429Y-6297048D02*
X4885476Y-6287524D01*
X5037857Y-6468476D02*
X5047381Y-6478000D01*
X5047381Y-6478000D02*
X5037857Y-6487524D01*
X5037857Y-6487524D02*
X5028334Y-6478000D01*
X5028334Y-6478000D02*
X5037857Y-6468476D01*
X5037857Y-6468476D02*
X5037857Y-6487524D01*
X5171191Y-6287524D02*
X5190238Y-6287524D01*
X5190238Y-6287524D02*
X5209286Y-6297048D01*
X5209286Y-6297048D02*
X5218810Y-6306571D01*
X5218810Y-6306571D02*
X5228334Y-6325619D01*
X5228334Y-6325619D02*
X5237857Y-6363714D01*
X5237857Y-6363714D02*
X5237857Y-6411333D01*
X5237857Y-6411333D02*
X5228334Y-6449428D01*
X5228334Y-6449428D02*
X5218810Y-6468476D01*
X5218810Y-6468476D02*
X5209286Y-6478000D01*
X5209286Y-6478000D02*
X5190238Y-6487524D01*
X5190238Y-6487524D02*
X5171191Y-6487524D01*
X5171191Y-6487524D02*
X5152143Y-6478000D01*
X5152143Y-6478000D02*
X5142619Y-6468476D01*
X5142619Y-6468476D02*
X5133095Y-6449428D01*
X5133095Y-6449428D02*
X5123572Y-6411333D01*
X5123572Y-6411333D02*
X5123572Y-6363714D01*
X5123572Y-6363714D02*
X5133095Y-6325619D01*
X5133095Y-6325619D02*
X5142619Y-6306571D01*
X5142619Y-6306571D02*
X5152143Y-6297048D01*
X5152143Y-6297048D02*
X5171191Y-6287524D01*
X5428334Y-6487524D02*
X5314048Y-6487524D01*
X5371191Y-6487524D02*
X5371191Y-6287524D01*
X5371191Y-6287524D02*
X5352143Y-6316095D01*
X5352143Y-6316095D02*
X5333095Y-6335143D01*
X5333095Y-6335143D02*
X5314048Y-6344667D01*
X5618810Y-6487524D02*
X5504524Y-6487524D01*
X5561667Y-6487524D02*
X5561667Y-6287524D01*
X5561667Y-6287524D02*
X5542619Y-6316095D01*
X5542619Y-6316095D02*
X5523572Y-6335143D01*
X5523572Y-6335143D02*
X5504524Y-6344667D01*
X5733095Y-6373238D02*
X5714048Y-6363714D01*
X5714048Y-6363714D02*
X5704524Y-6354190D01*
X5704524Y-6354190D02*
X5695000Y-6335143D01*
X5695000Y-6335143D02*
X5695000Y-6325619D01*
X5695000Y-6325619D02*
X5704524Y-6306571D01*
X5704524Y-6306571D02*
X5714048Y-6297048D01*
X5714048Y-6297048D02*
X5733095Y-6287524D01*
X5733095Y-6287524D02*
X5771191Y-6287524D01*
X5771191Y-6287524D02*
X5790238Y-6297048D01*
X5790238Y-6297048D02*
X5799762Y-6306571D01*
X5799762Y-6306571D02*
X5809286Y-6325619D01*
X5809286Y-6325619D02*
X5809286Y-6335143D01*
X5809286Y-6335143D02*
X5799762Y-6354190D01*
X5799762Y-6354190D02*
X5790238Y-6363714D01*
X5790238Y-6363714D02*
X5771191Y-6373238D01*
X5771191Y-6373238D02*
X5733095Y-6373238D01*
X5733095Y-6373238D02*
X5714048Y-6382762D01*
X5714048Y-6382762D02*
X5704524Y-6392286D01*
X5704524Y-6392286D02*
X5695000Y-6411333D01*
X5695000Y-6411333D02*
X5695000Y-6449428D01*
X5695000Y-6449428D02*
X5704524Y-6468476D01*
X5704524Y-6468476D02*
X5714048Y-6478000D01*
X5714048Y-6478000D02*
X5733095Y-6487524D01*
X5733095Y-6487524D02*
X5771191Y-6487524D01*
X5771191Y-6487524D02*
X5790238Y-6478000D01*
X5790238Y-6478000D02*
X5799762Y-6468476D01*
X5799762Y-6468476D02*
X5809286Y-6449428D01*
X5809286Y-6449428D02*
X5809286Y-6411333D01*
X5809286Y-6411333D02*
X5799762Y-6392286D01*
X5799762Y-6392286D02*
X5790238Y-6382762D01*
X5790238Y-6382762D02*
X5771191Y-6373238D01*
X5885476Y-6287524D02*
X5885476Y-6325619D01*
X5961667Y-6287524D02*
X5961667Y-6325619D01*
X6256905Y-6563714D02*
X6247381Y-6554190D01*
X6247381Y-6554190D02*
X6228334Y-6525619D01*
X6228334Y-6525619D02*
X6218810Y-6506571D01*
X6218810Y-6506571D02*
X6209286Y-6478000D01*
X6209286Y-6478000D02*
X6199762Y-6430381D01*
X6199762Y-6430381D02*
X6199762Y-6392286D01*
X6199762Y-6392286D02*
X6209286Y-6344667D01*
X6209286Y-6344667D02*
X6218810Y-6316095D01*
X6218810Y-6316095D02*
X6228334Y-6297048D01*
X6228334Y-6297048D02*
X6247381Y-6268476D01*
X6247381Y-6268476D02*
X6256905Y-6258952D01*
X6323572Y-6306571D02*
X6333095Y-6297048D01*
X6333095Y-6297048D02*
X6352143Y-6287524D01*
X6352143Y-6287524D02*
X6399762Y-6287524D01*
X6399762Y-6287524D02*
X6418810Y-6297048D01*
X6418810Y-6297048D02*
X6428334Y-6306571D01*
X6428334Y-6306571D02*
X6437857Y-6325619D01*
X6437857Y-6325619D02*
X6437857Y-6344667D01*
X6437857Y-6344667D02*
X6428334Y-6373238D01*
X6428334Y-6373238D02*
X6314048Y-6487524D01*
X6314048Y-6487524D02*
X6437857Y-6487524D01*
X6533095Y-6487524D02*
X6571191Y-6487524D01*
X6571191Y-6487524D02*
X6590238Y-6478000D01*
X6590238Y-6478000D02*
X6599762Y-6468476D01*
X6599762Y-6468476D02*
X6618810Y-6439905D01*
X6618810Y-6439905D02*
X6628334Y-6401809D01*
X6628334Y-6401809D02*
X6628334Y-6325619D01*
X6628334Y-6325619D02*
X6618810Y-6306571D01*
X6618810Y-6306571D02*
X6609286Y-6297048D01*
X6609286Y-6297048D02*
X6590238Y-6287524D01*
X6590238Y-6287524D02*
X6552143Y-6287524D01*
X6552143Y-6287524D02*
X6533095Y-6297048D01*
X6533095Y-6297048D02*
X6523572Y-6306571D01*
X6523572Y-6306571D02*
X6514048Y-6325619D01*
X6514048Y-6325619D02*
X6514048Y-6373238D01*
X6514048Y-6373238D02*
X6523572Y-6392286D01*
X6523572Y-6392286D02*
X6533095Y-6401809D01*
X6533095Y-6401809D02*
X6552143Y-6411333D01*
X6552143Y-6411333D02*
X6590238Y-6411333D01*
X6590238Y-6411333D02*
X6609286Y-6401809D01*
X6609286Y-6401809D02*
X6618810Y-6392286D01*
X6618810Y-6392286D02*
X6628334Y-6373238D01*
X6799762Y-6354190D02*
X6799762Y-6487524D01*
X6752143Y-6278000D02*
X6704524Y-6420857D01*
X6704524Y-6420857D02*
X6828334Y-6420857D01*
X7056905Y-6487524D02*
X7056905Y-6287524D01*
X7142619Y-6487524D02*
X7142619Y-6382762D01*
X7142619Y-6382762D02*
X7133096Y-6363714D01*
X7133096Y-6363714D02*
X7114048Y-6354190D01*
X7114048Y-6354190D02*
X7085476Y-6354190D01*
X7085476Y-6354190D02*
X7066429Y-6363714D01*
X7066429Y-6363714D02*
X7056905Y-6373238D01*
X7266429Y-6487524D02*
X7247381Y-6478000D01*
X7247381Y-6478000D02*
X7237857Y-6468476D01*
X7237857Y-6468476D02*
X7228334Y-6449428D01*
X7228334Y-6449428D02*
X7228334Y-6392286D01*
X7228334Y-6392286D02*
X7237857Y-6373238D01*
X7237857Y-6373238D02*
X7247381Y-6363714D01*
X7247381Y-6363714D02*
X7266429Y-6354190D01*
X7266429Y-6354190D02*
X7295000Y-6354190D01*
X7295000Y-6354190D02*
X7314048Y-6363714D01*
X7314048Y-6363714D02*
X7323572Y-6373238D01*
X7323572Y-6373238D02*
X7333096Y-6392286D01*
X7333096Y-6392286D02*
X7333096Y-6449428D01*
X7333096Y-6449428D02*
X7323572Y-6468476D01*
X7323572Y-6468476D02*
X7314048Y-6478000D01*
X7314048Y-6478000D02*
X7295000Y-6487524D01*
X7295000Y-6487524D02*
X7266429Y-6487524D01*
X7447381Y-6487524D02*
X7428334Y-6478000D01*
X7428334Y-6478000D02*
X7418810Y-6458952D01*
X7418810Y-6458952D02*
X7418810Y-6287524D01*
X7599762Y-6478000D02*
X7580715Y-6487524D01*
X7580715Y-6487524D02*
X7542619Y-6487524D01*
X7542619Y-6487524D02*
X7523572Y-6478000D01*
X7523572Y-6478000D02*
X7514048Y-6458952D01*
X7514048Y-6458952D02*
X7514048Y-6382762D01*
X7514048Y-6382762D02*
X7523572Y-6363714D01*
X7523572Y-6363714D02*
X7542619Y-6354190D01*
X7542619Y-6354190D02*
X7580715Y-6354190D01*
X7580715Y-6354190D02*
X7599762Y-6363714D01*
X7599762Y-6363714D02*
X7609286Y-6382762D01*
X7609286Y-6382762D02*
X7609286Y-6401809D01*
X7609286Y-6401809D02*
X7514048Y-6420857D01*
X7685477Y-6478000D02*
X7704524Y-6487524D01*
X7704524Y-6487524D02*
X7742619Y-6487524D01*
X7742619Y-6487524D02*
X7761667Y-6478000D01*
X7761667Y-6478000D02*
X7771191Y-6458952D01*
X7771191Y-6458952D02*
X7771191Y-6449428D01*
X7771191Y-6449428D02*
X7761667Y-6430381D01*
X7761667Y-6430381D02*
X7742619Y-6420857D01*
X7742619Y-6420857D02*
X7714048Y-6420857D01*
X7714048Y-6420857D02*
X7695000Y-6411333D01*
X7695000Y-6411333D02*
X7685477Y-6392286D01*
X7685477Y-6392286D02*
X7685477Y-6382762D01*
X7685477Y-6382762D02*
X7695000Y-6363714D01*
X7695000Y-6363714D02*
X7714048Y-6354190D01*
X7714048Y-6354190D02*
X7742619Y-6354190D01*
X7742619Y-6354190D02*
X7761667Y-6363714D01*
X7837858Y-6563714D02*
X7847381Y-6554190D01*
X7847381Y-6554190D02*
X7866429Y-6525619D01*
X7866429Y-6525619D02*
X7875953Y-6506571D01*
X7875953Y-6506571D02*
X7885477Y-6478000D01*
X7885477Y-6478000D02*
X7895000Y-6430381D01*
X7895000Y-6430381D02*
X7895000Y-6392286D01*
X7895000Y-6392286D02*
X7885477Y-6344667D01*
X7885477Y-6344667D02*
X7875953Y-6316095D01*
X7875953Y-6316095D02*
X7866429Y-6297048D01*
X7866429Y-6297048D02*
X7847381Y-6268476D01*
X7847381Y-6268476D02*
X7837858Y-6258952D01*
D13*
X2695000Y-6659000D02*
G75*
G03*
X2695000Y-6659000I-20000J0D01*
G01*
D11*
X2980714Y-6551524D02*
X2999762Y-6551524D01*
X2999762Y-6551524D02*
X3018809Y-6561048D01*
X3018809Y-6561048D02*
X3028333Y-6570571D01*
X3028333Y-6570571D02*
X3037857Y-6589619D01*
X3037857Y-6589619D02*
X3047381Y-6627714D01*
X3047381Y-6627714D02*
X3047381Y-6675333D01*
X3047381Y-6675333D02*
X3037857Y-6713428D01*
X3037857Y-6713428D02*
X3028333Y-6732476D01*
X3028333Y-6732476D02*
X3018809Y-6742000D01*
X3018809Y-6742000D02*
X2999762Y-6751524D01*
X2999762Y-6751524D02*
X2980714Y-6751524D01*
X2980714Y-6751524D02*
X2961667Y-6742000D01*
X2961667Y-6742000D02*
X2952143Y-6732476D01*
X2952143Y-6732476D02*
X2942619Y-6713428D01*
X2942619Y-6713428D02*
X2933095Y-6675333D01*
X2933095Y-6675333D02*
X2933095Y-6627714D01*
X2933095Y-6627714D02*
X2942619Y-6589619D01*
X2942619Y-6589619D02*
X2952143Y-6570571D01*
X2952143Y-6570571D02*
X2961667Y-6561048D01*
X2961667Y-6561048D02*
X2980714Y-6551524D01*
X3133095Y-6732476D02*
X3142619Y-6742000D01*
X3142619Y-6742000D02*
X3133095Y-6751524D01*
X3133095Y-6751524D02*
X3123571Y-6742000D01*
X3123571Y-6742000D02*
X3133095Y-6732476D01*
X3133095Y-6732476D02*
X3133095Y-6751524D01*
X3314048Y-6618190D02*
X3314048Y-6751524D01*
X3266428Y-6542000D02*
X3218809Y-6684857D01*
X3218809Y-6684857D02*
X3342619Y-6684857D01*
X3456905Y-6551524D02*
X3475952Y-6551524D01*
X3475952Y-6551524D02*
X3495000Y-6561048D01*
X3495000Y-6561048D02*
X3504524Y-6570571D01*
X3504524Y-6570571D02*
X3514048Y-6589619D01*
X3514048Y-6589619D02*
X3523571Y-6627714D01*
X3523571Y-6627714D02*
X3523571Y-6675333D01*
X3523571Y-6675333D02*
X3514048Y-6713428D01*
X3514048Y-6713428D02*
X3504524Y-6732476D01*
X3504524Y-6732476D02*
X3495000Y-6742000D01*
X3495000Y-6742000D02*
X3475952Y-6751524D01*
X3475952Y-6751524D02*
X3456905Y-6751524D01*
X3456905Y-6751524D02*
X3437857Y-6742000D01*
X3437857Y-6742000D02*
X3428333Y-6732476D01*
X3428333Y-6732476D02*
X3418809Y-6713428D01*
X3418809Y-6713428D02*
X3409286Y-6675333D01*
X3409286Y-6675333D02*
X3409286Y-6627714D01*
X3409286Y-6627714D02*
X3418809Y-6589619D01*
X3418809Y-6589619D02*
X3428333Y-6570571D01*
X3428333Y-6570571D02*
X3437857Y-6561048D01*
X3437857Y-6561048D02*
X3456905Y-6551524D01*
X3647381Y-6551524D02*
X3666429Y-6551524D01*
X3666429Y-6551524D02*
X3685476Y-6561048D01*
X3685476Y-6561048D02*
X3695000Y-6570571D01*
X3695000Y-6570571D02*
X3704524Y-6589619D01*
X3704524Y-6589619D02*
X3714048Y-6627714D01*
X3714048Y-6627714D02*
X3714048Y-6675333D01*
X3714048Y-6675333D02*
X3704524Y-6713428D01*
X3704524Y-6713428D02*
X3695000Y-6732476D01*
X3695000Y-6732476D02*
X3685476Y-6742000D01*
X3685476Y-6742000D02*
X3666429Y-6751524D01*
X3666429Y-6751524D02*
X3647381Y-6751524D01*
X3647381Y-6751524D02*
X3628333Y-6742000D01*
X3628333Y-6742000D02*
X3618809Y-6732476D01*
X3618809Y-6732476D02*
X3609286Y-6713428D01*
X3609286Y-6713428D02*
X3599762Y-6675333D01*
X3599762Y-6675333D02*
X3599762Y-6627714D01*
X3599762Y-6627714D02*
X3609286Y-6589619D01*
X3609286Y-6589619D02*
X3618809Y-6570571D01*
X3618809Y-6570571D02*
X3628333Y-6561048D01*
X3628333Y-6561048D02*
X3647381Y-6551524D01*
X3799762Y-6751524D02*
X3799762Y-6618190D01*
X3799762Y-6637238D02*
X3809286Y-6627714D01*
X3809286Y-6627714D02*
X3828333Y-6618190D01*
X3828333Y-6618190D02*
X3856905Y-6618190D01*
X3856905Y-6618190D02*
X3875952Y-6627714D01*
X3875952Y-6627714D02*
X3885476Y-6646762D01*
X3885476Y-6646762D02*
X3885476Y-6751524D01*
X3885476Y-6646762D02*
X3895000Y-6627714D01*
X3895000Y-6627714D02*
X3914048Y-6618190D01*
X3914048Y-6618190D02*
X3942619Y-6618190D01*
X3942619Y-6618190D02*
X3961667Y-6627714D01*
X3961667Y-6627714D02*
X3971190Y-6646762D01*
X3971190Y-6646762D02*
X3971190Y-6751524D01*
X4066429Y-6751524D02*
X4066429Y-6618190D01*
X4066429Y-6637238D02*
X4075952Y-6627714D01*
X4075952Y-6627714D02*
X4095000Y-6618190D01*
X4095000Y-6618190D02*
X4123571Y-6618190D01*
X4123571Y-6618190D02*
X4142619Y-6627714D01*
X4142619Y-6627714D02*
X4152143Y-6646762D01*
X4152143Y-6646762D02*
X4152143Y-6751524D01*
X4152143Y-6646762D02*
X4161667Y-6627714D01*
X4161667Y-6627714D02*
X4180714Y-6618190D01*
X4180714Y-6618190D02*
X4209286Y-6618190D01*
X4209286Y-6618190D02*
X4228333Y-6627714D01*
X4228333Y-6627714D02*
X4237857Y-6646762D01*
X4237857Y-6646762D02*
X4237857Y-6751524D01*
X4628333Y-6542000D02*
X4456905Y-6799143D01*
X4885476Y-6551524D02*
X4904524Y-6551524D01*
X4904524Y-6551524D02*
X4923572Y-6561048D01*
X4923572Y-6561048D02*
X4933095Y-6570571D01*
X4933095Y-6570571D02*
X4942619Y-6589619D01*
X4942619Y-6589619D02*
X4952143Y-6627714D01*
X4952143Y-6627714D02*
X4952143Y-6675333D01*
X4952143Y-6675333D02*
X4942619Y-6713428D01*
X4942619Y-6713428D02*
X4933095Y-6732476D01*
X4933095Y-6732476D02*
X4923572Y-6742000D01*
X4923572Y-6742000D02*
X4904524Y-6751524D01*
X4904524Y-6751524D02*
X4885476Y-6751524D01*
X4885476Y-6751524D02*
X4866429Y-6742000D01*
X4866429Y-6742000D02*
X4856905Y-6732476D01*
X4856905Y-6732476D02*
X4847381Y-6713428D01*
X4847381Y-6713428D02*
X4837857Y-6675333D01*
X4837857Y-6675333D02*
X4837857Y-6627714D01*
X4837857Y-6627714D02*
X4847381Y-6589619D01*
X4847381Y-6589619D02*
X4856905Y-6570571D01*
X4856905Y-6570571D02*
X4866429Y-6561048D01*
X4866429Y-6561048D02*
X4885476Y-6551524D01*
X5037857Y-6732476D02*
X5047381Y-6742000D01*
X5047381Y-6742000D02*
X5037857Y-6751524D01*
X5037857Y-6751524D02*
X5028334Y-6742000D01*
X5028334Y-6742000D02*
X5037857Y-6732476D01*
X5037857Y-6732476D02*
X5037857Y-6751524D01*
X5171191Y-6551524D02*
X5190238Y-6551524D01*
X5190238Y-6551524D02*
X5209286Y-6561048D01*
X5209286Y-6561048D02*
X5218810Y-6570571D01*
X5218810Y-6570571D02*
X5228334Y-6589619D01*
X5228334Y-6589619D02*
X5237857Y-6627714D01*
X5237857Y-6627714D02*
X5237857Y-6675333D01*
X5237857Y-6675333D02*
X5228334Y-6713428D01*
X5228334Y-6713428D02*
X5218810Y-6732476D01*
X5218810Y-6732476D02*
X5209286Y-6742000D01*
X5209286Y-6742000D02*
X5190238Y-6751524D01*
X5190238Y-6751524D02*
X5171191Y-6751524D01*
X5171191Y-6751524D02*
X5152143Y-6742000D01*
X5152143Y-6742000D02*
X5142619Y-6732476D01*
X5142619Y-6732476D02*
X5133095Y-6713428D01*
X5133095Y-6713428D02*
X5123572Y-6675333D01*
X5123572Y-6675333D02*
X5123572Y-6627714D01*
X5123572Y-6627714D02*
X5133095Y-6589619D01*
X5133095Y-6589619D02*
X5142619Y-6570571D01*
X5142619Y-6570571D02*
X5152143Y-6561048D01*
X5152143Y-6561048D02*
X5171191Y-6551524D01*
X5428334Y-6751524D02*
X5314048Y-6751524D01*
X5371191Y-6751524D02*
X5371191Y-6551524D01*
X5371191Y-6551524D02*
X5352143Y-6580095D01*
X5352143Y-6580095D02*
X5333095Y-6599143D01*
X5333095Y-6599143D02*
X5314048Y-6608667D01*
X5609286Y-6551524D02*
X5514048Y-6551524D01*
X5514048Y-6551524D02*
X5504524Y-6646762D01*
X5504524Y-6646762D02*
X5514048Y-6637238D01*
X5514048Y-6637238D02*
X5533095Y-6627714D01*
X5533095Y-6627714D02*
X5580715Y-6627714D01*
X5580715Y-6627714D02*
X5599762Y-6637238D01*
X5599762Y-6637238D02*
X5609286Y-6646762D01*
X5609286Y-6646762D02*
X5618810Y-6665809D01*
X5618810Y-6665809D02*
X5618810Y-6713428D01*
X5618810Y-6713428D02*
X5609286Y-6732476D01*
X5609286Y-6732476D02*
X5599762Y-6742000D01*
X5599762Y-6742000D02*
X5580715Y-6751524D01*
X5580715Y-6751524D02*
X5533095Y-6751524D01*
X5533095Y-6751524D02*
X5514048Y-6742000D01*
X5514048Y-6742000D02*
X5504524Y-6732476D01*
X5685476Y-6551524D02*
X5818810Y-6551524D01*
X5818810Y-6551524D02*
X5733095Y-6751524D01*
X5885476Y-6551524D02*
X5885476Y-6589619D01*
X5961667Y-6551524D02*
X5961667Y-6589619D01*
X6256905Y-6827714D02*
X6247381Y-6818190D01*
X6247381Y-6818190D02*
X6228334Y-6789619D01*
X6228334Y-6789619D02*
X6218810Y-6770571D01*
X6218810Y-6770571D02*
X6209286Y-6742000D01*
X6209286Y-6742000D02*
X6199762Y-6694381D01*
X6199762Y-6694381D02*
X6199762Y-6656286D01*
X6199762Y-6656286D02*
X6209286Y-6608667D01*
X6209286Y-6608667D02*
X6218810Y-6580095D01*
X6218810Y-6580095D02*
X6228334Y-6561048D01*
X6228334Y-6561048D02*
X6247381Y-6532476D01*
X6247381Y-6532476D02*
X6256905Y-6522952D01*
X6418810Y-6551524D02*
X6380714Y-6551524D01*
X6380714Y-6551524D02*
X6361667Y-6561048D01*
X6361667Y-6561048D02*
X6352143Y-6570571D01*
X6352143Y-6570571D02*
X6333095Y-6599143D01*
X6333095Y-6599143D02*
X6323572Y-6637238D01*
X6323572Y-6637238D02*
X6323572Y-6713428D01*
X6323572Y-6713428D02*
X6333095Y-6732476D01*
X6333095Y-6732476D02*
X6342619Y-6742000D01*
X6342619Y-6742000D02*
X6361667Y-6751524D01*
X6361667Y-6751524D02*
X6399762Y-6751524D01*
X6399762Y-6751524D02*
X6418810Y-6742000D01*
X6418810Y-6742000D02*
X6428334Y-6732476D01*
X6428334Y-6732476D02*
X6437857Y-6713428D01*
X6437857Y-6713428D02*
X6437857Y-6665809D01*
X6437857Y-6665809D02*
X6428334Y-6646762D01*
X6428334Y-6646762D02*
X6418810Y-6637238D01*
X6418810Y-6637238D02*
X6399762Y-6627714D01*
X6399762Y-6627714D02*
X6361667Y-6627714D01*
X6361667Y-6627714D02*
X6342619Y-6637238D01*
X6342619Y-6637238D02*
X6333095Y-6646762D01*
X6333095Y-6646762D02*
X6323572Y-6665809D01*
X6504524Y-6551524D02*
X6637857Y-6551524D01*
X6637857Y-6551524D02*
X6552143Y-6751524D01*
X6866429Y-6751524D02*
X6866429Y-6551524D01*
X6952143Y-6751524D02*
X6952143Y-6646762D01*
X6952143Y-6646762D02*
X6942619Y-6627714D01*
X6942619Y-6627714D02*
X6923572Y-6618190D01*
X6923572Y-6618190D02*
X6895000Y-6618190D01*
X6895000Y-6618190D02*
X6875953Y-6627714D01*
X6875953Y-6627714D02*
X6866429Y-6637238D01*
X7075953Y-6751524D02*
X7056905Y-6742000D01*
X7056905Y-6742000D02*
X7047381Y-6732476D01*
X7047381Y-6732476D02*
X7037857Y-6713428D01*
X7037857Y-6713428D02*
X7037857Y-6656286D01*
X7037857Y-6656286D02*
X7047381Y-6637238D01*
X7047381Y-6637238D02*
X7056905Y-6627714D01*
X7056905Y-6627714D02*
X7075953Y-6618190D01*
X7075953Y-6618190D02*
X7104524Y-6618190D01*
X7104524Y-6618190D02*
X7123572Y-6627714D01*
X7123572Y-6627714D02*
X7133096Y-6637238D01*
X7133096Y-6637238D02*
X7142619Y-6656286D01*
X7142619Y-6656286D02*
X7142619Y-6713428D01*
X7142619Y-6713428D02*
X7133096Y-6732476D01*
X7133096Y-6732476D02*
X7123572Y-6742000D01*
X7123572Y-6742000D02*
X7104524Y-6751524D01*
X7104524Y-6751524D02*
X7075953Y-6751524D01*
X7256905Y-6751524D02*
X7237857Y-6742000D01*
X7237857Y-6742000D02*
X7228334Y-6722952D01*
X7228334Y-6722952D02*
X7228334Y-6551524D01*
X7409286Y-6742000D02*
X7390238Y-6751524D01*
X7390238Y-6751524D02*
X7352143Y-6751524D01*
X7352143Y-6751524D02*
X7333096Y-6742000D01*
X7333096Y-6742000D02*
X7323572Y-6722952D01*
X7323572Y-6722952D02*
X7323572Y-6646762D01*
X7323572Y-6646762D02*
X7333096Y-6627714D01*
X7333096Y-6627714D02*
X7352143Y-6618190D01*
X7352143Y-6618190D02*
X7390238Y-6618190D01*
X7390238Y-6618190D02*
X7409286Y-6627714D01*
X7409286Y-6627714D02*
X7418810Y-6646762D01*
X7418810Y-6646762D02*
X7418810Y-6665809D01*
X7418810Y-6665809D02*
X7323572Y-6684857D01*
X7495000Y-6742000D02*
X7514048Y-6751524D01*
X7514048Y-6751524D02*
X7552143Y-6751524D01*
X7552143Y-6751524D02*
X7571191Y-6742000D01*
X7571191Y-6742000D02*
X7580715Y-6722952D01*
X7580715Y-6722952D02*
X7580715Y-6713428D01*
X7580715Y-6713428D02*
X7571191Y-6694381D01*
X7571191Y-6694381D02*
X7552143Y-6684857D01*
X7552143Y-6684857D02*
X7523572Y-6684857D01*
X7523572Y-6684857D02*
X7504524Y-6675333D01*
X7504524Y-6675333D02*
X7495000Y-6656286D01*
X7495000Y-6656286D02*
X7495000Y-6646762D01*
X7495000Y-6646762D02*
X7504524Y-6627714D01*
X7504524Y-6627714D02*
X7523572Y-6618190D01*
X7523572Y-6618190D02*
X7552143Y-6618190D01*
X7552143Y-6618190D02*
X7571191Y-6627714D01*
X7647381Y-6827714D02*
X7656905Y-6818190D01*
X7656905Y-6818190D02*
X7675953Y-6789619D01*
X7675953Y-6789619D02*
X7685477Y-6770571D01*
X7685477Y-6770571D02*
X7695000Y-6742000D01*
X7695000Y-6742000D02*
X7704524Y-6694381D01*
X7704524Y-6694381D02*
X7704524Y-6656286D01*
X7704524Y-6656286D02*
X7695000Y-6608667D01*
X7695000Y-6608667D02*
X7685477Y-6580095D01*
X7685477Y-6580095D02*
X7675953Y-6561048D01*
X7675953Y-6561048D02*
X7656905Y-6532476D01*
X7656905Y-6532476D02*
X7647381Y-6522952D01*
D14*
X2665000Y-6893000D02*
X2665000Y-6953000D01*
X2635000Y-6923000D02*
X2695000Y-6923000D01*
D11*
X2980714Y-6815524D02*
X2999762Y-6815524D01*
X2999762Y-6815524D02*
X3018809Y-6825048D01*
X3018809Y-6825048D02*
X3028333Y-6834571D01*
X3028333Y-6834571D02*
X3037857Y-6853619D01*
X3037857Y-6853619D02*
X3047381Y-6891714D01*
X3047381Y-6891714D02*
X3047381Y-6939333D01*
X3047381Y-6939333D02*
X3037857Y-6977428D01*
X3037857Y-6977428D02*
X3028333Y-6996476D01*
X3028333Y-6996476D02*
X3018809Y-7006000D01*
X3018809Y-7006000D02*
X2999762Y-7015524D01*
X2999762Y-7015524D02*
X2980714Y-7015524D01*
X2980714Y-7015524D02*
X2961667Y-7006000D01*
X2961667Y-7006000D02*
X2952143Y-6996476D01*
X2952143Y-6996476D02*
X2942619Y-6977428D01*
X2942619Y-6977428D02*
X2933095Y-6939333D01*
X2933095Y-6939333D02*
X2933095Y-6891714D01*
X2933095Y-6891714D02*
X2942619Y-6853619D01*
X2942619Y-6853619D02*
X2952143Y-6834571D01*
X2952143Y-6834571D02*
X2961667Y-6825048D01*
X2961667Y-6825048D02*
X2980714Y-6815524D01*
X3133095Y-6996476D02*
X3142619Y-7006000D01*
X3142619Y-7006000D02*
X3133095Y-7015524D01*
X3133095Y-7015524D02*
X3123571Y-7006000D01*
X3123571Y-7006000D02*
X3133095Y-6996476D01*
X3133095Y-6996476D02*
X3133095Y-7015524D01*
X3314048Y-6815524D02*
X3275952Y-6815524D01*
X3275952Y-6815524D02*
X3256905Y-6825048D01*
X3256905Y-6825048D02*
X3247381Y-6834571D01*
X3247381Y-6834571D02*
X3228333Y-6863143D01*
X3228333Y-6863143D02*
X3218809Y-6901238D01*
X3218809Y-6901238D02*
X3218809Y-6977428D01*
X3218809Y-6977428D02*
X3228333Y-6996476D01*
X3228333Y-6996476D02*
X3237857Y-7006000D01*
X3237857Y-7006000D02*
X3256905Y-7015524D01*
X3256905Y-7015524D02*
X3295000Y-7015524D01*
X3295000Y-7015524D02*
X3314048Y-7006000D01*
X3314048Y-7006000D02*
X3323571Y-6996476D01*
X3323571Y-6996476D02*
X3333095Y-6977428D01*
X3333095Y-6977428D02*
X3333095Y-6929809D01*
X3333095Y-6929809D02*
X3323571Y-6910762D01*
X3323571Y-6910762D02*
X3314048Y-6901238D01*
X3314048Y-6901238D02*
X3295000Y-6891714D01*
X3295000Y-6891714D02*
X3256905Y-6891714D01*
X3256905Y-6891714D02*
X3237857Y-6901238D01*
X3237857Y-6901238D02*
X3228333Y-6910762D01*
X3228333Y-6910762D02*
X3218809Y-6929809D01*
X3456905Y-6815524D02*
X3475952Y-6815524D01*
X3475952Y-6815524D02*
X3495000Y-6825048D01*
X3495000Y-6825048D02*
X3504524Y-6834571D01*
X3504524Y-6834571D02*
X3514048Y-6853619D01*
X3514048Y-6853619D02*
X3523571Y-6891714D01*
X3523571Y-6891714D02*
X3523571Y-6939333D01*
X3523571Y-6939333D02*
X3514048Y-6977428D01*
X3514048Y-6977428D02*
X3504524Y-6996476D01*
X3504524Y-6996476D02*
X3495000Y-7006000D01*
X3495000Y-7006000D02*
X3475952Y-7015524D01*
X3475952Y-7015524D02*
X3456905Y-7015524D01*
X3456905Y-7015524D02*
X3437857Y-7006000D01*
X3437857Y-7006000D02*
X3428333Y-6996476D01*
X3428333Y-6996476D02*
X3418809Y-6977428D01*
X3418809Y-6977428D02*
X3409286Y-6939333D01*
X3409286Y-6939333D02*
X3409286Y-6891714D01*
X3409286Y-6891714D02*
X3418809Y-6853619D01*
X3418809Y-6853619D02*
X3428333Y-6834571D01*
X3428333Y-6834571D02*
X3437857Y-6825048D01*
X3437857Y-6825048D02*
X3456905Y-6815524D01*
X3647381Y-6815524D02*
X3666429Y-6815524D01*
X3666429Y-6815524D02*
X3685476Y-6825048D01*
X3685476Y-6825048D02*
X3695000Y-6834571D01*
X3695000Y-6834571D02*
X3704524Y-6853619D01*
X3704524Y-6853619D02*
X3714048Y-6891714D01*
X3714048Y-6891714D02*
X3714048Y-6939333D01*
X3714048Y-6939333D02*
X3704524Y-6977428D01*
X3704524Y-6977428D02*
X3695000Y-6996476D01*
X3695000Y-6996476D02*
X3685476Y-7006000D01*
X3685476Y-7006000D02*
X3666429Y-7015524D01*
X3666429Y-7015524D02*
X3647381Y-7015524D01*
X3647381Y-7015524D02*
X3628333Y-7006000D01*
X3628333Y-7006000D02*
X3618809Y-6996476D01*
X3618809Y-6996476D02*
X3609286Y-6977428D01*
X3609286Y-6977428D02*
X3599762Y-6939333D01*
X3599762Y-6939333D02*
X3599762Y-6891714D01*
X3599762Y-6891714D02*
X3609286Y-6853619D01*
X3609286Y-6853619D02*
X3618809Y-6834571D01*
X3618809Y-6834571D02*
X3628333Y-6825048D01*
X3628333Y-6825048D02*
X3647381Y-6815524D01*
X3799762Y-7015524D02*
X3799762Y-6882190D01*
X3799762Y-6901238D02*
X3809286Y-6891714D01*
X3809286Y-6891714D02*
X3828333Y-6882190D01*
X3828333Y-6882190D02*
X3856905Y-6882190D01*
X3856905Y-6882190D02*
X3875952Y-6891714D01*
X3875952Y-6891714D02*
X3885476Y-6910762D01*
X3885476Y-6910762D02*
X3885476Y-7015524D01*
X3885476Y-6910762D02*
X3895000Y-6891714D01*
X3895000Y-6891714D02*
X3914048Y-6882190D01*
X3914048Y-6882190D02*
X3942619Y-6882190D01*
X3942619Y-6882190D02*
X3961667Y-6891714D01*
X3961667Y-6891714D02*
X3971190Y-6910762D01*
X3971190Y-6910762D02*
X3971190Y-7015524D01*
X4066429Y-7015524D02*
X4066429Y-6882190D01*
X4066429Y-6901238D02*
X4075952Y-6891714D01*
X4075952Y-6891714D02*
X4095000Y-6882190D01*
X4095000Y-6882190D02*
X4123571Y-6882190D01*
X4123571Y-6882190D02*
X4142619Y-6891714D01*
X4142619Y-6891714D02*
X4152143Y-6910762D01*
X4152143Y-6910762D02*
X4152143Y-7015524D01*
X4152143Y-6910762D02*
X4161667Y-6891714D01*
X4161667Y-6891714D02*
X4180714Y-6882190D01*
X4180714Y-6882190D02*
X4209286Y-6882190D01*
X4209286Y-6882190D02*
X4228333Y-6891714D01*
X4228333Y-6891714D02*
X4237857Y-6910762D01*
X4237857Y-6910762D02*
X4237857Y-7015524D01*
X4628333Y-6806000D02*
X4456905Y-7063143D01*
X4885476Y-6815524D02*
X4904524Y-6815524D01*
X4904524Y-6815524D02*
X4923572Y-6825048D01*
X4923572Y-6825048D02*
X4933095Y-6834571D01*
X4933095Y-6834571D02*
X4942619Y-6853619D01*
X4942619Y-6853619D02*
X4952143Y-6891714D01*
X4952143Y-6891714D02*
X4952143Y-6939333D01*
X4952143Y-6939333D02*
X4942619Y-6977428D01*
X4942619Y-6977428D02*
X4933095Y-6996476D01*
X4933095Y-6996476D02*
X4923572Y-7006000D01*
X4923572Y-7006000D02*
X4904524Y-7015524D01*
X4904524Y-7015524D02*
X4885476Y-7015524D01*
X4885476Y-7015524D02*
X4866429Y-7006000D01*
X4866429Y-7006000D02*
X4856905Y-6996476D01*
X4856905Y-6996476D02*
X4847381Y-6977428D01*
X4847381Y-6977428D02*
X4837857Y-6939333D01*
X4837857Y-6939333D02*
X4837857Y-6891714D01*
X4837857Y-6891714D02*
X4847381Y-6853619D01*
X4847381Y-6853619D02*
X4856905Y-6834571D01*
X4856905Y-6834571D02*
X4866429Y-6825048D01*
X4866429Y-6825048D02*
X4885476Y-6815524D01*
X5037857Y-6996476D02*
X5047381Y-7006000D01*
X5047381Y-7006000D02*
X5037857Y-7015524D01*
X5037857Y-7015524D02*
X5028334Y-7006000D01*
X5028334Y-7006000D02*
X5037857Y-6996476D01*
X5037857Y-6996476D02*
X5037857Y-7015524D01*
X5171191Y-6815524D02*
X5190238Y-6815524D01*
X5190238Y-6815524D02*
X5209286Y-6825048D01*
X5209286Y-6825048D02*
X5218810Y-6834571D01*
X5218810Y-6834571D02*
X5228334Y-6853619D01*
X5228334Y-6853619D02*
X5237857Y-6891714D01*
X5237857Y-6891714D02*
X5237857Y-6939333D01*
X5237857Y-6939333D02*
X5228334Y-6977428D01*
X5228334Y-6977428D02*
X5218810Y-6996476D01*
X5218810Y-6996476D02*
X5209286Y-7006000D01*
X5209286Y-7006000D02*
X5190238Y-7015524D01*
X5190238Y-7015524D02*
X5171191Y-7015524D01*
X5171191Y-7015524D02*
X5152143Y-7006000D01*
X5152143Y-7006000D02*
X5142619Y-6996476D01*
X5142619Y-6996476D02*
X5133095Y-6977428D01*
X5133095Y-6977428D02*
X5123572Y-6939333D01*
X5123572Y-6939333D02*
X5123572Y-6891714D01*
X5123572Y-6891714D02*
X5133095Y-6853619D01*
X5133095Y-6853619D02*
X5142619Y-6834571D01*
X5142619Y-6834571D02*
X5152143Y-6825048D01*
X5152143Y-6825048D02*
X5171191Y-6815524D01*
X5314048Y-6834571D02*
X5323572Y-6825048D01*
X5323572Y-6825048D02*
X5342619Y-6815524D01*
X5342619Y-6815524D02*
X5390238Y-6815524D01*
X5390238Y-6815524D02*
X5409286Y-6825048D01*
X5409286Y-6825048D02*
X5418810Y-6834571D01*
X5418810Y-6834571D02*
X5428334Y-6853619D01*
X5428334Y-6853619D02*
X5428334Y-6872667D01*
X5428334Y-6872667D02*
X5418810Y-6901238D01*
X5418810Y-6901238D02*
X5304524Y-7015524D01*
X5304524Y-7015524D02*
X5428334Y-7015524D01*
X5495000Y-6815524D02*
X5618810Y-6815524D01*
X5618810Y-6815524D02*
X5552143Y-6891714D01*
X5552143Y-6891714D02*
X5580715Y-6891714D01*
X5580715Y-6891714D02*
X5599762Y-6901238D01*
X5599762Y-6901238D02*
X5609286Y-6910762D01*
X5609286Y-6910762D02*
X5618810Y-6929809D01*
X5618810Y-6929809D02*
X5618810Y-6977428D01*
X5618810Y-6977428D02*
X5609286Y-6996476D01*
X5609286Y-6996476D02*
X5599762Y-7006000D01*
X5599762Y-7006000D02*
X5580715Y-7015524D01*
X5580715Y-7015524D02*
X5523572Y-7015524D01*
X5523572Y-7015524D02*
X5504524Y-7006000D01*
X5504524Y-7006000D02*
X5495000Y-6996476D01*
X5790238Y-6815524D02*
X5752143Y-6815524D01*
X5752143Y-6815524D02*
X5733095Y-6825048D01*
X5733095Y-6825048D02*
X5723572Y-6834571D01*
X5723572Y-6834571D02*
X5704524Y-6863143D01*
X5704524Y-6863143D02*
X5695000Y-6901238D01*
X5695000Y-6901238D02*
X5695000Y-6977428D01*
X5695000Y-6977428D02*
X5704524Y-6996476D01*
X5704524Y-6996476D02*
X5714048Y-7006000D01*
X5714048Y-7006000D02*
X5733095Y-7015524D01*
X5733095Y-7015524D02*
X5771191Y-7015524D01*
X5771191Y-7015524D02*
X5790238Y-7006000D01*
X5790238Y-7006000D02*
X5799762Y-6996476D01*
X5799762Y-6996476D02*
X5809286Y-6977428D01*
X5809286Y-6977428D02*
X5809286Y-6929809D01*
X5809286Y-6929809D02*
X5799762Y-6910762D01*
X5799762Y-6910762D02*
X5790238Y-6901238D01*
X5790238Y-6901238D02*
X5771191Y-6891714D01*
X5771191Y-6891714D02*
X5733095Y-6891714D01*
X5733095Y-6891714D02*
X5714048Y-6901238D01*
X5714048Y-6901238D02*
X5704524Y-6910762D01*
X5704524Y-6910762D02*
X5695000Y-6929809D01*
X5885476Y-6815524D02*
X5885476Y-6853619D01*
X5961667Y-6815524D02*
X5961667Y-6853619D01*
X6256905Y-7091714D02*
X6247381Y-7082190D01*
X6247381Y-7082190D02*
X6228334Y-7053619D01*
X6228334Y-7053619D02*
X6218810Y-7034571D01*
X6218810Y-7034571D02*
X6209286Y-7006000D01*
X6209286Y-7006000D02*
X6199762Y-6958381D01*
X6199762Y-6958381D02*
X6199762Y-6920286D01*
X6199762Y-6920286D02*
X6209286Y-6872667D01*
X6209286Y-6872667D02*
X6218810Y-6844095D01*
X6218810Y-6844095D02*
X6228334Y-6825048D01*
X6228334Y-6825048D02*
X6247381Y-6796476D01*
X6247381Y-6796476D02*
X6256905Y-6786952D01*
X6371191Y-6815524D02*
X6390238Y-6815524D01*
X6390238Y-6815524D02*
X6409286Y-6825048D01*
X6409286Y-6825048D02*
X6418810Y-6834571D01*
X6418810Y-6834571D02*
X6428334Y-6853619D01*
X6428334Y-6853619D02*
X6437857Y-6891714D01*
X6437857Y-6891714D02*
X6437857Y-6939333D01*
X6437857Y-6939333D02*
X6428334Y-6977428D01*
X6428334Y-6977428D02*
X6418810Y-6996476D01*
X6418810Y-6996476D02*
X6409286Y-7006000D01*
X6409286Y-7006000D02*
X6390238Y-7015524D01*
X6390238Y-7015524D02*
X6371191Y-7015524D01*
X6371191Y-7015524D02*
X6352143Y-7006000D01*
X6352143Y-7006000D02*
X6342619Y-6996476D01*
X6342619Y-6996476D02*
X6333095Y-6977428D01*
X6333095Y-6977428D02*
X6323572Y-6939333D01*
X6323572Y-6939333D02*
X6323572Y-6891714D01*
X6323572Y-6891714D02*
X6333095Y-6853619D01*
X6333095Y-6853619D02*
X6342619Y-6834571D01*
X6342619Y-6834571D02*
X6352143Y-6825048D01*
X6352143Y-6825048D02*
X6371191Y-6815524D01*
X6675953Y-7015524D02*
X6675953Y-6815524D01*
X6761667Y-7015524D02*
X6761667Y-6910762D01*
X6761667Y-6910762D02*
X6752143Y-6891714D01*
X6752143Y-6891714D02*
X6733096Y-6882190D01*
X6733096Y-6882190D02*
X6704524Y-6882190D01*
X6704524Y-6882190D02*
X6685476Y-6891714D01*
X6685476Y-6891714D02*
X6675953Y-6901238D01*
X6885476Y-7015524D02*
X6866429Y-7006000D01*
X6866429Y-7006000D02*
X6856905Y-6996476D01*
X6856905Y-6996476D02*
X6847381Y-6977428D01*
X6847381Y-6977428D02*
X6847381Y-6920286D01*
X6847381Y-6920286D02*
X6856905Y-6901238D01*
X6856905Y-6901238D02*
X6866429Y-6891714D01*
X6866429Y-6891714D02*
X6885476Y-6882190D01*
X6885476Y-6882190D02*
X6914048Y-6882190D01*
X6914048Y-6882190D02*
X6933096Y-6891714D01*
X6933096Y-6891714D02*
X6942619Y-6901238D01*
X6942619Y-6901238D02*
X6952143Y-6920286D01*
X6952143Y-6920286D02*
X6952143Y-6977428D01*
X6952143Y-6977428D02*
X6942619Y-6996476D01*
X6942619Y-6996476D02*
X6933096Y-7006000D01*
X6933096Y-7006000D02*
X6914048Y-7015524D01*
X6914048Y-7015524D02*
X6885476Y-7015524D01*
X7066429Y-7015524D02*
X7047381Y-7006000D01*
X7047381Y-7006000D02*
X7037857Y-6986952D01*
X7037857Y-6986952D02*
X7037857Y-6815524D01*
X7218810Y-7006000D02*
X7199762Y-7015524D01*
X7199762Y-7015524D02*
X7161667Y-7015524D01*
X7161667Y-7015524D02*
X7142619Y-7006000D01*
X7142619Y-7006000D02*
X7133096Y-6986952D01*
X7133096Y-6986952D02*
X7133096Y-6910762D01*
X7133096Y-6910762D02*
X7142619Y-6891714D01*
X7142619Y-6891714D02*
X7161667Y-6882190D01*
X7161667Y-6882190D02*
X7199762Y-6882190D01*
X7199762Y-6882190D02*
X7218810Y-6891714D01*
X7218810Y-6891714D02*
X7228334Y-6910762D01*
X7228334Y-6910762D02*
X7228334Y-6929809D01*
X7228334Y-6929809D02*
X7133096Y-6948857D01*
X7304524Y-7006000D02*
X7323572Y-7015524D01*
X7323572Y-7015524D02*
X7361667Y-7015524D01*
X7361667Y-7015524D02*
X7380715Y-7006000D01*
X7380715Y-7006000D02*
X7390238Y-6986952D01*
X7390238Y-6986952D02*
X7390238Y-6977428D01*
X7390238Y-6977428D02*
X7380715Y-6958381D01*
X7380715Y-6958381D02*
X7361667Y-6948857D01*
X7361667Y-6948857D02*
X7333096Y-6948857D01*
X7333096Y-6948857D02*
X7314048Y-6939333D01*
X7314048Y-6939333D02*
X7304524Y-6920286D01*
X7304524Y-6920286D02*
X7304524Y-6910762D01*
X7304524Y-6910762D02*
X7314048Y-6891714D01*
X7314048Y-6891714D02*
X7333096Y-6882190D01*
X7333096Y-6882190D02*
X7361667Y-6882190D01*
X7361667Y-6882190D02*
X7380715Y-6891714D01*
X7628334Y-6939333D02*
X7780715Y-6939333D01*
X7704524Y-7015524D02*
X7704524Y-6863143D01*
X8114048Y-6882190D02*
X8114048Y-7015524D01*
X8066429Y-6806000D02*
X8018810Y-6948857D01*
X8018810Y-6948857D02*
X8142619Y-6948857D01*
X8361667Y-7006000D02*
X8380715Y-7015524D01*
X8380715Y-7015524D02*
X8418810Y-7015524D01*
X8418810Y-7015524D02*
X8437858Y-7006000D01*
X8437858Y-7006000D02*
X8447382Y-6986952D01*
X8447382Y-6986952D02*
X8447382Y-6977428D01*
X8447382Y-6977428D02*
X8437858Y-6958381D01*
X8437858Y-6958381D02*
X8418810Y-6948857D01*
X8418810Y-6948857D02*
X8390239Y-6948857D01*
X8390239Y-6948857D02*
X8371191Y-6939333D01*
X8371191Y-6939333D02*
X8361667Y-6920286D01*
X8361667Y-6920286D02*
X8361667Y-6910762D01*
X8361667Y-6910762D02*
X8371191Y-6891714D01*
X8371191Y-6891714D02*
X8390239Y-6882190D01*
X8390239Y-6882190D02*
X8418810Y-6882190D01*
X8418810Y-6882190D02*
X8437858Y-6891714D01*
X8561667Y-7015524D02*
X8542620Y-7006000D01*
X8542620Y-7006000D02*
X8533096Y-6986952D01*
X8533096Y-6986952D02*
X8533096Y-6815524D01*
X8666429Y-7015524D02*
X8647382Y-7006000D01*
X8647382Y-7006000D02*
X8637858Y-6996476D01*
X8637858Y-6996476D02*
X8628334Y-6977428D01*
X8628334Y-6977428D02*
X8628334Y-6920286D01*
X8628334Y-6920286D02*
X8637858Y-6901238D01*
X8637858Y-6901238D02*
X8647382Y-6891714D01*
X8647382Y-6891714D02*
X8666429Y-6882190D01*
X8666429Y-6882190D02*
X8695001Y-6882190D01*
X8695001Y-6882190D02*
X8714048Y-6891714D01*
X8714048Y-6891714D02*
X8723572Y-6901238D01*
X8723572Y-6901238D02*
X8733096Y-6920286D01*
X8733096Y-6920286D02*
X8733096Y-6977428D01*
X8733096Y-6977428D02*
X8723572Y-6996476D01*
X8723572Y-6996476D02*
X8714048Y-7006000D01*
X8714048Y-7006000D02*
X8695001Y-7015524D01*
X8695001Y-7015524D02*
X8666429Y-7015524D01*
X8790239Y-6882190D02*
X8866429Y-6882190D01*
X8818810Y-6815524D02*
X8818810Y-6986952D01*
X8818810Y-6986952D02*
X8828334Y-7006000D01*
X8828334Y-7006000D02*
X8847382Y-7015524D01*
X8847382Y-7015524D02*
X8866429Y-7015524D01*
X8923572Y-7006000D02*
X8942620Y-7015524D01*
X8942620Y-7015524D02*
X8980715Y-7015524D01*
X8980715Y-7015524D02*
X8999763Y-7006000D01*
X8999763Y-7006000D02*
X9009286Y-6986952D01*
X9009286Y-6986952D02*
X9009286Y-6977428D01*
X9009286Y-6977428D02*
X8999763Y-6958381D01*
X8999763Y-6958381D02*
X8980715Y-6948857D01*
X8980715Y-6948857D02*
X8952143Y-6948857D01*
X8952143Y-6948857D02*
X8933096Y-6939333D01*
X8933096Y-6939333D02*
X8923572Y-6920286D01*
X8923572Y-6920286D02*
X8923572Y-6910762D01*
X8923572Y-6910762D02*
X8933096Y-6891714D01*
X8933096Y-6891714D02*
X8952143Y-6882190D01*
X8952143Y-6882190D02*
X8980715Y-6882190D01*
X8980715Y-6882190D02*
X8999763Y-6891714D01*
X9075953Y-7091714D02*
X9085477Y-7082190D01*
X9085477Y-7082190D02*
X9104524Y-7053619D01*
X9104524Y-7053619D02*
X9114048Y-7034571D01*
X9114048Y-7034571D02*
X9123572Y-7006000D01*
X9123572Y-7006000D02*
X9133096Y-6958381D01*
X9133096Y-6958381D02*
X9133096Y-6920286D01*
X9133096Y-6920286D02*
X9123572Y-6872667D01*
X9123572Y-6872667D02*
X9114048Y-6844095D01*
X9114048Y-6844095D02*
X9104524Y-6825048D01*
X9104524Y-6825048D02*
X9085477Y-6796476D01*
X9085477Y-6796476D02*
X9075953Y-6786952D01*
M02*
