M48
; DRILL file {KiCad 7.0.2-0} date 2023 July 19, Wednesday 09:37:21
; FORMAT={-:-/ absolute / metric / decimal}
; #@! TF.CreationDate,2023-07-19T09:37:21-04:00
; #@! TF.GenerationSoftware,Kicad,Pcbnew,7.0.2-0
; #@! TF.FileFunction,Plated,1,6,PTH
FMAT,2
METRIC
; #@! TA.AperFunction,Plated,PTH,ViaDrill
T1C0.300
; #@! TA.AperFunction,Plated,PTH,ViaDrill
T2C0.400
; #@! TA.AperFunction,Plated,PTH,ComponentDrill
T3C0.600
%
G90
G05
T1
X28.15Y-29.97
X28.35Y-28.95
X29.45Y-45.2
X29.52Y-31.575
X29.575Y-21.725
X29.575Y-53.275
X29.6Y-27.4
X30.5Y-31.575
X30.53Y-22.6
X30.94Y-39.25
X30.95Y-36.25
X31.0Y-17.85
X31.0Y-18.4
X31.0Y-18.95
X31.0Y-19.5
X31.0Y-20.05
X31.0Y-20.6
X31.0Y-21.15
X31.0Y-21.7
X31.0Y-22.25
X31.0Y-22.8
X31.0Y-23.35
X31.6Y-31.66
X31.75Y-29.95
X31.93Y-48.7
X31.96Y-36.25
X31.96Y-39.25
X32.0Y-26.87
X32.05Y-25.6
X32.65Y-31.63
X32.85Y-34.3
X32.85Y-40.7
X33.15Y-35.1
X33.15Y-39.9
X33.5Y-34.3
X33.5Y-40.7
X33.7Y-31.66
X34.65Y-33.91
X35.1Y-28.14
X35.3Y-32.89
X35.3Y-39.7
X35.5Y-45.1
X35.6Y-17.85
X35.6Y-18.4
X35.6Y-20.05
X35.6Y-20.6
X35.6Y-21.15
X35.6Y-21.7
X35.6Y-22.25
X35.6Y-22.8
X35.6Y-23.35
X36.05Y-27.55
X36.115Y-29.27
X36.115Y-30.23
X36.15Y-18.6
X36.2Y-21.1
X36.2Y-21.65
X36.2Y-22.2
X36.2Y-22.75
X36.2Y-23.3
X36.2Y-23.85
X36.2Y-24.4
X36.35Y-32.89
X36.35Y-39.7
X36.474Y-32.0
X36.7Y-18.7
X36.9Y-26.45
X37.0Y-27.0
X37.1Y-19.1
X37.35Y-19.6
X37.4Y-21.1
X37.4Y-21.65
X37.4Y-22.2
X37.4Y-22.75
X37.4Y-23.3
X37.4Y-23.8
X37.45Y-27.35
X37.6Y-34.75
X37.65Y-41.9
X37.75Y-49.5
X37.85Y-55.75
X37.85Y-56.65
X37.95Y-19.55
X37.95Y-21.1
X37.95Y-23.8
X38.0Y-31.66
X38.05Y-19.0
X38.05Y-27.35
X38.3Y-41.9
X38.3Y-47.874
X38.5Y-18.65
X38.5Y-21.1
X38.5Y-23.8
X38.6Y-27.35
X38.85Y-31.15
X38.85Y-56.2
X38.948Y-47.916
X38.95Y-41.9
X39.05Y-21.1
X39.05Y-23.8
X39.1Y-18.65
X39.15Y-36.8
X39.25Y-28.25
X39.5Y-24.45
X39.5Y-25.15
X39.5Y-25.95
X39.5Y-38.4
X39.5Y-45.0
X39.522Y-39.2
X39.55Y-19.0
X39.55Y-19.55
X39.55Y-20.1
X39.55Y-20.65
X39.65Y-32.25
X39.65Y-33.0
X40.079Y-34.65
X40.15Y-40.05
X40.25Y-37.7
X40.3Y-24.37
X40.5Y-43.899
X40.5Y-46.651
X40.7Y-26.05
X40.7Y-26.75
X40.73Y-35.55
X40.9Y-54.45
X41.039Y-42.55
X41.05Y-43.35
X41.3Y-40.9
X41.35Y-24.37
X41.45Y-30.55
X41.5Y-28.95
X41.5Y-48.05
X41.52Y-23.25
X41.575Y-31.759
X41.68Y-43.707
X41.75Y-37.78
X41.889Y-35.211
X41.95Y-40.9
X41.95Y-42.45
X41.95Y-56.7
X42.5Y-48.05
X42.75Y-35.4
X42.75Y-37.7
X42.75Y-46.05
X42.85Y-34.4
X42.85Y-39.5
X43.254Y-27.415
X43.4Y-34.925
X43.42Y-32.55
X43.5Y-43.22
X43.5Y-44.15
X43.75Y-46.05
X43.75Y-51.33
X43.9Y-38.25
X44.0Y-27.625
X44.0Y-56.8
X44.5Y-42.85
X44.55Y-46.1
X44.65Y-27.625
X44.862Y-51.7
X45.0Y-52.414
X45.174Y-34.55
X45.3Y-54.45
X45.35Y-27.625
X45.35Y-55.85
X45.4Y-43.95
X45.489Y-52.889
X45.75Y-49.65
X45.75Y-50.85
X45.8Y-23.67
X45.838Y-39.213
X46.0Y-34.55
X46.1Y-48.0
X46.25Y-27.55
X46.35Y-41.15
X46.35Y-55.15
X46.4Y-42.95
X46.6Y-32.65
X46.625Y-31.05
X46.75Y-38.5
X46.8Y-34.65
X46.85Y-23.67
X46.85Y-24.63
X46.9Y-39.45
X46.95Y-49.65
X46.95Y-50.85
X47.107Y-52.406
X47.3Y-42.95
X47.35Y-54.45
X47.35Y-55.85
X47.4Y-33.6
X47.75Y-34.75
X47.85Y-51.7
X48.0Y-46.55
X48.902Y-31.66
X48.95Y-44.4
X49.15Y-45.65
X49.276Y-32.704
X49.47Y-53.8
X49.667Y-31.083
X49.796Y-43.925
X49.981Y-55.593
X50.076Y-56.625
X50.2Y-27.65
X50.2Y-28.3
X50.3Y-22.1
X50.35Y-22.65
X50.43Y-53.8
X50.43Y-54.9
X50.55Y-21.55
X50.65Y-26.992
X50.65Y-44.65
X50.75Y-23.05
X50.75Y-50.65
X50.9Y-57.1
X51.1Y-18.65
X51.1Y-19.2
X51.1Y-19.75
X51.1Y-20.3
X51.1Y-20.85
X51.1Y-21.4
X51.2Y-45.6
X51.3Y-23.0
X51.3Y-23.55
X51.3Y-24.1
X51.3Y-24.65
X51.4Y-30.32
X51.4Y-31.28
X51.75Y-38.15
X51.95Y-55.737
X52.05Y-33.1
X52.05Y-36.5
X52.45Y-30.32
X52.45Y-31.28
X52.84Y-27.7
X52.85Y-37.475
X52.95Y-41.25
X52.95Y-42.55
X53.0Y-24.25
X53.524Y-37.473
X53.55Y-24.25
X53.65Y-26.992
X54.1Y-24.25
X54.15Y-30.175
X54.65Y-24.25
X54.85Y-31.5
X54.85Y-32.15
X54.85Y-33.1
X54.85Y-36.5
X54.875Y-51.75
X55.15Y-30.2
X55.2Y-24.25
X55.58Y-50.45
X55.75Y-24.25
X56.037Y-30.963
X56.1Y-32.9
X56.1Y-34.15
X56.1Y-35.45
X56.112Y-36.705
X56.27Y-28.0
X56.3Y-24.25
X56.4Y-50.4
X56.9Y-24.05
X56.95Y-30.972
X57.2Y-18.05
X57.2Y-18.6
X57.2Y-19.15
X57.2Y-19.7
X57.2Y-20.25
X57.2Y-20.8
X57.2Y-21.35
X57.2Y-21.9
X57.2Y-22.45
X57.2Y-23.0
X57.2Y-23.55
X57.23Y-28.0
X57.65Y-46.85
X58.25Y-45.75
X58.35Y-36.0
X58.4Y-55.39
X58.45Y-48.725
X58.45Y-21.7
X58.45Y-50.3
X58.7Y-37.12
X58.7Y-38.08
X58.95Y-31.05
X59.26Y-45.75
X59.5Y-56.4
X59.55Y-28.29
X59.55Y-29.31
X59.65Y-44.66
X59.85Y-38.11
T2
X27.4Y-17.9
X28.3Y-17.9
X29.25Y-17.9
X30.2Y-17.9
X36.4Y-17.9
X37.3Y-17.9
X38.05Y-21.85
X38.25Y-17.9
X39.2Y-17.9
X39.25Y-22.3
X40.05Y-23.25
X40.1Y-17.9
X40.3Y-21.6
X40.5Y-19.5
X41.05Y-17.9
X41.1Y-20.8
X42.0Y-22.0
X42.4Y-28.45
X42.4Y-30.05
X42.4Y-31.65
X44.0Y-28.45
X44.0Y-30.05
X44.0Y-31.65
X44.2Y-22.05
X45.55Y-22.0
X45.6Y-28.45
X45.6Y-30.05
X45.6Y-31.65
X46.45Y-22.55
X46.75Y-21.15
X46.95Y-17.9
X47.35Y-19.3
X47.55Y-22.65
X47.85Y-17.9
X48.0Y-47.5
X48.1Y-20.0
X48.15Y-24.5
X48.35Y-21.2
X48.5Y-25.55
X48.8Y-17.9
X48.85Y-23.65
X49.1Y-37.2
X49.25Y-20.4
X49.25Y-22.3
X49.6Y-19.2
X49.65Y-25.0
X49.75Y-17.9
X49.9Y-23.85
X50.7Y-17.9
X53.0Y-44.9
X53.0Y-45.75
X53.0Y-46.55
X53.8Y-44.95
X53.8Y-45.75
X53.8Y-46.55
X55.3Y-38.15
X55.3Y-39.05
X56.25Y-38.15
X56.3Y-39.05
X56.425Y-51.75
X56.85Y-44.85
X56.85Y-45.75
X57.015Y-48.404
X58.7Y-17.95
X58.7Y-42.85
X59.65Y-17.95
X60.6Y-17.95
T3
X28.825Y-33.18G85X28.025Y-33.18
G05
X28.825Y-41.82G85X28.025Y-41.82
G05
X33.155Y-33.18G85X32.055Y-33.18
G05
X33.155Y-41.82G85X32.055Y-41.82
G05
T0
M30
