%TF.GenerationSoftware,KiCad,Pcbnew,7.0.2-0*%
%TF.CreationDate,2023-07-16T12:38:20-04:00*%
%TF.ProjectId,ESPWatchS3,45535057-6174-4636-9853-332e6b696361,rev?*%
%TF.SameCoordinates,Original*%
%TF.FileFunction,Copper,L1,Top*%
%TF.FilePolarity,Positive*%
%FSLAX46Y46*%
G04 Gerber Fmt 4.6, Leading zero omitted, Abs format (unit mm)*
G04 Created by KiCad (PCBNEW 7.0.2-0) date 2023-07-16 12:38:20*
%MOMM*%
%LPD*%
G01*
G04 APERTURE LIST*
G04 Aperture macros list*
%AMRoundRect*
0 Rectangle with rounded corners*
0 $1 Rounding radius*
0 $2 $3 $4 $5 $6 $7 $8 $9 X,Y pos of 4 corners*
0 Add a 4 corners polygon primitive as box body*
4,1,4,$2,$3,$4,$5,$6,$7,$8,$9,$2,$3,0*
0 Add four circle primitives for the rounded corners*
1,1,$1+$1,$2,$3*
1,1,$1+$1,$4,$5*
1,1,$1+$1,$6,$7*
1,1,$1+$1,$8,$9*
0 Add four rect primitives between the rounded corners*
20,1,$1+$1,$2,$3,$4,$5,0*
20,1,$1+$1,$4,$5,$6,$7,0*
20,1,$1+$1,$6,$7,$8,$9,0*
20,1,$1+$1,$8,$9,$2,$3,0*%
G04 Aperture macros list end*
%TA.AperFunction,SMDPad,CuDef*%
%ADD10RoundRect,0.135000X-0.135000X-0.185000X0.135000X-0.185000X0.135000X0.185000X-0.135000X0.185000X0*%
%TD*%
%TA.AperFunction,SMDPad,CuDef*%
%ADD11RoundRect,0.140000X0.140000X0.170000X-0.140000X0.170000X-0.140000X-0.170000X0.140000X-0.170000X0*%
%TD*%
%TA.AperFunction,SMDPad,CuDef*%
%ADD12R,1.000000X1.800000*%
%TD*%
%TA.AperFunction,SMDPad,CuDef*%
%ADD13R,1.150000X0.600000*%
%TD*%
%TA.AperFunction,SMDPad,CuDef*%
%ADD14R,1.150000X0.300000*%
%TD*%
%TA.AperFunction,ComponentPad*%
%ADD15O,2.100000X1.000000*%
%TD*%
%TA.AperFunction,ComponentPad*%
%ADD16O,1.800000X1.000000*%
%TD*%
%TA.AperFunction,SMDPad,CuDef*%
%ADD17RoundRect,0.135000X-0.185000X0.135000X-0.185000X-0.135000X0.185000X-0.135000X0.185000X0.135000X0*%
%TD*%
%TA.AperFunction,SMDPad,CuDef*%
%ADD18R,1.050000X1.450000*%
%TD*%
%TA.AperFunction,SMDPad,CuDef*%
%ADD19R,0.800000X0.600000*%
%TD*%
%TA.AperFunction,SMDPad,CuDef*%
%ADD20RoundRect,0.140000X-0.140000X-0.170000X0.140000X-0.170000X0.140000X0.170000X-0.140000X0.170000X0*%
%TD*%
%TA.AperFunction,SMDPad,CuDef*%
%ADD21C,0.270000*%
%TD*%
%TA.AperFunction,SMDPad,CuDef*%
%ADD22RoundRect,0.225000X-0.225000X-0.250000X0.225000X-0.250000X0.225000X0.250000X-0.225000X0.250000X0*%
%TD*%
%TA.AperFunction,SMDPad,CuDef*%
%ADD23RoundRect,0.140000X0.170000X-0.140000X0.170000X0.140000X-0.170000X0.140000X-0.170000X-0.140000X0*%
%TD*%
%TA.AperFunction,ConnectorPad*%
%ADD24C,0.787400*%
%TD*%
%TA.AperFunction,SMDPad,CuDef*%
%ADD25R,0.800000X0.650000*%
%TD*%
%TA.AperFunction,SMDPad,CuDef*%
%ADD26R,0.800000X1.600000*%
%TD*%
%TA.AperFunction,SMDPad,CuDef*%
%ADD27RoundRect,0.200000X0.275000X-0.200000X0.275000X0.200000X-0.275000X0.200000X-0.275000X-0.200000X0*%
%TD*%
%TA.AperFunction,SMDPad,CuDef*%
%ADD28RoundRect,0.147500X0.147500X0.172500X-0.147500X0.172500X-0.147500X-0.172500X0.147500X-0.172500X0*%
%TD*%
%TA.AperFunction,SMDPad,CuDef*%
%ADD29C,0.500000*%
%TD*%
%TA.AperFunction,SMDPad,CuDef*%
%ADD30R,0.475000X0.300000*%
%TD*%
%TA.AperFunction,SMDPad,CuDef*%
%ADD31RoundRect,0.135000X0.185000X-0.135000X0.185000X0.135000X-0.185000X0.135000X-0.185000X-0.135000X0*%
%TD*%
%TA.AperFunction,SMDPad,CuDef*%
%ADD32RoundRect,0.135000X0.135000X0.185000X-0.135000X0.185000X-0.135000X-0.185000X0.135000X-0.185000X0*%
%TD*%
%TA.AperFunction,SMDPad,CuDef*%
%ADD33RoundRect,0.150000X-0.150000X0.512500X-0.150000X-0.512500X0.150000X-0.512500X0.150000X0.512500X0*%
%TD*%
%TA.AperFunction,SMDPad,CuDef*%
%ADD34RoundRect,0.062500X-0.325000X-0.062500X0.325000X-0.062500X0.325000X0.062500X-0.325000X0.062500X0*%
%TD*%
%TA.AperFunction,SMDPad,CuDef*%
%ADD35RoundRect,0.062500X-0.062500X-0.325000X0.062500X-0.325000X0.062500X0.325000X-0.062500X0.325000X0*%
%TD*%
%TA.AperFunction,SMDPad,CuDef*%
%ADD36R,1.800000X1.800000*%
%TD*%
%TA.AperFunction,SMDPad,CuDef*%
%ADD37R,0.350000X0.250000*%
%TD*%
%TA.AperFunction,SMDPad,CuDef*%
%ADD38RoundRect,0.140000X-0.170000X0.140000X-0.170000X-0.140000X0.170000X-0.140000X0.170000X0.140000X0*%
%TD*%
%TA.AperFunction,SMDPad,CuDef*%
%ADD39R,0.275000X0.250000*%
%TD*%
%TA.AperFunction,SMDPad,CuDef*%
%ADD40R,0.250000X0.275000*%
%TD*%
%TA.AperFunction,SMDPad,CuDef*%
%ADD41R,0.700000X0.750000*%
%TD*%
%TA.AperFunction,SMDPad,CuDef*%
%ADD42RoundRect,0.250000X-1.075000X0.375000X-1.075000X-0.375000X1.075000X-0.375000X1.075000X0.375000X0*%
%TD*%
%TA.AperFunction,SMDPad,CuDef*%
%ADD43RoundRect,0.147500X-0.147500X-0.172500X0.147500X-0.172500X0.147500X0.172500X-0.147500X0.172500X0*%
%TD*%
%TA.AperFunction,SMDPad,CuDef*%
%ADD44R,2.300000X1.200000*%
%TD*%
%TA.AperFunction,SMDPad,CuDef*%
%ADD45RoundRect,0.250000X-0.250000X-0.475000X0.250000X-0.475000X0.250000X0.475000X-0.250000X0.475000X0*%
%TD*%
%TA.AperFunction,SMDPad,CuDef*%
%ADD46R,0.200000X0.200000*%
%TD*%
%TA.AperFunction,SMDPad,CuDef*%
%ADD47O,0.850000X0.200000*%
%TD*%
%TA.AperFunction,SMDPad,CuDef*%
%ADD48R,0.400000X0.575000*%
%TD*%
%TA.AperFunction,SMDPad,CuDef*%
%ADD49R,0.400000X0.675000*%
%TD*%
%TA.AperFunction,SMDPad,CuDef*%
%ADD50R,1.300000X0.975000*%
%TD*%
%TA.AperFunction,SMDPad,CuDef*%
%ADD51R,2.600000X1.950000*%
%TD*%
%TA.AperFunction,SMDPad,CuDef*%
%ADD52RoundRect,0.062500X-0.117500X-0.062500X0.117500X-0.062500X0.117500X0.062500X-0.117500X0.062500X0*%
%TD*%
%TA.AperFunction,SMDPad,CuDef*%
%ADD53RoundRect,0.031500X-0.263500X-0.143500X0.263500X-0.143500X0.263500X0.143500X-0.263500X0.143500X0*%
%TD*%
%TA.AperFunction,SMDPad,CuDef*%
%ADD54RoundRect,0.031500X0.143500X-0.263500X0.143500X0.263500X-0.143500X0.263500X-0.143500X-0.263500X0*%
%TD*%
%TA.AperFunction,SMDPad,CuDef*%
%ADD55RoundRect,0.031500X0.263500X0.143500X-0.263500X0.143500X-0.263500X-0.143500X0.263500X-0.143500X0*%
%TD*%
%TA.AperFunction,SMDPad,CuDef*%
%ADD56RoundRect,0.031500X-0.143500X0.263500X-0.143500X-0.263500X0.143500X-0.263500X0.143500X0.263500X0*%
%TD*%
%TA.AperFunction,SMDPad,CuDef*%
%ADD57RoundRect,0.250000X-0.450000X0.262500X-0.450000X-0.262500X0.450000X-0.262500X0.450000X0.262500X0*%
%TD*%
%TA.AperFunction,SMDPad,CuDef*%
%ADD58RoundRect,0.150000X0.150000X0.625000X-0.150000X0.625000X-0.150000X-0.625000X0.150000X-0.625000X0*%
%TD*%
%TA.AperFunction,SMDPad,CuDef*%
%ADD59RoundRect,0.250000X0.350000X0.650000X-0.350000X0.650000X-0.350000X-0.650000X0.350000X-0.650000X0*%
%TD*%
%TA.AperFunction,SMDPad,CuDef*%
%ADD60RoundRect,0.125000X0.262500X0.125000X-0.262500X0.125000X-0.262500X-0.125000X0.262500X-0.125000X0*%
%TD*%
%TA.AperFunction,SMDPad,CuDef*%
%ADD61R,3.400000X4.000000*%
%TD*%
%TA.AperFunction,SMDPad,CuDef*%
%ADD62RoundRect,0.218750X0.256250X-0.218750X0.256250X0.218750X-0.256250X0.218750X-0.256250X-0.218750X0*%
%TD*%
%TA.AperFunction,SMDPad,CuDef*%
%ADD63RoundRect,0.050000X-0.350000X-0.050000X0.350000X-0.050000X0.350000X0.050000X-0.350000X0.050000X0*%
%TD*%
%TA.AperFunction,SMDPad,CuDef*%
%ADD64RoundRect,0.050000X-0.050000X-0.350000X0.050000X-0.350000X0.050000X0.350000X-0.050000X0.350000X0*%
%TD*%
%TA.AperFunction,SMDPad,CuDef*%
%ADD65R,4.000000X4.000000*%
%TD*%
%TA.AperFunction,ViaPad*%
%ADD66C,0.450000*%
%TD*%
%TA.AperFunction,ViaPad*%
%ADD67C,0.600000*%
%TD*%
%TA.AperFunction,ViaPad*%
%ADD68C,0.800000*%
%TD*%
%TA.AperFunction,Conductor*%
%ADD69C,0.100000*%
%TD*%
%TA.AperFunction,Conductor*%
%ADD70C,0.173500*%
%TD*%
%TA.AperFunction,Conductor*%
%ADD71C,0.200000*%
%TD*%
%TA.AperFunction,Conductor*%
%ADD72C,0.300000*%
%TD*%
%TA.AperFunction,Conductor*%
%ADD73C,0.500000*%
%TD*%
%TA.AperFunction,Conductor*%
%ADD74C,0.250000*%
%TD*%
%TA.AperFunction,Conductor*%
%ADD75C,0.175000*%
%TD*%
G04 APERTURE END LIST*
D10*
%TO.P,R16,1*%
%TO.N,Net-(U8-FB)*%
X56640000Y-46850000D03*
%TO.P,R16,2*%
%TO.N,GND*%
X57660000Y-46850000D03*
%TD*%
D11*
%TO.P,C25,1*%
%TO.N,+3V3*%
X52130000Y-45600000D03*
%TO.P,C25,2*%
%TO.N,GND*%
X51170000Y-45600000D03*
%TD*%
D12*
%TO.P,Y2,1,1*%
%TO.N,Net-(U1-XTAL_32K_N)*%
X46700000Y-36600000D03*
%TO.P,Y2,2,2*%
%TO.N,Net-(U1-XTAL_32K_P)*%
X44200000Y-36600000D03*
%TD*%
D11*
%TO.P,C6,1*%
%TO.N,+3V3*%
X57630000Y-37900000D03*
%TO.P,C6,2*%
%TO.N,GND*%
X56670000Y-37900000D03*
%TD*%
D13*
%TO.P,J1,A1,GND*%
%TO.N,GND*%
X33180000Y-34300000D03*
%TO.P,J1,A4,VBUS*%
%TO.N,/USB_VBUS*%
X33180000Y-35100000D03*
D14*
%TO.P,J1,A5,CC1*%
%TO.N,Net-(J1-CC1)*%
X33180000Y-36250000D03*
%TO.P,J1,A6,D+*%
%TO.N,/D+*%
X33180000Y-37250000D03*
%TO.P,J1,A7,D-*%
%TO.N,/D-*%
X33180000Y-37750000D03*
%TO.P,J1,A8,SBU1*%
%TO.N,unconnected-(J1-SBU1-PadA8)*%
X33180000Y-38750000D03*
D13*
%TO.P,J1,A9,VBUS*%
%TO.N,/USB_VBUS*%
X33180000Y-39900000D03*
%TO.P,J1,A12,GND*%
%TO.N,GND*%
X33180000Y-40700000D03*
%TO.P,J1,B1,GND*%
X33180000Y-40700000D03*
%TO.P,J1,B4,VBUS*%
%TO.N,/USB_VBUS*%
X33180000Y-39900000D03*
D14*
%TO.P,J1,B5,CC2*%
%TO.N,Net-(J1-CC2)*%
X33180000Y-39250000D03*
%TO.P,J1,B6,D+*%
%TO.N,/D+*%
X33180000Y-38250000D03*
%TO.P,J1,B7,D-*%
%TO.N,/D-*%
X33180000Y-36750000D03*
%TO.P,J1,B8,SBU2*%
%TO.N,unconnected-(J1-SBU2-PadB8)*%
X33180000Y-35750000D03*
D13*
%TO.P,J1,B9,VBUS*%
%TO.N,/USB_VBUS*%
X33180000Y-35100000D03*
%TO.P,J1,B12,GND*%
%TO.N,GND*%
X33180000Y-34300000D03*
D15*
%TO.P,J1,S1,SHIELD*%
%TO.N,N/C*%
X32605000Y-33180000D03*
D16*
X28425000Y-33180000D03*
D15*
X32605000Y-41820000D03*
D16*
X28425000Y-41820000D03*
%TD*%
D17*
%TO.P,R14,1*%
%TO.N,/ESP_BOOT*%
X33700000Y-30640000D03*
%TO.P,R14,2*%
%TO.N,+3V3*%
X33700000Y-31660000D03*
%TD*%
D10*
%TO.P,R32,1*%
%TO.N,Net-(U1-XTAL_32K_P)*%
X44940000Y-38350000D03*
%TO.P,R32,2*%
%TO.N,Net-(U1-XTAL_32K_N)*%
X45960000Y-38350000D03*
%TD*%
D18*
%TO.P,S1,1*%
%TO.N,Net-(C35-Pad2)*%
X29625000Y-21725000D03*
%TO.P,S1,2*%
%TO.N,+SYS*%
X29625000Y-26275000D03*
D19*
%TO.P,S1,3*%
%TO.N,N/C*%
X27900000Y-20800000D03*
%TO.P,S1,4*%
X27900000Y-27200000D03*
%TD*%
D20*
%TO.P,C10,1*%
%TO.N,Net-(BT1-+)*%
X49470000Y-53800000D03*
%TO.P,C10,2*%
%TO.N,GND*%
X50430000Y-53800000D03*
%TD*%
D21*
%TO.P,U3,A1,GND*%
%TO.N,GND*%
X51400000Y-29200000D03*
%TO.P,U3,A2,GND*%
X51400000Y-28700000D03*
%TO.P,U3,A3,GND*%
X51400000Y-28200000D03*
%TO.P,U3,A4,RTC_I*%
%TO.N,Net-(U3-RTC_I)*%
X51400000Y-27700000D03*
%TO.P,U3,A5,RTC_O*%
%TO.N,Net-(U3-RTC_O)*%
X51400000Y-27200000D03*
%TO.P,U3,A6,EXTINT*%
%TO.N,unconnected-(U3-EXTINT-PadA6)*%
X51400000Y-26700000D03*
%TO.P,U3,A7,TIMEPULSE*%
%TO.N,/GNSS_TP*%
X51400000Y-26200000D03*
%TO.P,U3,A8,GND*%
%TO.N,GND*%
X51400000Y-25700000D03*
%TO.P,U3,A9,GND*%
X51400000Y-25200000D03*
%TO.P,U3,B1,VCC*%
%TO.N,+3V3*%
X51900000Y-29200000D03*
%TO.P,U3,B2,GND*%
%TO.N,GND*%
X51900000Y-28700000D03*
%TO.P,U3,B8,GND*%
X51900000Y-25700000D03*
%TO.P,U3,B9,RF_IN*%
%TO.N,Net-(U3-RF_IN)*%
X51900000Y-25200000D03*
%TO.P,U3,C1,RESERVED*%
%TO.N,unconnected-(U3-RESERVED-PadC1)*%
X52400000Y-29200000D03*
%TO.P,U3,C3,GND*%
%TO.N,GND*%
X52400000Y-28200000D03*
%TO.P,U3,C4,RESET_N*%
%TO.N,Net-(U3-RESET_N)*%
X52400000Y-27700000D03*
%TO.P,U3,C5,RESERVED*%
%TO.N,unconnected-(U3-RESERVED-PadC5)*%
X52400000Y-27200000D03*
%TO.P,U3,C6,VCC_RF*%
%TO.N,unconnected-(U3-VCC_RF-PadC6)*%
X52400000Y-26700000D03*
%TO.P,U3,C7,SAFEBOOT_N*%
%TO.N,unconnected-(U3-SAFEBOOT_N-PadC7)*%
X52400000Y-26200000D03*
%TO.P,U3,C9,GND*%
%TO.N,GND*%
X52400000Y-25200000D03*
%TO.P,U3,D1,SDA*%
%TO.N,/SDA*%
X52900000Y-29200000D03*
%TO.P,U3,D2,RESERVED*%
%TO.N,unconnected-(U3-RESERVED-PadD2)*%
X52900000Y-28700000D03*
%TO.P,U3,D9,RESERVED*%
%TO.N,unconnected-(U3-RESERVED-PadD9)*%
X52900000Y-25200000D03*
%TO.P,U3,E1,SCL*%
%TO.N,/SCL*%
X53400000Y-29200000D03*
%TO.P,U3,E2,RESERVED*%
%TO.N,unconnected-(U3-RESERVED-PadE2)*%
X53400000Y-28700000D03*
%TO.P,U3,E3,GND*%
%TO.N,GND*%
X53400000Y-28200000D03*
%TO.P,U3,E4,GND*%
X53400000Y-27700000D03*
%TO.P,U3,E7,RESERVED*%
%TO.N,unconnected-(U3-RESERVED-PadE7)*%
X53400000Y-26200000D03*
%TO.P,U3,E9,GND*%
%TO.N,GND*%
X53400000Y-25200000D03*
%TO.P,U3,F1,GND*%
X53900000Y-29200000D03*
%TO.P,U3,F3,GND*%
X53900000Y-28200000D03*
%TO.P,U3,F4,GND*%
X53900000Y-27700000D03*
%TO.P,U3,F7,PIO6*%
%TO.N,/GNSS_TXRDY*%
X53900000Y-26200000D03*
%TO.P,U3,F9,RESERVED*%
%TO.N,unconnected-(U3-RESERVED-PadF9)*%
X53900000Y-25200000D03*
%TO.P,U3,G1,TX*%
%TO.N,/GNSS_TX*%
X54400000Y-29200000D03*
%TO.P,U3,G3,GND*%
%TO.N,GND*%
X54400000Y-28200000D03*
%TO.P,U3,G4,GND*%
X54400000Y-27700000D03*
%TO.P,U3,G5,GND*%
X54400000Y-27200000D03*
%TO.P,U3,G6,GND*%
X54400000Y-26700000D03*
%TO.P,U3,G7,RESERVED*%
%TO.N,unconnected-(U3-RESERVED-PadG7)*%
X54400000Y-26200000D03*
%TO.P,U3,G9,RESERVED*%
%TO.N,unconnected-(U3-RESERVED-PadG9)*%
X54400000Y-25200000D03*
%TO.P,U3,H1,RX*%
%TO.N,/GNSS_RX*%
X54900000Y-29200000D03*
%TO.P,U3,H8,GND*%
%TO.N,GND*%
X54900000Y-25700000D03*
%TO.P,U3,H9,LNA_EN*%
%TO.N,unconnected-(U3-LNA_EN-PadH9)*%
X54900000Y-25200000D03*
%TO.P,U3,J1,RESERVED*%
%TO.N,unconnected-(U3-RESERVED-PadJ1)*%
X55400000Y-29200000D03*
%TO.P,U3,J2,RESERVED*%
%TO.N,unconnected-(U3-RESERVED-PadJ2)*%
X55400000Y-28700000D03*
%TO.P,U3,J3,RESERVED*%
%TO.N,unconnected-(U3-RESERVED-PadJ3)*%
X55400000Y-28200000D03*
%TO.P,U3,J4,V_IO*%
%TO.N,+3V3*%
X55400000Y-27700000D03*
%TO.P,U3,J5,V_BCKP*%
%TO.N,unconnected-(U3-V_BCKP-PadJ5)*%
X55400000Y-27200000D03*
%TO.P,U3,J6,VIO_SEL*%
%TO.N,unconnected-(U3-VIO_SEL-PadJ6)*%
X55400000Y-26700000D03*
%TO.P,U3,J7,RESERVED*%
%TO.N,unconnected-(U3-RESERVED-PadJ7)*%
X55400000Y-26200000D03*
%TO.P,U3,J8,GND*%
%TO.N,GND*%
X55400000Y-25700000D03*
%TO.P,U3,J9,GND*%
X55400000Y-25200000D03*
%TD*%
D22*
%TO.P,C2,1*%
%TO.N,+SYS*%
X54875000Y-51750000D03*
%TO.P,C2,2*%
%TO.N,GND*%
X56425000Y-51750000D03*
%TD*%
D17*
%TO.P,R15,1*%
%TO.N,Net-(U1-GPIO3)*%
X38000000Y-30640000D03*
%TO.P,R15,2*%
%TO.N,+3V3*%
X38000000Y-31660000D03*
%TD*%
D23*
%TO.P,C34,1*%
%TO.N,+3V3*%
X40300000Y-25330000D03*
%TO.P,C34,2*%
%TO.N,GND*%
X40300000Y-24370000D03*
%TD*%
D24*
%TO.P,J3,1,Pin_1*%
%TO.N,/ESP_RESET*%
X34220000Y-28140000D03*
%TO.P,J3,2,Pin_2*%
%TO.N,/ESP_BOOT*%
X32950000Y-28140000D03*
%TO.P,J3,3,Pin_3*%
%TO.N,GND*%
X34220000Y-26870000D03*
%TO.P,J3,4,Pin_4*%
X32950000Y-26870000D03*
%TO.P,J3,5,Pin_5*%
%TO.N,Net-(J3-Pin_5)*%
X34220000Y-25600000D03*
%TO.P,J3,6,Pin_6*%
%TO.N,Net-(J3-Pin_6)*%
X32950000Y-25600000D03*
%TD*%
D25*
%TO.P,ANT1,FEED*%
%TO.N,Net-(ANT1-PadFEED)*%
X34900000Y-19175000D03*
%TO.P,ANT1,G1*%
%TO.N,GND*%
X34900000Y-18225000D03*
D26*
%TO.P,ANT1,G2*%
X31700000Y-18700000D03*
%TD*%
D23*
%TO.P,C12,1*%
%TO.N,+3V3*%
X41350000Y-25330000D03*
%TO.P,C12,2*%
%TO.N,GND*%
X41350000Y-24370000D03*
%TD*%
D27*
%TO.P,TH1,1*%
%TO.N,Net-(U6-TS)*%
X48100000Y-40475000D03*
%TO.P,TH1,2*%
%TO.N,GND*%
X48100000Y-38825000D03*
%TD*%
D28*
%TO.P,L3,1*%
%TO.N,Net-(C45-Pad1)*%
X37785000Y-20300000D03*
%TO.P,L3,2*%
%TO.N,Net-(ANT1-PadFEED)*%
X36815000Y-20300000D03*
%TD*%
D29*
%TO.P,TP7,1,1*%
%TO.N,Net-(U3-RESET_N)*%
X59150000Y-31950000D03*
%TD*%
D23*
%TO.P,C36,1*%
%TO.N,GND*%
X58450000Y-29280000D03*
%TO.P,C36,2*%
%TO.N,/USER_BTN2*%
X58450000Y-28320000D03*
%TD*%
D30*
%TO.P,U8,1,VOUT*%
%TO.N,+3V3*%
X54612000Y-47900000D03*
%TO.P,U8,2,LX2*%
%TO.N,Net-(U8-LX2)*%
X54612000Y-48400000D03*
%TO.P,U8,3,LX1*%
%TO.N,Net-(U8-LX1)*%
X54612000Y-48900000D03*
%TO.P,U8,4,VIN*%
%TO.N,+SYS*%
X54612000Y-49400000D03*
%TO.P,U8,5,EN*%
%TO.N,/SMPS_EN2*%
X56288000Y-49400000D03*
%TO.P,U8,6,MODE*%
%TO.N,/SMPS_MODE*%
X56288000Y-48900000D03*
%TO.P,U8,7,GND*%
%TO.N,GND*%
X56288000Y-48400000D03*
%TO.P,U8,8,FB*%
%TO.N,Net-(U8-FB)*%
X56288000Y-47900000D03*
%TD*%
D10*
%TO.P,R12,1*%
%TO.N,/USER_BTN1*%
X30940000Y-47650000D03*
%TO.P,R12,2*%
%TO.N,GND*%
X31960000Y-47650000D03*
%TD*%
D29*
%TO.P,TP8,1,1*%
%TO.N,Net-(J2-Pin_2)*%
X58950000Y-35350000D03*
%TD*%
D17*
%TO.P,R30,1*%
%TO.N,Net-(D3-K)*%
X59650000Y-43640000D03*
%TO.P,R30,2*%
%TO.N,GND*%
X59650000Y-44660000D03*
%TD*%
D18*
%TO.P,S4,1*%
%TO.N,/USER_BTN3*%
X58425000Y-53275000D03*
%TO.P,S4,2*%
%TO.N,+3V3*%
X58425000Y-48725000D03*
D19*
%TO.P,S4,3*%
%TO.N,N/C*%
X60150000Y-54200000D03*
%TO.P,S4,4*%
X60150000Y-47800000D03*
%TD*%
D25*
%TO.P,ANT2,FEED*%
%TO.N,Net-(ANT2-PadFEED)*%
X53100000Y-19175000D03*
%TO.P,ANT2,G1*%
%TO.N,GND*%
X53100000Y-18225000D03*
D26*
%TO.P,ANT2,G2*%
X56300000Y-18700000D03*
%TD*%
D17*
%TO.P,R11,1*%
%TO.N,/USER_BTN3*%
X58400000Y-55390000D03*
%TO.P,R11,2*%
%TO.N,GND*%
X58400000Y-56410000D03*
%TD*%
D20*
%TO.P,C11,1*%
%TO.N,Net-(U7-VDD)*%
X49470000Y-54900000D03*
%TO.P,C11,2*%
%TO.N,GND*%
X50430000Y-54900000D03*
%TD*%
D31*
%TO.P,R29,1*%
%TO.N,Net-(U1-U0TXD)*%
X36050000Y-26610000D03*
%TO.P,R29,2*%
%TO.N,Net-(J3-Pin_5)*%
X36050000Y-25590000D03*
%TD*%
D32*
%TO.P,R2,1*%
%TO.N,/CHG_EN1*%
X38610000Y-32850000D03*
%TO.P,R2,2*%
%TO.N,GND*%
X37590000Y-32850000D03*
%TD*%
D23*
%TO.P,C44,1*%
%TO.N,Net-(ANT1-PadFEED)*%
X37700000Y-25530000D03*
%TO.P,C44,2*%
%TO.N,GND*%
X37700000Y-24570000D03*
%TD*%
D33*
%TO.P,U11,1,CTRL*%
%TO.N,/LCD_BL*%
X59650000Y-39575000D03*
%TO.P,U11,2,VOUT*%
%TO.N,Net-(J2-Pin_2)*%
X58700000Y-39575000D03*
%TO.P,U11,3,VIN*%
%TO.N,+3V3*%
X57750000Y-39575000D03*
%TO.P,U11,4,SW*%
%TO.N,Net-(U11-SW)*%
X57750000Y-41850000D03*
%TO.P,U11,5,GND*%
%TO.N,GND*%
X58700000Y-41850000D03*
%TO.P,U11,6,FB*%
%TO.N,Net-(D3-K)*%
X59650000Y-41850000D03*
%TD*%
D34*
%TO.P,U6,1,TS*%
%TO.N,Net-(U6-TS)*%
X44862500Y-49500000D03*
%TO.P,U6,2,BAT*%
%TO.N,BAT*%
X44862500Y-50000000D03*
%TO.P,U6,3,BAT*%
X44862500Y-50500000D03*
%TO.P,U6,4,~{CE}*%
%TO.N,GND*%
X44862500Y-51000000D03*
D35*
%TO.P,U6,5,EN2*%
%TO.N,/CHG_EN2*%
X45600000Y-51737500D03*
%TO.P,U6,6,EN1*%
%TO.N,/CHG_EN1*%
X46100000Y-51737500D03*
%TO.P,U6,7,~{PGOOD}*%
%TO.N,unconnected-(U6-~{PGOOD}-Pad7)*%
X46600000Y-51737500D03*
%TO.P,U6,8,VSS*%
%TO.N,GND*%
X47100000Y-51737500D03*
D34*
%TO.P,U6,9,~{CHG}*%
%TO.N,Net-(D1-K)*%
X47837500Y-51000000D03*
%TO.P,U6,10,OUT*%
%TO.N,+SYS*%
X47837500Y-50500000D03*
%TO.P,U6,11,OUT*%
X47837500Y-50000000D03*
%TO.P,U6,12,ILIM*%
%TO.N,Net-(U6-ILIM)*%
X47837500Y-49500000D03*
D35*
%TO.P,U6,13,IN*%
%TO.N,/USB_VBUS*%
X47100000Y-48762500D03*
%TO.P,U6,14,TMR*%
%TO.N,Net-(U6-TMR)*%
X46600000Y-48762500D03*
%TO.P,U6,15,SYSOFF*%
%TO.N,GND*%
X46100000Y-48762500D03*
%TO.P,U6,16,ISET*%
%TO.N,Net-(U6-ISET)*%
X45600000Y-48762500D03*
D36*
%TO.P,U6,17,EP*%
%TO.N,GND*%
X46350000Y-50250000D03*
%TD*%
D37*
%TO.P,U9,1,VOUT*%
%TO.N,/ESP_RESET*%
X30630000Y-29950000D03*
%TO.P,U9,2,GND*%
%TO.N,GND*%
X30630000Y-29450000D03*
%TO.P,U9,3*%
%TO.N,N/C*%
X30630000Y-28950000D03*
%TO.P,U9,4,GND*%
%TO.N,GND*%
X29270000Y-28950000D03*
%TO.P,U9,5,VDD*%
%TO.N,+3V3*%
X29270000Y-29950000D03*
%TD*%
D17*
%TO.P,R10,1*%
%TO.N,/USER_BTN2*%
X59550000Y-28290000D03*
%TO.P,R10,2*%
%TO.N,GND*%
X59550000Y-29310000D03*
%TD*%
D11*
%TO.P,C46,1*%
%TO.N,Net-(U3-RF_IN)*%
X51880000Y-22200000D03*
%TO.P,C46,2*%
%TO.N,GND*%
X50920000Y-22200000D03*
%TD*%
D29*
%TO.P,TP4,1,1*%
%TO.N,/SCL*%
X36600000Y-38700000D03*
%TD*%
D38*
%TO.P,C17,1*%
%TO.N,+3V3*%
X28150000Y-29970000D03*
%TO.P,C17,2*%
%TO.N,GND*%
X28150000Y-30930000D03*
%TD*%
D20*
%TO.P,C31,1*%
%TO.N,+3V3*%
X46370000Y-42950000D03*
%TO.P,C31,2*%
%TO.N,GND*%
X47330000Y-42950000D03*
%TD*%
D39*
%TO.P,U5,1,VDDIO*%
%TO.N,+3V3*%
X41762500Y-45500000D03*
%TO.P,U5,2,SCK*%
%TO.N,/SCL*%
X41762500Y-45000000D03*
D40*
%TO.P,U5,3,VSS*%
%TO.N,GND*%
X41500000Y-44487500D03*
%TO.P,U5,4,MOSI/SDA*%
%TO.N,/SDA*%
X41000000Y-44487500D03*
%TO.P,U5,5,MISO/SA0*%
%TO.N,GND*%
X40500000Y-44487500D03*
D39*
%TO.P,U5,6,CSB*%
%TO.N,+3V3*%
X40237500Y-45000000D03*
%TO.P,U5,7,INT/DNC*%
%TO.N,unconnected-(U5-INT{slash}DNC-Pad7)*%
X40237500Y-45500000D03*
D40*
%TO.P,U5,8,VSS*%
%TO.N,GND*%
X40500000Y-46012500D03*
%TO.P,U5,9,VSS*%
X41000000Y-46012500D03*
%TO.P,U5,10,VDD*%
%TO.N,+3V3*%
X41500000Y-46012500D03*
%TD*%
D38*
%TO.P,C29,1*%
%TO.N,+3V3*%
X52450000Y-29970000D03*
%TO.P,C29,2*%
%TO.N,GND*%
X52450000Y-30930000D03*
%TD*%
D31*
%TO.P,R25,1*%
%TO.N,+3V3*%
X36350000Y-33910000D03*
%TO.P,R25,2*%
%TO.N,/SCL*%
X36350000Y-32890000D03*
%TD*%
D11*
%TO.P,C41,1*%
%TO.N,Net-(U1-XTAL_32K_P)*%
X42880000Y-36600000D03*
%TO.P,C41,2*%
%TO.N,GND*%
X41920000Y-36600000D03*
%TD*%
D41*
%TO.P,Y1,1,1*%
%TO.N,Net-(U1-XTAL_N)*%
X44600000Y-24625000D03*
%TO.P,Y1,2,2*%
%TO.N,unconnected-(Y1-Pad2)*%
X44600000Y-23275000D03*
%TO.P,Y1,3,3*%
%TO.N,Net-(C39-Pad1)*%
X43600000Y-23275000D03*
%TO.P,Y1,4,4*%
%TO.N,unconnected-(Y1-Pad4)*%
X43600000Y-24625000D03*
%TD*%
D29*
%TO.P,TP5,1,1*%
%TO.N,+SYS*%
X28550000Y-45200000D03*
%TD*%
D23*
%TO.P,C40,1*%
%TO.N,Net-(U1-XTAL_N)*%
X45800000Y-24630000D03*
%TO.P,C40,2*%
%TO.N,GND*%
X45800000Y-23670000D03*
%TD*%
%TO.P,C16,1*%
%TO.N,Net-(J2-Pin_2)*%
X58700000Y-38080000D03*
%TO.P,C16,2*%
%TO.N,GND*%
X58700000Y-37120000D03*
%TD*%
D20*
%TO.P,C30,1*%
%TO.N,+3V3*%
X56270000Y-28000000D03*
%TO.P,C30,2*%
%TO.N,GND*%
X57230000Y-28000000D03*
%TD*%
%TO.P,C27,1*%
%TO.N,+3V3*%
X42770000Y-46050000D03*
%TO.P,C27,2*%
%TO.N,GND*%
X43730000Y-46050000D03*
%TD*%
D23*
%TO.P,C47,1*%
%TO.N,Net-(ANT2-PadFEED)*%
X51900000Y-19180000D03*
%TO.P,C47,2*%
%TO.N,GND*%
X51900000Y-18220000D03*
%TD*%
D42*
%TO.P,L2,1*%
%TO.N,+3V3*%
X55200000Y-39325000D03*
%TO.P,L2,2*%
%TO.N,Net-(U11-SW)*%
X55200000Y-42125000D03*
%TD*%
D31*
%TO.P,R24,1*%
%TO.N,+3V3*%
X35300000Y-33910000D03*
%TO.P,R24,2*%
%TO.N,/SDA*%
X35300000Y-32890000D03*
%TD*%
D18*
%TO.P,S3,1*%
%TO.N,/USER_BTN2*%
X58425000Y-26275000D03*
%TO.P,S3,2*%
%TO.N,+3V3*%
X58425000Y-21725000D03*
D19*
%TO.P,S3,3*%
%TO.N,N/C*%
X60150000Y-27200000D03*
%TO.P,S3,4*%
X60150000Y-20800000D03*
%TD*%
D32*
%TO.P,R3,1*%
%TO.N,/CHG_EN2*%
X38610000Y-33900000D03*
%TO.P,R3,2*%
%TO.N,GND*%
X37590000Y-33900000D03*
%TD*%
D31*
%TO.P,R28,1*%
%TO.N,Net-(D1-A)*%
X51950000Y-52910000D03*
%TO.P,R28,2*%
%TO.N,+SYS*%
X51950000Y-51890000D03*
%TD*%
D11*
%TO.P,C9,1*%
%TO.N,/VDD_SPI*%
X48730000Y-34750000D03*
%TO.P,C9,2*%
%TO.N,GND*%
X47770000Y-34750000D03*
%TD*%
D23*
%TO.P,C42,1*%
%TO.N,Net-(U1-XTAL_32K_N)*%
X48050000Y-36830000D03*
%TO.P,C42,2*%
%TO.N,GND*%
X48050000Y-35870000D03*
%TD*%
D10*
%TO.P,R1,1*%
%TO.N,+3V3*%
X54590000Y-46850000D03*
%TO.P,R1,2*%
%TO.N,Net-(U8-FB)*%
X55610000Y-46850000D03*
%TD*%
D20*
%TO.P,C28,1*%
%TO.N,+3V3*%
X41520000Y-47050000D03*
%TO.P,C28,2*%
%TO.N,GND*%
X42480000Y-47050000D03*
%TD*%
D29*
%TO.P,TP3,1,1*%
%TO.N,/SDA*%
X35050000Y-38700000D03*
%TD*%
D38*
%TO.P,C3,1*%
%TO.N,BAT*%
X43750000Y-50370000D03*
%TO.P,C3,2*%
%TO.N,GND*%
X43750000Y-51330000D03*
%TD*%
D43*
%TO.P,L4,1*%
%TO.N,Net-(ANT1-PadFEED)*%
X37765000Y-26550000D03*
%TO.P,L4,2*%
%TO.N,Net-(U1-LNA_IN)*%
X38735000Y-26550000D03*
%TD*%
D29*
%TO.P,TP2,1,1*%
%TO.N,BAT*%
X42200000Y-50350000D03*
%TD*%
D23*
%TO.P,C43,1*%
%TO.N,Net-(U1-LNA_IN)*%
X38800000Y-25530000D03*
%TO.P,C43,2*%
%TO.N,GND*%
X38800000Y-24570000D03*
%TD*%
D31*
%TO.P,R21,1*%
%TO.N,Net-(U6-ISET)*%
X45350000Y-47560000D03*
%TO.P,R21,2*%
%TO.N,GND*%
X45350000Y-46540000D03*
%TD*%
D11*
%TO.P,C38,1*%
%TO.N,GND*%
X31930000Y-48700000D03*
%TO.P,C38,2*%
%TO.N,/USER_BTN1*%
X30970000Y-48700000D03*
%TD*%
D44*
%TO.P,L1,1*%
%TO.N,Net-(U8-LX1)*%
X51900000Y-49500000D03*
%TO.P,L1,2*%
%TO.N,Net-(U8-LX2)*%
X51900000Y-47800000D03*
%TD*%
D38*
%TO.P,C33,1*%
%TO.N,/ESP_RESET*%
X32650000Y-30670000D03*
%TO.P,C33,2*%
%TO.N,GND*%
X32650000Y-31630000D03*
%TD*%
D23*
%TO.P,C13,1*%
%TO.N,/USB_VBUS*%
X48000000Y-47530000D03*
%TO.P,C13,2*%
%TO.N,GND*%
X48000000Y-46570000D03*
%TD*%
D31*
%TO.P,L6,1*%
%TO.N,Net-(U3-RF_IN)*%
X51900000Y-21200000D03*
%TO.P,L6,2*%
%TO.N,Net-(ANT2-PadFEED)*%
X51900000Y-20180000D03*
%TD*%
D18*
%TO.P,S2,1*%
%TO.N,/USER_BTN1*%
X29575000Y-48725000D03*
%TO.P,S2,2*%
%TO.N,+3V3*%
X29575000Y-53275000D03*
D19*
%TO.P,S2,3*%
%TO.N,N/C*%
X27850000Y-47800000D03*
%TO.P,S2,4*%
X27850000Y-54200000D03*
%TD*%
D31*
%TO.P,R26,1*%
%TO.N,Net-(U6-TMR)*%
X46850000Y-47560000D03*
%TO.P,R26,2*%
%TO.N,GND*%
X46850000Y-46540000D03*
%TD*%
D23*
%TO.P,C45,1*%
%TO.N,Net-(C45-Pad1)*%
X38800000Y-20330000D03*
%TO.P,C45,2*%
%TO.N,GND*%
X38800000Y-19370000D03*
%TD*%
D31*
%TO.P,R17,1*%
%TO.N,+3V3*%
X31600000Y-31660000D03*
%TO.P,R17,2*%
%TO.N,/ESP_RESET*%
X31600000Y-30640000D03*
%TD*%
%TO.P,R27,1*%
%TO.N,Net-(U6-ILIM)*%
X49100000Y-48360000D03*
%TO.P,R27,2*%
%TO.N,GND*%
X49100000Y-47340000D03*
%TD*%
D45*
%TO.P,C1,1*%
%TO.N,+3V3*%
X54950000Y-45300000D03*
%TO.P,C1,2*%
%TO.N,GND*%
X56850000Y-45300000D03*
%TD*%
D23*
%TO.P,C20,1*%
%TO.N,+3V3*%
X46850000Y-24630000D03*
%TO.P,C20,2*%
%TO.N,GND*%
X46850000Y-23670000D03*
%TD*%
D46*
%TO.P,U7,1,SDA*%
%TO.N,/SDA*%
X48650000Y-56150000D03*
D47*
X48325000Y-56150000D03*
D46*
%TO.P,U7,2,SCL*%
%TO.N,/SCL*%
X48650000Y-55750000D03*
D47*
X48325000Y-55750000D03*
D46*
%TO.P,U7,3,VSS*%
%TO.N,GND*%
X48650000Y-55350000D03*
D47*
X48325000Y-55350000D03*
D46*
%TO.P,U7,4,NC*%
%TO.N,unconnected-(U7-NC-Pad4)*%
X48650000Y-54950000D03*
D47*
X48325000Y-54950000D03*
D46*
%TO.P,U7,5,VDD*%
%TO.N,Net-(U7-VDD)*%
X48650000Y-54550000D03*
D47*
X48325000Y-54550000D03*
D46*
%TO.P,U7,6,BAT*%
%TO.N,Net-(BT1-+)*%
X48650000Y-54150000D03*
D47*
X48325000Y-54150000D03*
%TO.P,U7,7,SRN*%
%TO.N,BAT*%
X44375000Y-54150000D03*
D46*
X44050000Y-54150000D03*
D47*
%TO.P,U7,8,SRP*%
%TO.N,Net-(BT1-+)*%
X44375000Y-54550000D03*
D46*
X44050000Y-54550000D03*
D47*
%TO.P,U7,9,NC*%
%TO.N,unconnected-(U7-NC-Pad9)*%
X44375000Y-54950000D03*
D46*
X44050000Y-54950000D03*
D47*
%TO.P,U7,10,BIN*%
%TO.N,Net-(U7-BIN)*%
X44375000Y-55350000D03*
D46*
X44050000Y-55350000D03*
D47*
%TO.P,U7,11,NC*%
%TO.N,unconnected-(U7-NC-Pad11)*%
X44375000Y-55750000D03*
D46*
X44050000Y-55750000D03*
D47*
%TO.P,U7,12,GPOUT*%
%TO.N,/FUEL_GPO*%
X44375000Y-56150000D03*
D46*
X44050000Y-56150000D03*
D48*
%TO.P,U7,13,EP*%
%TO.N,GND*%
X47450000Y-56515000D03*
D49*
X47450000Y-56462500D03*
X47450000Y-53837500D03*
D48*
X47450000Y-53785000D03*
D50*
X47000000Y-55637500D03*
X47000000Y-54662500D03*
D51*
X46350000Y-55150000D03*
D50*
X45700000Y-55637500D03*
X45700000Y-54662500D03*
D48*
X45250000Y-56515000D03*
D49*
X45250000Y-56462500D03*
X45250000Y-53837500D03*
D48*
X45250000Y-53785000D03*
%TD*%
D20*
%TO.P,C18,1*%
%TO.N,/VDD_SPI*%
X50790000Y-38150000D03*
%TO.P,C18,2*%
%TO.N,GND*%
X51750000Y-38150000D03*
%TD*%
%TO.P,C8,1*%
%TO.N,+3V3*%
X46370000Y-41900000D03*
%TO.P,C8,2*%
%TO.N,GND*%
X47330000Y-41900000D03*
%TD*%
%TO.P,C23,1*%
%TO.N,+SYS*%
X54620000Y-50450000D03*
%TO.P,C23,2*%
%TO.N,GND*%
X55580000Y-50450000D03*
%TD*%
D23*
%TO.P,C37,1*%
%TO.N,GND*%
X59500000Y-56380000D03*
%TO.P,C37,2*%
%TO.N,/USER_BTN3*%
X59500000Y-55420000D03*
%TD*%
D32*
%TO.P,R18,1*%
%TO.N,Net-(U7-BIN)*%
X42960000Y-56700000D03*
%TO.P,R18,2*%
%TO.N,GND*%
X41940000Y-56700000D03*
%TD*%
D10*
%TO.P,R6,1*%
%TO.N,/SMPS_MODE*%
X58240000Y-45750000D03*
%TO.P,R6,2*%
%TO.N,GND*%
X59260000Y-45750000D03*
%TD*%
D38*
%TO.P,C7,1*%
%TO.N,+3V3*%
X51400000Y-29970000D03*
%TO.P,C7,2*%
%TO.N,GND*%
X51400000Y-30930000D03*
%TD*%
D52*
%TO.P,D3,1,K*%
%TO.N,Net-(D3-K)*%
X57620000Y-43650000D03*
%TO.P,D3,2,A*%
%TO.N,Net-(D3-A)*%
X56780000Y-43650000D03*
%TD*%
D53*
%TO.P,U4,1,AP_AD0*%
%TO.N,+3V3*%
X42850000Y-40400000D03*
%TO.P,U4,2,RESV_2*%
%TO.N,unconnected-(U4-RESV_2-Pad2)*%
X42850000Y-40900000D03*
%TO.P,U4,3,RESV_3*%
%TO.N,unconnected-(U4-RESV_3-Pad3)*%
X42850000Y-41400000D03*
%TO.P,U4,4,INT1*%
%TO.N,/IMU_INT1*%
X42850000Y-41900000D03*
D54*
%TO.P,U4,5,VDDIO*%
%TO.N,+3V3*%
X43515000Y-42065000D03*
%TO.P,U4,6,GND*%
%TO.N,GND*%
X44015000Y-42065000D03*
%TO.P,U4,7,RESV*%
X44515000Y-42065000D03*
D55*
%TO.P,U4,8,VDD*%
%TO.N,+3V3*%
X45180000Y-41900000D03*
%TO.P,U4,9,INT2*%
%TO.N,/IMU_INT2*%
X45180000Y-41400000D03*
%TO.P,U4,10,RESV_10*%
%TO.N,unconnected-(U4-RESV_10-Pad10)*%
X45180000Y-40900000D03*
%TO.P,U4,11,RESV_11*%
%TO.N,unconnected-(U4-RESV_11-Pad11)*%
X45180000Y-40400000D03*
D56*
%TO.P,U4,12,AP_CS*%
%TO.N,+3V3*%
X44515000Y-40235000D03*
%TO.P,U4,13,AP_SCL*%
%TO.N,/SCL*%
X44015000Y-40235000D03*
%TO.P,U4,14,AP_SDA*%
%TO.N,/SDA*%
X43515000Y-40235000D03*
%TD*%
D17*
%TO.P,R33,1*%
%TO.N,Net-(C39-Pad1)*%
X42400000Y-24340000D03*
%TO.P,R33,2*%
%TO.N,Net-(U1-XTAL_P)*%
X42400000Y-25360000D03*
%TD*%
D38*
%TO.P,C5,1*%
%TO.N,+SYS*%
X49250000Y-51800000D03*
%TO.P,C5,2*%
%TO.N,GND*%
X49250000Y-52760000D03*
%TD*%
D31*
%TO.P,R13,1*%
%TO.N,/LCD_BL*%
X59850000Y-38110000D03*
%TO.P,R13,2*%
%TO.N,GND*%
X59850000Y-37090000D03*
%TD*%
D57*
%TO.P,R31,1*%
%TO.N,BAT*%
X42450000Y-53487500D03*
%TO.P,R31,2*%
%TO.N,Net-(BT1-+)*%
X42450000Y-55312500D03*
%TD*%
D58*
%TO.P,BT1,1,+*%
%TO.N,Net-(BT1-+)*%
X38850000Y-56200000D03*
%TO.P,BT1,2,-*%
%TO.N,GND*%
X37850000Y-56200000D03*
D59*
%TO.P,BT1,MP*%
%TO.N,N/C*%
X40150000Y-52325000D03*
X36550000Y-52325000D03*
%TD*%
D60*
%TO.P,U2,1,~{CE}*%
%TO.N,Net-(U1-SPICS0)*%
X56112500Y-36705000D03*
%TO.P,U2,2,SO/IO1*%
%TO.N,Net-(U1-SPIQ)*%
X56112500Y-35435000D03*
%TO.P,U2,3,~{WP}/IO2*%
%TO.N,Net-(U1-SPIWP)*%
X56112500Y-34165000D03*
%TO.P,U2,4,GND*%
%TO.N,GND*%
X56112500Y-32895000D03*
%TO.P,U2,5,SI/IO0*%
%TO.N,Net-(U1-SPID)*%
X50787500Y-32895000D03*
%TO.P,U2,6,SCK*%
%TO.N,Net-(U1-SPICLK)*%
X50787500Y-34165000D03*
%TO.P,U2,7,~{HLD}/IO3*%
%TO.N,Net-(U1-SPIHD)*%
X50787500Y-35435000D03*
%TO.P,U2,8,VCC*%
%TO.N,/VDD_SPI*%
X50787500Y-36705000D03*
D61*
%TO.P,U2,9,EP*%
%TO.N,GND*%
X53450000Y-34800000D03*
%TD*%
D38*
%TO.P,C32,1*%
%TO.N,+3V3*%
X43500000Y-43220000D03*
%TO.P,C32,2*%
%TO.N,GND*%
X43500000Y-44180000D03*
%TD*%
D11*
%TO.P,C39,1*%
%TO.N,Net-(C39-Pad1)*%
X42480000Y-23250000D03*
%TO.P,C39,2*%
%TO.N,GND*%
X41520000Y-23250000D03*
%TD*%
D62*
%TO.P,D1,1,K*%
%TO.N,Net-(D1-K)*%
X51950000Y-55737500D03*
%TO.P,D1,2,A*%
%TO.N,Net-(D1-A)*%
X51950000Y-54162500D03*
%TD*%
D29*
%TO.P,TP6,1,1*%
%TO.N,+3V3*%
X51950000Y-42550000D03*
%TD*%
D63*
%TO.P,U1,1,LNA_IN*%
%TO.N,Net-(U1-LNA_IN)*%
X40550000Y-27450000D03*
%TO.P,U1,2,VDD3P3*%
%TO.N,Net-(C22-Pad1)*%
X40550000Y-27850000D03*
%TO.P,U1,3,VDD3P3*%
X40550000Y-28250000D03*
%TO.P,U1,4,CHIP_PU*%
%TO.N,/ESP_RESET*%
X40550000Y-28650000D03*
%TO.P,U1,5,GPIO0*%
%TO.N,/ESP_BOOT*%
X40550000Y-29050000D03*
%TO.P,U1,6,GPIO1*%
%TO.N,/SDA*%
X40550000Y-29450000D03*
%TO.P,U1,7,GPIO2*%
%TO.N,/SCL*%
X40550000Y-29850000D03*
%TO.P,U1,8,GPIO3*%
%TO.N,Net-(U1-GPIO3)*%
X40550000Y-30250000D03*
%TO.P,U1,9,GPIO4*%
%TO.N,/PWR_BTN*%
X40550000Y-30650000D03*
%TO.P,U1,10,GPIO5*%
%TO.N,/USER_BTN1*%
X40550000Y-31050000D03*
%TO.P,U1,11,GPIO6*%
%TO.N,/USER_BTN2*%
X40550000Y-31450000D03*
%TO.P,U1,12,GPIO7*%
%TO.N,/USER_BTN3*%
X40550000Y-31850000D03*
%TO.P,U1,13,GPIO8*%
%TO.N,/CHG_EN1*%
X40550000Y-32250000D03*
%TO.P,U1,14,GPIO9*%
%TO.N,/CHG_EN2*%
X40550000Y-32650000D03*
D64*
%TO.P,U1,15,GPIO10*%
%TO.N,/LCD_CS*%
X41400000Y-33500000D03*
%TO.P,U1,16,GPIO11*%
%TO.N,/LCD_MOSI*%
X41800000Y-33500000D03*
%TO.P,U1,17,GPIO12*%
%TO.N,/LCD_SCK*%
X42200000Y-33500000D03*
%TO.P,U1,18,GPIO13*%
%TO.N,/IMU_INT1*%
X42600000Y-33500000D03*
%TO.P,U1,19,GPIO14*%
%TO.N,/IMU_INT2*%
X43000000Y-33500000D03*
%TO.P,U1,20,VDD3P3_RTC*%
%TO.N,+3V3*%
X43400000Y-33500000D03*
%TO.P,U1,21,XTAL_32K_P*%
%TO.N,Net-(U1-XTAL_32K_P)*%
X43800000Y-33500000D03*
%TO.P,U1,22,XTAL_32K_N*%
%TO.N,Net-(U1-XTAL_32K_N)*%
X44200000Y-33500000D03*
%TO.P,U1,23,GPIO17*%
%TO.N,/GNSS_RX*%
X44600000Y-33500000D03*
%TO.P,U1,24,GPIO18*%
%TO.N,/GNSS_TX*%
X45000000Y-33500000D03*
%TO.P,U1,25,GPIO19*%
%TO.N,/D-*%
X45400000Y-33500000D03*
%TO.P,U1,26,GPIO20*%
%TO.N,/D+*%
X45800000Y-33500000D03*
%TO.P,U1,27,GPIO21*%
%TO.N,/FUEL_GPO*%
X46200000Y-33500000D03*
%TO.P,U1,28,SPICS1*%
%TO.N,unconnected-(U1-SPICS1-Pad28)*%
X46600000Y-33500000D03*
D63*
%TO.P,U1,29,VDD_SPI*%
%TO.N,/VDD_SPI*%
X47450000Y-32650000D03*
%TO.P,U1,30,SPIHD*%
%TO.N,Net-(U1-SPIHD)*%
X47450000Y-32250000D03*
%TO.P,U1,31,SPIWP*%
%TO.N,Net-(U1-SPIWP)*%
X47450000Y-31850000D03*
%TO.P,U1,32,SPICS0*%
%TO.N,Net-(U1-SPICS0)*%
X47450000Y-31450000D03*
%TO.P,U1,33,SPICLK*%
%TO.N,Net-(U1-SPICLK)*%
X47450000Y-31050000D03*
%TO.P,U1,34,SPIQ*%
%TO.N,Net-(U1-SPIQ)*%
X47450000Y-30650000D03*
%TO.P,U1,35,SPID*%
%TO.N,Net-(U1-SPID)*%
X47450000Y-30250000D03*
%TO.P,U1,36,SPICLK_N*%
%TO.N,/SMPS_EN1*%
X47450000Y-29850000D03*
%TO.P,U1,37,SPICLK_P*%
%TO.N,/SMPS_MODE*%
X47450000Y-29450000D03*
%TO.P,U1,38,GPIO33*%
%TO.N,unconnected-(U1-GPIO33-Pad38)*%
X47450000Y-29050000D03*
%TO.P,U1,39,GPIO34*%
%TO.N,unconnected-(U1-GPIO34-Pad39)*%
X47450000Y-28650000D03*
%TO.P,U1,40,GPIO35*%
%TO.N,unconnected-(U1-GPIO35-Pad40)*%
X47450000Y-28250000D03*
%TO.P,U1,41,GPIO36*%
%TO.N,unconnected-(U1-GPIO36-Pad41)*%
X47450000Y-27850000D03*
%TO.P,U1,42,GPIO37*%
%TO.N,unconnected-(U1-GPIO37-Pad42)*%
X47450000Y-27450000D03*
D64*
%TO.P,U1,43,GPIO38*%
%TO.N,/GNSS_TXRDY*%
X46600000Y-26600000D03*
%TO.P,U1,44,MTCK*%
%TO.N,/GNSS_TP*%
X46200000Y-26600000D03*
%TO.P,U1,45,MTDO*%
%TO.N,/LCD_DC*%
X45800000Y-26600000D03*
%TO.P,U1,46,VDD3P3_CPU*%
%TO.N,+3V3*%
X45400000Y-26600000D03*
%TO.P,U1,47,MTDI*%
%TO.N,/LCD_BL*%
X45000000Y-26600000D03*
%TO.P,U1,48,MTMS*%
%TO.N,/LCD_TE*%
X44600000Y-26600000D03*
%TO.P,U1,49,U0TXD*%
%TO.N,Net-(U1-U0TXD)*%
X44200000Y-26600000D03*
%TO.P,U1,50,U0RXD*%
%TO.N,Net-(J3-Pin_6)*%
X43800000Y-26600000D03*
%TO.P,U1,51,GPIO45*%
%TO.N,unconnected-(U1-GPIO45-Pad51)*%
X43400000Y-26600000D03*
%TO.P,U1,52,GPIO46*%
%TO.N,unconnected-(U1-GPIO46-Pad52)*%
X43000000Y-26600000D03*
%TO.P,U1,53,XTAL_N*%
%TO.N,Net-(U1-XTAL_N)*%
X42600000Y-26600000D03*
%TO.P,U1,54,XTAL_P*%
%TO.N,Net-(U1-XTAL_P)*%
X42200000Y-26600000D03*
%TO.P,U1,55,VDDA1*%
%TO.N,+3V3*%
X41800000Y-26600000D03*
%TO.P,U1,56,VDDA2*%
X41400000Y-26600000D03*
D65*
%TO.P,U1,57,GND*%
%TO.N,GND*%
X44000000Y-30050000D03*
%TD*%
D29*
%TO.P,TP1,1,1*%
%TO.N,GND*%
X51950000Y-41250000D03*
%TD*%
D66*
%TO.N,GND*%
X41950000Y-56700000D03*
X36700000Y-18750000D03*
D67*
X45350000Y-54500000D03*
X40300000Y-24350000D03*
D68*
X30200000Y-17900000D03*
D66*
X39550000Y-19550000D03*
D67*
X28350000Y-28950000D03*
D66*
X35600000Y-23350000D03*
X31000000Y-19500000D03*
X38500000Y-21100000D03*
X57000000Y-23000000D03*
D67*
X47350000Y-54500000D03*
D68*
X46950000Y-17900000D03*
D66*
X35600000Y-20600000D03*
X35600000Y-22800000D03*
D67*
X57230000Y-28000000D03*
D66*
X37400000Y-22750000D03*
D68*
X58700000Y-42850000D03*
D66*
X30940000Y-39250000D03*
X59550000Y-29310000D03*
X36200000Y-22750000D03*
X39100000Y-18650000D03*
X31000000Y-18400000D03*
D67*
X32000000Y-26870000D03*
D68*
X48350000Y-21200000D03*
X49600000Y-19200000D03*
D66*
X51100000Y-20300000D03*
X36900000Y-26450000D03*
D67*
X43750000Y-46050000D03*
D66*
X38500000Y-23800000D03*
X51100000Y-19750000D03*
X35600000Y-21150000D03*
D67*
X59650000Y-44660000D03*
D68*
X44000000Y-30050000D03*
X45600000Y-30050000D03*
D66*
X35600000Y-20050000D03*
X39550000Y-20650000D03*
D67*
X46900000Y-39450000D03*
X46950000Y-49650000D03*
X47300000Y-42950000D03*
X47350000Y-55550000D03*
D66*
X53000000Y-24050000D03*
D68*
X49900000Y-23850000D03*
D67*
X51400000Y-30930000D03*
D66*
X38050000Y-27350000D03*
X53550000Y-24050000D03*
D68*
X42000000Y-22000000D03*
X42400000Y-30050000D03*
X49250000Y-20400000D03*
X48800000Y-17900000D03*
D66*
X39550000Y-19000000D03*
X36150000Y-18600000D03*
D67*
X58700000Y-37100000D03*
D66*
X32850000Y-40700000D03*
D68*
X47550000Y-22650000D03*
D66*
X51100000Y-18650000D03*
D67*
X41680239Y-43707351D03*
D68*
X56850000Y-45750000D03*
D66*
X57000000Y-20250000D03*
X55200000Y-24050000D03*
X38500000Y-18650000D03*
D68*
X49750000Y-17900000D03*
D66*
X36200000Y-23300000D03*
D68*
X39250000Y-22300000D03*
D66*
X51300000Y-24100000D03*
D68*
X58700000Y-17950000D03*
D66*
X54100000Y-24050000D03*
D67*
X45750000Y-50850000D03*
X44862500Y-51700000D03*
X50430000Y-53800000D03*
D66*
X31000000Y-20050000D03*
X31000000Y-17850000D03*
D68*
X44200000Y-22050000D03*
D67*
X52950000Y-41250000D03*
X54850000Y-36500000D03*
X46400000Y-55050000D03*
D68*
X44000000Y-31650000D03*
D66*
X37950000Y-19550000D03*
X37400000Y-23800000D03*
D67*
X41350000Y-24370000D03*
D66*
X57000000Y-21350000D03*
D68*
X42400000Y-28450000D03*
X41050000Y-17900000D03*
X49250000Y-22300000D03*
D66*
X57000000Y-22450000D03*
D67*
X46950000Y-50850000D03*
D66*
X55750000Y-24050000D03*
D67*
X36115000Y-30250000D03*
X37850000Y-55750000D03*
D66*
X51100000Y-20850000D03*
D67*
X41750000Y-37779965D03*
D68*
X56850000Y-44850000D03*
D67*
X44500000Y-42850000D03*
D66*
X56300000Y-24050000D03*
D67*
X57650000Y-46850000D03*
D68*
X40050000Y-23250000D03*
D67*
X45750000Y-49650000D03*
D68*
X40300000Y-21600000D03*
D66*
X31930000Y-48700000D03*
D68*
X38250000Y-17900000D03*
X50700000Y-17900000D03*
X42400000Y-31650000D03*
X45600000Y-31650000D03*
X29250000Y-17900000D03*
D66*
X57000000Y-19150000D03*
D67*
X47750000Y-34750000D03*
D66*
X50350000Y-22100000D03*
D68*
X45550000Y-22000000D03*
X40100000Y-17900000D03*
X46450000Y-22550000D03*
D66*
X38050000Y-19000000D03*
X50800000Y-23000000D03*
D68*
X59650000Y-17950000D03*
D66*
X57000000Y-18600000D03*
D68*
X41100000Y-20800000D03*
D67*
X52050000Y-33100000D03*
X56700000Y-37900000D03*
D66*
X39500000Y-25950000D03*
D67*
X42500000Y-48050000D03*
X43500000Y-44150000D03*
D68*
X28300000Y-17900000D03*
D66*
X31000000Y-20600000D03*
X32650000Y-31650000D03*
X37400000Y-21100000D03*
D68*
X39200000Y-17900000D03*
D67*
X40500000Y-46650500D03*
D66*
X37400000Y-23300000D03*
D68*
X48850000Y-23650000D03*
X27400000Y-17900000D03*
D66*
X31000000Y-23350000D03*
D68*
X47350000Y-19300000D03*
D66*
X39050000Y-23800000D03*
X50650000Y-21650000D03*
X31000000Y-18950000D03*
X37950000Y-23800000D03*
D67*
X46100000Y-48000000D03*
D66*
X36200000Y-21650000D03*
X35600000Y-17850000D03*
D67*
X39150000Y-36800000D03*
X51200000Y-45600000D03*
D66*
X31000000Y-21150000D03*
X51300000Y-24650000D03*
D67*
X47107482Y-52405772D03*
D68*
X57750000Y-17950000D03*
D67*
X50430000Y-54900000D03*
X45350000Y-55550000D03*
D66*
X37400000Y-19550000D03*
D68*
X48500000Y-25550000D03*
D66*
X35600000Y-22250000D03*
X36900000Y-25900000D03*
D68*
X44000000Y-28450000D03*
D67*
X52450000Y-30930000D03*
D66*
X37000000Y-27000000D03*
D68*
X56450000Y-51750000D03*
D67*
X46850000Y-23650000D03*
X37600000Y-34750000D03*
D68*
X57015082Y-48404006D03*
X36400000Y-17900000D03*
D66*
X41500000Y-23250000D03*
X31000000Y-22800000D03*
D67*
X56100000Y-32900000D03*
X47400000Y-33600000D03*
X43750000Y-51300000D03*
D66*
X30950000Y-36250000D03*
X51300000Y-23000000D03*
X36200000Y-21100000D03*
D68*
X47850000Y-17900000D03*
X49650000Y-25000000D03*
X60600000Y-17950000D03*
D66*
X59250000Y-45750000D03*
D68*
X48100000Y-20000000D03*
D67*
X43900000Y-38250000D03*
D66*
X31000000Y-21700000D03*
X38600000Y-27350000D03*
X45800000Y-23650000D03*
X33500000Y-34300000D03*
X54650000Y-24050000D03*
X51100000Y-19200000D03*
X31000000Y-22250000D03*
D67*
X54850000Y-33100000D03*
D66*
X50400000Y-22650000D03*
X33500000Y-40700000D03*
D67*
X48000000Y-46550000D03*
X40500000Y-43899500D03*
D66*
X37950000Y-21100000D03*
D68*
X46750000Y-21150000D03*
D67*
X29500000Y-31550000D03*
D66*
X51100000Y-21400000D03*
X57000000Y-23550000D03*
D68*
X37300000Y-17900000D03*
X40500000Y-19500000D03*
D67*
X52050000Y-36500000D03*
D66*
X30550000Y-22600000D03*
D67*
X37850000Y-56650000D03*
X49981364Y-55592902D03*
D68*
X45600000Y-28450000D03*
D67*
X51750000Y-38150000D03*
D66*
X35600000Y-18400000D03*
X57000000Y-19700000D03*
X51300000Y-23550000D03*
X37400000Y-21650000D03*
X39050000Y-21100000D03*
D67*
X46750000Y-38500000D03*
D66*
X39550000Y-20100000D03*
X37100000Y-19100000D03*
X37450000Y-27350000D03*
X39500000Y-24450000D03*
X36200000Y-22200000D03*
X57000000Y-20800000D03*
X59500000Y-56400000D03*
X57000000Y-18050000D03*
D67*
X55600000Y-50450000D03*
D66*
X35600000Y-21700000D03*
D68*
X38050000Y-21850000D03*
D66*
X32850000Y-34300000D03*
X39500000Y-25150000D03*
X37400000Y-22200000D03*
D68*
X48150000Y-24500000D03*
D66*
X36200000Y-23850000D03*
X57000000Y-21900000D03*
X36200000Y-24400000D03*
D67*
%TO.N,Net-(BT1-+)*%
X38850000Y-56200000D03*
X49470000Y-53800000D03*
%TO.N,+3V3*%
X49150000Y-45650000D03*
X46400000Y-42950000D03*
D68*
X56100000Y-39300000D03*
D67*
X36115000Y-29250000D03*
X51400000Y-29970000D03*
D66*
X31600000Y-31650000D03*
D68*
X53800000Y-44950000D03*
D67*
X41500000Y-48050000D03*
D66*
X40900000Y-54450000D03*
D68*
X53800000Y-45750000D03*
D67*
X42750000Y-46050000D03*
X39500000Y-45000000D03*
D66*
X33700000Y-31650000D03*
D67*
X28150000Y-29950000D03*
D68*
X53000000Y-45750000D03*
X55200000Y-39300000D03*
D67*
X52950000Y-42550000D03*
X34650000Y-33910000D03*
X58450000Y-48750000D03*
D68*
X53000000Y-44900000D03*
D67*
X43400000Y-32550000D03*
X46850000Y-24650000D03*
X56270000Y-28000000D03*
X40730000Y-35550000D03*
X40700000Y-26750000D03*
D68*
X53800000Y-46550000D03*
D67*
X40700000Y-26050000D03*
X45838428Y-39212947D03*
X29650000Y-53300000D03*
X58450000Y-21700000D03*
X30500000Y-31575000D03*
D66*
X38000000Y-31650000D03*
D67*
X43500000Y-43220000D03*
X52450000Y-29970000D03*
X42850000Y-39500000D03*
D68*
X53000000Y-46550000D03*
X54300000Y-39300000D03*
D67*
%TO.N,+SYS*%
X29450000Y-45200000D03*
X29600000Y-27400000D03*
X50750000Y-50650000D03*
X54875000Y-51750000D03*
%TO.N,/USB_VBUS*%
X33150000Y-39900000D03*
X33150000Y-35100000D03*
D68*
X48000000Y-47500000D03*
D67*
%TO.N,Net-(J2-Pin_2)*%
X58700000Y-38080000D03*
X58350000Y-36000000D03*
%TO.N,Net-(C22-Pad1)*%
X39250000Y-28250000D03*
D66*
%TO.N,/ESP_RESET*%
X35100000Y-28140000D03*
X31750000Y-29950000D03*
X41500000Y-28950000D03*
%TO.N,Net-(C35-Pad2)*%
X29600000Y-21750000D03*
%TO.N,/USER_BTN2*%
X59550000Y-28290000D03*
X41450000Y-30550000D03*
%TO.N,/USER_BTN3*%
X37750000Y-49500000D03*
X41575498Y-31758969D03*
X37650000Y-41900000D03*
X58400000Y-55390000D03*
%TO.N,/USER_BTN1*%
X35500000Y-45100000D03*
X36474500Y-32000000D03*
D67*
%TO.N,Net-(D1-K)*%
X47850000Y-51700000D03*
X51950000Y-55700000D03*
D66*
%TO.N,/SMPS_EN1*%
X54850000Y-32150000D03*
X50650000Y-44650000D03*
D68*
%TO.N,Net-(D3-A)*%
X49100000Y-37200000D03*
D66*
%TO.N,Net-(J1-CC1)*%
X31960000Y-36250000D03*
%TO.N,/D+*%
X39522249Y-39199503D03*
X46000000Y-34550000D03*
%TO.N,/D-*%
X39500000Y-38400000D03*
X45174500Y-34550000D03*
%TO.N,Net-(J1-CC2)*%
X31960000Y-39250000D03*
%TO.N,/LCD_SCK*%
X43400000Y-34925000D03*
%TO.N,/LCD_MOSI*%
X42750000Y-35400000D03*
%TO.N,/LCD_DC*%
X42750000Y-37700000D03*
X46250000Y-27550000D03*
%TO.N,/LCD_CS*%
X41889477Y-35210523D03*
%TO.N,/LCD_TE*%
X44650000Y-27625498D03*
X44835523Y-25685523D03*
X40250000Y-37700000D03*
%TO.N,Net-(J3-Pin_6)*%
X32050000Y-25600000D03*
X43253875Y-27414662D03*
D67*
%TO.N,/SMPS_EN2*%
X56400000Y-50400000D03*
D66*
%TO.N,/CHG_EN1*%
X39650000Y-32250000D03*
X45489477Y-52889477D03*
X38300000Y-47874500D03*
X38300000Y-41900000D03*
%TO.N,/CHG_EN2*%
X45000000Y-52414477D03*
X39650000Y-33000000D03*
X38948187Y-47915822D03*
X38949503Y-41900000D03*
%TO.N,/SMPS_MODE*%
X58450000Y-50300000D03*
X54850000Y-31500497D03*
X58250000Y-45750000D03*
%TO.N,/LCD_BL*%
X45350000Y-27600000D03*
X59850000Y-38110000D03*
%TO.N,/FUEL_GPO*%
X46800000Y-34650000D03*
X44000000Y-56800000D03*
%TO.N,/SDA*%
X41950000Y-42450000D03*
X53523771Y-37472775D03*
X35300000Y-32890000D03*
X49796045Y-43925000D03*
X41950000Y-40900000D03*
X50900000Y-57100000D03*
X41050000Y-43350000D03*
X35300000Y-39700000D03*
X56950000Y-30972366D03*
%TO.N,/SCL*%
X41039477Y-42550000D03*
X36350000Y-39700000D03*
X48950000Y-44400000D03*
X36350000Y-32890000D03*
X56036564Y-30963436D03*
X52850000Y-37475500D03*
X41300497Y-40900000D03*
X50076207Y-56625500D03*
%TO.N,Net-(U1-U0TXD)*%
X44000000Y-27625498D03*
X36050000Y-27550000D03*
D67*
%TO.N,Net-(U6-TS)*%
X45400000Y-43950000D03*
X44550000Y-46100000D03*
D66*
%TO.N,Net-(U3-RESET_N)*%
X52840497Y-27700000D03*
X59150000Y-31150000D03*
%TO.N,/PWR_BTN*%
X38850000Y-31150000D03*
%TO.N,/IMU_INT1*%
X42850000Y-34400000D03*
X40078920Y-34650000D03*
%TO.N,/IMU_INT2*%
X46350000Y-41150000D03*
X40150000Y-40050000D03*
%TO.N,/GNSS_RX*%
X46625500Y-31050000D03*
X55150000Y-30200000D03*
%TO.N,/GNSS_TX*%
X54150000Y-30175500D03*
X46600000Y-32650000D03*
%TO.N,Net-(U1-SPIWP)*%
X49275500Y-32704455D03*
X56100000Y-34150000D03*
%TO.N,Net-(U1-SPICS0)*%
X56112500Y-36705000D03*
X48902208Y-31660116D03*
%TO.N,Net-(U1-SPIQ)*%
X49667445Y-31082555D03*
X56100000Y-35450000D03*
%TO.N,/GNSS_TXRDY*%
X50650000Y-26992206D03*
X53650000Y-26992206D03*
%TO.N,Net-(U3-RTC_I)*%
X50200000Y-28299503D03*
%TO.N,Net-(U3-RTC_O)*%
X50200000Y-27650000D03*
%TD*%
D69*
%TO.N,/SCL*%
X36350000Y-39700000D02*
X36600000Y-39450000D01*
X36600000Y-39450000D02*
X36600000Y-38700000D01*
%TO.N,/SDA*%
X35300000Y-39700000D02*
X35050000Y-39450000D01*
X35050000Y-39450000D02*
X35050000Y-38700000D01*
D70*
%TO.N,Net-(ANT1-PadFEED)*%
X36800000Y-19600000D02*
X36375000Y-19175000D01*
X37700000Y-25530000D02*
X37130000Y-25530000D01*
X37700000Y-25985000D02*
X37765000Y-26050000D01*
X36375000Y-19175000D02*
X34900000Y-19175000D01*
X36800000Y-25200000D02*
X36800000Y-19600000D01*
X37130000Y-25530000D02*
X36800000Y-25200000D01*
X37765000Y-26050000D02*
X37765000Y-26550000D01*
X37700000Y-25530000D02*
X37700000Y-25985000D01*
D71*
%TO.N,GND*%
X46900000Y-39450000D02*
X47475000Y-39450000D01*
X42480000Y-47050000D02*
X42480000Y-48030000D01*
X58730000Y-37090000D02*
X58700000Y-37120000D01*
X49100000Y-47340000D02*
X49100000Y-46900000D01*
X48780000Y-46570000D02*
X48000000Y-46570000D01*
X43500000Y-44180000D02*
X43500000Y-44150000D01*
D69*
X48050000Y-35870000D02*
X48050000Y-35450000D01*
D71*
X40500000Y-44487500D02*
X40500000Y-43899500D01*
D69*
X59500000Y-56400000D02*
X58430000Y-56380000D01*
D72*
X49250000Y-52760000D02*
X47461710Y-52760000D01*
D71*
X46100000Y-48000000D02*
X46100000Y-48762500D01*
X42480000Y-48030000D02*
X42500000Y-48050000D01*
X30150000Y-29450000D02*
X30630000Y-29450000D01*
X49981364Y-55592902D02*
X49230648Y-55592902D01*
D69*
X31960000Y-47650000D02*
X31960000Y-48670000D01*
X59520000Y-29280000D02*
X59550000Y-29310000D01*
D71*
X47330000Y-41900000D02*
X47330000Y-42950000D01*
D69*
X59500000Y-56380000D02*
X59500000Y-56400000D01*
X41750000Y-37325000D02*
X41920000Y-37155000D01*
D71*
X28350000Y-28950000D02*
X29270000Y-28950000D01*
D72*
X57011076Y-48400000D02*
X57015082Y-48404006D01*
D71*
X47475000Y-39450000D02*
X48100000Y-38825000D01*
X41680239Y-44307261D02*
X41680239Y-43707351D01*
D69*
X41920000Y-37155000D02*
X41920000Y-36600000D01*
D71*
X48780000Y-46580000D02*
X48780000Y-46570000D01*
X37590000Y-34740000D02*
X37600000Y-34750000D01*
X29650000Y-28950000D02*
X30150000Y-29450000D01*
X47100000Y-52398290D02*
X47107482Y-52405772D01*
D69*
X31960000Y-48670000D02*
X31930000Y-48700000D01*
D71*
X34220000Y-26870000D02*
X32000000Y-26870000D01*
X48987746Y-55350000D02*
X48325000Y-55350000D01*
X29270000Y-28950000D02*
X29650000Y-28950000D01*
D69*
X58450000Y-29280000D02*
X59520000Y-29280000D01*
D71*
X44862500Y-51700000D02*
X44862500Y-51000000D01*
X45380000Y-46570000D02*
X45350000Y-46540000D01*
X40500000Y-46012500D02*
X40500000Y-46650500D01*
X28350000Y-31550000D02*
X28150000Y-31350000D01*
X48000000Y-46570000D02*
X45380000Y-46570000D01*
D69*
X48050000Y-35450000D02*
X47770000Y-35170000D01*
D71*
X49100000Y-46900000D02*
X48780000Y-46580000D01*
D69*
X41750000Y-37779965D02*
X41750000Y-37325000D01*
D73*
X58700000Y-41850000D02*
X58700000Y-42850000D01*
D71*
X37590000Y-32850000D02*
X37590000Y-34740000D01*
D72*
X56288000Y-48400000D02*
X57011076Y-48400000D01*
D71*
X29500000Y-31550000D02*
X28350000Y-31550000D01*
D69*
X58430000Y-56380000D02*
X58400000Y-56410000D01*
D71*
X51950000Y-41250000D02*
X52950000Y-41250000D01*
X44015000Y-42065000D02*
X44515000Y-42065000D01*
X41500000Y-44487500D02*
X41680239Y-44307261D01*
D72*
X47461710Y-52760000D02*
X47107482Y-52405772D01*
D71*
X28150000Y-31350000D02*
X28150000Y-30930000D01*
X44515000Y-42835000D02*
X44500000Y-42850000D01*
X49230648Y-55592902D02*
X48987746Y-55350000D01*
X44515000Y-42065000D02*
X44515000Y-42835000D01*
X47100000Y-51737500D02*
X47100000Y-52398290D01*
X59850000Y-37090000D02*
X58730000Y-37090000D01*
D69*
X47770000Y-35170000D02*
X47770000Y-34750000D01*
D71*
X41000000Y-46012500D02*
X40500000Y-46012500D01*
D73*
%TO.N,Net-(BT1-+)*%
X40200000Y-56200000D02*
X41087500Y-55312500D01*
X38850000Y-56200000D02*
X40200000Y-56200000D01*
X41087500Y-55312500D02*
X42450000Y-55312500D01*
D71*
X49120000Y-54150000D02*
X49470000Y-53800000D01*
D69*
X43300000Y-54550000D02*
X44050000Y-54550000D01*
X42537500Y-55312500D02*
X43300000Y-54550000D01*
X42450000Y-55312500D02*
X42537500Y-55312500D01*
D71*
X48325000Y-54150000D02*
X49120000Y-54150000D01*
%TO.N,+3V3*%
X42770000Y-45670000D02*
X42600000Y-45500000D01*
X28150000Y-29970000D02*
X28150000Y-29970000D01*
X43500000Y-42080000D02*
X43515000Y-42065000D01*
X43400000Y-33500000D02*
X43400000Y-32550000D01*
X51900000Y-29200000D02*
X51900000Y-29970000D01*
X56270000Y-28000000D02*
X56270000Y-28000000D01*
X28170000Y-29950000D02*
X28150000Y-29950000D01*
X36350000Y-33910000D02*
X34650000Y-33910000D01*
D73*
X57630000Y-38580000D02*
X57750000Y-38700000D01*
D71*
X51900000Y-29970000D02*
X52450000Y-29970000D01*
X28170000Y-29950000D02*
X28170000Y-29950000D01*
X45400000Y-25700000D02*
X45600000Y-25500000D01*
D73*
X57750000Y-38700000D02*
X57750000Y-39575000D01*
D71*
X46850000Y-25250000D02*
X46850000Y-24650000D01*
X51950000Y-42550000D02*
X52950000Y-42550000D01*
X46600000Y-25500000D02*
X46850000Y-25250000D01*
X45400000Y-26600000D02*
X45400000Y-25700000D01*
X42750000Y-46050000D02*
X42770000Y-45670000D01*
X46850000Y-24650000D02*
X46850000Y-24630000D01*
X40237500Y-45000000D02*
X39500000Y-45000000D01*
X44515000Y-40235000D02*
X44515000Y-39485000D01*
D73*
X57630000Y-37900000D02*
X57630000Y-38580000D01*
D71*
X41520000Y-48030000D02*
X41500000Y-48050000D01*
X44515000Y-39485000D02*
X44787053Y-39212947D01*
X45180000Y-41900000D02*
X46370000Y-41900000D01*
X42600000Y-45500000D02*
X41762500Y-45500000D01*
X51400000Y-29970000D02*
X51900000Y-29970000D01*
X43500000Y-43220000D02*
X43500000Y-42080000D01*
X56270000Y-28000000D02*
X55970000Y-27700000D01*
X55970000Y-27700000D02*
X55400000Y-27700000D01*
X44787053Y-39212947D02*
X45838428Y-39212947D01*
X45600000Y-25500000D02*
X46600000Y-25500000D01*
X28150000Y-29950000D02*
X28150000Y-29970000D01*
X41520000Y-47050000D02*
X41520000Y-48030000D01*
D73*
X56975000Y-39575000D02*
X57750000Y-39575000D01*
D71*
X42770000Y-46050000D02*
X42750000Y-46050000D01*
D73*
X56700000Y-39300000D02*
X56975000Y-39575000D01*
D71*
X46400000Y-41930000D02*
X46370000Y-41900000D01*
D73*
X56100000Y-39300000D02*
X56700000Y-39300000D01*
D71*
X41520000Y-47050000D02*
X41500000Y-47030000D01*
X46400000Y-42950000D02*
X46400000Y-41930000D01*
X42850000Y-40400000D02*
X42850000Y-39500000D01*
X29270000Y-29950000D02*
X28170000Y-29950000D01*
X41500000Y-47030000D02*
X41500000Y-46012500D01*
%TO.N,+SYS*%
X29625000Y-26275000D02*
X29625000Y-27375000D01*
D74*
X28550000Y-45200000D02*
X29450000Y-45200000D01*
D71*
X29625000Y-27375000D02*
X29600000Y-27400000D01*
D69*
%TO.N,BAT*%
X43300000Y-54150000D02*
X44375000Y-54150000D01*
X42637500Y-53487500D02*
X43300000Y-54150000D01*
X42450000Y-53487500D02*
X42637500Y-53487500D01*
D71*
%TO.N,/VDD_SPI*%
X48730000Y-35780000D02*
X49655000Y-36705000D01*
X50790000Y-36707500D02*
X50787500Y-36705000D01*
X48730000Y-34350000D02*
X48730000Y-35780000D01*
X48730000Y-33380000D02*
X48730000Y-34350000D01*
X48730000Y-34350000D02*
X48730000Y-34750000D01*
X49655000Y-36705000D02*
X50787500Y-36705000D01*
X47450000Y-32650000D02*
X48000000Y-32650000D01*
X48000000Y-32650000D02*
X48730000Y-33380000D01*
X50790000Y-38150000D02*
X50790000Y-36707500D01*
%TO.N,Net-(U7-VDD)*%
X48325000Y-54550000D02*
X49120000Y-54550000D01*
X49120000Y-54550000D02*
X49470000Y-54900000D01*
%TO.N,/USB_VBUS*%
X47100000Y-48762500D02*
X47537500Y-48762500D01*
X47537500Y-48762500D02*
X48000000Y-48300000D01*
X48000000Y-48300000D02*
X48000000Y-47500000D01*
X48000000Y-47500000D02*
X48000000Y-47530000D01*
%TO.N,Net-(J2-Pin_2)*%
X58350000Y-36000000D02*
X58950000Y-35400000D01*
X58950000Y-35400000D02*
X58950000Y-35350000D01*
X58700000Y-39575000D02*
X58700000Y-38080000D01*
%TO.N,Net-(C22-Pad1)*%
X40550000Y-28250000D02*
X39250000Y-28250000D01*
X40550000Y-28250000D02*
X40550000Y-27850000D01*
D69*
%TO.N,/ESP_RESET*%
X34220000Y-28140000D02*
X35100000Y-28140000D01*
X37500000Y-28800000D02*
X39650000Y-28800000D01*
X32650000Y-30670000D02*
X31630000Y-30670000D01*
X35100000Y-28140000D02*
X36840000Y-28140000D01*
X41500000Y-28950000D02*
X41200000Y-28650000D01*
X31750000Y-29950000D02*
X30630000Y-29950000D01*
X31750000Y-29950000D02*
X31750000Y-30490000D01*
X41200000Y-28650000D02*
X40550000Y-28650000D01*
X36840000Y-28140000D02*
X37500000Y-28800000D01*
X31750000Y-30490000D02*
X31600000Y-30640000D01*
X39800000Y-28650000D02*
X40550000Y-28650000D01*
X31630000Y-30670000D02*
X31600000Y-30640000D01*
X39650000Y-28800000D02*
X39800000Y-28650000D01*
%TO.N,/USER_BTN2*%
X41450000Y-30550000D02*
X41450000Y-31200000D01*
X58450000Y-28320000D02*
X58480000Y-28290000D01*
X41200000Y-31450000D02*
X40550000Y-31450000D01*
X58450000Y-28320000D02*
X58425000Y-28295000D01*
X41450000Y-31200000D02*
X41200000Y-31450000D01*
X58480000Y-28290000D02*
X59550000Y-28290000D01*
X58425000Y-28295000D02*
X58425000Y-26275000D01*
%TO.N,/USER_BTN3*%
X59470000Y-55390000D02*
X59500000Y-55420000D01*
X41484467Y-31850000D02*
X40550000Y-31850000D01*
X37750000Y-42000000D02*
X37650000Y-41900000D01*
X58425000Y-53275000D02*
X58425000Y-55365000D01*
X58425000Y-55365000D02*
X58400000Y-55390000D01*
X58400000Y-55390000D02*
X59470000Y-55390000D01*
X37750000Y-49500000D02*
X37750000Y-42000000D01*
X41575498Y-31758969D02*
X41484467Y-31850000D01*
%TO.N,/USER_BTN1*%
X35100000Y-45500000D02*
X32050000Y-45500000D01*
X39900000Y-31050000D02*
X40550000Y-31050000D01*
X30945000Y-48725000D02*
X30970000Y-48700000D01*
X36654500Y-32180000D02*
X38770000Y-32180000D01*
X30970000Y-47680000D02*
X30940000Y-47650000D01*
X38770000Y-32180000D02*
X39900000Y-31050000D01*
X29575000Y-48725000D02*
X30945000Y-48725000D01*
X30970000Y-48700000D02*
X30970000Y-47680000D01*
X35500000Y-45100000D02*
X35100000Y-45500000D01*
X30940000Y-46610000D02*
X30940000Y-47650000D01*
X32050000Y-45500000D02*
X30940000Y-46610000D01*
X36474500Y-32000000D02*
X36654500Y-32180000D01*
%TO.N,Net-(C39-Pad1)*%
X42400000Y-23850000D02*
X42500000Y-23750000D01*
X42500000Y-23270000D02*
X42480000Y-23250000D01*
X42500000Y-23750000D02*
X42500000Y-23270000D01*
X42400000Y-23850000D02*
X42400000Y-24340000D01*
X43600000Y-23275000D02*
X42505000Y-23275000D01*
X42505000Y-23275000D02*
X42480000Y-23250000D01*
%TO.N,Net-(U1-XTAL_N)*%
X44600000Y-25250000D02*
X44600000Y-24625000D01*
X44400000Y-25450000D02*
X44600000Y-25250000D01*
X44600000Y-24625000D02*
X45795000Y-24625000D01*
X45795000Y-24625000D02*
X45800000Y-24630000D01*
X42600000Y-26600000D02*
X42600000Y-26074264D01*
X42600000Y-26074264D02*
X43224264Y-25450000D01*
X43224264Y-25450000D02*
X44400000Y-25450000D01*
%TO.N,Net-(U1-XTAL_32K_P)*%
X44950000Y-37350000D02*
X44950000Y-38340000D01*
X43800000Y-34462132D02*
X44200000Y-34862132D01*
X42880000Y-36600000D02*
X44200000Y-36600000D01*
X44950000Y-38340000D02*
X44940000Y-38350000D01*
X44200000Y-34862132D02*
X44200000Y-36600000D01*
X44200000Y-36600000D02*
X44950000Y-37350000D01*
X43800000Y-33500000D02*
X43800000Y-34462132D01*
%TO.N,Net-(U1-XTAL_32K_N)*%
X44500000Y-35100000D02*
X44650000Y-35250000D01*
X47350000Y-36600000D02*
X47580000Y-36830000D01*
X46700000Y-35400000D02*
X46700000Y-36600000D01*
X45960000Y-37340000D02*
X45960000Y-38350000D01*
X44650000Y-35250000D02*
X46550000Y-35250000D01*
X46550000Y-35250000D02*
X46700000Y-35400000D01*
X44200000Y-34437868D02*
X44500000Y-34737868D01*
X47580000Y-36830000D02*
X48050000Y-36830000D01*
X46700000Y-36600000D02*
X45960000Y-37340000D01*
X46700000Y-36600000D02*
X47350000Y-36600000D01*
X44500000Y-34737868D02*
X44500000Y-35100000D01*
X44200000Y-33500000D02*
X44200000Y-34437868D01*
D70*
%TO.N,Net-(U1-LNA_IN)*%
X38800000Y-25530000D02*
X38800000Y-26000000D01*
X39600000Y-26750000D02*
X39400000Y-26550000D01*
X39600000Y-27250000D02*
X39600000Y-26750000D01*
X38750000Y-26050000D02*
X38750000Y-26535000D01*
X39400000Y-26550000D02*
X38735000Y-26550000D01*
X40550000Y-27450000D02*
X39800000Y-27450000D01*
X38800000Y-26000000D02*
X38750000Y-26050000D01*
X39800000Y-27450000D02*
X39600000Y-27250000D01*
%TO.N,Net-(C45-Pad1)*%
X37815000Y-20330000D02*
X38800000Y-20330000D01*
X37785000Y-20300000D02*
X37815000Y-20330000D01*
D75*
%TO.N,Net-(U3-RF_IN)*%
X51900000Y-25200000D02*
X51900000Y-21200000D01*
D71*
%TO.N,Net-(D1-K)*%
X47850000Y-51700000D02*
X47837500Y-51687500D01*
X51950000Y-55737500D02*
X51950000Y-55700000D01*
X47837500Y-51687500D02*
X47837500Y-51000000D01*
%TO.N,Net-(D1-A)*%
X51950000Y-52910000D02*
X51950000Y-54162500D01*
D69*
%TO.N,/SMPS_EN1*%
X50450000Y-31274264D02*
X50450000Y-30725736D01*
X50450000Y-30725736D02*
X49574264Y-29850000D01*
X54850000Y-32150000D02*
X51325736Y-32150000D01*
X49574264Y-29850000D02*
X47450000Y-29850000D01*
X51325736Y-32150000D02*
X50450000Y-31274264D01*
D71*
%TO.N,Net-(D3-K)*%
X59650000Y-43640000D02*
X59650000Y-41850000D01*
X57630000Y-43640000D02*
X57620000Y-43650000D01*
X59650000Y-43640000D02*
X57630000Y-43640000D01*
%TO.N,Net-(D3-A)*%
X56780000Y-43650000D02*
X50800000Y-43650000D01*
X49100000Y-41950000D02*
X49100000Y-37200000D01*
X50800000Y-43650000D02*
X49100000Y-41950000D01*
D69*
%TO.N,Net-(J1-CC1)*%
X33180000Y-36250000D02*
X31960000Y-36250000D01*
%TO.N,/D+*%
X45800000Y-34350000D02*
X45800000Y-33500000D01*
X37225736Y-37250000D02*
X34250000Y-37250000D01*
X33180000Y-38250000D02*
X34050000Y-38250000D01*
X34050000Y-38250000D02*
X34250000Y-38050000D01*
X38925736Y-38950000D02*
X37225736Y-37250000D01*
X39272746Y-38950000D02*
X38925736Y-38950000D01*
X39522249Y-39199503D02*
X39272746Y-38950000D01*
X34250000Y-37250000D02*
X33180000Y-37250000D01*
X34250000Y-38050000D02*
X34250000Y-37250000D01*
X46000000Y-34550000D02*
X45800000Y-34350000D01*
%TO.N,/D-*%
X45400000Y-34324500D02*
X45400000Y-33500000D01*
X45174500Y-34550000D02*
X45400000Y-34324500D01*
X39500000Y-38400000D02*
X39250000Y-38650000D01*
X32100000Y-36850000D02*
X32100000Y-37650000D01*
X39250000Y-38650000D02*
X39050000Y-38650000D01*
X37150000Y-36750000D02*
X33180000Y-36750000D01*
X32200000Y-37750000D02*
X33180000Y-37750000D01*
X33180000Y-36750000D02*
X32200000Y-36750000D01*
X32100000Y-37650000D02*
X32200000Y-37750000D01*
X32200000Y-36750000D02*
X32100000Y-36850000D01*
X39050000Y-38650000D02*
X37150000Y-36750000D01*
%TO.N,Net-(J1-CC2)*%
X33180000Y-39250000D02*
X31960000Y-39250000D01*
%TO.N,/LCD_SCK*%
X42200000Y-34425736D02*
X42200000Y-33500000D01*
X42699264Y-34925000D02*
X42200000Y-34425736D01*
X43400000Y-34925000D02*
X42699264Y-34925000D01*
%TO.N,/LCD_MOSI*%
X42750000Y-35400000D02*
X41800000Y-34450000D01*
X41800000Y-34450000D02*
X41800000Y-33500000D01*
%TO.N,/LCD_DC*%
X45800000Y-27100000D02*
X45800000Y-26600000D01*
X46250000Y-27550000D02*
X45800000Y-27100000D01*
%TO.N,/LCD_CS*%
X41400000Y-34721046D02*
X41400000Y-33500000D01*
X41889477Y-35210523D02*
X41400000Y-34721046D01*
%TO.N,/LCD_TE*%
X44600000Y-27200000D02*
X44600000Y-26600000D01*
X44600000Y-26600000D02*
X44600000Y-25921046D01*
X44650000Y-27250000D02*
X44600000Y-27200000D01*
X44650000Y-27625498D02*
X44650000Y-27250000D01*
X44600000Y-25921046D02*
X44835523Y-25685523D01*
%TO.N,/ESP_BOOT*%
X37375736Y-29100000D02*
X36775736Y-28500000D01*
X32789700Y-30039700D02*
X32890000Y-30140000D01*
X39774264Y-29100000D02*
X37375736Y-29100000D01*
X35200000Y-30050000D02*
X34610000Y-30640000D01*
X35750000Y-28500000D02*
X35200000Y-29050000D01*
X39824264Y-29050000D02*
X39774264Y-29100000D01*
X32950000Y-28140000D02*
X32950000Y-28750000D01*
X35200000Y-29050000D02*
X35200000Y-30050000D01*
X32890000Y-30140000D02*
X33200000Y-30140000D01*
X36775736Y-28500000D02*
X35750000Y-28500000D01*
X32950000Y-28750000D02*
X32789700Y-28910300D01*
X34610000Y-30640000D02*
X33700000Y-30640000D01*
X33200000Y-30140000D02*
X33700000Y-30640000D01*
X40550000Y-29050000D02*
X39824264Y-29050000D01*
X32789700Y-28910300D02*
X32789700Y-30039700D01*
%TO.N,Net-(J3-Pin_5)*%
X36040000Y-25600000D02*
X34220000Y-25600000D01*
X36050000Y-25590000D02*
X36040000Y-25600000D01*
%TO.N,Net-(J3-Pin_6)*%
X43539084Y-27414662D02*
X43253875Y-27414662D01*
X43800000Y-27153746D02*
X43539084Y-27414662D01*
X43800000Y-26600000D02*
X43800000Y-27153746D01*
X32050000Y-25600000D02*
X32950000Y-25600000D01*
D73*
%TO.N,Net-(U11-SW)*%
X56950000Y-41850000D02*
X57750000Y-41850000D01*
X56675000Y-42125000D02*
X56950000Y-41850000D01*
X55200000Y-42125000D02*
X56675000Y-42125000D01*
D71*
%TO.N,/SMPS_EN2*%
X56400000Y-49850000D02*
X56288000Y-49738000D01*
X56288000Y-49738000D02*
X56288000Y-49400000D01*
X56400000Y-49850000D02*
X56400000Y-50400000D01*
%TO.N,Net-(U8-FB)*%
X56100000Y-46850000D02*
X56300000Y-46850000D01*
X56288000Y-47900000D02*
X56288000Y-47500000D01*
X56300000Y-46850000D02*
X56640000Y-46850000D01*
X56288000Y-47500000D02*
X56100000Y-47312000D01*
X56100000Y-47312000D02*
X56100000Y-46850000D01*
X55610000Y-46850000D02*
X56100000Y-46850000D01*
D69*
%TO.N,/CHG_EN1*%
X38300000Y-41900000D02*
X38300000Y-47874500D01*
X39050000Y-32850000D02*
X38610000Y-32850000D01*
X39650000Y-32250000D02*
X40550000Y-32250000D01*
X46100000Y-52278954D02*
X46100000Y-51737500D01*
X39650000Y-32250000D02*
X39050000Y-32850000D01*
X45489477Y-52889477D02*
X46100000Y-52278954D01*
%TO.N,/CHG_EN2*%
X38948187Y-42051813D02*
X38948187Y-47915822D01*
X45385523Y-52414477D02*
X45600000Y-52200000D01*
X45600000Y-52200000D02*
X45600000Y-51737500D01*
X38949503Y-42050497D02*
X38948187Y-42051813D01*
X40000000Y-32650000D02*
X40550000Y-32650000D01*
X39300000Y-33900000D02*
X38610000Y-33900000D01*
X45000000Y-52414477D02*
X45385523Y-52414477D01*
X39650000Y-33000000D02*
X39650000Y-33550000D01*
X39650000Y-33550000D02*
X39300000Y-33900000D01*
X38949503Y-41900000D02*
X38949503Y-42050497D01*
X39650000Y-33000000D02*
X40000000Y-32650000D01*
%TO.N,/SMPS_MODE*%
X57450000Y-50300000D02*
X58450000Y-50300000D01*
X56591837Y-48900000D02*
X56745843Y-49054006D01*
X57104006Y-49054006D02*
X57300000Y-49250000D01*
X56745843Y-49054006D02*
X57104006Y-49054006D01*
X57300000Y-50150000D02*
X57450000Y-50300000D01*
X50750000Y-31150000D02*
X50750000Y-30601472D01*
X51450000Y-31850000D02*
X50750000Y-31150000D01*
X54478248Y-31850000D02*
X51450000Y-31850000D01*
X50750000Y-30601472D02*
X49598528Y-29450000D01*
X54827751Y-31500497D02*
X54478248Y-31850000D01*
X57300000Y-49250000D02*
X57300000Y-50150000D01*
X49598528Y-29450000D02*
X47450000Y-29450000D01*
X54850000Y-31500497D02*
X54827751Y-31500497D01*
X56288000Y-48900000D02*
X56591837Y-48900000D01*
D71*
%TO.N,/LCD_BL*%
X59650000Y-38800000D02*
X59650000Y-39575000D01*
D69*
X45000000Y-27250000D02*
X45350000Y-27600000D01*
D71*
X59850000Y-38600000D02*
X59650000Y-38800000D01*
D69*
X45000000Y-26600000D02*
X45000000Y-27250000D01*
D71*
X59850000Y-38110000D02*
X59850000Y-38600000D01*
D69*
%TO.N,Net-(U1-GPIO3)*%
X38390000Y-30250000D02*
X40550000Y-30250000D01*
X38000000Y-30640000D02*
X38390000Y-30250000D01*
%TO.N,Net-(U7-BIN)*%
X44375000Y-55350000D02*
X43750000Y-55350000D01*
X43500000Y-56500000D02*
X43300000Y-56700000D01*
X43500000Y-55600000D02*
X43500000Y-56500000D01*
X43750000Y-55350000D02*
X43500000Y-55600000D01*
X43300000Y-56700000D02*
X42960000Y-56700000D01*
%TO.N,/FUEL_GPO*%
X46200000Y-33500000D02*
X46200000Y-34050000D01*
X44000000Y-56800000D02*
X44375000Y-56425000D01*
X46200000Y-34050000D02*
X46800000Y-34650000D01*
X44375000Y-56425000D02*
X44375000Y-56150000D01*
D71*
%TO.N,Net-(U6-ISET)*%
X45600000Y-48762500D02*
X45600000Y-48348529D01*
X45350000Y-48098529D02*
X45350000Y-47560000D01*
X45600000Y-48348529D02*
X45350000Y-48098529D01*
D69*
%TO.N,/SDA*%
X35300000Y-32890000D02*
X35650000Y-32540000D01*
X53100000Y-29622237D02*
X52900000Y-29422237D01*
X55839812Y-31438436D02*
X55376873Y-30975497D01*
X37901264Y-29450000D02*
X40550000Y-29450000D01*
X41000000Y-44487500D02*
X41000000Y-44177318D01*
X52900000Y-29422237D02*
X52900000Y-29200000D01*
X49000000Y-57100000D02*
X48650000Y-56750000D01*
X42940000Y-43765736D02*
X41950000Y-42775736D01*
X55376873Y-30975497D02*
X53809757Y-30975497D01*
X35650000Y-31701264D02*
X37901264Y-29450000D01*
X49796045Y-43925000D02*
X47200736Y-43925000D01*
X41050000Y-44127318D02*
X41050000Y-43350000D01*
X41000000Y-44177318D02*
X41050000Y-44127318D01*
X50900000Y-57100000D02*
X49000000Y-57100000D01*
X43200000Y-44850000D02*
X42940000Y-44590000D01*
X42300000Y-38950000D02*
X43250000Y-38950000D01*
X56483930Y-31438436D02*
X55839812Y-31438436D01*
X47200736Y-43925000D02*
X46275736Y-44850000D01*
X56950000Y-30972366D02*
X56483930Y-31438436D01*
X53809757Y-30975497D02*
X53100000Y-30265740D01*
X42940000Y-44590000D02*
X42940000Y-43765736D01*
X53100000Y-30265740D02*
X53100000Y-29622237D01*
X41950000Y-39300000D02*
X42300000Y-38950000D01*
X35650000Y-32540000D02*
X35650000Y-31701264D01*
X41950000Y-40900000D02*
X41950000Y-39300000D01*
X48650000Y-56750000D02*
X48650000Y-56150000D01*
X43250000Y-38950000D02*
X43515000Y-39215000D01*
X46275736Y-44850000D02*
X43200000Y-44850000D01*
X43515000Y-39215000D02*
X43515000Y-40235000D01*
X41950000Y-42775736D02*
X41950000Y-42450000D01*
%TO.N,/SCL*%
X41300000Y-42550000D02*
X41039477Y-42550000D01*
X42640000Y-44714264D02*
X42640000Y-43890000D01*
X36000000Y-32540000D02*
X36000000Y-31775528D01*
X36350000Y-32890000D02*
X36000000Y-32540000D01*
X42150000Y-38650000D02*
X43450000Y-38650000D01*
X49768271Y-56625500D02*
X48892771Y-55750000D01*
X48950000Y-44400000D02*
X47150000Y-44400000D01*
X43075736Y-45150000D02*
X42640000Y-44714264D01*
X53400000Y-30141476D02*
X53400000Y-29200000D01*
X41762500Y-45000000D02*
X42354264Y-45000000D01*
X44015000Y-39215000D02*
X44015000Y-40235000D01*
X41300497Y-39499503D02*
X42150000Y-38650000D01*
X48892771Y-55750000D02*
X48325000Y-55750000D01*
X43450000Y-38650000D02*
X44015000Y-39215000D01*
X37925528Y-29850000D02*
X40550000Y-29850000D01*
X47150000Y-44400000D02*
X46400000Y-45150000D01*
X36000000Y-31775528D02*
X37925528Y-29850000D01*
X50076207Y-56625500D02*
X49768271Y-56625500D01*
X42640000Y-43890000D02*
X41300000Y-42550000D01*
X42354264Y-45000000D02*
X42640000Y-44714264D01*
X56036564Y-30963436D02*
X55748625Y-30675497D01*
X46400000Y-45150000D02*
X43075736Y-45150000D01*
X55748625Y-30675497D02*
X53934021Y-30675497D01*
X41300497Y-40900000D02*
X41300497Y-39499503D01*
X53934021Y-30675497D02*
X53400000Y-30141476D01*
D71*
%TO.N,Net-(U6-TMR)*%
X46600000Y-48762500D02*
X46600000Y-48348529D01*
X46600000Y-48348529D02*
X46850000Y-48098529D01*
X46850000Y-48098529D02*
X46850000Y-47560000D01*
%TO.N,Net-(U6-ILIM)*%
X49100000Y-48950000D02*
X49100000Y-48360000D01*
X48550000Y-49500000D02*
X49100000Y-48950000D01*
X47837500Y-49500000D02*
X48550000Y-49500000D01*
D69*
%TO.N,Net-(U1-U0TXD)*%
X44200000Y-27425498D02*
X44200000Y-26600000D01*
X44000000Y-27625498D02*
X44200000Y-27425498D01*
X36050000Y-26610000D02*
X36050000Y-27550000D01*
%TO.N,Net-(U1-XTAL_P)*%
X42200000Y-26600000D02*
X42200000Y-26050000D01*
X42400000Y-25850000D02*
X42400000Y-25360000D01*
X42200000Y-26050000D02*
X42400000Y-25850000D01*
D71*
%TO.N,Net-(U6-TS)*%
X44862500Y-48862500D02*
X44862500Y-49500000D01*
X48100000Y-43112254D02*
X47652254Y-43560000D01*
X44550000Y-48550000D02*
X44862500Y-48862500D01*
X44550000Y-46100000D02*
X44550000Y-48550000D01*
X46740000Y-43560000D02*
X46350000Y-43950000D01*
X46350000Y-43950000D02*
X45400000Y-43950000D01*
X48100000Y-40475000D02*
X48100000Y-43112254D01*
X47652254Y-43560000D02*
X46740000Y-43560000D01*
D69*
%TO.N,Net-(U3-RESET_N)*%
X52400000Y-27700000D02*
X52840497Y-27700000D01*
X59150000Y-31150000D02*
X59150000Y-31950000D01*
%TO.N,/PWR_BTN*%
X40550000Y-30650000D02*
X39350000Y-30650000D01*
X39350000Y-30650000D02*
X38850000Y-31150000D01*
%TO.N,/IMU_INT1*%
X40450000Y-38171752D02*
X40450000Y-39475500D01*
X40650000Y-41200000D02*
X41350000Y-41900000D01*
X42850000Y-34400000D02*
X42600000Y-34150000D01*
X41350000Y-41900000D02*
X42850000Y-41900000D01*
X40450000Y-39475500D02*
X40650000Y-39675500D01*
X40725000Y-37896752D02*
X40450000Y-38171752D01*
X40650000Y-39675500D02*
X40650000Y-41200000D01*
X42600000Y-34150000D02*
X42600000Y-33500000D01*
X40725000Y-37475000D02*
X40725000Y-37896752D01*
X40078920Y-34650000D02*
X40078920Y-36828920D01*
X40078920Y-36828920D02*
X40725000Y-37475000D01*
%TO.N,/IMU_INT2*%
X43000000Y-32950000D02*
X43000000Y-33500000D01*
X39775000Y-37896752D02*
X39775000Y-35017832D01*
X39603920Y-34446080D02*
X41400000Y-32650000D01*
X40150000Y-40050000D02*
X40150000Y-38271752D01*
X39603920Y-34846752D02*
X39603920Y-34446080D01*
X39775000Y-35017832D02*
X39603920Y-34846752D01*
X42700000Y-32650000D02*
X43000000Y-32950000D01*
X41400000Y-32650000D02*
X42700000Y-32650000D01*
X45667551Y-41400000D02*
X45180000Y-41400000D01*
X46350000Y-41150000D02*
X45917551Y-41150000D01*
X40150000Y-38271752D02*
X39775000Y-37896752D01*
X45917551Y-41150000D02*
X45667551Y-41400000D01*
%TO.N,/GNSS_RX*%
X46625500Y-31924500D02*
X46200000Y-32350000D01*
X55150000Y-30200000D02*
X54900000Y-29950000D01*
X46200000Y-32350000D02*
X44850000Y-32350000D01*
X54900000Y-29950000D02*
X54900000Y-29200000D01*
X44850000Y-32350000D02*
X44600000Y-32600000D01*
X46625500Y-31050000D02*
X46625500Y-31924500D01*
X44600000Y-32600000D02*
X44600000Y-33500000D01*
%TO.N,/GNSS_TX*%
X54150000Y-30175500D02*
X54400000Y-29925500D01*
X45300000Y-32650000D02*
X46600000Y-32650000D01*
X45000000Y-32950000D02*
X45300000Y-32650000D01*
X45000000Y-33500000D02*
X45000000Y-32950000D01*
X54400000Y-29925500D02*
X54400000Y-29200000D01*
%TO.N,Net-(U1-SPIHD)*%
X49300000Y-33400000D02*
X48150000Y-32250000D01*
X49300000Y-34750000D02*
X49300000Y-33400000D01*
X50787500Y-35435000D02*
X49985000Y-35435000D01*
X49985000Y-35435000D02*
X49300000Y-34750000D01*
X48150000Y-32250000D02*
X47450000Y-32250000D01*
%TO.N,Net-(U1-SPIWP)*%
X48421045Y-31850000D02*
X47450000Y-31850000D01*
X49275500Y-32704455D02*
X48421045Y-31850000D01*
%TO.N,Net-(U1-SPICS0)*%
X48692092Y-31450000D02*
X47450000Y-31450000D01*
X48902208Y-31660116D02*
X48692092Y-31450000D01*
%TO.N,Net-(U1-SPICLK)*%
X48963844Y-31050000D02*
X47450000Y-31050000D01*
X50015000Y-34165000D02*
X49750000Y-33900000D01*
X49750000Y-31836156D02*
X48963844Y-31050000D01*
X49750000Y-33900000D02*
X49750000Y-31836156D01*
X50787500Y-34165000D02*
X50015000Y-34165000D01*
%TO.N,Net-(U1-SPIQ)*%
X47450000Y-30650000D02*
X49234890Y-30650000D01*
X49234890Y-30650000D02*
X49667445Y-31082555D01*
%TO.N,Net-(U1-SPID)*%
X50787500Y-32895000D02*
X50150000Y-32257500D01*
X50150000Y-30850000D02*
X49550000Y-30250000D01*
X50150000Y-32257500D02*
X50150000Y-30850000D01*
X49550000Y-30250000D02*
X47450000Y-30250000D01*
%TO.N,/GNSS_TXRDY*%
X53900000Y-26742206D02*
X53900000Y-26200000D01*
X53650000Y-26992206D02*
X53900000Y-26742206D01*
X49617942Y-26992206D02*
X49225736Y-26600000D01*
X49225736Y-26600000D02*
X46600000Y-26600000D01*
X50650000Y-26992206D02*
X49617942Y-26992206D01*
%TO.N,/GNSS_TP*%
X47300000Y-26300000D02*
X49350000Y-26300000D01*
X46350000Y-25900000D02*
X46900000Y-25900000D01*
X46900000Y-25900000D02*
X47300000Y-26300000D01*
X46200000Y-26050000D02*
X46350000Y-25900000D01*
X49650000Y-26600000D02*
X50127818Y-26600000D01*
X50127818Y-26600000D02*
X50527818Y-26200000D01*
X49350000Y-26300000D02*
X49650000Y-26600000D01*
X46200000Y-26600000D02*
X46200000Y-26050000D01*
X50527818Y-26200000D02*
X51400000Y-26200000D01*
%TO.N,Net-(U3-RTC_I)*%
X50550497Y-28299503D02*
X51150000Y-27700000D01*
X51150000Y-27700000D02*
X51400000Y-27700000D01*
X50200000Y-28299503D02*
X50550497Y-28299503D01*
%TO.N,Net-(U3-RTC_O)*%
X50663958Y-27650000D02*
X51113958Y-27200000D01*
X50200000Y-27650000D02*
X50663958Y-27650000D01*
X51113958Y-27200000D02*
X51400000Y-27200000D01*
D75*
%TO.N,Net-(ANT2-PadFEED)*%
X53100000Y-19175000D02*
X51905000Y-19175000D01*
X51900000Y-19180000D02*
X51900000Y-20180000D01*
X51905000Y-19175000D02*
X51900000Y-19180000D01*
%TD*%
%TA.AperFunction,Conductor*%
%TO.N,Net-(U8-LX2)*%
G36*
X52964898Y-47151060D02*
G01*
X53000000Y-47155682D01*
X53035101Y-47151060D01*
X53051285Y-47150000D01*
X53748715Y-47150000D01*
X53764898Y-47151060D01*
X53800000Y-47155682D01*
X53835101Y-47151060D01*
X53851285Y-47150000D01*
X53876000Y-47150000D01*
X53943039Y-47169685D01*
X53988794Y-47222489D01*
X54000000Y-47274000D01*
X54000000Y-48200000D01*
X54200486Y-48200000D01*
X54267525Y-48219685D01*
X54269377Y-48220898D01*
X54296269Y-48238867D01*
X54354751Y-48250500D01*
X54726000Y-48250500D01*
X54793039Y-48270185D01*
X54838794Y-48322989D01*
X54850000Y-48374500D01*
X54850000Y-48421000D01*
X54830315Y-48488039D01*
X54777511Y-48533794D01*
X54726000Y-48545000D01*
X54353256Y-48545000D01*
X54347176Y-48544851D01*
X54346507Y-48544818D01*
X54341545Y-48544574D01*
X54341523Y-48544573D01*
X54340027Y-48544500D01*
X50824000Y-48544500D01*
X50756961Y-48524815D01*
X50711206Y-48472011D01*
X50700000Y-48420500D01*
X50700000Y-47274000D01*
X50719685Y-47206961D01*
X50772489Y-47161206D01*
X50824000Y-47150000D01*
X52948715Y-47150000D01*
X52964898Y-47151060D01*
G37*
%TD.AperFunction*%
%TD*%
%TA.AperFunction,Conductor*%
%TO.N,+SYS*%
G36*
X54943039Y-49270185D02*
G01*
X54988794Y-49322989D01*
X55000000Y-49374500D01*
X55000000Y-50850000D01*
X55137098Y-50850000D01*
X55204137Y-50869685D01*
X55224779Y-50886319D01*
X55241684Y-50903224D01*
X55278406Y-50920348D01*
X55330842Y-50966517D01*
X55349999Y-51032728D01*
X55350000Y-52326000D01*
X55330315Y-52393039D01*
X55277512Y-52438794D01*
X55226000Y-52450000D01*
X52259387Y-52450000D01*
X52242383Y-52446231D01*
X52242095Y-52448423D01*
X52178336Y-52440029D01*
X52178332Y-52440028D01*
X52174316Y-52439500D01*
X51725684Y-52439500D01*
X51721668Y-52440028D01*
X51721663Y-52440029D01*
X51657905Y-52448423D01*
X51657616Y-52446231D01*
X51640613Y-52450000D01*
X49782903Y-52450000D01*
X49715864Y-52430315D01*
X49695222Y-52413681D01*
X49618316Y-52336775D01*
X49509487Y-52286028D01*
X49463921Y-52280029D01*
X49463917Y-52280028D01*
X49459901Y-52279500D01*
X49455847Y-52279500D01*
X49044159Y-52279500D01*
X49044143Y-52279500D01*
X49040100Y-52279501D01*
X49036084Y-52280029D01*
X49036078Y-52280030D01*
X48990511Y-52286028D01*
X48881683Y-52336775D01*
X48845280Y-52373180D01*
X48783957Y-52406666D01*
X48757598Y-52409500D01*
X48674000Y-52409500D01*
X48606961Y-52389815D01*
X48561206Y-52337011D01*
X48550000Y-52285500D01*
X48550000Y-50650000D01*
X47574500Y-50650000D01*
X47507461Y-50630315D01*
X47461706Y-50577511D01*
X47450500Y-50526000D01*
X47450500Y-49974000D01*
X47470185Y-49906961D01*
X47522989Y-49861206D01*
X47574500Y-49850000D01*
X50370500Y-49850000D01*
X50437539Y-49869685D01*
X50483294Y-49922489D01*
X50494500Y-49973999D01*
X50494500Y-50025500D01*
X50494854Y-50028797D01*
X50494855Y-50028806D01*
X50499197Y-50069184D01*
X50498422Y-50063434D01*
X50500000Y-50083007D01*
X50500000Y-50350000D01*
X50779669Y-50350000D01*
X50797313Y-50351262D01*
X50808771Y-50352908D01*
X50808771Y-50352909D01*
X50812249Y-50353409D01*
X50813166Y-50353474D01*
X50814939Y-50353696D01*
X50824000Y-50355000D01*
X50830073Y-50355000D01*
X50838917Y-50355315D01*
X50841491Y-50355500D01*
X50843707Y-50355500D01*
X53872678Y-50355500D01*
X53876000Y-50355500D01*
X53919684Y-50350803D01*
X53913969Y-50351571D01*
X53933508Y-50350000D01*
X54300000Y-50350000D01*
X54300000Y-49379000D01*
X54319685Y-49311961D01*
X54372489Y-49266206D01*
X54424000Y-49255000D01*
X54722678Y-49255000D01*
X54726000Y-49255000D01*
X54761239Y-49251210D01*
X54774495Y-49250500D01*
X54876000Y-49250500D01*
X54943039Y-49270185D01*
G37*
%TD.AperFunction*%
%TD*%
%TA.AperFunction,Conductor*%
%TO.N,+3V3*%
G36*
X55443039Y-44569685D02*
G01*
X55488794Y-44622489D01*
X55500000Y-44674000D01*
X55500000Y-46176000D01*
X55480315Y-46243039D01*
X55427511Y-46288794D01*
X55376000Y-46300000D01*
X55100000Y-46300000D01*
X55100000Y-47226000D01*
X55080315Y-47293039D01*
X55027511Y-47338794D01*
X54976000Y-47350000D01*
X54949999Y-47350000D01*
X54949999Y-47925500D01*
X54930314Y-47992540D01*
X54877510Y-48038294D01*
X54825999Y-48049500D01*
X54766167Y-48049500D01*
X54748520Y-48048238D01*
X54738585Y-48046809D01*
X54726000Y-48045000D01*
X54725999Y-48045000D01*
X54424000Y-48045000D01*
X54356961Y-48025315D01*
X54311206Y-47972511D01*
X54300000Y-47921000D01*
X54300000Y-47050000D01*
X54165039Y-47050000D01*
X54098000Y-47030315D01*
X54084227Y-47019099D01*
X54000935Y-46972509D01*
X53933901Y-46952826D01*
X53933898Y-46952825D01*
X53876000Y-46944500D01*
X53851285Y-46944500D01*
X53849254Y-46944550D01*
X53837854Y-46944939D01*
X53835831Y-46945055D01*
X53821670Y-46945999D01*
X53819660Y-46946181D01*
X53812465Y-46946905D01*
X53812150Y-46946936D01*
X53787840Y-46946936D01*
X53778331Y-46945999D01*
X53776289Y-46945848D01*
X53762147Y-46944939D01*
X53760118Y-46944856D01*
X53748715Y-46944500D01*
X53746695Y-46944484D01*
X53051285Y-46944500D01*
X53049254Y-46944550D01*
X53037854Y-46944939D01*
X53035831Y-46945055D01*
X53021670Y-46945999D01*
X53019660Y-46946181D01*
X53012465Y-46946905D01*
X53012150Y-46946936D01*
X52987840Y-46946936D01*
X52978331Y-46945999D01*
X52976289Y-46945848D01*
X52962147Y-46944939D01*
X52960118Y-46944856D01*
X52948715Y-46944500D01*
X52946695Y-46944484D01*
X52024000Y-46944500D01*
X51956961Y-46924815D01*
X51911206Y-46872011D01*
X51900000Y-46820500D01*
X51900000Y-44674000D01*
X51919685Y-44606961D01*
X51972489Y-44561206D01*
X52024000Y-44550000D01*
X55376000Y-44550000D01*
X55443039Y-44569685D01*
G37*
%TD.AperFunction*%
%TD*%
%TA.AperFunction,Conductor*%
%TO.N,+3V3*%
G36*
X40087571Y-24850167D02*
G01*
X40090099Y-24850500D01*
X40213596Y-24850499D01*
X40213604Y-24850500D01*
X40228039Y-24850500D01*
X40386395Y-24850500D01*
X40386403Y-24850499D01*
X40505841Y-24850499D01*
X40509900Y-24850499D01*
X40512426Y-24850166D01*
X40517518Y-24850000D01*
X41132473Y-24850000D01*
X41137571Y-24850167D01*
X41140099Y-24850500D01*
X41192094Y-24850499D01*
X41227028Y-24855521D01*
X41278039Y-24870500D01*
X41278040Y-24870500D01*
X41421961Y-24870500D01*
X41472971Y-24855522D01*
X41507906Y-24850499D01*
X41555841Y-24850499D01*
X41559900Y-24850499D01*
X41562426Y-24850166D01*
X41567518Y-24850000D01*
X41776000Y-24850000D01*
X41843039Y-24869685D01*
X41888794Y-24922489D01*
X41900000Y-24974000D01*
X41900000Y-25079168D01*
X41888382Y-25131572D01*
X41885932Y-25136825D01*
X41884198Y-25150000D01*
X41879500Y-25185684D01*
X41879500Y-25534316D01*
X41880028Y-25538332D01*
X41880029Y-25538336D01*
X41885931Y-25583171D01*
X41888382Y-25588426D01*
X41900000Y-25640832D01*
X41900000Y-26210600D01*
X41899500Y-26215679D01*
X41899500Y-26926000D01*
X41879815Y-26993039D01*
X41827011Y-27038794D01*
X41775500Y-27050000D01*
X41300000Y-27050000D01*
X40424000Y-27050000D01*
X40356961Y-27030315D01*
X40311206Y-26977511D01*
X40300000Y-26926000D01*
X40300000Y-25950000D01*
X40036710Y-25950000D01*
X39969671Y-25930315D01*
X39923916Y-25877511D01*
X39914237Y-25845398D01*
X39906647Y-25797477D01*
X39907053Y-25797412D01*
X39900000Y-25768030D01*
X39900000Y-25331970D01*
X39907054Y-25302589D01*
X39906647Y-25302525D01*
X39930804Y-25150000D01*
X39906647Y-24997477D01*
X39910285Y-24996900D01*
X39903662Y-24961617D01*
X39929943Y-24896879D01*
X39987052Y-24856625D01*
X40027042Y-24850000D01*
X40082472Y-24850000D01*
X40087571Y-24850167D01*
G37*
%TD.AperFunction*%
%TD*%
%TA.AperFunction,Conductor*%
%TO.N,Net-(U8-LX1)*%
G36*
X54345104Y-48750500D02*
G01*
X54726000Y-48750500D01*
X54793039Y-48770185D01*
X54838794Y-48822989D01*
X54850000Y-48874500D01*
X54850000Y-48925500D01*
X54830315Y-48992539D01*
X54777511Y-49038294D01*
X54726000Y-49049500D01*
X54354751Y-49049500D01*
X54296269Y-49061132D01*
X54269377Y-49079102D01*
X54202700Y-49099980D01*
X54200486Y-49100000D01*
X54000000Y-49100000D01*
X54000000Y-50026000D01*
X53980315Y-50093039D01*
X53927511Y-50138794D01*
X53876000Y-50150000D01*
X50841491Y-50150000D01*
X50838013Y-50149500D01*
X50824000Y-50149500D01*
X50810557Y-50145552D01*
X50806559Y-50144978D01*
X50804856Y-50144478D01*
X50805018Y-50143926D01*
X50756961Y-50129815D01*
X50711206Y-50077011D01*
X50700000Y-50025500D01*
X50700000Y-48874000D01*
X50719685Y-48806961D01*
X50772489Y-48761206D01*
X50824000Y-48750000D01*
X54340027Y-48750000D01*
X54345104Y-48750500D01*
G37*
%TD.AperFunction*%
%TD*%
%TA.AperFunction,Conductor*%
%TO.N,GND*%
G36*
X31176186Y-17506196D02*
G01*
X31243192Y-17525978D01*
X31288870Y-17578849D01*
X31300000Y-17630194D01*
X31300000Y-23750000D01*
X31827914Y-23750000D01*
X31894953Y-23769685D01*
X31940708Y-23822489D01*
X31950652Y-23891647D01*
X31935301Y-23935997D01*
X31908815Y-23981873D01*
X31879533Y-24032592D01*
X31879533Y-24032593D01*
X31839689Y-24165684D01*
X31829531Y-24199613D01*
X31819392Y-24373659D01*
X31833587Y-24454159D01*
X31849668Y-24545354D01*
X31914930Y-24696650D01*
X31918721Y-24705438D01*
X32022832Y-24845283D01*
X32149830Y-24951848D01*
X32188532Y-25010020D01*
X32189640Y-25079880D01*
X32152803Y-25139250D01*
X32089715Y-25169280D01*
X32050728Y-25169311D01*
X32049998Y-25169195D01*
X31916875Y-25190280D01*
X31796778Y-25251472D01*
X31701472Y-25346778D01*
X31640280Y-25466875D01*
X31619195Y-25600000D01*
X31640280Y-25733124D01*
X31701472Y-25853221D01*
X31796778Y-25948527D01*
X31796780Y-25948528D01*
X31916874Y-26009719D01*
X32050000Y-26030804D01*
X32183126Y-26009719D01*
X32303220Y-25948528D01*
X32303219Y-25948528D01*
X32320719Y-25939612D01*
X32321637Y-25941414D01*
X32358052Y-25921528D01*
X32427744Y-25926507D01*
X32482793Y-25967205D01*
X32526209Y-26023785D01*
X32526210Y-26023786D01*
X32526212Y-26023788D01*
X32650336Y-26119032D01*
X32650337Y-26119032D01*
X32650338Y-26119033D01*
X32715279Y-26145932D01*
X32794883Y-26178905D01*
X32842186Y-26185132D01*
X32906081Y-26213398D01*
X32944553Y-26271722D01*
X32950000Y-26308071D01*
X32950000Y-27431928D01*
X32930315Y-27498967D01*
X32877511Y-27544722D01*
X32842186Y-27554867D01*
X32794883Y-27561094D01*
X32650336Y-27620968D01*
X32526211Y-27716211D01*
X32430968Y-27840336D01*
X32371095Y-27984883D01*
X32350672Y-28140000D01*
X32371095Y-28295118D01*
X32430966Y-28439661D01*
X32430967Y-28439663D01*
X32430968Y-28439664D01*
X32526210Y-28563786D01*
X32526214Y-28563790D01*
X32562151Y-28591366D01*
X32603353Y-28647794D01*
X32607508Y-28717540D01*
X32589768Y-28758629D01*
X32579049Y-28774672D01*
X32553734Y-28812558D01*
X32537392Y-28894717D01*
X32534292Y-28910300D01*
X32536817Y-28922993D01*
X32539200Y-28947185D01*
X32539200Y-30002811D01*
X32536818Y-30027000D01*
X32534292Y-30039699D01*
X32535097Y-30043745D01*
X32528868Y-30113337D01*
X32486005Y-30168513D01*
X32429661Y-30190875D01*
X32390512Y-30196028D01*
X32333365Y-30222676D01*
X32264287Y-30233167D01*
X32200504Y-30204647D01*
X32162264Y-30146170D01*
X32158488Y-30090894D01*
X32159718Y-30083127D01*
X32159719Y-30083126D01*
X32180804Y-29950000D01*
X32180208Y-29946240D01*
X32159719Y-29816875D01*
X32159719Y-29816874D01*
X32098528Y-29696780D01*
X32098527Y-29696778D01*
X32003221Y-29601472D01*
X31883124Y-29540280D01*
X31750000Y-29519195D01*
X31616875Y-29540280D01*
X31496780Y-29601471D01*
X31476322Y-29621930D01*
X31435069Y-29663182D01*
X31373749Y-29696666D01*
X31347390Y-29699500D01*
X31015680Y-29699500D01*
X30948641Y-29679815D01*
X30946789Y-29678602D01*
X30945991Y-29678069D01*
X30922315Y-29662248D01*
X30883230Y-29636132D01*
X30824749Y-29624500D01*
X30824748Y-29624500D01*
X30435252Y-29624500D01*
X30435251Y-29624500D01*
X30376769Y-29636132D01*
X30310447Y-29680447D01*
X30266132Y-29746769D01*
X30254500Y-29805251D01*
X30254500Y-30094748D01*
X30266132Y-30153230D01*
X30310447Y-30219550D01*
X30310448Y-30219552D01*
X30320001Y-30225935D01*
X30322704Y-30227741D01*
X30367508Y-30281354D01*
X30376215Y-30350679D01*
X30346060Y-30413706D01*
X30286616Y-30450425D01*
X30253630Y-30454843D01*
X29647335Y-30453954D01*
X29580325Y-30434171D01*
X29534647Y-30381300D01*
X29524805Y-30312127D01*
X29553923Y-30248614D01*
X29578622Y-30226855D01*
X29589552Y-30219552D01*
X29633867Y-30153231D01*
X29645500Y-30094748D01*
X29645500Y-29805252D01*
X29633867Y-29746769D01*
X29609267Y-29709953D01*
X29589552Y-29680447D01*
X29523230Y-29636132D01*
X29464749Y-29624500D01*
X29464748Y-29624500D01*
X29075252Y-29624500D01*
X29075251Y-29624500D01*
X28992578Y-29640945D01*
X28992345Y-29639778D01*
X28961363Y-29649480D01*
X28959149Y-29649500D01*
X28672402Y-29649500D01*
X28605363Y-29629815D01*
X28584725Y-29613185D01*
X28518316Y-29546776D01*
X28518315Y-29546775D01*
X28518314Y-29546774D01*
X28409487Y-29496027D01*
X28366325Y-29490345D01*
X28347577Y-29486383D01*
X28221962Y-29449500D01*
X28221961Y-29449500D01*
X28078039Y-29449500D01*
X28052526Y-29456991D01*
X27952406Y-29486387D01*
X27933656Y-29490348D01*
X27890514Y-29496026D01*
X27781682Y-29546776D01*
X27696775Y-29631683D01*
X27646028Y-29740512D01*
X27642702Y-29765780D01*
X27639500Y-29790099D01*
X27639500Y-29794151D01*
X27639500Y-29794152D01*
X27639500Y-30145840D01*
X27639500Y-30145855D01*
X27639501Y-30149900D01*
X27640029Y-30153916D01*
X27640030Y-30153921D01*
X27646028Y-30199488D01*
X27681007Y-30274500D01*
X27691499Y-30343578D01*
X27662979Y-30407362D01*
X27604503Y-30445601D01*
X27568443Y-30450905D01*
X27124318Y-30450254D01*
X27057308Y-30430471D01*
X27011630Y-30377600D01*
X27000500Y-30326254D01*
X27000500Y-29094748D01*
X30254500Y-29094748D01*
X30266132Y-29153230D01*
X30310447Y-29219552D01*
X30376769Y-29263867D01*
X30435251Y-29275500D01*
X30435252Y-29275500D01*
X30824749Y-29275500D01*
X30855430Y-29269397D01*
X30883231Y-29263867D01*
X30949552Y-29219552D01*
X30993867Y-29153231D01*
X31005500Y-29094748D01*
X31005500Y-28805252D01*
X31004449Y-28799970D01*
X30993867Y-28746769D01*
X30949552Y-28680447D01*
X30883230Y-28636132D01*
X30824749Y-28624500D01*
X30824748Y-28624500D01*
X30435252Y-28624500D01*
X30435251Y-28624500D01*
X30376769Y-28636132D01*
X30310447Y-28680447D01*
X30266132Y-28746769D01*
X30254500Y-28805251D01*
X30254500Y-29094748D01*
X27000500Y-29094748D01*
X27000500Y-26674500D01*
X27020185Y-26607461D01*
X27072989Y-26561706D01*
X27124500Y-26550500D01*
X27260402Y-26550500D01*
X27327441Y-26570185D01*
X27373196Y-26622989D01*
X27383140Y-26692147D01*
X27363504Y-26743391D01*
X27311132Y-26821769D01*
X27299499Y-26880251D01*
X27299499Y-27519748D01*
X27311132Y-27578230D01*
X27355447Y-27644552D01*
X27421769Y-27688867D01*
X27480251Y-27700500D01*
X27480252Y-27700500D01*
X28319749Y-27700500D01*
X28356015Y-27693286D01*
X28378231Y-27688867D01*
X28444552Y-27644552D01*
X28488867Y-27578231D01*
X28500500Y-27519748D01*
X28500500Y-26880252D01*
X28498258Y-26868983D01*
X28484055Y-26797578D01*
X28484331Y-26797523D01*
X28473740Y-26763698D01*
X28492225Y-26696318D01*
X28542545Y-26650437D01*
X28655695Y-26594217D01*
X28655695Y-26594216D01*
X28655697Y-26594216D01*
X28688710Y-26561862D01*
X28750366Y-26529000D01*
X28820004Y-26534687D01*
X28875512Y-26577121D01*
X28899267Y-26642829D01*
X28899500Y-26650426D01*
X28899500Y-27019748D01*
X28911132Y-27078230D01*
X28955447Y-27144552D01*
X29042277Y-27202570D01*
X29041311Y-27204014D01*
X29068480Y-27218225D01*
X29103057Y-27278939D01*
X29105120Y-27325107D01*
X29094353Y-27399999D01*
X29114834Y-27542457D01*
X29174623Y-27673374D01*
X29268025Y-27781166D01*
X29268872Y-27782143D01*
X29389947Y-27859953D01*
X29528039Y-27900500D01*
X29671961Y-27900500D01*
X29810053Y-27859953D01*
X29931128Y-27782143D01*
X30025377Y-27673373D01*
X30085165Y-27542457D01*
X30105647Y-27400000D01*
X30096269Y-27334775D01*
X30106213Y-27265619D01*
X30151967Y-27212815D01*
X30194809Y-27195514D01*
X30228231Y-27188867D01*
X30294552Y-27144552D01*
X30338867Y-27078231D01*
X30350500Y-27019748D01*
X30350500Y-25530252D01*
X30344608Y-25500633D01*
X30338867Y-25471769D01*
X30294552Y-25405447D01*
X30228230Y-25361132D01*
X30169749Y-25349500D01*
X30169748Y-25349500D01*
X29080252Y-25349500D01*
X29080251Y-25349500D01*
X29021769Y-25361132D01*
X28955446Y-25405448D01*
X28927601Y-25447122D01*
X28873989Y-25491926D01*
X28804664Y-25500633D01*
X28741637Y-25470478D01*
X28704918Y-25411034D01*
X28700500Y-25378230D01*
X28700500Y-22621769D01*
X28720185Y-22554730D01*
X28772989Y-22508975D01*
X28842147Y-22499031D01*
X28905703Y-22528056D01*
X28927602Y-22552878D01*
X28955447Y-22594552D01*
X29021769Y-22638867D01*
X29080251Y-22650500D01*
X29080252Y-22650500D01*
X30169749Y-22650500D01*
X30198989Y-22644683D01*
X30228231Y-22638867D01*
X30294552Y-22594552D01*
X30338867Y-22528231D01*
X30350500Y-22469748D01*
X30350500Y-20980252D01*
X30338867Y-20921769D01*
X30338866Y-20921768D01*
X30294552Y-20855447D01*
X30228230Y-20811132D01*
X30169749Y-20799500D01*
X30169748Y-20799500D01*
X29080252Y-20799500D01*
X29080251Y-20799500D01*
X29021769Y-20811132D01*
X28955447Y-20855447D01*
X28911132Y-20921769D01*
X28899500Y-20980251D01*
X28899500Y-21349573D01*
X28879815Y-21416612D01*
X28827011Y-21462367D01*
X28757853Y-21472311D01*
X28694297Y-21443286D01*
X28688709Y-21438136D01*
X28655696Y-21405783D01*
X28542544Y-21349562D01*
X28491266Y-21302103D01*
X28473786Y-21234455D01*
X28484077Y-21202426D01*
X28484055Y-21202422D01*
X28500500Y-21119748D01*
X28500500Y-20480251D01*
X28488867Y-20421769D01*
X28444552Y-20355447D01*
X28378230Y-20311132D01*
X28319749Y-20299500D01*
X28319748Y-20299500D01*
X27480252Y-20299500D01*
X27480251Y-20299500D01*
X27421769Y-20311132D01*
X27355447Y-20355447D01*
X27311132Y-20421769D01*
X27299499Y-20480251D01*
X27299499Y-21119748D01*
X27311132Y-21178230D01*
X27363504Y-21256609D01*
X27384382Y-21323286D01*
X27365898Y-21390666D01*
X27313919Y-21437357D01*
X27260402Y-21449500D01*
X27124500Y-21449500D01*
X27057461Y-21429815D01*
X27011706Y-21377011D01*
X27000500Y-21325500D01*
X27000500Y-17624500D01*
X27020185Y-17557461D01*
X27072989Y-17511706D01*
X27124500Y-17500500D01*
X27291216Y-17500500D01*
X31176186Y-17506196D01*
G37*
%TD.AperFunction*%
%TA.AperFunction,Conductor*%
G36*
X52576183Y-17537574D02*
G01*
X52643192Y-17557357D01*
X52688870Y-17610228D01*
X52700000Y-17661574D01*
X52700000Y-18543808D01*
X52680315Y-18610847D01*
X52640743Y-18645135D01*
X52642277Y-18647430D01*
X52555447Y-18705447D01*
X52503823Y-18782709D01*
X52450210Y-18827514D01*
X52380885Y-18836221D01*
X52317858Y-18806066D01*
X52313040Y-18801499D01*
X52268316Y-18756775D01*
X52159487Y-18706028D01*
X52113921Y-18700029D01*
X52113917Y-18700028D01*
X52109901Y-18699500D01*
X52105847Y-18699500D01*
X51694159Y-18699500D01*
X51694143Y-18699500D01*
X51690100Y-18699501D01*
X51686084Y-18700029D01*
X51686078Y-18700030D01*
X51640511Y-18706028D01*
X51531682Y-18756776D01*
X51446775Y-18841683D01*
X51396600Y-18949286D01*
X51396028Y-18950513D01*
X51389500Y-19000099D01*
X51389500Y-19004151D01*
X51389500Y-19004152D01*
X51389500Y-19355840D01*
X51389500Y-19355855D01*
X51389501Y-19359900D01*
X51390029Y-19363916D01*
X51390030Y-19363921D01*
X51396028Y-19409488D01*
X51446776Y-19518317D01*
X51519313Y-19590854D01*
X51552798Y-19652177D01*
X51547814Y-19721869D01*
X51519314Y-19766216D01*
X51435934Y-19849596D01*
X51385931Y-19956827D01*
X51381343Y-19991682D01*
X51379500Y-20005684D01*
X51379500Y-20354316D01*
X51380028Y-20358332D01*
X51380029Y-20358336D01*
X51385931Y-20403172D01*
X51435935Y-20510405D01*
X51527849Y-20602319D01*
X51561334Y-20663642D01*
X51556350Y-20733334D01*
X51527849Y-20777681D01*
X51435935Y-20869594D01*
X51385931Y-20976827D01*
X51380029Y-21021663D01*
X51379500Y-21025684D01*
X51379500Y-21374316D01*
X51380028Y-21378332D01*
X51380029Y-21378336D01*
X51385931Y-21423172D01*
X51435935Y-21530405D01*
X51509313Y-21603783D01*
X51542798Y-21665106D01*
X51537814Y-21734798D01*
X51509314Y-21779145D01*
X51456774Y-21831685D01*
X51406028Y-21940512D01*
X51406028Y-21940513D01*
X51399500Y-21990099D01*
X51399500Y-21994151D01*
X51399500Y-21994152D01*
X51399500Y-22405840D01*
X51399500Y-22405855D01*
X51399501Y-22409900D01*
X51400029Y-22413916D01*
X51400030Y-22413921D01*
X51406028Y-22459488D01*
X51456776Y-22568317D01*
X51546119Y-22657660D01*
X51592841Y-22698795D01*
X51612000Y-22765009D01*
X51612000Y-24994603D01*
X51595387Y-25056602D01*
X51579868Y-25083480D01*
X51559323Y-25199999D01*
X51579869Y-25316518D01*
X51638006Y-25417215D01*
X51639027Y-25418982D01*
X51729662Y-25495034D01*
X51840842Y-25535500D01*
X51959158Y-25535500D01*
X52070338Y-25495034D01*
X52160973Y-25418982D01*
X52220131Y-25316518D01*
X52240676Y-25200000D01*
X52559323Y-25200000D01*
X52579869Y-25316518D01*
X52638006Y-25417215D01*
X52639027Y-25418982D01*
X52729662Y-25495034D01*
X52840842Y-25535500D01*
X52959158Y-25535500D01*
X53070338Y-25495034D01*
X53160973Y-25418982D01*
X53220131Y-25316518D01*
X53240676Y-25200000D01*
X53559323Y-25200000D01*
X53579869Y-25316518D01*
X53638006Y-25417215D01*
X53639027Y-25418982D01*
X53729662Y-25495034D01*
X53840842Y-25535500D01*
X53959158Y-25535500D01*
X54070588Y-25494943D01*
X54134299Y-25467058D01*
X54203291Y-25478096D01*
X54229629Y-25495022D01*
X54229662Y-25495034D01*
X54340842Y-25535500D01*
X54459158Y-25535500D01*
X54570588Y-25494943D01*
X54634299Y-25467058D01*
X54703291Y-25478096D01*
X54729629Y-25495022D01*
X54729662Y-25495034D01*
X54840842Y-25535500D01*
X54959158Y-25535500D01*
X55070338Y-25495034D01*
X55160973Y-25418982D01*
X55220131Y-25316518D01*
X55240676Y-25200000D01*
X55220131Y-25083482D01*
X55160973Y-24981018D01*
X55145835Y-24968316D01*
X55070337Y-24904965D01*
X54959158Y-24864500D01*
X54840842Y-24864500D01*
X54729425Y-24905052D01*
X54665693Y-24932942D01*
X54596702Y-24921900D01*
X54570371Y-24904977D01*
X54459158Y-24864500D01*
X54340842Y-24864500D01*
X54229425Y-24905052D01*
X54165693Y-24932942D01*
X54096702Y-24921900D01*
X54070371Y-24904977D01*
X53959158Y-24864500D01*
X53840842Y-24864500D01*
X53729662Y-24904965D01*
X53639026Y-24981018D01*
X53579869Y-25083481D01*
X53559323Y-25200000D01*
X53240676Y-25200000D01*
X53220131Y-25083482D01*
X53160973Y-24981018D01*
X53145835Y-24968316D01*
X53070337Y-24904965D01*
X52959158Y-24864500D01*
X52840842Y-24864500D01*
X52729662Y-24904965D01*
X52639026Y-24981018D01*
X52579869Y-25083481D01*
X52559323Y-25200000D01*
X52240676Y-25200000D01*
X52236481Y-25176211D01*
X52220131Y-25083482D01*
X52209530Y-25065121D01*
X52204612Y-25056602D01*
X52188000Y-24994606D01*
X52188000Y-22734903D01*
X52207685Y-22667863D01*
X52224319Y-22647222D01*
X52303224Y-22568316D01*
X52321916Y-22528230D01*
X52353972Y-22459487D01*
X52360500Y-22409901D01*
X52360499Y-21990100D01*
X52353972Y-21940513D01*
X52303224Y-21831684D01*
X52303223Y-21831683D01*
X52303223Y-21831682D01*
X52270686Y-21799145D01*
X52237201Y-21737822D01*
X52242185Y-21668130D01*
X52270686Y-21623782D01*
X52280402Y-21614065D01*
X52280404Y-21614065D01*
X52364065Y-21530404D01*
X52414068Y-21423173D01*
X52420500Y-21374316D01*
X52420500Y-21025684D01*
X52414068Y-20976827D01*
X52364065Y-20869596D01*
X52280404Y-20785935D01*
X52280402Y-20785934D01*
X52272150Y-20777682D01*
X52238665Y-20716359D01*
X52243649Y-20646667D01*
X52272150Y-20602318D01*
X52280402Y-20594065D01*
X52280404Y-20594065D01*
X52364065Y-20510404D01*
X52414068Y-20403173D01*
X52420500Y-20354316D01*
X52420500Y-20005684D01*
X52414068Y-19956827D01*
X52364065Y-19849596D01*
X52280683Y-19766214D01*
X52247200Y-19704894D01*
X52252184Y-19635202D01*
X52280684Y-19590855D01*
X52317046Y-19554493D01*
X52378370Y-19521009D01*
X52448061Y-19525995D01*
X52503994Y-19567867D01*
X52507828Y-19573285D01*
X52555447Y-19644552D01*
X52642277Y-19702570D01*
X52640289Y-19705544D01*
X52662071Y-19716928D01*
X52696666Y-19777632D01*
X52700000Y-19806190D01*
X52700000Y-23750000D01*
X56699999Y-23750000D01*
X56700000Y-23750000D01*
X56700000Y-17667803D01*
X56719685Y-17600764D01*
X56772489Y-17555009D01*
X56824181Y-17543803D01*
X60875684Y-17549743D01*
X60942692Y-17569526D01*
X60988370Y-17622397D01*
X60999500Y-17673743D01*
X60999500Y-21325500D01*
X60979815Y-21392539D01*
X60927011Y-21438294D01*
X60875500Y-21449500D01*
X60789598Y-21449500D01*
X60722559Y-21429815D01*
X60676804Y-21377011D01*
X60666860Y-21307853D01*
X60686496Y-21256609D01*
X60704884Y-21229089D01*
X60738867Y-21178231D01*
X60750500Y-21119748D01*
X60750500Y-20480252D01*
X60738867Y-20421769D01*
X60738866Y-20421769D01*
X60694552Y-20355447D01*
X60628230Y-20311132D01*
X60569749Y-20299500D01*
X60569748Y-20299500D01*
X59730252Y-20299500D01*
X59730251Y-20299500D01*
X59671769Y-20311132D01*
X59605447Y-20355447D01*
X59561132Y-20421769D01*
X59549500Y-20480251D01*
X59549500Y-21119748D01*
X59565945Y-21202422D01*
X59565668Y-21202476D01*
X59576259Y-21236303D01*
X59557773Y-21303683D01*
X59507455Y-21349562D01*
X59394303Y-21405783D01*
X59361291Y-21438136D01*
X59299633Y-21470999D01*
X59229995Y-21465311D01*
X59174487Y-21422877D01*
X59150733Y-21357169D01*
X59150500Y-21349573D01*
X59150500Y-21178230D01*
X59150500Y-20980252D01*
X59138867Y-20921769D01*
X59138866Y-20921769D01*
X59094552Y-20855447D01*
X59028230Y-20811132D01*
X58969749Y-20799500D01*
X58969748Y-20799500D01*
X57880252Y-20799500D01*
X57880251Y-20799500D01*
X57821769Y-20811132D01*
X57755447Y-20855447D01*
X57711132Y-20921769D01*
X57699500Y-20980251D01*
X57699500Y-22469748D01*
X57711132Y-22528230D01*
X57755447Y-22594552D01*
X57821769Y-22638867D01*
X57880251Y-22650500D01*
X57880252Y-22650500D01*
X58969749Y-22650500D01*
X58998989Y-22644683D01*
X59028231Y-22638867D01*
X59094552Y-22594552D01*
X59122398Y-22552878D01*
X59176009Y-22508074D01*
X59245334Y-22499367D01*
X59308361Y-22529521D01*
X59345081Y-22588964D01*
X59349499Y-22621770D01*
X59349499Y-25378229D01*
X59329814Y-25445268D01*
X59277010Y-25491023D01*
X59207852Y-25500967D01*
X59144296Y-25471942D01*
X59122397Y-25447120D01*
X59094552Y-25405448D01*
X59028230Y-25361132D01*
X58969749Y-25349500D01*
X58969748Y-25349500D01*
X57880252Y-25349500D01*
X57880251Y-25349500D01*
X57821769Y-25361132D01*
X57755447Y-25405447D01*
X57711132Y-25471769D01*
X57699500Y-25530251D01*
X57699500Y-27019748D01*
X57711132Y-27078230D01*
X57755447Y-27144552D01*
X57821769Y-27188867D01*
X57880251Y-27200500D01*
X57880252Y-27200500D01*
X58050500Y-27200500D01*
X58117539Y-27220185D01*
X58163294Y-27272989D01*
X58174499Y-27324499D01*
X58174499Y-27549999D01*
X58174499Y-27774498D01*
X58154814Y-27841538D01*
X58102905Y-27886880D01*
X58081682Y-27896776D01*
X57996775Y-27981683D01*
X57946028Y-28090512D01*
X57940724Y-28130804D01*
X57939500Y-28140099D01*
X57939500Y-28144151D01*
X57939500Y-28144152D01*
X57939500Y-28495840D01*
X57939500Y-28495855D01*
X57939501Y-28499900D01*
X57940029Y-28503916D01*
X57940030Y-28503921D01*
X57946028Y-28549488D01*
X57996776Y-28658317D01*
X58081683Y-28743224D01*
X58118732Y-28760500D01*
X58190513Y-28793972D01*
X58240099Y-28800500D01*
X58659900Y-28800499D01*
X58709487Y-28793972D01*
X58818316Y-28743224D01*
X58864762Y-28696778D01*
X58918685Y-28642856D01*
X58919911Y-28644082D01*
X58944702Y-28615921D01*
X59011893Y-28596761D01*
X59078777Y-28616968D01*
X59098606Y-28633076D01*
X59169594Y-28704064D01*
X59169595Y-28704064D01*
X59169596Y-28704065D01*
X59276827Y-28754068D01*
X59325684Y-28760500D01*
X59329737Y-28760500D01*
X59770263Y-28760500D01*
X59774316Y-28760500D01*
X59823173Y-28754068D01*
X59930404Y-28704065D01*
X60014065Y-28620404D01*
X60064068Y-28513173D01*
X60070500Y-28464316D01*
X60070500Y-28115684D01*
X60064068Y-28066827D01*
X60014065Y-27959596D01*
X60014064Y-27959595D01*
X60014064Y-27959594D01*
X59966651Y-27912181D01*
X59933166Y-27850858D01*
X59938150Y-27781166D01*
X59980022Y-27725233D01*
X60045486Y-27700816D01*
X60054332Y-27700500D01*
X60569749Y-27700500D01*
X60606015Y-27693286D01*
X60628231Y-27688867D01*
X60694552Y-27644552D01*
X60738867Y-27578231D01*
X60750500Y-27519748D01*
X60750500Y-26880252D01*
X60748258Y-26868983D01*
X60738867Y-26821769D01*
X60686496Y-26743391D01*
X60665618Y-26676714D01*
X60684102Y-26609334D01*
X60736081Y-26562643D01*
X60789598Y-26550500D01*
X60875500Y-26550500D01*
X60942539Y-26570185D01*
X60988294Y-26622989D01*
X60999500Y-26674500D01*
X60999499Y-30375742D01*
X60979814Y-30442781D01*
X60927010Y-30488536D01*
X60875317Y-30499742D01*
X55963131Y-30492540D01*
X55896121Y-30472757D01*
X55894465Y-30471670D01*
X55876100Y-30459399D01*
X55846366Y-30439531D01*
X55846365Y-30439530D01*
X55846364Y-30439530D01*
X55748625Y-30420089D01*
X55735930Y-30422614D01*
X55711740Y-30424997D01*
X55690354Y-30424997D01*
X55623315Y-30405312D01*
X55577560Y-30352508D01*
X55567616Y-30283350D01*
X55567881Y-30281600D01*
X55580804Y-30200000D01*
X55573506Y-30153921D01*
X55559719Y-30066874D01*
X55498528Y-29946780D01*
X55498527Y-29946778D01*
X55403221Y-29851472D01*
X55283124Y-29790280D01*
X55255101Y-29785842D01*
X55191967Y-29755913D01*
X55155035Y-29696602D01*
X55150499Y-29663369D01*
X55150499Y-29643311D01*
X55170184Y-29576272D01*
X55222988Y-29530517D01*
X55292146Y-29520573D01*
X55316907Y-29526788D01*
X55340842Y-29535500D01*
X55459158Y-29535500D01*
X55570338Y-29495034D01*
X55660973Y-29418982D01*
X55720131Y-29316518D01*
X55740676Y-29200000D01*
X55720131Y-29083482D01*
X55678861Y-29012000D01*
X55662388Y-28944100D01*
X55678861Y-28888000D01*
X55692464Y-28864438D01*
X55720131Y-28816518D01*
X55740676Y-28700000D01*
X55720131Y-28583482D01*
X55720130Y-28583481D01*
X55716334Y-28561950D01*
X55717197Y-28561797D01*
X55707672Y-28522536D01*
X55730524Y-28456509D01*
X55785444Y-28413318D01*
X55854998Y-28406676D01*
X55917101Y-28438691D01*
X55919213Y-28440754D01*
X55931683Y-28453224D01*
X55980398Y-28475940D01*
X56040513Y-28503972D01*
X56090099Y-28510500D01*
X56449900Y-28510499D01*
X56499487Y-28503972D01*
X56608316Y-28453224D01*
X56693224Y-28368316D01*
X56743972Y-28259487D01*
X56750500Y-28209901D01*
X56750499Y-28179651D01*
X56754690Y-28160405D01*
X56752627Y-28160109D01*
X56758175Y-28121523D01*
X56775647Y-28000000D01*
X56755511Y-27859952D01*
X56752628Y-27839896D01*
X56754685Y-27839600D01*
X56750499Y-27820350D01*
X56750499Y-27794159D01*
X56750499Y-27790100D01*
X56743972Y-27740513D01*
X56693224Y-27631684D01*
X56693223Y-27631683D01*
X56693223Y-27631682D01*
X56608316Y-27546775D01*
X56499487Y-27496028D01*
X56453921Y-27490029D01*
X56453917Y-27490028D01*
X56449901Y-27489500D01*
X56445848Y-27489500D01*
X56233179Y-27489500D01*
X56166140Y-27469815D01*
X56149642Y-27457138D01*
X56130934Y-27440084D01*
X56124468Y-27437579D01*
X56099192Y-27424256D01*
X56093481Y-27420344D01*
X56093480Y-27420343D01*
X56093478Y-27420342D01*
X56067484Y-27414228D01*
X56051087Y-27409151D01*
X56026173Y-27399500D01*
X56019249Y-27399500D01*
X55990859Y-27396206D01*
X55984119Y-27394621D01*
X55984118Y-27394621D01*
X55972757Y-27396206D01*
X55957666Y-27398311D01*
X55940535Y-27399500D01*
X55853276Y-27399500D01*
X55786237Y-27379815D01*
X55740482Y-27327011D01*
X55730538Y-27257853D01*
X55731160Y-27253967D01*
X55732048Y-27248934D01*
X55740676Y-27200000D01*
X55739382Y-27192664D01*
X55734108Y-27162750D01*
X55720131Y-27083482D01*
X55690046Y-27031373D01*
X55678861Y-27012000D01*
X55662388Y-26944100D01*
X55678861Y-26888000D01*
X55691035Y-26866912D01*
X55720131Y-26816518D01*
X55740676Y-26700000D01*
X55720131Y-26583482D01*
X55690859Y-26532782D01*
X55678860Y-26511998D01*
X55662388Y-26444098D01*
X55678861Y-26387999D01*
X55682940Y-26380934D01*
X55720131Y-26316518D01*
X55740676Y-26200000D01*
X55720131Y-26083482D01*
X55660973Y-25981018D01*
X55632513Y-25957137D01*
X55570337Y-25904965D01*
X55459158Y-25864500D01*
X55340842Y-25864500D01*
X55229662Y-25904965D01*
X55139026Y-25981018D01*
X55079869Y-26083481D01*
X55059323Y-26199999D01*
X55073901Y-26282671D01*
X55079869Y-26316518D01*
X55116530Y-26380017D01*
X55121139Y-26387999D01*
X55137612Y-26455899D01*
X55121140Y-26511998D01*
X55079869Y-26583482D01*
X55059323Y-26700000D01*
X55079869Y-26816518D01*
X55121139Y-26888000D01*
X55137612Y-26955900D01*
X55121139Y-27012000D01*
X55079869Y-27083481D01*
X55059323Y-27200000D01*
X55075243Y-27290281D01*
X55079869Y-27316518D01*
X55113821Y-27375325D01*
X55121139Y-27387999D01*
X55137612Y-27455899D01*
X55121140Y-27511998D01*
X55079869Y-27583482D01*
X55059323Y-27699999D01*
X55079869Y-27816518D01*
X55121139Y-27888000D01*
X55137612Y-27955900D01*
X55121139Y-28012000D01*
X55079869Y-28083481D01*
X55059323Y-28200000D01*
X55079869Y-28316518D01*
X55121139Y-28387999D01*
X55137612Y-28455899D01*
X55121140Y-28511998D01*
X55079869Y-28583482D01*
X55059323Y-28700000D01*
X55062668Y-28718968D01*
X55054924Y-28788407D01*
X55010867Y-28842636D01*
X54944486Y-28864438D01*
X54940552Y-28864500D01*
X54840842Y-28864500D01*
X54729425Y-28905052D01*
X54665693Y-28932942D01*
X54596702Y-28921900D01*
X54570371Y-28904977D01*
X54459158Y-28864500D01*
X54340842Y-28864500D01*
X54229662Y-28904965D01*
X54139026Y-28981018D01*
X54079869Y-29083481D01*
X54059323Y-29200000D01*
X54073459Y-29280165D01*
X54079869Y-29316518D01*
X54113821Y-29375325D01*
X54132887Y-29408347D01*
X54149500Y-29470348D01*
X54149499Y-29638870D01*
X54129814Y-29705909D01*
X54077010Y-29751664D01*
X54044898Y-29761342D01*
X54016875Y-29765780D01*
X53896778Y-29826972D01*
X53862181Y-29861570D01*
X53800858Y-29895055D01*
X53731166Y-29890071D01*
X53675233Y-29848199D01*
X53650816Y-29782735D01*
X53650500Y-29773889D01*
X53650500Y-29470347D01*
X53667113Y-29408347D01*
X53676287Y-29392457D01*
X53720131Y-29316518D01*
X53740676Y-29200000D01*
X53720131Y-29083482D01*
X53678861Y-29012000D01*
X53678860Y-29011998D01*
X53662388Y-28944098D01*
X53678861Y-28887999D01*
X53720131Y-28816518D01*
X53740676Y-28700000D01*
X53737228Y-28680448D01*
X53735331Y-28669685D01*
X53720131Y-28583482D01*
X53660973Y-28481018D01*
X53631037Y-28455899D01*
X53570337Y-28404965D01*
X53459158Y-28364500D01*
X53340842Y-28364500D01*
X53229448Y-28405043D01*
X53165689Y-28432942D01*
X53096697Y-28421898D01*
X53070369Y-28404977D01*
X52959158Y-28364500D01*
X52940569Y-28364500D01*
X52873617Y-28344840D01*
X52837569Y-28365691D01*
X52729662Y-28404965D01*
X52639026Y-28481018D01*
X52579869Y-28583481D01*
X52559323Y-28700000D01*
X52562668Y-28718968D01*
X52554924Y-28788407D01*
X52510867Y-28842636D01*
X52444486Y-28864438D01*
X52440552Y-28864500D01*
X52340842Y-28864500D01*
X52229425Y-28905052D01*
X52165693Y-28932942D01*
X52096702Y-28921900D01*
X52070371Y-28904977D01*
X51959158Y-28864500D01*
X51840842Y-28864500D01*
X51729662Y-28904965D01*
X51639026Y-28981018D01*
X51579869Y-29083481D01*
X51559323Y-29199999D01*
X51568140Y-29250000D01*
X51576772Y-29298956D01*
X51581183Y-29323967D01*
X51573439Y-29393406D01*
X51529383Y-29447636D01*
X51463002Y-29469438D01*
X51459067Y-29469500D01*
X51328038Y-29469500D01*
X51277022Y-29484478D01*
X51242093Y-29489500D01*
X51194160Y-29489500D01*
X51194145Y-29489500D01*
X51190100Y-29489501D01*
X51186085Y-29490029D01*
X51186077Y-29490030D01*
X51140511Y-29496028D01*
X51031682Y-29546776D01*
X50946775Y-29631683D01*
X50896028Y-29740512D01*
X50892702Y-29765780D01*
X50889500Y-29790099D01*
X50889500Y-29794151D01*
X50889500Y-29794152D01*
X50889500Y-30087350D01*
X50869815Y-30154389D01*
X50817011Y-30200144D01*
X50747853Y-30210088D01*
X50684297Y-30181063D01*
X50677819Y-30175031D01*
X49801744Y-29298956D01*
X49786322Y-29280165D01*
X49779129Y-29269399D01*
X49779127Y-29269398D01*
X49779127Y-29269397D01*
X49716661Y-29227659D01*
X49696270Y-29214033D01*
X49598528Y-29194592D01*
X49585833Y-29197117D01*
X49561643Y-29199500D01*
X48174500Y-29199500D01*
X48107461Y-29179815D01*
X48061706Y-29127011D01*
X48050500Y-29075500D01*
X48050500Y-28975325D01*
X48031154Y-28878070D01*
X48034112Y-28877481D01*
X48026200Y-28852209D01*
X48034333Y-28822563D01*
X48031154Y-28821931D01*
X48050500Y-28724674D01*
X48050500Y-28575325D01*
X48037499Y-28509969D01*
X48035966Y-28502260D01*
X48035965Y-28502259D01*
X48031154Y-28478070D01*
X48034112Y-28477481D01*
X48026200Y-28452209D01*
X48034333Y-28422563D01*
X48031154Y-28421931D01*
X48050500Y-28324674D01*
X48050500Y-28175325D01*
X48031154Y-28078070D01*
X48034112Y-28077481D01*
X48026200Y-28052209D01*
X48034333Y-28022563D01*
X48031154Y-28021931D01*
X48050500Y-27924674D01*
X48050500Y-27775325D01*
X48031154Y-27678070D01*
X48034112Y-27677481D01*
X48026200Y-27652209D01*
X48034333Y-27622563D01*
X48031154Y-27621931D01*
X48050500Y-27524674D01*
X48050500Y-27375325D01*
X48035966Y-27302261D01*
X48035966Y-27302260D01*
X47980601Y-27219399D01*
X47897740Y-27164034D01*
X47897739Y-27164033D01*
X47897738Y-27164033D01*
X47824675Y-27149500D01*
X47824674Y-27149500D01*
X47075326Y-27149500D01*
X47075324Y-27149500D01*
X47039102Y-27156705D01*
X46969511Y-27150478D01*
X46914333Y-27107615D01*
X46891089Y-27041725D01*
X46893293Y-27010903D01*
X46900500Y-26974674D01*
X46900500Y-26974500D01*
X46900605Y-26974139D01*
X46902883Y-26962693D01*
X46903907Y-26962896D01*
X46920185Y-26907461D01*
X46972989Y-26861706D01*
X47024500Y-26850500D01*
X49070614Y-26850500D01*
X49137653Y-26870185D01*
X49158295Y-26886819D01*
X49414724Y-27143248D01*
X49430146Y-27162039D01*
X49437341Y-27172808D01*
X49480241Y-27201472D01*
X49520200Y-27228172D01*
X49539641Y-27232039D01*
X49617942Y-27247614D01*
X49630636Y-27245088D01*
X49654827Y-27242706D01*
X49727627Y-27242706D01*
X49794666Y-27262391D01*
X49840421Y-27315195D01*
X49850365Y-27384353D01*
X49838112Y-27422999D01*
X49828543Y-27441780D01*
X49790280Y-27516875D01*
X49769195Y-27650000D01*
X49790280Y-27783124D01*
X49859235Y-27918456D01*
X49872131Y-27987126D01*
X49859235Y-28031045D01*
X49790280Y-28166376D01*
X49769195Y-28299503D01*
X49790280Y-28432627D01*
X49851472Y-28552724D01*
X49946778Y-28648030D01*
X49946780Y-28648031D01*
X50066874Y-28709222D01*
X50200000Y-28730307D01*
X50333126Y-28709222D01*
X50453220Y-28648031D01*
X50518710Y-28582539D01*
X50580031Y-28549056D01*
X50582199Y-28548605D01*
X50648238Y-28535469D01*
X50695376Y-28503972D01*
X50731098Y-28480104D01*
X50738295Y-28469331D01*
X50753707Y-28450551D01*
X51158821Y-28045437D01*
X51220142Y-28011954D01*
X51288908Y-28016597D01*
X51340842Y-28035500D01*
X51340843Y-28035500D01*
X51459158Y-28035500D01*
X51570338Y-27995034D01*
X51660973Y-27918982D01*
X51720131Y-27816518D01*
X51740676Y-27700000D01*
X51740676Y-27699999D01*
X52059323Y-27699999D01*
X52079869Y-27816518D01*
X52138860Y-27918694D01*
X52139027Y-27918982D01*
X52229662Y-27995034D01*
X52340842Y-28035500D01*
X52459157Y-28035500D01*
X52459158Y-28035500D01*
X52469302Y-28031807D01*
X52539028Y-28027374D01*
X52567904Y-28043289D01*
X52569778Y-28039612D01*
X52587277Y-28048528D01*
X52707371Y-28109719D01*
X52734156Y-28113961D01*
X52814557Y-28126696D01*
X52862338Y-28149346D01*
X52905634Y-28121523D01*
X52921171Y-28118027D01*
X52952054Y-28113135D01*
X52973623Y-28109719D01*
X53093717Y-28048528D01*
X53189025Y-27953220D01*
X53250216Y-27833126D01*
X53271301Y-27700000D01*
X53270238Y-27693286D01*
X53250216Y-27566873D01*
X53216454Y-27500612D01*
X53203557Y-27431943D01*
X53229833Y-27367203D01*
X53286939Y-27326945D01*
X53356745Y-27323953D01*
X53383232Y-27333832D01*
X53516873Y-27401925D01*
X53650000Y-27423010D01*
X53783126Y-27401925D01*
X53903220Y-27340734D01*
X53998528Y-27245426D01*
X54059719Y-27125332D01*
X54080804Y-26992206D01*
X54079471Y-26983796D01*
X54088426Y-26914502D01*
X54098839Y-26895511D01*
X54135966Y-26839946D01*
X54150500Y-26766880D01*
X54152883Y-26754901D01*
X54152883Y-26754898D01*
X54155408Y-26742205D01*
X54152883Y-26729512D01*
X54150500Y-26705319D01*
X54150500Y-26643311D01*
X54170185Y-26576272D01*
X54222989Y-26530517D01*
X54292147Y-26520573D01*
X54316903Y-26526787D01*
X54340842Y-26535500D01*
X54340844Y-26535500D01*
X54459158Y-26535500D01*
X54570338Y-26495034D01*
X54660973Y-26418982D01*
X54720131Y-26316518D01*
X54740676Y-26200000D01*
X54720131Y-26083482D01*
X54660973Y-25981018D01*
X54632513Y-25957137D01*
X54570337Y-25904965D01*
X54459158Y-25864500D01*
X54340842Y-25864500D01*
X54229448Y-25905043D01*
X54165689Y-25932942D01*
X54096697Y-25921898D01*
X54070369Y-25904977D01*
X53959158Y-25864500D01*
X53840842Y-25864500D01*
X53729425Y-25905052D01*
X53665693Y-25932942D01*
X53596702Y-25921900D01*
X53570371Y-25904977D01*
X53459158Y-25864500D01*
X53340842Y-25864500D01*
X53229662Y-25904965D01*
X53139026Y-25981018D01*
X53079869Y-26083481D01*
X53059323Y-26200000D01*
X53079869Y-26316518D01*
X53139026Y-26418981D01*
X53229661Y-26495034D01*
X53265227Y-26507978D01*
X53276270Y-26511998D01*
X53278260Y-26512722D01*
X53334524Y-26554148D01*
X53359460Y-26619416D01*
X53345150Y-26687805D01*
X53323532Y-26716924D01*
X53301473Y-26738983D01*
X53240280Y-26859081D01*
X53219195Y-26992206D01*
X53240280Y-27125330D01*
X53240280Y-27125331D01*
X53240281Y-27125332D01*
X53270596Y-27184829D01*
X53274043Y-27191593D01*
X53286939Y-27260262D01*
X53260663Y-27325003D01*
X53203556Y-27365260D01*
X53133751Y-27368252D01*
X53107264Y-27358373D01*
X52973623Y-27290280D01*
X52837718Y-27268755D01*
X52774583Y-27238826D01*
X52737652Y-27179514D01*
X52735002Y-27167825D01*
X52720131Y-27083482D01*
X52690046Y-27031373D01*
X52678861Y-27012000D01*
X52662388Y-26944100D01*
X52678861Y-26888000D01*
X52691035Y-26866912D01*
X52720131Y-26816518D01*
X52740676Y-26700000D01*
X52720131Y-26583482D01*
X52699392Y-26547562D01*
X52678861Y-26512000D01*
X52662388Y-26444100D01*
X52678861Y-26388000D01*
X52693200Y-26363164D01*
X52720131Y-26316518D01*
X52740676Y-26200000D01*
X52740557Y-26199327D01*
X52735825Y-26172486D01*
X52720131Y-26083482D01*
X52660973Y-25981018D01*
X52632513Y-25957137D01*
X52570337Y-25904965D01*
X52459158Y-25864500D01*
X52340842Y-25864500D01*
X52229662Y-25904965D01*
X52139026Y-25981018D01*
X52079869Y-26083481D01*
X52059323Y-26199999D01*
X52073901Y-26282671D01*
X52079869Y-26316518D01*
X52116530Y-26380017D01*
X52121139Y-26387999D01*
X52137612Y-26455899D01*
X52121140Y-26511998D01*
X52079869Y-26583482D01*
X52059323Y-26700000D01*
X52079869Y-26816518D01*
X52121139Y-26888000D01*
X52137612Y-26955900D01*
X52121139Y-27012000D01*
X52079869Y-27083481D01*
X52059323Y-27200000D01*
X52075243Y-27290281D01*
X52079869Y-27316518D01*
X52113821Y-27375325D01*
X52121139Y-27387999D01*
X52137612Y-27455899D01*
X52121140Y-27511998D01*
X52079869Y-27583482D01*
X52059323Y-27699999D01*
X51740676Y-27699999D01*
X51720131Y-27583482D01*
X51683334Y-27519748D01*
X51678861Y-27512000D01*
X51662388Y-27444100D01*
X51678861Y-27388000D01*
X51695966Y-27358373D01*
X51720131Y-27316518D01*
X51740676Y-27200000D01*
X51720131Y-27083482D01*
X51690046Y-27031373D01*
X51678861Y-27012000D01*
X51662388Y-26944100D01*
X51678861Y-26888000D01*
X51691035Y-26866912D01*
X51720131Y-26816518D01*
X51740676Y-26700000D01*
X51720131Y-26583482D01*
X51690859Y-26532782D01*
X51678860Y-26511998D01*
X51662388Y-26444098D01*
X51678861Y-26387999D01*
X51682940Y-26380934D01*
X51720131Y-26316518D01*
X51740676Y-26200000D01*
X51720131Y-26083482D01*
X51660973Y-25981018D01*
X51632513Y-25957137D01*
X51570337Y-25904965D01*
X51459158Y-25864500D01*
X51340842Y-25864500D01*
X51229663Y-25904965D01*
X51227594Y-25906701D01*
X51218204Y-25914581D01*
X51211163Y-25920489D01*
X51147155Y-25948502D01*
X51131456Y-25949500D01*
X50564704Y-25949500D01*
X50540512Y-25947117D01*
X50527818Y-25944592D01*
X50515125Y-25947117D01*
X50515120Y-25947117D01*
X50430079Y-25964033D01*
X50406460Y-25979815D01*
X50347217Y-26019399D01*
X50347216Y-26019400D01*
X50347215Y-26019401D01*
X50340018Y-26030171D01*
X50324601Y-26048955D01*
X50060375Y-26313182D01*
X49999055Y-26346666D01*
X49972696Y-26349500D01*
X49805122Y-26349500D01*
X49738083Y-26329815D01*
X49717441Y-26313181D01*
X49553217Y-26148957D01*
X49537794Y-26130165D01*
X49535250Y-26126358D01*
X49530601Y-26119399D01*
X49530053Y-26119033D01*
X49487147Y-26090364D01*
X49477536Y-26083942D01*
X49462121Y-26073642D01*
X49447739Y-26064032D01*
X49350000Y-26044591D01*
X49339303Y-26046719D01*
X49337305Y-26047117D01*
X49313115Y-26049500D01*
X47455122Y-26049500D01*
X47388083Y-26029815D01*
X47367441Y-26013181D01*
X47103217Y-25748957D01*
X47087794Y-25730165D01*
X47080600Y-25719398D01*
X47051543Y-25699983D01*
X47043936Y-25694900D01*
X46999131Y-25641289D01*
X46990424Y-25571964D01*
X47020578Y-25508936D01*
X47021188Y-25508261D01*
X47034225Y-25493959D01*
X47034228Y-25493958D01*
X47065508Y-25459644D01*
X47069379Y-25455590D01*
X47082174Y-25442797D01*
X47082178Y-25442790D01*
X47082868Y-25442101D01*
X47091922Y-25430671D01*
X47109914Y-25410935D01*
X47109913Y-25410935D01*
X47109916Y-25410933D01*
X47112419Y-25404470D01*
X47125743Y-25379191D01*
X47129656Y-25373481D01*
X47135770Y-25347481D01*
X47140846Y-25331089D01*
X47150500Y-25306173D01*
X47150500Y-25299248D01*
X47153794Y-25270857D01*
X47153894Y-25270432D01*
X47155379Y-25264119D01*
X47151689Y-25237665D01*
X47150500Y-25220535D01*
X47150500Y-25163844D01*
X47170185Y-25096805D01*
X47206159Y-25065381D01*
X47303224Y-24968316D01*
X47319719Y-24932942D01*
X47353972Y-24859487D01*
X47360500Y-24809901D01*
X47360499Y-24450100D01*
X47353972Y-24400513D01*
X47303224Y-24291684D01*
X47303223Y-24291683D01*
X47303223Y-24291682D01*
X47218316Y-24206775D01*
X47109487Y-24156028D01*
X47063921Y-24150029D01*
X47063917Y-24150028D01*
X47059901Y-24149500D01*
X46921962Y-24149500D01*
X46921961Y-24149500D01*
X46778039Y-24149500D01*
X46778036Y-24149500D01*
X46644160Y-24149500D01*
X46644145Y-24149500D01*
X46640100Y-24149501D01*
X46636085Y-24150029D01*
X46636077Y-24150030D01*
X46590511Y-24156028D01*
X46481682Y-24206776D01*
X46412681Y-24275778D01*
X46351358Y-24309263D01*
X46281666Y-24304279D01*
X46237319Y-24275778D01*
X46168316Y-24206775D01*
X46059487Y-24156028D01*
X46013921Y-24150029D01*
X46013917Y-24150028D01*
X46009901Y-24149500D01*
X46005847Y-24149500D01*
X45594159Y-24149500D01*
X45594143Y-24149500D01*
X45590100Y-24149501D01*
X45586084Y-24150029D01*
X45586078Y-24150030D01*
X45540511Y-24156028D01*
X45431684Y-24206775D01*
X45357296Y-24281163D01*
X45295972Y-24314647D01*
X45226281Y-24309663D01*
X45170347Y-24267791D01*
X45147998Y-24217673D01*
X45138867Y-24171769D01*
X45094552Y-24105448D01*
X45055220Y-24079167D01*
X45028231Y-24061133D01*
X45028229Y-24061132D01*
X45016211Y-24053102D01*
X44971406Y-23999490D01*
X44962699Y-23930165D01*
X44992853Y-23867137D01*
X45016211Y-23846898D01*
X45028229Y-23838867D01*
X45028231Y-23838867D01*
X45094552Y-23794552D01*
X45138867Y-23728231D01*
X45150500Y-23669748D01*
X45150500Y-22880252D01*
X45138867Y-22821769D01*
X45122167Y-22796776D01*
X45094552Y-22755447D01*
X45028230Y-22711132D01*
X44969749Y-22699500D01*
X44969748Y-22699500D01*
X44230252Y-22699500D01*
X44230251Y-22699500D01*
X44171768Y-22711133D01*
X44168891Y-22713056D01*
X44102213Y-22733934D01*
X44034833Y-22715449D01*
X44031109Y-22713056D01*
X44028231Y-22711133D01*
X43969749Y-22699500D01*
X43969748Y-22699500D01*
X43230252Y-22699500D01*
X43230251Y-22699500D01*
X43171769Y-22711132D01*
X43105446Y-22755448D01*
X43057827Y-22826715D01*
X43004215Y-22871519D01*
X42934890Y-22880226D01*
X42871862Y-22850071D01*
X42867045Y-22845504D01*
X42818316Y-22796775D01*
X42709487Y-22746028D01*
X42663921Y-22740029D01*
X42663917Y-22740028D01*
X42659901Y-22739500D01*
X42655847Y-22739500D01*
X42304159Y-22739500D01*
X42304143Y-22739500D01*
X42300100Y-22739501D01*
X42296084Y-22740029D01*
X42296078Y-22740030D01*
X42250511Y-22746028D01*
X42141682Y-22796776D01*
X42056775Y-22881683D01*
X42006028Y-22990512D01*
X42001554Y-23024500D01*
X41999500Y-23040099D01*
X41999500Y-23044151D01*
X41999500Y-23044152D01*
X41999500Y-23455840D01*
X41999500Y-23455855D01*
X41999501Y-23459900D01*
X42000029Y-23463916D01*
X42000030Y-23463921D01*
X42006028Y-23509488D01*
X42056776Y-23618317D01*
X42121594Y-23683135D01*
X42155079Y-23744458D01*
X42155531Y-23795005D01*
X42152983Y-23807816D01*
X42120599Y-23869727D01*
X42083771Y-23896009D01*
X42019594Y-23925935D01*
X41935935Y-24009594D01*
X41885931Y-24116827D01*
X41880771Y-24156028D01*
X41879500Y-24165684D01*
X41879500Y-24514316D01*
X41879463Y-24513186D01*
X41864379Y-24580579D01*
X41814678Y-24629687D01*
X41755905Y-24644500D01*
X41567518Y-24644500D01*
X41560583Y-24644612D01*
X41557320Y-24644721D01*
X41557233Y-24644725D01*
X41555730Y-24644775D01*
X41555182Y-24644819D01*
X41548930Y-24644999D01*
X41507906Y-24644999D01*
X41505725Y-24645155D01*
X41505697Y-24645156D01*
X41480877Y-24646932D01*
X41480865Y-24646933D01*
X41478660Y-24647091D01*
X41476465Y-24647406D01*
X41476461Y-24647407D01*
X41445898Y-24651801D01*
X41445882Y-24651803D01*
X41443725Y-24652114D01*
X41441586Y-24652579D01*
X41441582Y-24652580D01*
X41417227Y-24657877D01*
X41417203Y-24657883D01*
X41415075Y-24658346D01*
X41412973Y-24658963D01*
X41412966Y-24658965D01*
X41411289Y-24659457D01*
X41409516Y-24659978D01*
X41374585Y-24665000D01*
X41325416Y-24665000D01*
X41290484Y-24659978D01*
X41284926Y-24658346D01*
X41282766Y-24657876D01*
X41282750Y-24657872D01*
X41258432Y-24652582D01*
X41258417Y-24652579D01*
X41256269Y-24652112D01*
X41254096Y-24651799D01*
X41254076Y-24651796D01*
X41223538Y-24647406D01*
X41223518Y-24647403D01*
X41221335Y-24647090D01*
X41219119Y-24646931D01*
X41219114Y-24646931D01*
X41194305Y-24645157D01*
X41194294Y-24645156D01*
X41192090Y-24644999D01*
X41189873Y-24644999D01*
X41151083Y-24644999D01*
X41144821Y-24644819D01*
X41144299Y-24644777D01*
X41142814Y-24644728D01*
X41142808Y-24644728D01*
X41139201Y-24644610D01*
X41132473Y-24644500D01*
X41132435Y-24644500D01*
X41132250Y-24644497D01*
X40517515Y-24644500D01*
X40510583Y-24644612D01*
X40507320Y-24644721D01*
X40507233Y-24644725D01*
X40505730Y-24644775D01*
X40505182Y-24644819D01*
X40498930Y-24644999D01*
X40101080Y-24644999D01*
X40094823Y-24644819D01*
X40094298Y-24644777D01*
X40092834Y-24644729D01*
X40092799Y-24644727D01*
X40089199Y-24644610D01*
X40082472Y-24644500D01*
X40082433Y-24644500D01*
X40082248Y-24644497D01*
X40029592Y-24644499D01*
X40029568Y-24644500D01*
X40027042Y-24644500D01*
X40024518Y-24644707D01*
X40024509Y-24644708D01*
X39995978Y-24647055D01*
X39995967Y-24647056D01*
X39993455Y-24647263D01*
X39990958Y-24647676D01*
X39990955Y-24647677D01*
X39953465Y-24653888D01*
X39953258Y-24653922D01*
X39868657Y-24688656D01*
X39813108Y-24727811D01*
X39813084Y-24727828D01*
X39811549Y-24728911D01*
X39810076Y-24730090D01*
X39810070Y-24730095D01*
X39791930Y-24744620D01*
X39739535Y-24819580D01*
X39739535Y-24819581D01*
X39713254Y-24884319D01*
X39712655Y-24886099D01*
X39712649Y-24886116D01*
X39705240Y-24908143D01*
X39701688Y-24999527D01*
X39701737Y-24999785D01*
X39703399Y-25027877D01*
X39719669Y-25130603D01*
X39719670Y-25169396D01*
X39704882Y-25262765D01*
X39702987Y-25272293D01*
X39700178Y-25283995D01*
X39699749Y-25287617D01*
X39699749Y-25287619D01*
X39696329Y-25316518D01*
X39694500Y-25331970D01*
X39694500Y-25768030D01*
X39694927Y-25771640D01*
X39694928Y-25771653D01*
X39698342Y-25800500D01*
X39700176Y-25815997D01*
X39701026Y-25819539D01*
X39701028Y-25819549D01*
X39702985Y-25827700D01*
X39704883Y-25837242D01*
X39709976Y-25869399D01*
X39711267Y-25877546D01*
X39711733Y-25879584D01*
X39711736Y-25879598D01*
X39717012Y-25902658D01*
X39717016Y-25902673D01*
X39717480Y-25904701D01*
X39722552Y-25921528D01*
X39727159Y-25936814D01*
X39768611Y-26012087D01*
X39813109Y-26063441D01*
X39813130Y-26063464D01*
X39814365Y-26064889D01*
X39831956Y-26082843D01*
X39911773Y-26127490D01*
X39978812Y-26147175D01*
X39988146Y-26148517D01*
X40051701Y-26177539D01*
X40089476Y-26236317D01*
X40094500Y-26271254D01*
X40094500Y-26567174D01*
X40074815Y-26634213D01*
X40022011Y-26679968D01*
X39952853Y-26689912D01*
X39889297Y-26660887D01*
X39865078Y-26632459D01*
X39859255Y-26623056D01*
X39851242Y-26607857D01*
X39851067Y-26607461D01*
X39841085Y-26584853D01*
X39836858Y-26580626D01*
X39819112Y-26558223D01*
X39815958Y-26553129D01*
X39815956Y-26553127D01*
X39795884Y-26537970D01*
X39782928Y-26526696D01*
X39650558Y-26394326D01*
X39640923Y-26380934D01*
X39600521Y-26344102D01*
X39596379Y-26340146D01*
X39583472Y-26327239D01*
X39572424Y-26318488D01*
X39553838Y-26301544D01*
X39548261Y-26299384D01*
X39522978Y-26286057D01*
X39518036Y-26282671D01*
X39493547Y-26276912D01*
X39477146Y-26271834D01*
X39453696Y-26262750D01*
X39447714Y-26262750D01*
X39419327Y-26259457D01*
X39413497Y-26258086D01*
X39388586Y-26261561D01*
X39371455Y-26262750D01*
X39291167Y-26262750D01*
X39224128Y-26243065D01*
X39179767Y-26193210D01*
X39169637Y-26172489D01*
X39144903Y-26147755D01*
X39111418Y-26086432D01*
X39116402Y-26016740D01*
X39158274Y-25960807D01*
X39164403Y-25957137D01*
X39253224Y-25868316D01*
X39258103Y-25857853D01*
X39303972Y-25759487D01*
X39310500Y-25709901D01*
X39310499Y-25350100D01*
X39303972Y-25300513D01*
X39253224Y-25191684D01*
X39253223Y-25191683D01*
X39253223Y-25191682D01*
X39168316Y-25106775D01*
X39059487Y-25056028D01*
X39013921Y-25050029D01*
X39013917Y-25050028D01*
X39009901Y-25049500D01*
X39005847Y-25049500D01*
X38594159Y-25049500D01*
X38594143Y-25049500D01*
X38590100Y-25049501D01*
X38586084Y-25050029D01*
X38586078Y-25050030D01*
X38540511Y-25056028D01*
X38431682Y-25106776D01*
X38337681Y-25200778D01*
X38276358Y-25234263D01*
X38206666Y-25229279D01*
X38162319Y-25200778D01*
X38068316Y-25106775D01*
X37959487Y-25056028D01*
X37913921Y-25050029D01*
X37913917Y-25050028D01*
X37909901Y-25049500D01*
X37905847Y-25049500D01*
X37494159Y-25049500D01*
X37494143Y-25049500D01*
X37490100Y-25049501D01*
X37486084Y-25050029D01*
X37486078Y-25050030D01*
X37440511Y-25056028D01*
X37331682Y-25106776D01*
X37310027Y-25128432D01*
X37248704Y-25161917D01*
X37179012Y-25156933D01*
X37134665Y-25128432D01*
X37123569Y-25117336D01*
X37090084Y-25056013D01*
X37087250Y-25029655D01*
X37087250Y-20876278D01*
X37106935Y-20809239D01*
X37156790Y-20764877D01*
X37167511Y-20759636D01*
X37173924Y-20753223D01*
X37212319Y-20714829D01*
X37273642Y-20681344D01*
X37343334Y-20686328D01*
X37387681Y-20714829D01*
X37432487Y-20759635D01*
X37432488Y-20759635D01*
X37432489Y-20759636D01*
X37536830Y-20810645D01*
X37604472Y-20820500D01*
X37604474Y-20820500D01*
X37965526Y-20820500D01*
X37965528Y-20820500D01*
X38033170Y-20810645D01*
X38137511Y-20759636D01*
X38200123Y-20697023D01*
X38261444Y-20663540D01*
X38331136Y-20668524D01*
X38375484Y-20697025D01*
X38431683Y-20753224D01*
X38475331Y-20773577D01*
X38540513Y-20803972D01*
X38590099Y-20810500D01*
X39009900Y-20810499D01*
X39059487Y-20803972D01*
X39168316Y-20753224D01*
X39253224Y-20668316D01*
X39303972Y-20559487D01*
X39310500Y-20509901D01*
X39310499Y-20150100D01*
X39303972Y-20100513D01*
X39253224Y-19991684D01*
X39253223Y-19991683D01*
X39253223Y-19991682D01*
X39168316Y-19906775D01*
X39059487Y-19856028D01*
X39013921Y-19850029D01*
X39013917Y-19850028D01*
X39009901Y-19849500D01*
X39005847Y-19849500D01*
X38594159Y-19849500D01*
X38594143Y-19849500D01*
X38590100Y-19849501D01*
X38586084Y-19850029D01*
X38586078Y-19850030D01*
X38540511Y-19856028D01*
X38431682Y-19906776D01*
X38405483Y-19932975D01*
X38344160Y-19966460D01*
X38274468Y-19961474D01*
X38230122Y-19932974D01*
X38137512Y-19840364D01*
X38033170Y-19789355D01*
X37965528Y-19779500D01*
X37604472Y-19779500D01*
X37559377Y-19786070D01*
X37536829Y-19789355D01*
X37432488Y-19840364D01*
X37387680Y-19885172D01*
X37326356Y-19918656D01*
X37256664Y-19913671D01*
X37212318Y-19885171D01*
X37167510Y-19840363D01*
X37156787Y-19835121D01*
X37105206Y-19787992D01*
X37087250Y-19723722D01*
X37087250Y-19667085D01*
X37089905Y-19650804D01*
X37089423Y-19640374D01*
X37089424Y-19640372D01*
X37087382Y-19596205D01*
X37087250Y-19590479D01*
X37087250Y-19572217D01*
X37085625Y-19558218D01*
X37085453Y-19554494D01*
X37084464Y-19533094D01*
X37082045Y-19527615D01*
X37073592Y-19500315D01*
X37073533Y-19500000D01*
X42644340Y-19500000D01*
X42664936Y-19735407D01*
X42717874Y-19932974D01*
X42726097Y-19963663D01*
X42825965Y-20177829D01*
X42961505Y-20371401D01*
X43128599Y-20538495D01*
X43322171Y-20674035D01*
X43536337Y-20773903D01*
X43764592Y-20835063D01*
X43941034Y-20850500D01*
X43943742Y-20850500D01*
X44056258Y-20850500D01*
X44058966Y-20850500D01*
X44235408Y-20835063D01*
X44463663Y-20773903D01*
X44677829Y-20674035D01*
X44871401Y-20538495D01*
X45038495Y-20371401D01*
X45174035Y-20177830D01*
X45273903Y-19963663D01*
X45335063Y-19735408D01*
X45355659Y-19500000D01*
X45335063Y-19264592D01*
X45273903Y-19036337D01*
X45174035Y-18822171D01*
X45038495Y-18628599D01*
X44871401Y-18461505D01*
X44677829Y-18325965D01*
X44463663Y-18226097D01*
X44235407Y-18164936D01*
X44061667Y-18149736D01*
X44061659Y-18149735D01*
X44058966Y-18149500D01*
X43941034Y-18149500D01*
X43938341Y-18149735D01*
X43938332Y-18149736D01*
X43764592Y-18164936D01*
X43536336Y-18226097D01*
X43322170Y-18325965D01*
X43128598Y-18461505D01*
X42961508Y-18628595D01*
X42961505Y-18628598D01*
X42961505Y-18628599D01*
X42837242Y-18806066D01*
X42825964Y-18822172D01*
X42726097Y-19036337D01*
X42664936Y-19264592D01*
X42644340Y-19500000D01*
X37073533Y-19500000D01*
X37072493Y-19494437D01*
X37072493Y-19494436D01*
X37059247Y-19473043D01*
X37051242Y-19457857D01*
X37041085Y-19434853D01*
X37036858Y-19430626D01*
X37019112Y-19408223D01*
X37015958Y-19403129D01*
X37015956Y-19403127D01*
X36995878Y-19387965D01*
X36982924Y-19376692D01*
X36625555Y-19019322D01*
X36615922Y-19005933D01*
X36608201Y-18998894D01*
X36575511Y-18969093D01*
X36571390Y-18965157D01*
X36558472Y-18952239D01*
X36547424Y-18943488D01*
X36528838Y-18926544D01*
X36523261Y-18924384D01*
X36497978Y-18911057D01*
X36493036Y-18907671D01*
X36468547Y-18901912D01*
X36452146Y-18896834D01*
X36428696Y-18887750D01*
X36422714Y-18887750D01*
X36394327Y-18884457D01*
X36388497Y-18883086D01*
X36363586Y-18886561D01*
X36346455Y-18887750D01*
X35613701Y-18887750D01*
X35546662Y-18868065D01*
X35500907Y-18815261D01*
X35492084Y-18787941D01*
X35488867Y-18771769D01*
X35444552Y-18705447D01*
X35357723Y-18647430D01*
X35359713Y-18644451D01*
X35337896Y-18633039D01*
X35303323Y-18572323D01*
X35300000Y-18543808D01*
X35300000Y-17636424D01*
X35319685Y-17569385D01*
X35372489Y-17523630D01*
X35424177Y-17512425D01*
X52576183Y-17537574D01*
G37*
%TD.AperFunction*%
%TA.AperFunction,Conductor*%
G36*
X36775703Y-25582382D02*
G01*
X36782181Y-25588414D01*
X36879446Y-25685679D01*
X36889083Y-25699072D01*
X36896799Y-25706106D01*
X36923190Y-25730165D01*
X36929464Y-25735884D01*
X36933608Y-25739841D01*
X36946523Y-25752756D01*
X36957568Y-25761504D01*
X36970166Y-25772989D01*
X36976163Y-25778456D01*
X36981737Y-25780615D01*
X37007029Y-25793946D01*
X37011963Y-25797326D01*
X37036444Y-25803084D01*
X37052846Y-25808162D01*
X37076304Y-25817250D01*
X37082288Y-25817250D01*
X37110678Y-25820544D01*
X37116499Y-25821913D01*
X37116503Y-25821914D01*
X37128956Y-25820176D01*
X37198067Y-25830409D01*
X37233767Y-25855306D01*
X37246775Y-25868314D01*
X37246776Y-25868316D01*
X37293041Y-25914581D01*
X37347145Y-25968685D01*
X37345514Y-25970315D01*
X37372258Y-25993863D01*
X37391411Y-26061057D01*
X37371196Y-26127938D01*
X37355097Y-26147754D01*
X37330365Y-26172486D01*
X37282081Y-26271254D01*
X37279355Y-26276830D01*
X37269500Y-26344472D01*
X37269500Y-26755528D01*
X37278386Y-26816518D01*
X37279355Y-26823170D01*
X37330364Y-26927512D01*
X37412487Y-27009635D01*
X37412488Y-27009635D01*
X37412489Y-27009636D01*
X37516830Y-27060645D01*
X37584472Y-27070500D01*
X37584474Y-27070500D01*
X37945526Y-27070500D01*
X37945528Y-27070500D01*
X38013170Y-27060645D01*
X38117511Y-27009636D01*
X38134941Y-26992206D01*
X38162319Y-26964829D01*
X38223642Y-26931344D01*
X38293334Y-26936328D01*
X38337681Y-26964829D01*
X38382487Y-27009635D01*
X38382488Y-27009635D01*
X38382489Y-27009636D01*
X38486830Y-27060645D01*
X38554472Y-27070500D01*
X38554474Y-27070500D01*
X38915526Y-27070500D01*
X38915528Y-27070500D01*
X38983170Y-27060645D01*
X39087511Y-27009636D01*
X39101069Y-26996077D01*
X39162390Y-26962593D01*
X39232081Y-26967576D01*
X39288016Y-27009447D01*
X39312434Y-27074911D01*
X39312750Y-27083759D01*
X39312750Y-27182916D01*
X39310094Y-27199198D01*
X39310576Y-27209627D01*
X39310576Y-27209628D01*
X39311847Y-27237110D01*
X39312618Y-27253793D01*
X39312750Y-27259519D01*
X39312750Y-27277772D01*
X39314373Y-27291768D01*
X39315536Y-27316906D01*
X39317954Y-27322383D01*
X39326406Y-27349675D01*
X39327507Y-27355564D01*
X39340750Y-27376952D01*
X39348755Y-27392139D01*
X39356267Y-27409151D01*
X39358915Y-27415148D01*
X39363142Y-27419375D01*
X39380888Y-27441778D01*
X39384042Y-27446871D01*
X39404122Y-27462034D01*
X39417067Y-27473300D01*
X39504080Y-27560313D01*
X39537565Y-27621636D01*
X39532581Y-27691328D01*
X39490709Y-27747261D01*
X39425245Y-27771678D01*
X39381465Y-27766971D01*
X39321962Y-27749500D01*
X39321961Y-27749500D01*
X39178039Y-27749500D01*
X39039947Y-27790047D01*
X38918870Y-27867858D01*
X38824623Y-27976625D01*
X38764834Y-28107542D01*
X38744353Y-28250000D01*
X38767048Y-28407854D01*
X38757104Y-28477012D01*
X38711349Y-28529816D01*
X38644310Y-28549500D01*
X37655122Y-28549500D01*
X37588083Y-28529815D01*
X37567441Y-28513181D01*
X37043216Y-27988956D01*
X37027794Y-27970165D01*
X37020814Y-27959719D01*
X37020601Y-27959399D01*
X37015365Y-27955900D01*
X36956157Y-27916339D01*
X36937741Y-27904034D01*
X36840000Y-27884592D01*
X36827305Y-27887117D01*
X36803115Y-27889500D01*
X36556916Y-27889500D01*
X36489877Y-27869815D01*
X36444122Y-27817011D01*
X36434178Y-27747853D01*
X36446431Y-27709205D01*
X36448159Y-27705814D01*
X36459719Y-27683126D01*
X36480804Y-27550000D01*
X36480293Y-27546776D01*
X36467638Y-27466874D01*
X36459719Y-27416874D01*
X36398528Y-27296780D01*
X36347897Y-27246149D01*
X36314414Y-27184829D01*
X36319398Y-27115137D01*
X36361269Y-27059203D01*
X36383168Y-27046091D01*
X36430404Y-27024065D01*
X36514065Y-26940404D01*
X36564068Y-26833173D01*
X36570500Y-26784316D01*
X36570500Y-26435684D01*
X36564068Y-26386827D01*
X36514065Y-26279596D01*
X36514064Y-26279595D01*
X36514064Y-26279594D01*
X36422151Y-26187681D01*
X36388666Y-26126358D01*
X36393650Y-26056666D01*
X36422151Y-26012319D01*
X36514064Y-25920405D01*
X36514064Y-25920404D01*
X36514065Y-25920404D01*
X36564068Y-25813173D01*
X36570500Y-25764316D01*
X36570500Y-25676095D01*
X36590185Y-25609056D01*
X36642989Y-25563301D01*
X36712147Y-25553357D01*
X36775703Y-25582382D01*
G37*
%TD.AperFunction*%
%TA.AperFunction,Conductor*%
G36*
X42427436Y-27184334D02*
G01*
X42428069Y-27181154D01*
X42525325Y-27200500D01*
X42525326Y-27200500D01*
X42674675Y-27200500D01*
X42688424Y-27197765D01*
X42758016Y-27203992D01*
X42813193Y-27246855D01*
X42836438Y-27312744D01*
X42835089Y-27338780D01*
X42823070Y-27414662D01*
X42844155Y-27547786D01*
X42905347Y-27667883D01*
X43000653Y-27763189D01*
X43000655Y-27763190D01*
X43120749Y-27824381D01*
X43175963Y-27833126D01*
X43253874Y-27845466D01*
X43253874Y-27845465D01*
X43253875Y-27845466D01*
X43387001Y-27824381D01*
X43464499Y-27784893D01*
X43533166Y-27771998D01*
X43597906Y-27798274D01*
X43631277Y-27839084D01*
X43651472Y-27878719D01*
X43746778Y-27974025D01*
X43746780Y-27974026D01*
X43866874Y-28035217D01*
X44000000Y-28056302D01*
X44133126Y-28035217D01*
X44253220Y-27974026D01*
X44253220Y-27974025D01*
X44268705Y-27966136D01*
X44337374Y-27953240D01*
X44381295Y-27966136D01*
X44396779Y-27974025D01*
X44396780Y-27974026D01*
X44516874Y-28035217D01*
X44650000Y-28056302D01*
X44783126Y-28035217D01*
X44903220Y-27974026D01*
X44925068Y-27952177D01*
X44986387Y-27918694D01*
X45056078Y-27923676D01*
X45086978Y-27943533D01*
X45096778Y-27948526D01*
X45096780Y-27948528D01*
X45216874Y-28009719D01*
X45350000Y-28030804D01*
X45483126Y-28009719D01*
X45603220Y-27948528D01*
X45698528Y-27853220D01*
X45706423Y-27837724D01*
X45754396Y-27786929D01*
X45822216Y-27770133D01*
X45888352Y-27792669D01*
X45904589Y-27806338D01*
X45996778Y-27898527D01*
X45996780Y-27898528D01*
X46116874Y-27959719D01*
X46250000Y-27980804D01*
X46383126Y-27959719D01*
X46503220Y-27898528D01*
X46598528Y-27803220D01*
X46615014Y-27770863D01*
X46662986Y-27720068D01*
X46730807Y-27703271D01*
X46796942Y-27725807D01*
X46840395Y-27780521D01*
X46849499Y-27827156D01*
X46849499Y-27924674D01*
X46868846Y-28021930D01*
X46865889Y-28022518D01*
X46873800Y-28047775D01*
X46865665Y-28077437D01*
X46868846Y-28078070D01*
X46864034Y-28102259D01*
X46864034Y-28102260D01*
X46849500Y-28175326D01*
X46849500Y-28324674D01*
X46862096Y-28387999D01*
X46868846Y-28421930D01*
X46865889Y-28422518D01*
X46873800Y-28447775D01*
X46865665Y-28477437D01*
X46868846Y-28478070D01*
X46864034Y-28502259D01*
X46864034Y-28502260D01*
X46862501Y-28509969D01*
X46851855Y-28563489D01*
X46849500Y-28575326D01*
X46849500Y-28724674D01*
X46863284Y-28793972D01*
X46868846Y-28821930D01*
X46865889Y-28822518D01*
X46873800Y-28847775D01*
X46865665Y-28877437D01*
X46868846Y-28878070D01*
X46854089Y-28952258D01*
X46849500Y-28975326D01*
X46849500Y-29124674D01*
X46860468Y-29179815D01*
X46868846Y-29221930D01*
X46865887Y-29222518D01*
X46873800Y-29247791D01*
X46865665Y-29277437D01*
X46868846Y-29278070D01*
X46854435Y-29350519D01*
X46849500Y-29375326D01*
X46849500Y-29524674D01*
X46852604Y-29540281D01*
X46868846Y-29621930D01*
X46865887Y-29622518D01*
X46873800Y-29647791D01*
X46865665Y-29677437D01*
X46868846Y-29678070D01*
X46849500Y-29775325D01*
X46849500Y-29924674D01*
X46868846Y-30021930D01*
X46865887Y-30022518D01*
X46873800Y-30047791D01*
X46865665Y-30077437D01*
X46868846Y-30078070D01*
X46864034Y-30102259D01*
X46864034Y-30102260D01*
X46861831Y-30113337D01*
X46849500Y-30175325D01*
X46849500Y-30324674D01*
X46850720Y-30330808D01*
X46844493Y-30400400D01*
X46801630Y-30455577D01*
X46735741Y-30478822D01*
X46728921Y-30479000D01*
X41963619Y-30472013D01*
X41896609Y-30452230D01*
X41853316Y-30404308D01*
X41849969Y-30397740D01*
X41798528Y-30296780D01*
X41798527Y-30296778D01*
X41703221Y-30201472D01*
X41583124Y-30140280D01*
X41450000Y-30119195D01*
X41316873Y-30140280D01*
X41311795Y-30142868D01*
X41243125Y-30155762D01*
X41178386Y-30129483D01*
X41138131Y-30072375D01*
X41133887Y-30008188D01*
X41135965Y-29997741D01*
X41135966Y-29997740D01*
X41150500Y-29924674D01*
X41150500Y-29775326D01*
X41149296Y-29769275D01*
X41131154Y-29678069D01*
X41134110Y-29677480D01*
X41126200Y-29652224D01*
X41134334Y-29622563D01*
X41131154Y-29621931D01*
X41150500Y-29524674D01*
X41150500Y-29451820D01*
X41170185Y-29384781D01*
X41222989Y-29339026D01*
X41292147Y-29329082D01*
X41330794Y-29341335D01*
X41366874Y-29359719D01*
X41500000Y-29380804D01*
X41633126Y-29359719D01*
X41753220Y-29298528D01*
X41848528Y-29203220D01*
X41909719Y-29083126D01*
X41930804Y-28950000D01*
X41909719Y-28816874D01*
X41848528Y-28696780D01*
X41848527Y-28696778D01*
X41753221Y-28601472D01*
X41633124Y-28540280D01*
X41494940Y-28518393D01*
X41431218Y-28510156D01*
X41390565Y-28476057D01*
X41372993Y-28464316D01*
X41351568Y-28450000D01*
X41325569Y-28432628D01*
X41297740Y-28414033D01*
X41250309Y-28404599D01*
X41188398Y-28372214D01*
X41153824Y-28311498D01*
X41150500Y-28282982D01*
X41150500Y-28175325D01*
X41131154Y-28078069D01*
X41134110Y-28077480D01*
X41126200Y-28052224D01*
X41134334Y-28022563D01*
X41131154Y-28021931D01*
X41150500Y-27924674D01*
X41150500Y-27775325D01*
X41131154Y-27678069D01*
X41134110Y-27677480D01*
X41126200Y-27652224D01*
X41134334Y-27622563D01*
X41131154Y-27621931D01*
X41150500Y-27524674D01*
X41150500Y-27379500D01*
X41170185Y-27312461D01*
X41222989Y-27266706D01*
X41274500Y-27255500D01*
X41772178Y-27255500D01*
X41775500Y-27255500D01*
X41819184Y-27250803D01*
X41870695Y-27239597D01*
X41872232Y-27239232D01*
X41880850Y-27237121D01*
X41880868Y-27237111D01*
X41880873Y-27237110D01*
X41958270Y-27195866D01*
X42026691Y-27181711D01*
X42040778Y-27183681D01*
X42052258Y-27185964D01*
X42052260Y-27185966D01*
X42125326Y-27200500D01*
X42125327Y-27200500D01*
X42274675Y-27200500D01*
X42371931Y-27181154D01*
X42372519Y-27184110D01*
X42397776Y-27176200D01*
X42427436Y-27184334D01*
G37*
%TD.AperFunction*%
%TA.AperFunction,Conductor*%
G36*
X36687653Y-28770185D02*
G01*
X36708295Y-28786819D01*
X37172519Y-29251043D01*
X37187936Y-29269827D01*
X37195135Y-29280601D01*
X37227551Y-29302260D01*
X37277995Y-29335966D01*
X37369958Y-29354258D01*
X37431868Y-29386642D01*
X37466442Y-29447358D01*
X37462703Y-29517127D01*
X37433447Y-29563556D01*
X36569347Y-30427655D01*
X36508024Y-30461140D01*
X36481484Y-30463974D01*
X35442202Y-30462450D01*
X35375192Y-30442667D01*
X35329514Y-30389796D01*
X35319672Y-30320623D01*
X35348790Y-30257110D01*
X35373488Y-30235352D01*
X35380601Y-30230601D01*
X35430606Y-30155762D01*
X35431632Y-30154227D01*
X35434523Y-30149900D01*
X35435966Y-30147741D01*
X35455408Y-30050000D01*
X35453359Y-30039699D01*
X35452882Y-30037300D01*
X35450500Y-30013111D01*
X35450500Y-29569785D01*
X35470185Y-29502746D01*
X35522989Y-29456991D01*
X35592147Y-29447047D01*
X35655703Y-29476072D01*
X35687293Y-29518271D01*
X35689623Y-29523373D01*
X35689624Y-29523374D01*
X35689625Y-29523376D01*
X35767441Y-29613181D01*
X35783872Y-29632143D01*
X35904947Y-29709953D01*
X36043039Y-29750500D01*
X36186961Y-29750500D01*
X36325053Y-29709953D01*
X36446128Y-29632143D01*
X36540377Y-29523373D01*
X36600165Y-29392457D01*
X36620647Y-29250000D01*
X36600165Y-29107543D01*
X36585531Y-29075500D01*
X36556531Y-29012000D01*
X36540377Y-28976627D01*
X36522245Y-28955702D01*
X36493221Y-28892147D01*
X36503165Y-28822988D01*
X36548920Y-28770185D01*
X36615959Y-28750500D01*
X36620614Y-28750500D01*
X36687653Y-28770185D01*
G37*
%TD.AperFunction*%
%TA.AperFunction,Conductor*%
G36*
X35541380Y-25870185D02*
G01*
X35580500Y-25914970D01*
X35677849Y-26012319D01*
X35711334Y-26073642D01*
X35706350Y-26143334D01*
X35677849Y-26187681D01*
X35585935Y-26279594D01*
X35535931Y-26386827D01*
X35530431Y-26428609D01*
X35529500Y-26435684D01*
X35529500Y-26784316D01*
X35530028Y-26788332D01*
X35530029Y-26788336D01*
X35535931Y-26833172D01*
X35585935Y-26940405D01*
X35669595Y-27024065D01*
X35716823Y-27046088D01*
X35769263Y-27092260D01*
X35788415Y-27159454D01*
X35768199Y-27226335D01*
X35752100Y-27246151D01*
X35701472Y-27296778D01*
X35640280Y-27416875D01*
X35619195Y-27550000D01*
X35640280Y-27683124D01*
X35653569Y-27709205D01*
X35666465Y-27777875D01*
X35640188Y-27842615D01*
X35583082Y-27882872D01*
X35543084Y-27889500D01*
X35502610Y-27889500D01*
X35435571Y-27869815D01*
X35414933Y-27853185D01*
X35353220Y-27791472D01*
X35353219Y-27791471D01*
X35233124Y-27730280D01*
X35100000Y-27709195D01*
X34966873Y-27730280D01*
X34834249Y-27797855D01*
X34765580Y-27810751D01*
X34700839Y-27784474D01*
X34679579Y-27762856D01*
X34643789Y-27716213D01*
X34643788Y-27716212D01*
X34519664Y-27620968D01*
X34519663Y-27620967D01*
X34519661Y-27620966D01*
X34375118Y-27561095D01*
X34327814Y-27554867D01*
X34263917Y-27526600D01*
X34225447Y-27468275D01*
X34220000Y-27431928D01*
X34220000Y-26308071D01*
X34239685Y-26241032D01*
X34292489Y-26195277D01*
X34327811Y-26185133D01*
X34375117Y-26178905D01*
X34519664Y-26119032D01*
X34643788Y-26023788D01*
X34734964Y-25904966D01*
X34739531Y-25899014D01*
X34795959Y-25857811D01*
X34837907Y-25850500D01*
X35474341Y-25850500D01*
X35541380Y-25870185D01*
G37*
%TD.AperFunction*%
%TA.AperFunction,Conductor*%
G36*
X36271694Y-19481935D02*
G01*
X36292336Y-19498569D01*
X36460628Y-19666861D01*
X36494113Y-19728184D01*
X36489129Y-19797876D01*
X36460629Y-19842223D01*
X36380364Y-19922488D01*
X36339693Y-20005684D01*
X36329355Y-20026830D01*
X36319500Y-20094472D01*
X36319500Y-20505528D01*
X36329355Y-20573169D01*
X36329355Y-20573170D01*
X36380363Y-20677510D01*
X36380364Y-20677511D01*
X36462489Y-20759636D01*
X36462490Y-20759636D01*
X36476431Y-20773577D01*
X36509916Y-20834900D01*
X36512750Y-20861259D01*
X36512750Y-25019692D01*
X36493065Y-25086731D01*
X36440261Y-25132486D01*
X36371103Y-25142430D01*
X36336347Y-25132075D01*
X36323172Y-25125931D01*
X36278336Y-25120029D01*
X36278332Y-25120028D01*
X36274316Y-25119500D01*
X35825684Y-25119500D01*
X35821668Y-25120028D01*
X35821663Y-25120029D01*
X35776827Y-25125931D01*
X35669594Y-25175935D01*
X35585935Y-25259594D01*
X35577397Y-25277905D01*
X35531225Y-25330344D01*
X35465015Y-25349500D01*
X34837906Y-25349500D01*
X34770867Y-25329815D01*
X34739529Y-25300985D01*
X34735240Y-25295396D01*
X34716085Y-25270432D01*
X34705877Y-25257128D01*
X34680684Y-25191959D01*
X34694723Y-25123514D01*
X34743537Y-25073525D01*
X34761844Y-25065121D01*
X34774257Y-25060603D01*
X34937993Y-25001008D01*
X35083654Y-24905205D01*
X35203296Y-24778393D01*
X35290467Y-24627407D01*
X35340469Y-24460388D01*
X35350607Y-24286340D01*
X35320332Y-24114646D01*
X35251279Y-23954562D01*
X35246427Y-23948045D01*
X35222185Y-23882520D01*
X35237217Y-23814287D01*
X35264504Y-23787142D01*
X35263681Y-23786319D01*
X35300000Y-23750000D01*
X35300000Y-19806191D01*
X35319685Y-19739152D01*
X35359255Y-19704863D01*
X35357723Y-19702570D01*
X35410830Y-19667085D01*
X35444552Y-19644552D01*
X35488867Y-19578231D01*
X35492083Y-19562059D01*
X35524469Y-19500148D01*
X35585185Y-19465573D01*
X35613701Y-19462250D01*
X36204655Y-19462250D01*
X36271694Y-19481935D01*
G37*
%TD.AperFunction*%
%TD*%
%TA.AperFunction,Conductor*%
%TO.N,BAT*%
G36*
X45192539Y-49869685D02*
G01*
X45238294Y-49922489D01*
X45249500Y-49974000D01*
X45249500Y-50526000D01*
X45229815Y-50593039D01*
X45177011Y-50638794D01*
X45125500Y-50650000D01*
X43200000Y-50650000D01*
X43200000Y-53926000D01*
X43180315Y-53993039D01*
X43127511Y-54038794D01*
X43076000Y-54050000D01*
X41824000Y-54050000D01*
X41756961Y-54030315D01*
X41711206Y-53977511D01*
X41700000Y-53926000D01*
X41700000Y-49974000D01*
X41719685Y-49906961D01*
X41772489Y-49861206D01*
X41824000Y-49850000D01*
X45125500Y-49850000D01*
X45192539Y-49869685D01*
G37*
%TD.AperFunction*%
%TD*%
M02*
