%TF.GenerationSoftware,KiCad,Pcbnew,7.0.2-0*%
%TF.CreationDate,2023-07-16T12:38:20-04:00*%
%TF.ProjectId,ESPWatchS3,45535057-6174-4636-9853-332e6b696361,rev?*%
%TF.SameCoordinates,Original*%
%TF.FileFunction,Paste,Top*%
%TF.FilePolarity,Positive*%
%FSLAX46Y46*%
G04 Gerber Fmt 4.6, Leading zero omitted, Abs format (unit mm)*
G04 Created by KiCad (PCBNEW 7.0.2-0) date 2023-07-16 12:38:20*
%MOMM*%
%LPD*%
G01*
G04 APERTURE LIST*
G04 Aperture macros list*
%AMRoundRect*
0 Rectangle with rounded corners*
0 $1 Rounding radius*
0 $2 $3 $4 $5 $6 $7 $8 $9 X,Y pos of 4 corners*
0 Add a 4 corners polygon primitive as box body*
4,1,4,$2,$3,$4,$5,$6,$7,$8,$9,$2,$3,0*
0 Add four circle primitives for the rounded corners*
1,1,$1+$1,$2,$3*
1,1,$1+$1,$4,$5*
1,1,$1+$1,$6,$7*
1,1,$1+$1,$8,$9*
0 Add four rect primitives between the rounded corners*
20,1,$1+$1,$2,$3,$4,$5,0*
20,1,$1+$1,$4,$5,$6,$7,0*
20,1,$1+$1,$6,$7,$8,$9,0*
20,1,$1+$1,$8,$9,$2,$3,0*%
G04 Aperture macros list end*
%ADD10RoundRect,0.135000X-0.135000X-0.185000X0.135000X-0.185000X0.135000X0.185000X-0.135000X0.185000X0*%
%ADD11RoundRect,0.140000X0.140000X0.170000X-0.140000X0.170000X-0.140000X-0.170000X0.140000X-0.170000X0*%
%ADD12R,1.000000X1.800000*%
%ADD13R,1.150000X0.600000*%
%ADD14R,1.150000X0.300000*%
%ADD15RoundRect,0.135000X-0.185000X0.135000X-0.185000X-0.135000X0.185000X-0.135000X0.185000X0.135000X0*%
%ADD16R,1.050000X1.450000*%
%ADD17R,0.800000X0.600000*%
%ADD18RoundRect,0.140000X-0.140000X-0.170000X0.140000X-0.170000X0.140000X0.170000X-0.140000X0.170000X0*%
%ADD19C,0.270000*%
%ADD20RoundRect,0.225000X-0.225000X-0.250000X0.225000X-0.250000X0.225000X0.250000X-0.225000X0.250000X0*%
%ADD21RoundRect,0.140000X0.170000X-0.140000X0.170000X0.140000X-0.170000X0.140000X-0.170000X-0.140000X0*%
%ADD22R,0.800000X0.650000*%
%ADD23R,0.800000X1.600000*%
%ADD24RoundRect,0.200000X0.275000X-0.200000X0.275000X0.200000X-0.275000X0.200000X-0.275000X-0.200000X0*%
%ADD25RoundRect,0.147500X0.147500X0.172500X-0.147500X0.172500X-0.147500X-0.172500X0.147500X-0.172500X0*%
%ADD26R,0.475000X0.300000*%
%ADD27RoundRect,0.135000X0.185000X-0.135000X0.185000X0.135000X-0.185000X0.135000X-0.185000X-0.135000X0*%
%ADD28RoundRect,0.135000X0.135000X0.185000X-0.135000X0.185000X-0.135000X-0.185000X0.135000X-0.185000X0*%
%ADD29RoundRect,0.150000X-0.150000X0.512500X-0.150000X-0.512500X0.150000X-0.512500X0.150000X0.512500X0*%
%ADD30RoundRect,0.182500X-0.182500X-0.182500X0.182500X-0.182500X0.182500X0.182500X-0.182500X0.182500X0*%
%ADD31RoundRect,0.062500X-0.325000X-0.062500X0.325000X-0.062500X0.325000X0.062500X-0.325000X0.062500X0*%
%ADD32RoundRect,0.062500X-0.062500X-0.325000X0.062500X-0.325000X0.062500X0.325000X-0.062500X0.325000X0*%
%ADD33R,0.350000X0.250000*%
%ADD34RoundRect,0.140000X-0.170000X0.140000X-0.170000X-0.140000X0.170000X-0.140000X0.170000X0.140000X0*%
%ADD35R,0.275000X0.250000*%
%ADD36R,0.250000X0.275000*%
%ADD37R,0.700000X0.750000*%
%ADD38RoundRect,0.250000X-1.075000X0.375000X-1.075000X-0.375000X1.075000X-0.375000X1.075000X0.375000X0*%
%ADD39RoundRect,0.147500X-0.147500X-0.172500X0.147500X-0.172500X0.147500X0.172500X-0.147500X0.172500X0*%
%ADD40R,2.300000X1.200000*%
%ADD41RoundRect,0.250000X-0.250000X-0.475000X0.250000X-0.475000X0.250000X0.475000X-0.250000X0.475000X0*%
%ADD42R,0.200000X0.200000*%
%ADD43O,0.850000X0.200000*%
%ADD44R,0.400000X0.575000*%
%ADD45R,1.100000X0.775000*%
%ADD46RoundRect,0.062500X-0.117500X-0.062500X0.117500X-0.062500X0.117500X0.062500X-0.117500X0.062500X0*%
%ADD47RoundRect,0.031500X-0.263500X-0.143500X0.263500X-0.143500X0.263500X0.143500X-0.263500X0.143500X0*%
%ADD48RoundRect,0.031500X0.143500X-0.263500X0.143500X0.263500X-0.143500X0.263500X-0.143500X-0.263500X0*%
%ADD49RoundRect,0.031500X0.263500X0.143500X-0.263500X0.143500X-0.263500X-0.143500X0.263500X-0.143500X0*%
%ADD50RoundRect,0.031500X-0.143500X0.263500X-0.143500X-0.263500X0.143500X-0.263500X0.143500X0.263500X0*%
%ADD51RoundRect,0.250000X-0.450000X0.262500X-0.450000X-0.262500X0.450000X-0.262500X0.450000X0.262500X0*%
%ADD52RoundRect,0.150000X0.150000X0.625000X-0.150000X0.625000X-0.150000X-0.625000X0.150000X-0.625000X0*%
%ADD53RoundRect,0.250000X0.350000X0.650000X-0.350000X0.650000X-0.350000X-0.650000X0.350000X-0.650000X0*%
%ADD54RoundRect,0.250000X0.435000X0.555000X-0.435000X0.555000X-0.435000X-0.555000X0.435000X-0.555000X0*%
%ADD55RoundRect,0.125000X0.262500X0.125000X-0.262500X0.125000X-0.262500X-0.125000X0.262500X-0.125000X0*%
%ADD56RoundRect,0.218750X0.256250X-0.218750X0.256250X0.218750X-0.256250X0.218750X-0.256250X-0.218750X0*%
%ADD57RoundRect,0.250000X-0.285000X-0.285000X0.285000X-0.285000X0.285000X0.285000X-0.285000X0.285000X0*%
%ADD58RoundRect,0.050000X-0.350000X-0.050000X0.350000X-0.050000X0.350000X0.050000X-0.350000X0.050000X0*%
%ADD59RoundRect,0.050000X-0.050000X-0.350000X0.050000X-0.350000X0.050000X0.350000X-0.050000X0.350000X0*%
G04 APERTURE END LIST*
D10*
%TO.C,R16*%
X56640000Y-46850000D03*
X57660000Y-46850000D03*
%TD*%
D11*
%TO.C,C25*%
X52130000Y-45600000D03*
X51170000Y-45600000D03*
%TD*%
D12*
%TO.C,Y2*%
X46700000Y-36600000D03*
X44200000Y-36600000D03*
%TD*%
D11*
%TO.C,C6*%
X57630000Y-37900000D03*
X56670000Y-37900000D03*
%TD*%
D13*
%TO.C,J1*%
X33180000Y-34300000D03*
X33180000Y-35100000D03*
D14*
X33180000Y-36250000D03*
X33180000Y-37250000D03*
X33180000Y-37750000D03*
X33180000Y-38750000D03*
D13*
X33180000Y-39900000D03*
X33180000Y-40700000D03*
X33180000Y-40700000D03*
X33180000Y-39900000D03*
D14*
X33180000Y-39250000D03*
X33180000Y-38250000D03*
X33180000Y-36750000D03*
X33180000Y-35750000D03*
D13*
X33180000Y-35100000D03*
X33180000Y-34300000D03*
%TD*%
D15*
%TO.C,R14*%
X33700000Y-30640000D03*
X33700000Y-31660000D03*
%TD*%
D10*
%TO.C,R32*%
X44940000Y-38350000D03*
X45960000Y-38350000D03*
%TD*%
D16*
%TO.C,S1*%
X29625000Y-21725000D03*
X29625000Y-26275000D03*
D17*
X27900000Y-20800000D03*
X27900000Y-27200000D03*
%TD*%
D18*
%TO.C,C10*%
X49470000Y-53800000D03*
X50430000Y-53800000D03*
%TD*%
D19*
%TO.C,U3*%
X51400000Y-29200000D03*
X51400000Y-28700000D03*
X51400000Y-28200000D03*
X51400000Y-27700000D03*
X51400000Y-27200000D03*
X51400000Y-26700000D03*
X51400000Y-26200000D03*
X51400000Y-25700000D03*
X51400000Y-25200000D03*
X51900000Y-29200000D03*
X51900000Y-28700000D03*
X51900000Y-25700000D03*
X51900000Y-25200000D03*
X52400000Y-29200000D03*
X52400000Y-28200000D03*
X52400000Y-27700000D03*
X52400000Y-27200000D03*
X52400000Y-26700000D03*
X52400000Y-26200000D03*
X52400000Y-25200000D03*
X52900000Y-29200000D03*
X52900000Y-28700000D03*
X52900000Y-25200000D03*
X53400000Y-29200000D03*
X53400000Y-28700000D03*
X53400000Y-28200000D03*
X53400000Y-27700000D03*
X53400000Y-26200000D03*
X53400000Y-25200000D03*
X53900000Y-29200000D03*
X53900000Y-28200000D03*
X53900000Y-27700000D03*
X53900000Y-26200000D03*
X53900000Y-25200000D03*
X54400000Y-29200000D03*
X54400000Y-28200000D03*
X54400000Y-27700000D03*
X54400000Y-27200000D03*
X54400000Y-26700000D03*
X54400000Y-26200000D03*
X54400000Y-25200000D03*
X54900000Y-29200000D03*
X54900000Y-25700000D03*
X54900000Y-25200000D03*
X55400000Y-29200000D03*
X55400000Y-28700000D03*
X55400000Y-28200000D03*
X55400000Y-27700000D03*
X55400000Y-27200000D03*
X55400000Y-26700000D03*
X55400000Y-26200000D03*
X55400000Y-25700000D03*
X55400000Y-25200000D03*
%TD*%
D20*
%TO.C,C2*%
X54875000Y-51750000D03*
X56425000Y-51750000D03*
%TD*%
D15*
%TO.C,R15*%
X38000000Y-30640000D03*
X38000000Y-31660000D03*
%TD*%
D21*
%TO.C,C34*%
X40300000Y-25330000D03*
X40300000Y-24370000D03*
%TD*%
D22*
%TO.C,ANT1*%
X34900000Y-19175000D03*
X34900000Y-18225000D03*
D23*
X31700000Y-18700000D03*
%TD*%
D21*
%TO.C,C12*%
X41350000Y-25330000D03*
X41350000Y-24370000D03*
%TD*%
D24*
%TO.C,TH1*%
X48100000Y-40475000D03*
X48100000Y-38825000D03*
%TD*%
D25*
%TO.C,L3*%
X37785000Y-20300000D03*
X36815000Y-20300000D03*
%TD*%
D21*
%TO.C,C36*%
X58450000Y-29280000D03*
X58450000Y-28320000D03*
%TD*%
D26*
%TO.C,U8*%
X54612000Y-47900000D03*
X54612000Y-48400000D03*
X54612000Y-48900000D03*
X54612000Y-49400000D03*
X56288000Y-49400000D03*
X56288000Y-48900000D03*
X56288000Y-48400000D03*
X56288000Y-47900000D03*
%TD*%
D10*
%TO.C,R12*%
X30940000Y-47650000D03*
X31960000Y-47650000D03*
%TD*%
D15*
%TO.C,R30*%
X59650000Y-43640000D03*
X59650000Y-44660000D03*
%TD*%
D16*
%TO.C,S4*%
X58425000Y-53275000D03*
X58425000Y-48725000D03*
D17*
X60150000Y-54200000D03*
X60150000Y-47800000D03*
%TD*%
D22*
%TO.C,ANT2*%
X53100000Y-19175000D03*
X53100000Y-18225000D03*
D23*
X56300000Y-18700000D03*
%TD*%
D15*
%TO.C,R11*%
X58400000Y-55390000D03*
X58400000Y-56410000D03*
%TD*%
D18*
%TO.C,C11*%
X49470000Y-54900000D03*
X50430000Y-54900000D03*
%TD*%
D27*
%TO.C,R29*%
X36050000Y-26610000D03*
X36050000Y-25590000D03*
%TD*%
D28*
%TO.C,R2*%
X38610000Y-32850000D03*
X37590000Y-32850000D03*
%TD*%
D21*
%TO.C,C44*%
X37700000Y-25530000D03*
X37700000Y-24570000D03*
%TD*%
D29*
%TO.C,U11*%
X59650000Y-39575000D03*
X58700000Y-39575000D03*
X57750000Y-39575000D03*
X57750000Y-41850000D03*
X58700000Y-41850000D03*
X59650000Y-41850000D03*
%TD*%
D30*
%TO.C,U6*%
X45900000Y-49800000D03*
X45900000Y-50700000D03*
X46800000Y-49800000D03*
X46800000Y-50700000D03*
D31*
X44862500Y-49500000D03*
X44862500Y-50000000D03*
X44862500Y-50500000D03*
X44862500Y-51000000D03*
D32*
X45600000Y-51737500D03*
X46100000Y-51737500D03*
X46600000Y-51737500D03*
X47100000Y-51737500D03*
D31*
X47837500Y-51000000D03*
X47837500Y-50500000D03*
X47837500Y-50000000D03*
X47837500Y-49500000D03*
D32*
X47100000Y-48762500D03*
X46600000Y-48762500D03*
X46100000Y-48762500D03*
X45600000Y-48762500D03*
%TD*%
D33*
%TO.C,U9*%
X30630000Y-29950000D03*
X30630000Y-29450000D03*
X30630000Y-28950000D03*
X29270000Y-28950000D03*
X29270000Y-29950000D03*
%TD*%
D15*
%TO.C,R10*%
X59550000Y-28290000D03*
X59550000Y-29310000D03*
%TD*%
D11*
%TO.C,C46*%
X51880000Y-22200000D03*
X50920000Y-22200000D03*
%TD*%
D34*
%TO.C,C17*%
X28150000Y-29970000D03*
X28150000Y-30930000D03*
%TD*%
D18*
%TO.C,C31*%
X46370000Y-42950000D03*
X47330000Y-42950000D03*
%TD*%
D35*
%TO.C,U5*%
X41762500Y-45500000D03*
X41762500Y-45000000D03*
D36*
X41500000Y-44487500D03*
X41000000Y-44487500D03*
X40500000Y-44487500D03*
D35*
X40237500Y-45000000D03*
X40237500Y-45500000D03*
D36*
X40500000Y-46012500D03*
X41000000Y-46012500D03*
X41500000Y-46012500D03*
%TD*%
D34*
%TO.C,C29*%
X52450000Y-29970000D03*
X52450000Y-30930000D03*
%TD*%
D27*
%TO.C,R25*%
X36350000Y-33910000D03*
X36350000Y-32890000D03*
%TD*%
D11*
%TO.C,C41*%
X42880000Y-36600000D03*
X41920000Y-36600000D03*
%TD*%
D37*
%TO.C,Y1*%
X44600000Y-24625000D03*
X44600000Y-23275000D03*
X43600000Y-23275000D03*
X43600000Y-24625000D03*
%TD*%
D21*
%TO.C,C40*%
X45800000Y-24630000D03*
X45800000Y-23670000D03*
%TD*%
%TO.C,C16*%
X58700000Y-38080000D03*
X58700000Y-37120000D03*
%TD*%
D18*
%TO.C,C30*%
X56270000Y-28000000D03*
X57230000Y-28000000D03*
%TD*%
%TO.C,C27*%
X42770000Y-46050000D03*
X43730000Y-46050000D03*
%TD*%
D21*
%TO.C,C47*%
X51900000Y-19180000D03*
X51900000Y-18220000D03*
%TD*%
D38*
%TO.C,L2*%
X55200000Y-39325000D03*
X55200000Y-42125000D03*
%TD*%
D27*
%TO.C,R24*%
X35300000Y-33910000D03*
X35300000Y-32890000D03*
%TD*%
D16*
%TO.C,S3*%
X58425000Y-26275000D03*
X58425000Y-21725000D03*
D17*
X60150000Y-27200000D03*
X60150000Y-20800000D03*
%TD*%
D28*
%TO.C,R3*%
X38610000Y-33900000D03*
X37590000Y-33900000D03*
%TD*%
D27*
%TO.C,R28*%
X51950000Y-52910000D03*
X51950000Y-51890000D03*
%TD*%
D11*
%TO.C,C9*%
X48730000Y-34750000D03*
X47770000Y-34750000D03*
%TD*%
D21*
%TO.C,C42*%
X48050000Y-36830000D03*
X48050000Y-35870000D03*
%TD*%
D10*
%TO.C,R1*%
X54590000Y-46850000D03*
X55610000Y-46850000D03*
%TD*%
D18*
%TO.C,C28*%
X41520000Y-47050000D03*
X42480000Y-47050000D03*
%TD*%
D34*
%TO.C,C3*%
X43750000Y-50370000D03*
X43750000Y-51330000D03*
%TD*%
D39*
%TO.C,L4*%
X37765000Y-26550000D03*
X38735000Y-26550000D03*
%TD*%
D21*
%TO.C,C43*%
X38800000Y-25530000D03*
X38800000Y-24570000D03*
%TD*%
D27*
%TO.C,R21*%
X45350000Y-47560000D03*
X45350000Y-46540000D03*
%TD*%
D11*
%TO.C,C38*%
X31930000Y-48700000D03*
X30970000Y-48700000D03*
%TD*%
D40*
%TO.C,L1*%
X51900000Y-49500000D03*
X51900000Y-47800000D03*
%TD*%
D34*
%TO.C,C33*%
X32650000Y-30670000D03*
X32650000Y-31630000D03*
%TD*%
D21*
%TO.C,C13*%
X48000000Y-47530000D03*
X48000000Y-46570000D03*
%TD*%
D27*
%TO.C,L6*%
X51900000Y-21200000D03*
X51900000Y-20180000D03*
%TD*%
D16*
%TO.C,S2*%
X29575000Y-48725000D03*
X29575000Y-53275000D03*
D17*
X27850000Y-47800000D03*
X27850000Y-54200000D03*
%TD*%
D27*
%TO.C,R26*%
X46850000Y-47560000D03*
X46850000Y-46540000D03*
%TD*%
D21*
%TO.C,C45*%
X38800000Y-20330000D03*
X38800000Y-19370000D03*
%TD*%
D27*
%TO.C,R17*%
X31600000Y-31660000D03*
X31600000Y-30640000D03*
%TD*%
%TO.C,R27*%
X49100000Y-48360000D03*
X49100000Y-47340000D03*
%TD*%
D41*
%TO.C,C1*%
X54950000Y-45300000D03*
X56850000Y-45300000D03*
%TD*%
D21*
%TO.C,C20*%
X46850000Y-24630000D03*
X46850000Y-23670000D03*
%TD*%
D42*
%TO.C,U7*%
X48650000Y-56150000D03*
D43*
X48325000Y-56150000D03*
D42*
X48650000Y-55750000D03*
D43*
X48325000Y-55750000D03*
D42*
X48650000Y-55350000D03*
D43*
X48325000Y-55350000D03*
D42*
X48650000Y-54950000D03*
D43*
X48325000Y-54950000D03*
D42*
X48650000Y-54550000D03*
D43*
X48325000Y-54550000D03*
D42*
X48650000Y-54150000D03*
D43*
X48325000Y-54150000D03*
X44375000Y-54150000D03*
D42*
X44050000Y-54150000D03*
D43*
X44375000Y-54550000D03*
D42*
X44050000Y-54550000D03*
D43*
X44375000Y-54950000D03*
D42*
X44050000Y-54950000D03*
D43*
X44375000Y-55350000D03*
D42*
X44050000Y-55350000D03*
D43*
X44375000Y-55750000D03*
D42*
X44050000Y-55750000D03*
D43*
X44375000Y-56150000D03*
D42*
X44050000Y-56150000D03*
D44*
X47450000Y-56515000D03*
X47450000Y-53785000D03*
D45*
X47000000Y-55637500D03*
X47000000Y-54662500D03*
X45700000Y-55637500D03*
X45700000Y-54662500D03*
D44*
X45250000Y-56515000D03*
X45250000Y-53785000D03*
%TD*%
D18*
%TO.C,C18*%
X50790000Y-38150000D03*
X51750000Y-38150000D03*
%TD*%
%TO.C,C8*%
X46370000Y-41900000D03*
X47330000Y-41900000D03*
%TD*%
%TO.C,C23*%
X54620000Y-50450000D03*
X55580000Y-50450000D03*
%TD*%
D21*
%TO.C,C37*%
X59500000Y-56380000D03*
X59500000Y-55420000D03*
%TD*%
D28*
%TO.C,R18*%
X42960000Y-56700000D03*
X41940000Y-56700000D03*
%TD*%
D10*
%TO.C,R6*%
X58240000Y-45750000D03*
X59260000Y-45750000D03*
%TD*%
D34*
%TO.C,C7*%
X51400000Y-29970000D03*
X51400000Y-30930000D03*
%TD*%
D46*
%TO.C,D3*%
X57620000Y-43650000D03*
X56780000Y-43650000D03*
%TD*%
D47*
%TO.C,U4*%
X42850000Y-40400000D03*
X42850000Y-40900000D03*
X42850000Y-41400000D03*
X42850000Y-41900000D03*
D48*
X43515000Y-42065000D03*
X44015000Y-42065000D03*
X44515000Y-42065000D03*
D49*
X45180000Y-41900000D03*
X45180000Y-41400000D03*
X45180000Y-40900000D03*
X45180000Y-40400000D03*
D50*
X44515000Y-40235000D03*
X44015000Y-40235000D03*
X43515000Y-40235000D03*
%TD*%
D15*
%TO.C,R33*%
X42400000Y-24340000D03*
X42400000Y-25360000D03*
%TD*%
D34*
%TO.C,C5*%
X49250000Y-51800000D03*
X49250000Y-52760000D03*
%TD*%
D27*
%TO.C,R13*%
X59850000Y-38110000D03*
X59850000Y-37090000D03*
%TD*%
D51*
%TO.C,R31*%
X42450000Y-53487500D03*
X42450000Y-55312500D03*
%TD*%
D52*
%TO.C,BT1*%
X38850000Y-56200000D03*
X37850000Y-56200000D03*
D53*
X40150000Y-52325000D03*
X36550000Y-52325000D03*
%TD*%
D54*
%TO.C,U2*%
X54300000Y-35800000D03*
X54300000Y-33800000D03*
X52600000Y-35800000D03*
X52600000Y-33800000D03*
D55*
X56112500Y-36705000D03*
X56112500Y-35435000D03*
X56112500Y-34165000D03*
X56112500Y-32895000D03*
X50787500Y-32895000D03*
X50787500Y-34165000D03*
X50787500Y-35435000D03*
X50787500Y-36705000D03*
%TD*%
D34*
%TO.C,C32*%
X43500000Y-43220000D03*
X43500000Y-44180000D03*
%TD*%
D11*
%TO.C,C39*%
X42480000Y-23250000D03*
X41520000Y-23250000D03*
%TD*%
D56*
%TO.C,D1*%
X51950000Y-55737500D03*
X51950000Y-54162500D03*
%TD*%
D57*
%TO.C,U1*%
X42670000Y-28720000D03*
X42670000Y-30050000D03*
X42670000Y-31380000D03*
X44000000Y-28720000D03*
X44000000Y-30050000D03*
X44000000Y-31380000D03*
X45330000Y-28720000D03*
X45330000Y-30050000D03*
X45330000Y-31380000D03*
D58*
X40550000Y-27450000D03*
X40550000Y-27850000D03*
X40550000Y-28250000D03*
X40550000Y-28650000D03*
X40550000Y-29050000D03*
X40550000Y-29450000D03*
X40550000Y-29850000D03*
X40550000Y-30250000D03*
X40550000Y-30650000D03*
X40550000Y-31050000D03*
X40550000Y-31450000D03*
X40550000Y-31850000D03*
X40550000Y-32250000D03*
X40550000Y-32650000D03*
D59*
X41400000Y-33500000D03*
X41800000Y-33500000D03*
X42200000Y-33500000D03*
X42600000Y-33500000D03*
X43000000Y-33500000D03*
X43400000Y-33500000D03*
X43800000Y-33500000D03*
X44200000Y-33500000D03*
X44600000Y-33500000D03*
X45000000Y-33500000D03*
X45400000Y-33500000D03*
X45800000Y-33500000D03*
X46200000Y-33500000D03*
X46600000Y-33500000D03*
D58*
X47450000Y-32650000D03*
X47450000Y-32250000D03*
X47450000Y-31850000D03*
X47450000Y-31450000D03*
X47450000Y-31050000D03*
X47450000Y-30650000D03*
X47450000Y-30250000D03*
X47450000Y-29850000D03*
X47450000Y-29450000D03*
X47450000Y-29050000D03*
X47450000Y-28650000D03*
X47450000Y-28250000D03*
X47450000Y-27850000D03*
X47450000Y-27450000D03*
D59*
X46600000Y-26600000D03*
X46200000Y-26600000D03*
X45800000Y-26600000D03*
X45400000Y-26600000D03*
X45000000Y-26600000D03*
X44600000Y-26600000D03*
X44200000Y-26600000D03*
X43800000Y-26600000D03*
X43400000Y-26600000D03*
X43000000Y-26600000D03*
X42600000Y-26600000D03*
X42200000Y-26600000D03*
X41800000Y-26600000D03*
X41400000Y-26600000D03*
%TD*%
M02*
