%TF.GenerationSoftware,KiCad,Pcbnew,7.0.2-0*%
%TF.CreationDate,2023-07-16T12:38:20-04:00*%
%TF.ProjectId,ESPWatchS3,45535057-6174-4636-9853-332e6b696361,rev?*%
%TF.SameCoordinates,Original*%
%TF.FileFunction,Paste,Bot*%
%TF.FilePolarity,Positive*%
%FSLAX46Y46*%
G04 Gerber Fmt 4.6, Leading zero omitted, Abs format (unit mm)*
G04 Created by KiCad (PCBNEW 7.0.2-0) date 2023-07-16 12:38:20*
%MOMM*%
%LPD*%
G01*
G04 APERTURE LIST*
G04 Aperture macros list*
%AMRoundRect*
0 Rectangle with rounded corners*
0 $1 Rounding radius*
0 $2 $3 $4 $5 $6 $7 $8 $9 X,Y pos of 4 corners*
0 Add a 4 corners polygon primitive as box body*
4,1,4,$2,$3,$4,$5,$6,$7,$8,$9,$2,$3,0*
0 Add four circle primitives for the rounded corners*
1,1,$1+$1,$2,$3*
1,1,$1+$1,$4,$5*
1,1,$1+$1,$6,$7*
1,1,$1+$1,$8,$9*
0 Add four rect primitives between the rounded corners*
20,1,$1+$1,$2,$3,$4,$5,0*
20,1,$1+$1,$4,$5,$6,$7,0*
20,1,$1+$1,$6,$7,$8,$9,0*
20,1,$1+$1,$8,$9,$2,$3,0*%
G04 Aperture macros list end*
%ADD10RoundRect,0.140000X-0.170000X0.140000X-0.170000X-0.140000X0.170000X-0.140000X0.170000X0.140000X0*%
%ADD11RoundRect,0.140000X0.140000X0.170000X-0.140000X0.170000X-0.140000X-0.170000X0.140000X-0.170000X0*%
%ADD12RoundRect,0.135000X-0.185000X0.135000X-0.185000X-0.135000X0.185000X-0.135000X0.185000X0.135000X0*%
%ADD13RoundRect,0.135000X-0.135000X-0.185000X0.135000X-0.185000X0.135000X0.185000X-0.135000X0.185000X0*%
%ADD14RoundRect,0.140000X-0.140000X-0.170000X0.140000X-0.170000X0.140000X0.170000X-0.140000X0.170000X0*%
%ADD15R,0.650000X0.400000*%
%ADD16RoundRect,0.147500X0.147500X0.172500X-0.147500X0.172500X-0.147500X-0.172500X0.147500X-0.172500X0*%
%ADD17RoundRect,0.135000X0.185000X-0.135000X0.185000X0.135000X-0.185000X0.135000X-0.185000X-0.135000X0*%
%ADD18R,0.700000X0.450000*%
%ADD19RoundRect,0.135000X0.135000X0.185000X-0.135000X0.185000X-0.135000X-0.185000X0.135000X-0.185000X0*%
%ADD20R,1.000000X1.800000*%
%ADD21R,0.250000X1.300000*%
%ADD22R,1.600000X2.800000*%
G04 APERTURE END LIST*
D10*
%TO.C,C4*%
X36115000Y-29270000D03*
X36115000Y-30230000D03*
%TD*%
D11*
%TO.C,C21*%
X30480000Y-31575000D03*
X29520000Y-31575000D03*
%TD*%
D12*
%TO.C,R7*%
X49150000Y-45640000D03*
X49150000Y-46660000D03*
%TD*%
D11*
%TO.C,C35*%
X30530000Y-22600000D03*
X29570000Y-22600000D03*
%TD*%
D12*
%TO.C,R20*%
X29600000Y-24740000D03*
X29600000Y-25760000D03*
%TD*%
D10*
%TO.C,C22*%
X39265000Y-29270000D03*
X39265000Y-30230000D03*
%TD*%
D13*
%TO.C,R4*%
X29540000Y-23650000D03*
X30560000Y-23650000D03*
%TD*%
D14*
%TO.C,C15*%
X45420000Y-33600000D03*
X46380000Y-33600000D03*
%TD*%
D15*
%TO.C,U10*%
X29050000Y-30225000D03*
X29050000Y-29575000D03*
X29050000Y-28925000D03*
X30950000Y-28925000D03*
X30950000Y-30225000D03*
%TD*%
D10*
%TO.C,C24*%
X38215000Y-29270000D03*
X38215000Y-30230000D03*
%TD*%
%TO.C,C14*%
X37165000Y-29270000D03*
X37165000Y-30230000D03*
%TD*%
D16*
%TO.C,L5*%
X39250000Y-28250000D03*
X38280000Y-28250000D03*
%TD*%
D17*
%TO.C,R5*%
X55900000Y-46510000D03*
X55900000Y-45490000D03*
%TD*%
D18*
%TO.C,D2*%
X49450000Y-49200000D03*
X49450000Y-47900000D03*
X51450000Y-48550000D03*
%TD*%
D11*
%TO.C,C26*%
X44380000Y-33600000D03*
X43420000Y-33600000D03*
%TD*%
D12*
%TO.C,R19*%
X44000000Y-54890000D03*
X44000000Y-55910000D03*
%TD*%
D19*
%TO.C,R23*%
X31960000Y-36250000D03*
X30940000Y-36250000D03*
%TD*%
D12*
%TO.C,R8*%
X52750000Y-48540000D03*
X52750000Y-49560000D03*
%TD*%
D20*
%TO.C,Y3*%
X53450000Y-25600000D03*
X55950000Y-25600000D03*
%TD*%
D15*
%TO.C,Q1*%
X54000000Y-49200000D03*
X54000000Y-48550000D03*
X54000000Y-47900000D03*
X55900000Y-47900000D03*
X55900000Y-48550000D03*
X55900000Y-49200000D03*
%TD*%
D19*
%TO.C,R22*%
X31960000Y-39250000D03*
X30940000Y-39250000D03*
%TD*%
D21*
%TO.C,J2*%
X48250000Y-36800000D03*
X47750000Y-36800000D03*
X47250000Y-36800000D03*
X46750000Y-36800000D03*
X46250000Y-36800000D03*
X45750000Y-36800000D03*
X45250000Y-36800000D03*
X44750000Y-36800000D03*
X44250000Y-36800000D03*
X43750000Y-36800000D03*
X43250000Y-36800000D03*
X42750000Y-36800000D03*
X42250000Y-36800000D03*
X41750000Y-36800000D03*
X41250000Y-36800000D03*
X40750000Y-36800000D03*
X40250000Y-36800000D03*
X39750000Y-36800000D03*
D22*
X50250000Y-39880000D03*
X37750000Y-39880000D03*
%TD*%
D17*
%TO.C,R9*%
X57250000Y-50410000D03*
X57250000Y-49390000D03*
%TD*%
D14*
%TO.C,C19*%
X43420000Y-32550000D03*
X44380000Y-32550000D03*
%TD*%
M02*
