%TF.GenerationSoftware,KiCad,Pcbnew,7.0.2-0*%
%TF.CreationDate,2023-07-17T22:15:49-04:00*%
%TF.ProjectId,ESPWatchS3,45535057-6174-4636-9853-332e6b696361,rev?*%
%TF.SameCoordinates,Original*%
%TF.FileFunction,Copper,L3,Inr*%
%TF.FilePolarity,Positive*%
%FSLAX46Y46*%
G04 Gerber Fmt 4.6, Leading zero omitted, Abs format (unit mm)*
G04 Created by KiCad (PCBNEW 7.0.2-0) date 2023-07-17 22:15:49*
%MOMM*%
%LPD*%
G01*
G04 APERTURE LIST*
%TA.AperFunction,ComponentPad*%
%ADD10O,2.100000X1.000000*%
%TD*%
%TA.AperFunction,ComponentPad*%
%ADD11O,1.800000X1.000000*%
%TD*%
%TA.AperFunction,ViaPad*%
%ADD12C,0.450000*%
%TD*%
%TA.AperFunction,ViaPad*%
%ADD13C,0.600000*%
%TD*%
%TA.AperFunction,ViaPad*%
%ADD14C,0.800000*%
%TD*%
%TA.AperFunction,Conductor*%
%ADD15C,0.100000*%
%TD*%
G04 APERTURE END LIST*
D10*
X32605000Y-33180000D03*
D11*
X28425000Y-33180000D03*
D10*
X32605000Y-41820000D03*
D11*
X28425000Y-41820000D03*
D12*
X56900000Y-24050000D03*
X41950000Y-56700000D03*
X36700000Y-18700000D03*
D13*
X45300000Y-54450000D03*
X40300000Y-24370000D03*
D14*
X30200000Y-17900000D03*
D12*
X39550000Y-19550000D03*
D13*
X28350000Y-28950000D03*
D12*
X35600000Y-23350000D03*
X31000000Y-19500000D03*
X38500000Y-21100000D03*
X57200000Y-23000000D03*
D13*
X47350000Y-54450000D03*
D14*
X46950000Y-17900000D03*
D12*
X35600000Y-20600000D03*
X35600000Y-22800000D03*
D13*
X57230000Y-28000000D03*
D12*
X37400000Y-22750000D03*
D14*
X58700000Y-42850000D03*
D12*
X30940000Y-39250000D03*
X59550000Y-29310000D03*
X36200000Y-22750000D03*
X39100000Y-18650000D03*
X31000000Y-18400000D03*
D13*
X32000000Y-26870000D03*
D14*
X48350000Y-21200000D03*
X49600000Y-19200000D03*
D12*
X51100000Y-20300000D03*
X36900000Y-26450000D03*
D13*
X43750000Y-46050000D03*
D12*
X38500000Y-23800000D03*
X51100000Y-19750000D03*
X35600000Y-21150000D03*
D13*
X59650000Y-44660000D03*
D14*
X44000000Y-30050000D03*
X45600000Y-30050000D03*
D12*
X35600000Y-20050000D03*
X39550000Y-20650000D03*
D13*
X46900000Y-39450000D03*
X46950000Y-49650000D03*
X47300000Y-42950000D03*
X47350000Y-55850000D03*
D12*
X53000000Y-24250000D03*
D14*
X49900000Y-23850000D03*
D12*
X38050000Y-27350000D03*
X53550000Y-24250000D03*
D14*
X42000000Y-22000000D03*
X42400000Y-30050000D03*
X49250000Y-20400000D03*
X48800000Y-17900000D03*
D12*
X39550000Y-19000000D03*
X36150000Y-18600000D03*
D13*
X58700000Y-37120000D03*
D12*
X32850000Y-40700000D03*
D14*
X47550000Y-22650000D03*
D12*
X51100000Y-18650000D03*
D13*
X41680239Y-43707351D03*
D14*
X56850000Y-45750000D03*
D12*
X57200000Y-20250000D03*
X55200000Y-24250000D03*
X38500000Y-18650000D03*
D14*
X49750000Y-17900000D03*
D12*
X36200000Y-23300000D03*
D14*
X39250000Y-22300000D03*
D12*
X51300000Y-24100000D03*
D14*
X58700000Y-17950000D03*
D12*
X54100000Y-24250000D03*
D13*
X45750000Y-50850000D03*
X44862500Y-51700000D03*
X50430000Y-53800000D03*
D12*
X31000000Y-20050000D03*
X31000000Y-17850000D03*
D14*
X44200000Y-22050000D03*
D13*
X52950000Y-41250000D03*
X54850000Y-36500000D03*
X46350000Y-55150000D03*
D14*
X44000000Y-31650000D03*
D12*
X37950000Y-19550000D03*
X37400000Y-23800000D03*
D13*
X41350000Y-24370000D03*
D12*
X57200000Y-21350000D03*
D14*
X42400000Y-28450000D03*
X41050000Y-17900000D03*
X49250000Y-22300000D03*
D12*
X57200000Y-22450000D03*
D13*
X46950000Y-50850000D03*
D12*
X55750000Y-24250000D03*
D13*
X36115000Y-30230000D03*
X37850000Y-55750000D03*
D12*
X51100000Y-20850000D03*
D13*
X41750000Y-37779965D03*
D14*
X56850000Y-44850000D03*
D13*
X44500000Y-42850000D03*
D12*
X56300000Y-24250000D03*
D13*
X57650000Y-46850000D03*
D14*
X40050000Y-23250000D03*
D13*
X45750000Y-49650000D03*
D14*
X40300000Y-21600000D03*
D12*
X31930000Y-48700000D03*
D14*
X38250000Y-17900000D03*
D13*
X52450000Y-31280000D03*
D14*
X50700000Y-17900000D03*
X42400000Y-31650000D03*
X45600000Y-31650000D03*
X29250000Y-17900000D03*
D12*
X57200000Y-19150000D03*
D13*
X47750000Y-34750000D03*
D12*
X50300000Y-22100000D03*
D14*
X45550000Y-22000000D03*
X40100000Y-17900000D03*
X46450000Y-22550000D03*
D12*
X38050000Y-19000000D03*
X50750000Y-23050000D03*
D14*
X59650000Y-17950000D03*
D12*
X57200000Y-18600000D03*
D14*
X41100000Y-20800000D03*
D13*
X52050000Y-33100000D03*
D12*
X39500000Y-25950000D03*
D13*
X42500000Y-48050000D03*
X43500000Y-44150000D03*
D14*
X28300000Y-17900000D03*
D12*
X31000000Y-20600000D03*
X32650000Y-31630000D03*
X37400000Y-21100000D03*
D14*
X39200000Y-17900000D03*
D13*
X40500000Y-46650500D03*
D12*
X37400000Y-23300000D03*
D14*
X48850000Y-23650000D03*
X27400000Y-17900000D03*
D12*
X31000000Y-23350000D03*
D14*
X47350000Y-19300000D03*
D12*
X39050000Y-23800000D03*
X50550000Y-21550000D03*
X31000000Y-18950000D03*
X37950000Y-23800000D03*
D13*
X46100000Y-48000000D03*
D12*
X36200000Y-21650000D03*
X35600000Y-17850000D03*
D13*
X39150000Y-36800000D03*
X51200000Y-45600000D03*
D12*
X31000000Y-21150000D03*
X51300000Y-24650000D03*
D13*
X47107482Y-52405772D03*
X50430000Y-54900000D03*
X45350000Y-55850000D03*
D12*
X37350000Y-19600000D03*
D14*
X48500000Y-25550000D03*
D12*
X35600000Y-22250000D03*
D14*
X44000000Y-28450000D03*
D12*
X37000000Y-27000000D03*
D14*
X56425000Y-51750000D03*
D13*
X46850000Y-23670000D03*
X37600000Y-34750000D03*
D14*
X57015082Y-48404006D03*
X36400000Y-17900000D03*
D12*
X41520000Y-23250000D03*
X31000000Y-22800000D03*
D13*
X56100000Y-32900000D03*
X47400000Y-33600000D03*
X43750000Y-51330000D03*
D12*
X30950000Y-36250000D03*
D13*
X51400000Y-31280000D03*
D12*
X51300000Y-23000000D03*
X36200000Y-21100000D03*
D14*
X47850000Y-17900000D03*
X49650000Y-25000000D03*
X60600000Y-17950000D03*
D12*
X59260000Y-45750000D03*
D14*
X48100000Y-20000000D03*
D13*
X43900000Y-38250000D03*
D12*
X31000000Y-21700000D03*
X38600000Y-27350000D03*
X45800000Y-23670000D03*
X33500000Y-34300000D03*
X54650000Y-24250000D03*
X51100000Y-19200000D03*
X31000000Y-22250000D03*
D13*
X54850000Y-33100000D03*
D12*
X50350000Y-22650000D03*
X33500000Y-40700000D03*
D13*
X48000000Y-46550000D03*
X40500000Y-43899500D03*
D12*
X37950000Y-21100000D03*
D14*
X46750000Y-21150000D03*
D13*
X29520000Y-31575000D03*
D12*
X51100000Y-21400000D03*
X57200000Y-23550000D03*
D14*
X37300000Y-17900000D03*
X40500000Y-19500000D03*
D13*
X52050000Y-36500000D03*
D12*
X30530000Y-22600000D03*
D13*
X37850000Y-56650000D03*
X49981364Y-55592902D03*
D14*
X45600000Y-28450000D03*
D13*
X51750000Y-38150000D03*
D12*
X35600000Y-18400000D03*
X57200000Y-19700000D03*
X51300000Y-23550000D03*
X37400000Y-21650000D03*
X39050000Y-21100000D03*
D13*
X46750000Y-38500000D03*
D12*
X39550000Y-20100000D03*
X37100000Y-19100000D03*
X37450000Y-27350000D03*
X39500000Y-24450000D03*
X36200000Y-22200000D03*
X57200000Y-20800000D03*
X59500000Y-56400000D03*
X57200000Y-18050000D03*
D13*
X55580000Y-50450000D03*
D12*
X35600000Y-21700000D03*
D14*
X38050000Y-21850000D03*
D12*
X32850000Y-34300000D03*
X39500000Y-25150000D03*
X37400000Y-22200000D03*
D14*
X48150000Y-24500000D03*
D12*
X36200000Y-23850000D03*
X57200000Y-21900000D03*
X36200000Y-24400000D03*
D13*
X38850000Y-56200000D03*
X49470000Y-53800000D03*
X49150000Y-45650000D03*
X46400000Y-42950000D03*
X36115000Y-29270000D03*
D12*
X31600000Y-31660000D03*
D14*
X53800000Y-44950000D03*
D13*
X41500000Y-48050000D03*
D12*
X40900000Y-54450000D03*
D14*
X53800000Y-45750000D03*
D13*
X42750000Y-46050000D03*
X39500000Y-45000000D03*
D12*
X33700000Y-31660000D03*
D14*
X53000000Y-45750000D03*
D13*
X52950000Y-42550000D03*
X34650000Y-33910000D03*
X58449500Y-48725000D03*
X52450000Y-30320000D03*
D14*
X53000000Y-44900000D03*
D13*
X43420000Y-32550000D03*
X46850000Y-24630000D03*
X56270000Y-28000000D03*
X40730000Y-35550000D03*
X40700000Y-26750000D03*
D14*
X53800000Y-46550000D03*
D13*
X40700000Y-26050000D03*
X45838428Y-39212947D03*
X28150000Y-29970000D03*
X29575000Y-53275000D03*
X58450000Y-21700000D03*
X30500000Y-31575000D03*
D12*
X38000000Y-31660000D03*
D14*
X56300000Y-39050000D03*
D13*
X51400000Y-30320000D03*
X43500000Y-43220000D03*
D14*
X55300000Y-38150000D03*
D13*
X42850000Y-39500000D03*
D14*
X53000000Y-46550000D03*
X56250000Y-38150000D03*
X55300000Y-39050000D03*
D13*
X29450000Y-45200000D03*
X29600000Y-27400000D03*
X50750000Y-50650000D03*
X54875000Y-51750000D03*
X33150000Y-39900000D03*
X33150000Y-35100000D03*
D14*
X48000000Y-47500000D03*
D13*
X58700000Y-38080000D03*
X58350000Y-36000000D03*
X39250000Y-28250000D03*
D12*
X35100000Y-28140000D03*
X31750000Y-29950000D03*
X41500000Y-28950000D03*
X29575000Y-21725000D03*
X59550000Y-28290000D03*
X41450000Y-30550000D03*
X37750000Y-49500000D03*
X41575498Y-31758969D03*
X37650000Y-41900000D03*
X58400000Y-55390000D03*
X35500000Y-45100000D03*
X36474500Y-32000000D03*
D13*
X47850000Y-51700000D03*
X51950000Y-55737500D03*
D12*
X54850000Y-32150000D03*
X50650000Y-44650000D03*
D14*
X49100000Y-37200000D03*
D12*
X31960000Y-36250000D03*
X39522249Y-39199503D03*
X46000000Y-34550000D03*
X39500000Y-38400000D03*
X45174500Y-34550000D03*
X31960000Y-39250000D03*
X43400000Y-34925000D03*
X42750000Y-35400000D03*
X42750000Y-37700000D03*
X46250000Y-27550000D03*
X41889477Y-35210523D03*
X44650000Y-27625498D03*
X40250000Y-37700000D03*
X32050000Y-25600000D03*
X43253875Y-27414662D03*
D13*
X56400000Y-50400000D03*
D12*
X39650000Y-32250000D03*
X45489477Y-52889477D03*
X38300000Y-47874500D03*
X38300000Y-41900000D03*
X45000000Y-52414477D03*
X39650000Y-33000000D03*
X38948187Y-47915822D03*
X38949503Y-41900000D03*
X58450000Y-50300000D03*
X54850000Y-31500497D03*
X58250000Y-45750000D03*
X45350000Y-27625498D03*
X59850000Y-38110000D03*
X46800000Y-34650000D03*
X44000000Y-56800000D03*
X41950000Y-42450000D03*
X53523771Y-37472775D03*
X35300000Y-32890000D03*
X49796045Y-43925000D03*
X41950000Y-40900000D03*
X50900000Y-57100000D03*
X41050000Y-43350000D03*
X35300000Y-39700000D03*
X56950000Y-30972366D03*
X41039477Y-42550000D03*
X36350000Y-39700000D03*
X48950000Y-44400000D03*
X36350000Y-32890000D03*
X56036564Y-30963436D03*
X52850000Y-37475500D03*
X41300497Y-40900000D03*
X50076207Y-56625500D03*
X44000000Y-27625498D03*
X36050000Y-27550000D03*
D13*
X45400000Y-43950000D03*
X44550000Y-46100000D03*
D12*
X52840497Y-27700000D03*
X58950000Y-31050000D03*
X38850000Y-31150000D03*
X42850000Y-34400000D03*
X40078920Y-34650000D03*
X46350000Y-41150000D03*
X40150000Y-40050000D03*
X46625500Y-31050000D03*
X55150000Y-30200000D03*
X54150000Y-30175500D03*
X46600000Y-32650000D03*
X49275500Y-32704455D03*
X56100000Y-34150000D03*
X56112500Y-36705000D03*
X48902208Y-31660116D03*
X49667445Y-31082555D03*
X56100000Y-35450000D03*
X50650000Y-26992206D03*
X53650000Y-26992206D03*
X50200000Y-28299503D03*
X50200000Y-27650000D03*
D15*
X58600000Y-30200000D02*
X57000000Y-30200000D01*
X58950000Y-31050000D02*
X58950000Y-30550000D01*
X58950000Y-30550000D02*
X58600000Y-30200000D01*
X57000000Y-30200000D02*
X54500000Y-27700000D01*
X54500000Y-27700000D02*
X52840497Y-27700000D01*
X32789700Y-28810300D02*
X32789700Y-29710300D01*
X32550000Y-29950000D02*
X31750000Y-29950000D01*
X33460000Y-28140000D02*
X32789700Y-28810300D01*
X35100000Y-28140000D02*
X33460000Y-28140000D01*
X32789700Y-29710300D02*
X32550000Y-29950000D01*
X38000000Y-41150000D02*
X37650000Y-41500000D01*
X39150000Y-31750000D02*
X36950000Y-33950000D01*
X37650000Y-41500000D02*
X37650000Y-41900000D01*
X38000000Y-36150000D02*
X38000000Y-41150000D01*
X36950000Y-33950000D02*
X36950000Y-35100000D01*
X36950000Y-35100000D02*
X38000000Y-36150000D01*
X41575498Y-31758969D02*
X41566529Y-31750000D01*
X41566529Y-31750000D02*
X39150000Y-31750000D01*
X56127818Y-32150000D02*
X57500000Y-33522182D01*
X57500000Y-38900000D02*
X51750000Y-44650000D01*
X54850000Y-32150000D02*
X56127818Y-32150000D01*
X57500000Y-33522182D02*
X57500000Y-38900000D01*
X51750000Y-44650000D02*
X50650000Y-44650000D01*
X45750000Y-38524264D02*
X45750000Y-35250000D01*
X39771752Y-38950000D02*
X43150000Y-38950000D01*
X39522249Y-39199503D02*
X39771752Y-38950000D01*
X43150000Y-38950000D02*
X43300000Y-39100000D01*
X43300000Y-39100000D02*
X45174264Y-39100000D01*
X45174264Y-39100000D02*
X45750000Y-38524264D01*
X46000000Y-35000000D02*
X46000000Y-34550000D01*
X45750000Y-35250000D02*
X46000000Y-35000000D01*
X43274264Y-38650000D02*
X43424264Y-38800000D01*
X43424264Y-38800000D02*
X45050000Y-38800000D01*
X45050000Y-38800000D02*
X45450000Y-38400000D01*
X45450000Y-35250000D02*
X45174500Y-34974500D01*
X45174500Y-34974500D02*
X45174500Y-34550000D01*
X39500000Y-38400000D02*
X39750000Y-38650000D01*
X39750000Y-38650000D02*
X43274264Y-38650000D01*
X45450000Y-38400000D02*
X45450000Y-35250000D01*
X45500000Y-29100000D02*
X44950000Y-29650000D01*
X44950000Y-32043503D02*
X44700000Y-32293503D01*
X44950000Y-29650000D02*
X44950000Y-32043503D01*
X46250000Y-27550000D02*
X46250000Y-28850000D01*
X44700000Y-32293503D02*
X44700000Y-35750000D01*
X46000000Y-29100000D02*
X45500000Y-29100000D01*
X46250000Y-28850000D02*
X46000000Y-29100000D01*
X44700000Y-35750000D02*
X42750000Y-37700000D01*
X42620035Y-37229965D02*
X40720035Y-37229965D01*
X44650000Y-31919239D02*
X44400000Y-32169239D01*
X44650000Y-27625498D02*
X44650000Y-31919239D01*
X40720035Y-37229965D02*
X40250000Y-37700000D01*
X44400000Y-32169239D02*
X44400000Y-35450000D01*
X44400000Y-35450000D02*
X42620035Y-37229965D01*
X41835338Y-27414662D02*
X43253875Y-27414662D01*
X34850000Y-25600000D02*
X38050000Y-28800000D01*
X32050000Y-25600000D02*
X34850000Y-25600000D01*
X38050000Y-28800000D02*
X40450000Y-28800000D01*
X40450000Y-28800000D02*
X41835338Y-27414662D01*
X38300000Y-48500000D02*
X42857379Y-53057379D01*
X42857379Y-53057379D02*
X45321575Y-53057379D01*
X38300000Y-48500000D02*
X38300000Y-47874500D01*
X39650000Y-32250000D02*
X38300000Y-33600000D01*
X45321575Y-53057379D02*
X45489477Y-52889477D01*
X38300000Y-33600000D02*
X38300000Y-41950000D01*
X38300000Y-41950000D02*
X38300000Y-41900000D01*
X39650000Y-33000000D02*
X38600000Y-34050000D01*
X38600000Y-34050000D02*
X38600000Y-41150000D01*
X45000000Y-52414477D02*
X42764477Y-52414477D01*
X38948187Y-48598187D02*
X38948187Y-47915822D01*
X38600000Y-41150000D02*
X38950000Y-41500000D01*
X42764477Y-52414477D02*
X38948187Y-48598187D01*
X38950000Y-41500000D02*
X38949503Y-41500497D01*
X38949503Y-41500497D02*
X38949503Y-41900000D01*
X57900000Y-49750000D02*
X58450000Y-50300000D01*
X58250000Y-43319239D02*
X58250000Y-45750000D01*
X54850000Y-31500497D02*
X55902579Y-31500497D01*
X58250000Y-45750000D02*
X58250000Y-47511091D01*
X58250000Y-47511091D02*
X57900000Y-47861091D01*
X57800000Y-33397918D02*
X57800000Y-42869239D01*
X57800000Y-42869239D02*
X58250000Y-43319239D01*
X55902579Y-31500497D02*
X57800000Y-33397918D01*
X57900000Y-47861091D02*
X57900000Y-49750000D01*
X48650000Y-46422182D02*
X48650000Y-48350000D01*
X48350000Y-36200000D02*
X48350000Y-46122182D01*
X46800000Y-34650000D02*
X48350000Y-36200000D01*
X44000000Y-55050000D02*
X44000000Y-56800000D01*
X46872182Y-48950000D02*
X46300000Y-49522182D01*
X46300000Y-52750000D02*
X44000000Y-55050000D01*
X46300000Y-49522182D02*
X46300000Y-52750000D01*
X48050000Y-48950000D02*
X46872182Y-48950000D01*
X48350000Y-46122182D02*
X48650000Y-46422182D01*
X48650000Y-48350000D02*
X48050000Y-48950000D01*
X50150000Y-44278955D02*
X50150000Y-47274264D01*
X49796045Y-42403955D02*
X49796045Y-43925000D01*
X37125736Y-43350000D02*
X41050000Y-43350000D01*
X53523771Y-38676229D02*
X49796045Y-42403955D01*
X53523771Y-37472775D02*
X53523771Y-38676229D01*
X35650000Y-39700000D02*
X35650000Y-41874264D01*
X48920000Y-55309356D02*
X49753546Y-56142902D01*
X35300000Y-32890000D02*
X35650000Y-33240000D01*
X50900000Y-56777541D02*
X50900000Y-57100000D01*
X35650000Y-41874264D02*
X37125736Y-43350000D01*
X50150000Y-47274264D02*
X49750000Y-47674264D01*
X48920000Y-53354264D02*
X48920000Y-55309356D01*
X50265361Y-56142902D02*
X50900000Y-56777541D01*
X35300000Y-39700000D02*
X35650000Y-39700000D01*
X49796045Y-43925000D02*
X50150000Y-44278955D01*
X49750000Y-47674264D02*
X49750000Y-52524264D01*
X35650000Y-33240000D02*
X35650000Y-39700000D01*
X49750000Y-52524264D02*
X48920000Y-53354264D01*
X41050000Y-43350000D02*
X41950000Y-42450000D01*
X41950000Y-42450000D02*
X41950000Y-40900000D01*
X49753546Y-56142902D02*
X50265361Y-56142902D01*
X49450000Y-52400000D02*
X49450000Y-47500000D01*
X37250000Y-43050000D02*
X36000000Y-41800000D01*
X48620000Y-55433620D02*
X48620000Y-53230000D01*
X49850000Y-44650000D02*
X49600000Y-44400000D01*
X40539477Y-43050000D02*
X37250000Y-43050000D01*
X52850000Y-37475500D02*
X52850000Y-38750000D01*
X49600000Y-44400000D02*
X48950000Y-44400000D01*
X49850000Y-47100000D02*
X49850000Y-44650000D01*
X41039477Y-42550000D02*
X41300497Y-42288980D01*
X36000000Y-33240000D02*
X36350000Y-32890000D01*
X48620000Y-53230000D02*
X49450000Y-52400000D01*
X36000000Y-41800000D02*
X36000000Y-39700000D01*
X41039477Y-42550000D02*
X40539477Y-43050000D01*
X50076207Y-56625500D02*
X49811880Y-56625500D01*
X36350000Y-39700000D02*
X36000000Y-39700000D01*
X41300497Y-42288980D02*
X41300497Y-40900000D01*
X49450000Y-47500000D02*
X49850000Y-47100000D01*
X36000000Y-39700000D02*
X36000000Y-33240000D01*
X49811880Y-56625500D02*
X48620000Y-55433620D01*
X52850000Y-38750000D02*
X48950000Y-42650000D01*
X48950000Y-42650000D02*
X48950000Y-44400000D01*
X36050000Y-27550000D02*
X37600000Y-29100000D01*
X37600000Y-29100000D02*
X40574264Y-29100000D01*
X42882123Y-27714662D02*
X43057123Y-27889662D01*
X43714791Y-27625498D02*
X44000000Y-27625498D01*
X43450627Y-27889662D02*
X43714791Y-27625498D01*
X40574264Y-29100000D02*
X41959602Y-27714662D01*
X41959602Y-27714662D02*
X42882123Y-27714662D01*
X43057123Y-27889662D02*
X43450627Y-27889662D01*
X40078920Y-34650000D02*
X40400000Y-34650000D01*
X40650000Y-34400000D02*
X42850000Y-34400000D01*
X40400000Y-34650000D02*
X40650000Y-34400000D01*
X45700000Y-40050000D02*
X46350000Y-40700000D01*
X40150000Y-40050000D02*
X45700000Y-40050000D01*
X46350000Y-40700000D02*
X46350000Y-41150000D01*
X55150000Y-30200000D02*
X54700000Y-30650000D01*
X52607818Y-29350000D02*
X48325500Y-29350000D01*
X48325500Y-29350000D02*
X46625500Y-31050000D01*
X53907818Y-30650000D02*
X52607818Y-29350000D01*
X54700000Y-30650000D02*
X53907818Y-30650000D01*
X48201236Y-29050000D02*
X46676236Y-30575000D01*
X52732082Y-29050000D02*
X48201236Y-29050000D01*
X46150500Y-31246752D02*
X46600000Y-31696252D01*
X54150000Y-30175500D02*
X53857582Y-30175500D01*
X46150500Y-30853248D02*
X46150500Y-31246752D01*
X46600000Y-31696252D02*
X46600000Y-32650000D01*
X53857582Y-30175500D02*
X52732082Y-29050000D01*
X46676236Y-30575000D02*
X46428748Y-30575000D01*
X46428748Y-30575000D02*
X46150500Y-30853248D01*
X50721045Y-34150000D02*
X56100000Y-34150000D01*
X49275500Y-32704455D02*
X50721045Y-34150000D01*
X55500000Y-36092500D02*
X56112500Y-36705000D01*
X48902208Y-31660116D02*
X48800500Y-31761824D01*
X50349293Y-34450000D02*
X55200000Y-34450000D01*
X48800500Y-31761824D02*
X48800500Y-32901207D01*
X55500000Y-34750000D02*
X55500000Y-36092500D01*
X55200000Y-34450000D02*
X55500000Y-34750000D01*
X48800500Y-32901207D02*
X50349293Y-34450000D01*
X49667445Y-31082555D02*
X49667445Y-32417445D01*
X56296752Y-33675000D02*
X56575000Y-33953248D01*
X56575000Y-33953248D02*
X56575000Y-34975000D01*
X55728248Y-33850000D02*
X55903248Y-33675000D01*
X56575000Y-34975000D02*
X56100000Y-35450000D01*
X55903248Y-33675000D02*
X56296752Y-33675000D01*
X49667445Y-32417445D02*
X51100000Y-33850000D01*
X51100000Y-33850000D02*
X55728248Y-33850000D01*
X50650000Y-26992206D02*
X53650000Y-26992206D01*
M02*
