%TF.GenerationSoftware,KiCad,Pcbnew,7.0.2-0*%
%TF.CreationDate,2023-07-17T22:15:49-04:00*%
%TF.ProjectId,ESPWatchS3,45535057-6174-4636-9853-332e6b696361,rev?*%
%TF.SameCoordinates,Original*%
%TF.FileFunction,Copper,L4,Inr*%
%TF.FilePolarity,Positive*%
%FSLAX46Y46*%
G04 Gerber Fmt 4.6, Leading zero omitted, Abs format (unit mm)*
G04 Created by KiCad (PCBNEW 7.0.2-0) date 2023-07-17 22:15:49*
%MOMM*%
%LPD*%
G01*
G04 APERTURE LIST*
%TA.AperFunction,ComponentPad*%
%ADD10O,2.100000X1.000000*%
%TD*%
%TA.AperFunction,ComponentPad*%
%ADD11O,1.800000X1.000000*%
%TD*%
%TA.AperFunction,ViaPad*%
%ADD12C,0.450000*%
%TD*%
%TA.AperFunction,ViaPad*%
%ADD13C,0.600000*%
%TD*%
%TA.AperFunction,ViaPad*%
%ADD14C,0.800000*%
%TD*%
G04 APERTURE END LIST*
D10*
X32605000Y-33180000D03*
D11*
X28425000Y-33180000D03*
D10*
X32605000Y-41820000D03*
D11*
X28425000Y-41820000D03*
D12*
X56900000Y-24050000D03*
X41950000Y-56700000D03*
X36700000Y-18700000D03*
D13*
X45300000Y-54450000D03*
X40300000Y-24370000D03*
D14*
X30200000Y-17900000D03*
D12*
X39550000Y-19550000D03*
D13*
X28350000Y-28950000D03*
D12*
X35600000Y-23350000D03*
X31000000Y-19500000D03*
X38500000Y-21100000D03*
X57200000Y-23000000D03*
D13*
X47350000Y-54450000D03*
D14*
X46950000Y-17900000D03*
D12*
X35600000Y-20600000D03*
X35600000Y-22800000D03*
D13*
X57230000Y-28000000D03*
D12*
X37400000Y-22750000D03*
D14*
X58700000Y-42850000D03*
D12*
X30940000Y-39250000D03*
X59550000Y-29310000D03*
X36200000Y-22750000D03*
X39100000Y-18650000D03*
X31000000Y-18400000D03*
D13*
X32000000Y-26870000D03*
D14*
X48350000Y-21200000D03*
X49600000Y-19200000D03*
D12*
X51100000Y-20300000D03*
X36900000Y-26450000D03*
D13*
X43750000Y-46050000D03*
D12*
X38500000Y-23800000D03*
X51100000Y-19750000D03*
X35600000Y-21150000D03*
D13*
X59650000Y-44660000D03*
D14*
X44000000Y-30050000D03*
X45600000Y-30050000D03*
D12*
X35600000Y-20050000D03*
X39550000Y-20650000D03*
D13*
X46900000Y-39450000D03*
X46950000Y-49650000D03*
X47300000Y-42950000D03*
X47350000Y-55850000D03*
D12*
X53000000Y-24250000D03*
D14*
X49900000Y-23850000D03*
D12*
X38050000Y-27350000D03*
X53550000Y-24250000D03*
D14*
X42000000Y-22000000D03*
X42400000Y-30050000D03*
X49250000Y-20400000D03*
X48800000Y-17900000D03*
D12*
X39550000Y-19000000D03*
X36150000Y-18600000D03*
D13*
X58700000Y-37120000D03*
D12*
X32850000Y-40700000D03*
D14*
X47550000Y-22650000D03*
D12*
X51100000Y-18650000D03*
D13*
X41680239Y-43707351D03*
D14*
X56850000Y-45750000D03*
D12*
X57200000Y-20250000D03*
X55200000Y-24250000D03*
X38500000Y-18650000D03*
D14*
X49750000Y-17900000D03*
D12*
X36200000Y-23300000D03*
D14*
X39250000Y-22300000D03*
D12*
X51300000Y-24100000D03*
D14*
X58700000Y-17950000D03*
D12*
X54100000Y-24250000D03*
D13*
X45750000Y-50850000D03*
X44862500Y-51700000D03*
X50430000Y-53800000D03*
D12*
X31000000Y-20050000D03*
X31000000Y-17850000D03*
D14*
X44200000Y-22050000D03*
D13*
X52950000Y-41250000D03*
X54850000Y-36500000D03*
X46350000Y-55150000D03*
D14*
X44000000Y-31650000D03*
D12*
X37950000Y-19550000D03*
X37400000Y-23800000D03*
D13*
X41350000Y-24370000D03*
D12*
X57200000Y-21350000D03*
D14*
X42400000Y-28450000D03*
X41050000Y-17900000D03*
X49250000Y-22300000D03*
D12*
X57200000Y-22450000D03*
D13*
X46950000Y-50850000D03*
D12*
X55750000Y-24250000D03*
D13*
X36115000Y-30230000D03*
X37850000Y-55750000D03*
D12*
X51100000Y-20850000D03*
D13*
X41750000Y-37779965D03*
D14*
X56850000Y-44850000D03*
D13*
X44500000Y-42850000D03*
D12*
X56300000Y-24250000D03*
D13*
X57650000Y-46850000D03*
D14*
X40050000Y-23250000D03*
D13*
X45750000Y-49650000D03*
D14*
X40300000Y-21600000D03*
D12*
X31930000Y-48700000D03*
D14*
X38250000Y-17900000D03*
D13*
X52450000Y-31280000D03*
D14*
X50700000Y-17900000D03*
X42400000Y-31650000D03*
X45600000Y-31650000D03*
X29250000Y-17900000D03*
D12*
X57200000Y-19150000D03*
D13*
X47750000Y-34750000D03*
D12*
X50300000Y-22100000D03*
D14*
X45550000Y-22000000D03*
X40100000Y-17900000D03*
X46450000Y-22550000D03*
D12*
X38050000Y-19000000D03*
X50750000Y-23050000D03*
D14*
X59650000Y-17950000D03*
D12*
X57200000Y-18600000D03*
D14*
X41100000Y-20800000D03*
D13*
X52050000Y-33100000D03*
D12*
X39500000Y-25950000D03*
D13*
X42500000Y-48050000D03*
X43500000Y-44150000D03*
D14*
X28300000Y-17900000D03*
D12*
X31000000Y-20600000D03*
X32650000Y-31630000D03*
X37400000Y-21100000D03*
D14*
X39200000Y-17900000D03*
D13*
X40500000Y-46650500D03*
D12*
X37400000Y-23300000D03*
D14*
X48850000Y-23650000D03*
X27400000Y-17900000D03*
D12*
X31000000Y-23350000D03*
D14*
X47350000Y-19300000D03*
D12*
X39050000Y-23800000D03*
X50550000Y-21550000D03*
X31000000Y-18950000D03*
X37950000Y-23800000D03*
D13*
X46100000Y-48000000D03*
D12*
X36200000Y-21650000D03*
X35600000Y-17850000D03*
D13*
X39150000Y-36800000D03*
X51200000Y-45600000D03*
D12*
X31000000Y-21150000D03*
X51300000Y-24650000D03*
D13*
X47107482Y-52405772D03*
X50430000Y-54900000D03*
X45350000Y-55850000D03*
D12*
X37350000Y-19600000D03*
D14*
X48500000Y-25550000D03*
D12*
X35600000Y-22250000D03*
D14*
X44000000Y-28450000D03*
D12*
X37000000Y-27000000D03*
D14*
X56425000Y-51750000D03*
D13*
X46850000Y-23670000D03*
X37600000Y-34750000D03*
D14*
X57015082Y-48404006D03*
X36400000Y-17900000D03*
D12*
X41520000Y-23250000D03*
X31000000Y-22800000D03*
D13*
X56100000Y-32900000D03*
X47400000Y-33600000D03*
X43750000Y-51330000D03*
D12*
X30950000Y-36250000D03*
D13*
X51400000Y-31280000D03*
D12*
X51300000Y-23000000D03*
X36200000Y-21100000D03*
D14*
X47850000Y-17900000D03*
X49650000Y-25000000D03*
X60600000Y-17950000D03*
D12*
X59260000Y-45750000D03*
D14*
X48100000Y-20000000D03*
D13*
X43900000Y-38250000D03*
D12*
X31000000Y-21700000D03*
X38600000Y-27350000D03*
X45800000Y-23670000D03*
X33500000Y-34300000D03*
X54650000Y-24250000D03*
X51100000Y-19200000D03*
X31000000Y-22250000D03*
D13*
X54850000Y-33100000D03*
D12*
X50350000Y-22650000D03*
X33500000Y-40700000D03*
D13*
X48000000Y-46550000D03*
X40500000Y-43899500D03*
D12*
X37950000Y-21100000D03*
D14*
X46750000Y-21150000D03*
D13*
X29520000Y-31575000D03*
D12*
X51100000Y-21400000D03*
X57200000Y-23550000D03*
D14*
X37300000Y-17900000D03*
X40500000Y-19500000D03*
D13*
X52050000Y-36500000D03*
D12*
X30530000Y-22600000D03*
D13*
X37850000Y-56650000D03*
X49981364Y-55592902D03*
D14*
X45600000Y-28450000D03*
D13*
X51750000Y-38150000D03*
D12*
X35600000Y-18400000D03*
X57200000Y-19700000D03*
X51300000Y-23550000D03*
X37400000Y-21650000D03*
X39050000Y-21100000D03*
D13*
X46750000Y-38500000D03*
D12*
X39550000Y-20100000D03*
X37100000Y-19100000D03*
X37450000Y-27350000D03*
X39500000Y-24450000D03*
X36200000Y-22200000D03*
X57200000Y-20800000D03*
X59500000Y-56400000D03*
X57200000Y-18050000D03*
D13*
X55580000Y-50450000D03*
D12*
X35600000Y-21700000D03*
D14*
X38050000Y-21850000D03*
D12*
X32850000Y-34300000D03*
X39500000Y-25150000D03*
X37400000Y-22200000D03*
D14*
X48150000Y-24500000D03*
D12*
X36200000Y-23850000D03*
X57200000Y-21900000D03*
X36200000Y-24400000D03*
D13*
X38850000Y-56200000D03*
X49470000Y-53800000D03*
X49150000Y-45650000D03*
X46400000Y-42950000D03*
X36115000Y-29270000D03*
D12*
X31600000Y-31660000D03*
D14*
X53800000Y-44950000D03*
D13*
X41500000Y-48050000D03*
D12*
X40900000Y-54450000D03*
D14*
X53800000Y-45750000D03*
D13*
X42750000Y-46050000D03*
X39500000Y-45000000D03*
D12*
X33700000Y-31660000D03*
D14*
X53000000Y-45750000D03*
D13*
X52950000Y-42550000D03*
X34650000Y-33910000D03*
X58449500Y-48725000D03*
X52450000Y-30320000D03*
D14*
X53000000Y-44900000D03*
D13*
X43420000Y-32550000D03*
X46850000Y-24630000D03*
X56270000Y-28000000D03*
X40730000Y-35550000D03*
X40700000Y-26750000D03*
D14*
X53800000Y-46550000D03*
D13*
X40700000Y-26050000D03*
X45838428Y-39212947D03*
X28150000Y-29970000D03*
X29575000Y-53275000D03*
X58450000Y-21700000D03*
X30500000Y-31575000D03*
D12*
X38000000Y-31660000D03*
D14*
X56300000Y-39050000D03*
D13*
X51400000Y-30320000D03*
X43500000Y-43220000D03*
D14*
X55300000Y-38150000D03*
D13*
X42850000Y-39500000D03*
D14*
X53000000Y-46550000D03*
X56250000Y-38150000D03*
X55300000Y-39050000D03*
D13*
X29450000Y-45200000D03*
X29600000Y-27400000D03*
X50750000Y-50650000D03*
X54875000Y-51750000D03*
X33150000Y-39900000D03*
X33150000Y-35100000D03*
D14*
X48000000Y-47500000D03*
D13*
X58700000Y-38080000D03*
X58350000Y-36000000D03*
X39250000Y-28250000D03*
D12*
X35100000Y-28140000D03*
X31750000Y-29950000D03*
X41500000Y-28950000D03*
X29575000Y-21725000D03*
X59550000Y-28290000D03*
X41450000Y-30550000D03*
X37750000Y-49500000D03*
X41575498Y-31758969D03*
X37650000Y-41900000D03*
X58400000Y-55390000D03*
X35500000Y-45100000D03*
X36474500Y-32000000D03*
D13*
X47850000Y-51700000D03*
X51950000Y-55737500D03*
D12*
X54850000Y-32150000D03*
X50650000Y-44650000D03*
D14*
X49100000Y-37200000D03*
D12*
X31960000Y-36250000D03*
X39522249Y-39199503D03*
X46000000Y-34550000D03*
X39500000Y-38400000D03*
X45174500Y-34550000D03*
X31960000Y-39250000D03*
X43400000Y-34925000D03*
X42750000Y-35400000D03*
X42750000Y-37700000D03*
X46250000Y-27550000D03*
X41889477Y-35210523D03*
X44650000Y-27625498D03*
X40250000Y-37700000D03*
X32050000Y-25600000D03*
X43253875Y-27414662D03*
D13*
X56400000Y-50400000D03*
D12*
X39650000Y-32250000D03*
X45489477Y-52889477D03*
X38300000Y-47874500D03*
X38300000Y-41900000D03*
X45000000Y-52414477D03*
X39650000Y-33000000D03*
X38948187Y-47915822D03*
X38949503Y-41900000D03*
X58450000Y-50300000D03*
X54850000Y-31500497D03*
X58250000Y-45750000D03*
X45350000Y-27625498D03*
X59850000Y-38110000D03*
X46800000Y-34650000D03*
X44000000Y-56800000D03*
X41950000Y-42450000D03*
X53523771Y-37472775D03*
X35300000Y-32890000D03*
X49796045Y-43925000D03*
X41950000Y-40900000D03*
X50900000Y-57100000D03*
X41050000Y-43350000D03*
X35300000Y-39700000D03*
X56950000Y-30972366D03*
X41039477Y-42550000D03*
X36350000Y-39700000D03*
X48950000Y-44400000D03*
X36350000Y-32890000D03*
X56036564Y-30963436D03*
X52850000Y-37475500D03*
X41300497Y-40900000D03*
X50076207Y-56625500D03*
X44000000Y-27625498D03*
X36050000Y-27550000D03*
D13*
X45400000Y-43950000D03*
X44550000Y-46100000D03*
D12*
X52840497Y-27700000D03*
X58950000Y-31050000D03*
X38850000Y-31150000D03*
X42850000Y-34400000D03*
X40078920Y-34650000D03*
X46350000Y-41150000D03*
X40150000Y-40050000D03*
X46625500Y-31050000D03*
X55150000Y-30200000D03*
X54150000Y-30175500D03*
X46600000Y-32650000D03*
X49275500Y-32704455D03*
X56100000Y-34150000D03*
X56112500Y-36705000D03*
X48902208Y-31660116D03*
X49667445Y-31082555D03*
X56100000Y-35450000D03*
X50650000Y-26992206D03*
X53650000Y-26992206D03*
X50200000Y-28299503D03*
X50200000Y-27650000D03*
%TA.AperFunction,Conductor*%
G36*
X46346961Y-17520185D02*
G01*
X46392716Y-17572989D01*
X46402660Y-17642147D01*
X46394483Y-17671952D01*
X46364956Y-17743237D01*
X46344317Y-17900000D01*
X46364956Y-18056762D01*
X46425463Y-18202840D01*
X46521717Y-18328282D01*
X46614660Y-18399599D01*
X46647159Y-18424536D01*
X46793238Y-18485044D01*
X46929361Y-18502964D01*
X46949999Y-18505682D01*
X46949999Y-18505681D01*
X46950000Y-18505682D01*
X47106762Y-18485044D01*
X47106764Y-18485042D01*
X47113387Y-18484171D01*
X47114518Y-18484347D01*
X47120261Y-18479490D01*
X47122920Y-18478351D01*
X47252841Y-18424536D01*
X47324513Y-18369539D01*
X47389682Y-18344345D01*
X47458127Y-18358383D01*
X47475484Y-18369538D01*
X47547159Y-18424536D01*
X47693238Y-18485044D01*
X47850000Y-18505682D01*
X48006762Y-18485044D01*
X48152841Y-18424536D01*
X48249516Y-18350354D01*
X48314682Y-18325162D01*
X48383127Y-18339200D01*
X48400477Y-18350349D01*
X48497159Y-18424536D01*
X48643238Y-18485044D01*
X48800000Y-18505682D01*
X48956762Y-18485044D01*
X49102841Y-18424536D01*
X49199516Y-18350354D01*
X49264682Y-18325162D01*
X49333127Y-18339200D01*
X49350485Y-18350356D01*
X49367010Y-18363036D01*
X49436555Y-18416400D01*
X49477757Y-18472828D01*
X49481912Y-18542574D01*
X49447699Y-18603494D01*
X49408521Y-18629336D01*
X49297158Y-18675464D01*
X49171717Y-18771717D01*
X49075463Y-18897159D01*
X49014956Y-19043237D01*
X48994317Y-19200000D01*
X49014956Y-19356762D01*
X49075463Y-19502840D01*
X49163868Y-19618053D01*
X49189062Y-19683222D01*
X49175023Y-19751667D01*
X49126209Y-19801657D01*
X49107920Y-19807744D01*
X49108320Y-19808709D01*
X48947159Y-19875463D01*
X48883337Y-19924435D01*
X48818167Y-19949629D01*
X48749723Y-19935590D01*
X48699733Y-19886776D01*
X48686062Y-19845697D01*
X48685044Y-19843239D01*
X48685044Y-19843238D01*
X48624536Y-19697159D01*
X48613767Y-19683124D01*
X48528282Y-19571717D01*
X48402840Y-19475463D01*
X48256762Y-19414956D01*
X48099999Y-19394317D01*
X48093281Y-19395202D01*
X48024246Y-19384434D01*
X47971992Y-19338052D01*
X47954161Y-19288447D01*
X47954020Y-19287376D01*
X47935044Y-19143238D01*
X47874536Y-18997159D01*
X47851298Y-18966874D01*
X47778282Y-18871717D01*
X47652840Y-18775463D01*
X47506762Y-18714956D01*
X47349999Y-18694317D01*
X47186611Y-18715828D01*
X47185481Y-18715651D01*
X47179739Y-18720509D01*
X47177026Y-18721671D01*
X47047158Y-18775464D01*
X46921717Y-18871717D01*
X46825463Y-18997159D01*
X46764956Y-19143237D01*
X46744317Y-19300000D01*
X46764956Y-19456762D01*
X46825463Y-19602840D01*
X46921717Y-19728282D01*
X47022588Y-19805682D01*
X47047159Y-19824536D01*
X47193238Y-19885044D01*
X47350000Y-19905682D01*
X47356713Y-19904798D01*
X47425748Y-19915563D01*
X47478004Y-19961942D01*
X47495838Y-20011551D01*
X47514956Y-20156762D01*
X47575463Y-20302840D01*
X47671717Y-20428282D01*
X47769379Y-20503220D01*
X47797159Y-20524536D01*
X47888829Y-20562507D01*
X47943232Y-20606346D01*
X47965297Y-20672640D01*
X47948018Y-20740340D01*
X47931597Y-20758841D01*
X47825463Y-20897159D01*
X47764956Y-21043237D01*
X47744317Y-21200000D01*
X47764956Y-21356762D01*
X47825463Y-21502840D01*
X47921717Y-21628282D01*
X48034674Y-21714956D01*
X48047159Y-21724536D01*
X48193238Y-21785044D01*
X48350000Y-21805682D01*
X48506762Y-21785044D01*
X48638411Y-21730512D01*
X48707880Y-21723044D01*
X48770359Y-21754319D01*
X48806011Y-21814408D01*
X48803517Y-21884233D01*
X48784239Y-21920560D01*
X48725463Y-21997159D01*
X48664956Y-22143237D01*
X48644317Y-22300000D01*
X48664956Y-22456762D01*
X48725463Y-22602840D01*
X48821717Y-22728282D01*
X48945883Y-22823557D01*
X48987086Y-22879985D01*
X48991241Y-22949731D01*
X48957029Y-23010651D01*
X48895312Y-23043404D01*
X48854214Y-23044872D01*
X48850002Y-23044317D01*
X48693237Y-23064956D01*
X48547159Y-23125463D01*
X48421717Y-23221717D01*
X48325463Y-23347159D01*
X48264956Y-23493237D01*
X48244317Y-23650000D01*
X48258142Y-23755010D01*
X48247376Y-23824046D01*
X48200996Y-23876301D01*
X48151389Y-23894134D01*
X47993237Y-23914956D01*
X47847159Y-23975463D01*
X47721717Y-24071717D01*
X47625463Y-24197159D01*
X47564956Y-24343237D01*
X47544317Y-24500000D01*
X47564956Y-24656762D01*
X47625463Y-24802840D01*
X47721717Y-24928282D01*
X47828241Y-25010020D01*
X47847159Y-25024536D01*
X47924844Y-25056714D01*
X47979248Y-25100554D01*
X48001313Y-25166848D01*
X47984034Y-25234548D01*
X47975772Y-25246757D01*
X47975463Y-25247159D01*
X47914956Y-25393237D01*
X47894317Y-25550000D01*
X47914956Y-25706762D01*
X47975463Y-25852840D01*
X48071717Y-25978282D01*
X48177949Y-26059796D01*
X48197159Y-26074536D01*
X48343238Y-26135044D01*
X48500000Y-26155682D01*
X48656762Y-26135044D01*
X48802841Y-26074536D01*
X48928282Y-25978282D01*
X49024536Y-25852841D01*
X49085044Y-25706762D01*
X49102849Y-25571517D01*
X49131115Y-25507621D01*
X49189440Y-25469150D01*
X49259305Y-25468319D01*
X49301274Y-25489327D01*
X49347159Y-25524536D01*
X49493238Y-25585044D01*
X49650000Y-25605682D01*
X49806762Y-25585044D01*
X49952841Y-25524536D01*
X50078282Y-25428282D01*
X50174536Y-25302841D01*
X50235044Y-25156762D01*
X50255682Y-25000000D01*
X50235044Y-24843238D01*
X50174536Y-24697159D01*
X50145807Y-24659719D01*
X50091887Y-24589448D01*
X50066693Y-24524279D01*
X50080731Y-24455834D01*
X50129545Y-24405845D01*
X50142793Y-24399408D01*
X50202841Y-24374536D01*
X50328282Y-24278282D01*
X50424536Y-24152841D01*
X50485044Y-24006762D01*
X50505682Y-23850000D01*
X50485044Y-23693238D01*
X50455800Y-23622638D01*
X50448332Y-23553172D01*
X50479607Y-23490692D01*
X50539696Y-23455040D01*
X50597404Y-23457101D01*
X50597476Y-23456647D01*
X50601199Y-23457236D01*
X50609521Y-23457534D01*
X50613446Y-23459176D01*
X50769398Y-23483877D01*
X50768732Y-23488081D01*
X50802401Y-23492431D01*
X50855856Y-23537424D01*
X50874985Y-23586554D01*
X50890280Y-23683126D01*
X50933885Y-23768706D01*
X50946781Y-23837375D01*
X50933885Y-23881294D01*
X50890280Y-23966873D01*
X50869195Y-24100000D01*
X50890280Y-24233124D01*
X50933885Y-24318704D01*
X50946781Y-24387374D01*
X50933885Y-24431293D01*
X50890280Y-24516873D01*
X50869195Y-24649999D01*
X50890280Y-24783124D01*
X50951472Y-24903221D01*
X51046778Y-24998527D01*
X51046780Y-24998528D01*
X51166874Y-25059719D01*
X51233437Y-25070261D01*
X51299999Y-25080804D01*
X51299999Y-25080803D01*
X51300000Y-25080804D01*
X51433126Y-25059719D01*
X51553220Y-24998528D01*
X51648528Y-24903220D01*
X51709719Y-24783126D01*
X51730804Y-24650000D01*
X51729754Y-24643373D01*
X51709719Y-24516875D01*
X51709719Y-24516874D01*
X51675645Y-24450000D01*
X51666114Y-24431294D01*
X51653218Y-24362624D01*
X51666112Y-24318707D01*
X51709719Y-24233126D01*
X51730804Y-24100000D01*
X51709719Y-23966874D01*
X51671389Y-23891647D01*
X51666114Y-23881294D01*
X51653218Y-23812624D01*
X51666112Y-23768707D01*
X51709719Y-23683126D01*
X51730804Y-23550000D01*
X51709719Y-23416874D01*
X51666114Y-23331294D01*
X51653218Y-23262624D01*
X51666112Y-23218707D01*
X51709719Y-23133126D01*
X51730804Y-23000000D01*
X51709719Y-22866874D01*
X51648528Y-22746780D01*
X51648527Y-22746778D01*
X51553221Y-22651472D01*
X51433124Y-22590280D01*
X51300000Y-22569195D01*
X51166873Y-22590280D01*
X51032228Y-22658885D01*
X50963559Y-22671781D01*
X50919640Y-22658885D01*
X50883126Y-22640280D01*
X50865572Y-22637500D01*
X50802438Y-22607569D01*
X50765508Y-22548257D01*
X50762499Y-22534424D01*
X50759719Y-22516875D01*
X50759719Y-22516874D01*
X50698528Y-22396780D01*
X50698527Y-22396779D01*
X50691113Y-22382228D01*
X50678217Y-22313559D01*
X50691113Y-22269641D01*
X50709719Y-22233126D01*
X50730804Y-22100000D01*
X50720777Y-22036698D01*
X50729732Y-21967404D01*
X50774728Y-21913952D01*
X50786959Y-21906813D01*
X50803220Y-21898528D01*
X50857588Y-21844159D01*
X50918909Y-21810676D01*
X50964667Y-21809369D01*
X50966872Y-21809718D01*
X50966874Y-21809719D01*
X51100000Y-21830804D01*
X51233126Y-21809719D01*
X51353220Y-21748528D01*
X51448528Y-21653220D01*
X51509719Y-21533126D01*
X51530804Y-21400000D01*
X51509719Y-21266874D01*
X51466114Y-21181294D01*
X51453218Y-21112624D01*
X51466112Y-21068707D01*
X51509719Y-20983126D01*
X51530804Y-20850000D01*
X51509719Y-20716874D01*
X51475645Y-20650000D01*
X51466114Y-20631294D01*
X51453218Y-20562624D01*
X51466112Y-20518707D01*
X51509719Y-20433126D01*
X51530804Y-20300000D01*
X51509719Y-20166874D01*
X51475645Y-20100000D01*
X51466114Y-20081294D01*
X51453218Y-20012624D01*
X51466112Y-19968707D01*
X51509719Y-19883126D01*
X51530804Y-19750000D01*
X51509719Y-19616874D01*
X51466114Y-19531294D01*
X51453218Y-19462624D01*
X51466112Y-19418707D01*
X51509719Y-19333126D01*
X51530804Y-19200000D01*
X51509719Y-19066874D01*
X51475645Y-19000000D01*
X51466114Y-18981294D01*
X51453218Y-18912624D01*
X51466112Y-18868707D01*
X51509719Y-18783126D01*
X51530804Y-18650000D01*
X51527414Y-18628599D01*
X51516142Y-18557426D01*
X51509719Y-18516874D01*
X51448528Y-18396780D01*
X51448527Y-18396778D01*
X51353221Y-18301472D01*
X51315358Y-18282180D01*
X51264562Y-18234205D01*
X51247767Y-18166384D01*
X51257091Y-18124246D01*
X51285044Y-18056762D01*
X51305682Y-17900000D01*
X51285044Y-17743238D01*
X51267744Y-17701472D01*
X51255517Y-17671952D01*
X51248048Y-17602482D01*
X51279324Y-17540003D01*
X51339413Y-17504352D01*
X51370078Y-17500500D01*
X52576000Y-17500500D01*
X52643039Y-17520185D01*
X52688794Y-17572989D01*
X52700000Y-17624500D01*
X52700000Y-23750000D01*
X52700001Y-23750000D01*
X52711444Y-23761444D01*
X52744929Y-23822767D01*
X52739945Y-23892459D01*
X52711445Y-23936806D01*
X52651471Y-23996779D01*
X52590280Y-24116875D01*
X52569195Y-24250000D01*
X52590280Y-24383124D01*
X52651472Y-24503221D01*
X52746778Y-24598527D01*
X52746780Y-24598528D01*
X52866874Y-24659719D01*
X52933437Y-24670261D01*
X52999999Y-24680804D01*
X52999999Y-24680803D01*
X53000000Y-24680804D01*
X53133126Y-24659719D01*
X53218705Y-24616113D01*
X53287374Y-24603218D01*
X53331293Y-24616113D01*
X53416874Y-24659719D01*
X53550000Y-24680804D01*
X53683126Y-24659719D01*
X53768705Y-24616113D01*
X53837374Y-24603218D01*
X53881293Y-24616113D01*
X53966874Y-24659719D01*
X54033437Y-24670261D01*
X54099999Y-24680804D01*
X54099999Y-24680803D01*
X54100000Y-24680804D01*
X54233126Y-24659719D01*
X54318705Y-24616113D01*
X54387374Y-24603218D01*
X54431293Y-24616113D01*
X54516874Y-24659719D01*
X54650000Y-24680804D01*
X54783126Y-24659719D01*
X54868705Y-24616113D01*
X54937374Y-24603218D01*
X54981293Y-24616113D01*
X55066874Y-24659719D01*
X55133437Y-24670261D01*
X55199999Y-24680804D01*
X55199999Y-24680803D01*
X55200000Y-24680804D01*
X55333126Y-24659719D01*
X55418705Y-24616113D01*
X55487374Y-24603218D01*
X55531293Y-24616113D01*
X55616874Y-24659719D01*
X55750000Y-24680804D01*
X55883126Y-24659719D01*
X55968705Y-24616113D01*
X56037374Y-24603218D01*
X56081293Y-24616113D01*
X56166874Y-24659719D01*
X56233437Y-24670261D01*
X56299999Y-24680804D01*
X56299999Y-24680803D01*
X56300000Y-24680804D01*
X56433126Y-24659719D01*
X56553220Y-24598528D01*
X56648528Y-24503220D01*
X56648528Y-24503218D01*
X56657585Y-24494162D01*
X56718908Y-24460676D01*
X56764665Y-24459369D01*
X56766873Y-24459718D01*
X56766874Y-24459719D01*
X56900000Y-24480804D01*
X57033126Y-24459719D01*
X57153220Y-24398528D01*
X57248528Y-24303220D01*
X57309719Y-24183126D01*
X57320565Y-24114646D01*
X57333877Y-24030602D01*
X57335164Y-24030805D01*
X57340790Y-23987252D01*
X57385782Y-23933797D01*
X57398000Y-23926663D01*
X57453220Y-23898528D01*
X57548528Y-23803220D01*
X57609719Y-23683126D01*
X57630804Y-23550000D01*
X57627934Y-23531882D01*
X57614456Y-23446781D01*
X57609719Y-23416874D01*
X57566114Y-23331294D01*
X57553218Y-23262624D01*
X57566112Y-23218707D01*
X57609719Y-23133126D01*
X57630804Y-23000000D01*
X57609719Y-22866874D01*
X57566114Y-22781294D01*
X57553218Y-22712624D01*
X57566112Y-22668707D01*
X57609719Y-22583126D01*
X57630804Y-22450000D01*
X57609719Y-22316874D01*
X57566114Y-22231294D01*
X57553218Y-22162624D01*
X57566112Y-22118707D01*
X57609719Y-22033126D01*
X57630804Y-21900000D01*
X57609719Y-21766874D01*
X57566114Y-21681294D01*
X57553218Y-21612624D01*
X57566112Y-21568707D01*
X57609719Y-21483126D01*
X57630804Y-21350000D01*
X57629799Y-21343657D01*
X57609719Y-21216875D01*
X57609719Y-21216874D01*
X57570693Y-21140281D01*
X57566114Y-21131294D01*
X57553218Y-21062624D01*
X57566112Y-21018707D01*
X57609719Y-20933126D01*
X57630804Y-20800000D01*
X57609719Y-20666874D01*
X57569212Y-20587374D01*
X57566114Y-20581294D01*
X57553218Y-20512624D01*
X57566112Y-20468707D01*
X57609719Y-20383126D01*
X57630804Y-20250000D01*
X57609719Y-20116874D01*
X57566114Y-20031294D01*
X57553218Y-19962624D01*
X57566112Y-19918707D01*
X57609719Y-19833126D01*
X57630804Y-19700000D01*
X57609719Y-19566874D01*
X57566114Y-19481294D01*
X57553218Y-19412624D01*
X57566112Y-19368707D01*
X57609719Y-19283126D01*
X57630804Y-19150000D01*
X57629132Y-19139446D01*
X57609719Y-19016875D01*
X57609719Y-19016874D01*
X57566114Y-18931294D01*
X57553218Y-18862624D01*
X57566112Y-18818707D01*
X57609719Y-18733126D01*
X57630804Y-18600000D01*
X57609719Y-18466874D01*
X57566114Y-18381294D01*
X57553218Y-18312624D01*
X57566112Y-18268707D01*
X57609719Y-18183126D01*
X57630804Y-18050000D01*
X57609719Y-17916874D01*
X57548528Y-17796780D01*
X57548527Y-17796778D01*
X57463930Y-17712181D01*
X57430445Y-17650858D01*
X57435429Y-17581166D01*
X57477301Y-17525233D01*
X57542765Y-17500816D01*
X57551611Y-17500500D01*
X58050633Y-17500500D01*
X58117672Y-17520185D01*
X58163427Y-17572989D01*
X58173371Y-17642147D01*
X58165194Y-17671952D01*
X58114956Y-17793237D01*
X58094317Y-17950000D01*
X58114956Y-18106762D01*
X58175463Y-18252840D01*
X58271717Y-18378282D01*
X58387174Y-18466874D01*
X58397159Y-18474536D01*
X58543238Y-18535044D01*
X58700000Y-18555682D01*
X58856762Y-18535044D01*
X59002841Y-18474536D01*
X59099516Y-18400354D01*
X59164682Y-18375162D01*
X59233127Y-18389200D01*
X59250477Y-18400349D01*
X59347159Y-18474536D01*
X59347160Y-18474536D01*
X59347161Y-18474537D01*
X59373669Y-18485517D01*
X59493238Y-18535044D01*
X59650000Y-18555682D01*
X59806762Y-18535044D01*
X59952841Y-18474536D01*
X60049516Y-18400354D01*
X60114682Y-18375162D01*
X60183127Y-18389200D01*
X60200477Y-18400349D01*
X60297159Y-18474536D01*
X60297160Y-18474536D01*
X60297161Y-18474537D01*
X60323669Y-18485517D01*
X60443238Y-18535044D01*
X60600000Y-18555682D01*
X60756762Y-18535044D01*
X60828049Y-18505515D01*
X60897516Y-18498047D01*
X60959996Y-18529322D01*
X60995648Y-18589411D01*
X60999500Y-18620077D01*
X60999500Y-21325500D01*
X60979815Y-21392539D01*
X60927011Y-21438294D01*
X60875500Y-21449500D01*
X59902306Y-21449500D01*
X59835267Y-21429815D01*
X59813742Y-21412289D01*
X59811495Y-21409996D01*
X59804954Y-21406580D01*
X59786988Y-21389266D01*
X59766975Y-21383686D01*
X59742870Y-21374153D01*
X59713075Y-21358590D01*
X59693829Y-21355343D01*
X59670158Y-21343827D01*
X59654773Y-21345017D01*
X59624580Y-21343657D01*
X59620473Y-21342964D01*
X59603583Y-21340113D01*
X59574500Y-21344419D01*
X59546816Y-21340556D01*
X59536669Y-21345164D01*
X59503567Y-21354921D01*
X59493743Y-21356375D01*
X59394301Y-21405784D01*
X59314999Y-21483500D01*
X59263590Y-21581926D01*
X59261938Y-21591719D01*
X59251515Y-21624619D01*
X59249219Y-21629414D01*
X59251620Y-21636453D01*
X59250006Y-21662424D01*
X59245113Y-21691415D01*
X59248232Y-21712481D01*
X59248982Y-21742692D01*
X59248191Y-21750790D01*
X59251251Y-21754731D01*
X59258517Y-21781950D01*
X59261375Y-21801256D01*
X59276336Y-21831366D01*
X59285381Y-21855659D01*
X59288346Y-21867192D01*
X59290791Y-21868790D01*
X59307501Y-21894090D01*
X59310782Y-21900695D01*
X59310784Y-21900697D01*
X59314061Y-21904041D01*
X59346925Y-21965697D01*
X59349499Y-21990831D01*
X59349499Y-26009167D01*
X59329814Y-26076206D01*
X59314063Y-26095957D01*
X59310780Y-26099306D01*
X59307499Y-26105911D01*
X59290554Y-26124218D01*
X59285380Y-26144340D01*
X59276337Y-26168630D01*
X59261375Y-26198742D01*
X59258517Y-26218049D01*
X59247481Y-26241946D01*
X59248982Y-26257307D01*
X59248232Y-26287517D01*
X59245113Y-26308582D01*
X59250006Y-26337576D01*
X59246703Y-26365329D01*
X59251514Y-26375380D01*
X59261938Y-26408281D01*
X59263590Y-26418073D01*
X59314999Y-26516499D01*
X59394301Y-26594215D01*
X59394302Y-26594215D01*
X59394303Y-26594216D01*
X59493743Y-26643624D01*
X59503572Y-26645079D01*
X59536675Y-26654836D01*
X59541511Y-26657032D01*
X59548497Y-26654491D01*
X59574499Y-26655579D01*
X59603585Y-26659886D01*
X59624586Y-26656341D01*
X59654779Y-26654982D01*
X59662885Y-26655608D01*
X59666763Y-26652470D01*
X59693823Y-26644657D01*
X59713075Y-26641409D01*
X59742878Y-26625842D01*
X59766982Y-26616309D01*
X59778446Y-26613112D01*
X59779992Y-26610640D01*
X59804951Y-26593420D01*
X59811497Y-26590002D01*
X59813742Y-26587710D01*
X59874723Y-26553607D01*
X59902306Y-26550500D01*
X60875500Y-26550500D01*
X60942539Y-26570185D01*
X60988294Y-26622989D01*
X60999500Y-26674500D01*
X60999500Y-48325500D01*
X60979815Y-48392539D01*
X60927011Y-48438294D01*
X60875500Y-48449500D01*
X59902306Y-48449500D01*
X59835267Y-48429815D01*
X59813742Y-48412289D01*
X59811495Y-48409996D01*
X59804954Y-48406580D01*
X59786988Y-48389266D01*
X59766975Y-48383686D01*
X59742870Y-48374153D01*
X59713075Y-48358590D01*
X59693829Y-48355343D01*
X59670158Y-48343827D01*
X59654773Y-48345017D01*
X59624580Y-48343657D01*
X59620473Y-48342964D01*
X59603583Y-48340113D01*
X59574500Y-48344419D01*
X59546816Y-48340556D01*
X59536669Y-48345164D01*
X59503567Y-48354921D01*
X59493743Y-48356375D01*
X59394301Y-48405784D01*
X59314999Y-48483500D01*
X59263590Y-48581926D01*
X59261938Y-48591719D01*
X59251515Y-48624619D01*
X59249219Y-48629414D01*
X59251620Y-48636453D01*
X59250006Y-48662424D01*
X59245113Y-48691415D01*
X59248232Y-48712481D01*
X59248982Y-48742692D01*
X59248191Y-48750790D01*
X59251251Y-48754731D01*
X59258517Y-48781950D01*
X59261375Y-48801256D01*
X59276336Y-48831366D01*
X59285381Y-48855659D01*
X59288346Y-48867192D01*
X59290791Y-48868790D01*
X59307501Y-48894090D01*
X59310782Y-48900695D01*
X59310784Y-48900697D01*
X59314061Y-48904041D01*
X59346925Y-48965697D01*
X59349499Y-48990831D01*
X59349499Y-53009167D01*
X59329814Y-53076206D01*
X59314063Y-53095957D01*
X59310780Y-53099306D01*
X59307499Y-53105911D01*
X59290554Y-53124218D01*
X59285380Y-53144340D01*
X59276337Y-53168630D01*
X59261375Y-53198742D01*
X59258517Y-53218049D01*
X59247481Y-53241946D01*
X59248982Y-53257307D01*
X59248232Y-53287517D01*
X59245113Y-53308582D01*
X59250006Y-53337576D01*
X59246703Y-53365329D01*
X59251514Y-53375380D01*
X59261938Y-53408281D01*
X59263590Y-53418073D01*
X59314999Y-53516499D01*
X59394301Y-53594215D01*
X59394302Y-53594215D01*
X59394303Y-53594216D01*
X59493743Y-53643624D01*
X59503572Y-53645079D01*
X59536675Y-53654836D01*
X59541511Y-53657032D01*
X59548497Y-53654491D01*
X59574499Y-53655579D01*
X59603585Y-53659886D01*
X59624586Y-53656341D01*
X59654779Y-53654982D01*
X59662885Y-53655608D01*
X59666763Y-53652470D01*
X59693823Y-53644657D01*
X59713075Y-53641409D01*
X59742878Y-53625842D01*
X59766982Y-53616309D01*
X59778446Y-53613112D01*
X59779992Y-53610640D01*
X59804951Y-53593420D01*
X59811497Y-53590002D01*
X59813742Y-53587710D01*
X59874723Y-53553607D01*
X59902306Y-53550500D01*
X60875500Y-53550500D01*
X60942539Y-53570185D01*
X60988294Y-53622989D01*
X60999500Y-53674500D01*
X60999500Y-57375500D01*
X60979815Y-57442539D01*
X60927011Y-57488294D01*
X60875500Y-57499500D01*
X51376345Y-57499500D01*
X51309306Y-57479815D01*
X51263551Y-57427011D01*
X51253607Y-57357853D01*
X51265860Y-57319206D01*
X51309719Y-57233126D01*
X51330804Y-57100000D01*
X51322652Y-57048528D01*
X51309719Y-56966874D01*
X51248528Y-56846780D01*
X51248527Y-56846778D01*
X51153221Y-56751472D01*
X51033124Y-56690280D01*
X50900000Y-56669195D01*
X50766873Y-56690280D01*
X50687979Y-56730479D01*
X50619310Y-56743375D01*
X50554570Y-56717098D01*
X50514313Y-56659992D01*
X50509212Y-56639392D01*
X50490066Y-56518514D01*
X50485926Y-56492374D01*
X50424735Y-56372280D01*
X50424734Y-56372278D01*
X50329427Y-56276971D01*
X50250356Y-56236683D01*
X50199559Y-56188709D01*
X50182764Y-56120888D01*
X50205301Y-56054753D01*
X50239608Y-56021884D01*
X50312492Y-55975045D01*
X50322355Y-55963663D01*
X50384054Y-55892457D01*
X50406741Y-55866275D01*
X50465551Y-55737500D01*
X51444353Y-55737500D01*
X51464834Y-55879957D01*
X51524623Y-56010874D01*
X51565062Y-56057543D01*
X51618872Y-56119643D01*
X51739947Y-56197453D01*
X51878039Y-56238000D01*
X52021961Y-56238000D01*
X52160053Y-56197453D01*
X52281128Y-56119643D01*
X52375377Y-56010873D01*
X52435165Y-55879957D01*
X52455647Y-55737500D01*
X52436962Y-55607542D01*
X52435165Y-55595042D01*
X52391760Y-55500000D01*
X53944340Y-55500000D01*
X53964936Y-55735407D01*
X54016173Y-55926625D01*
X54026097Y-55963663D01*
X54125965Y-56177829D01*
X54261505Y-56371401D01*
X54428599Y-56538495D01*
X54622171Y-56674035D01*
X54836337Y-56773903D01*
X55064592Y-56835063D01*
X55241034Y-56850500D01*
X55243742Y-56850500D01*
X55356258Y-56850500D01*
X55358966Y-56850500D01*
X55535408Y-56835063D01*
X55763663Y-56773903D01*
X55977829Y-56674035D01*
X56171401Y-56538495D01*
X56309896Y-56400000D01*
X59069195Y-56400000D01*
X59090280Y-56533124D01*
X59151472Y-56653221D01*
X59246778Y-56748527D01*
X59246780Y-56748528D01*
X59366874Y-56809719D01*
X59500000Y-56830804D01*
X59633126Y-56809719D01*
X59753220Y-56748528D01*
X59848528Y-56653220D01*
X59909719Y-56533126D01*
X59930804Y-56400000D01*
X59909719Y-56266874D01*
X59848528Y-56146780D01*
X59848527Y-56146778D01*
X59753221Y-56051472D01*
X59633124Y-55990280D01*
X59500000Y-55969195D01*
X59366875Y-55990280D01*
X59246778Y-56051472D01*
X59151472Y-56146778D01*
X59090280Y-56266875D01*
X59069195Y-56400000D01*
X56309896Y-56400000D01*
X56338495Y-56371401D01*
X56474035Y-56177830D01*
X56573903Y-55963663D01*
X56635063Y-55735408D01*
X56655659Y-55500000D01*
X56646035Y-55389999D01*
X57969195Y-55389999D01*
X57990280Y-55523124D01*
X58051472Y-55643221D01*
X58146778Y-55738527D01*
X58146780Y-55738528D01*
X58266874Y-55799719D01*
X58400000Y-55820804D01*
X58533126Y-55799719D01*
X58653220Y-55738528D01*
X58748528Y-55643220D01*
X58809719Y-55523126D01*
X58830804Y-55390000D01*
X58824389Y-55349500D01*
X58809719Y-55256875D01*
X58809719Y-55256874D01*
X58748528Y-55136780D01*
X58748527Y-55136778D01*
X58653221Y-55041472D01*
X58533124Y-54980280D01*
X58400000Y-54959195D01*
X58266875Y-54980280D01*
X58146778Y-55041472D01*
X58051472Y-55136778D01*
X57990280Y-55256875D01*
X57969195Y-55389999D01*
X56646035Y-55389999D01*
X56635063Y-55264592D01*
X56573903Y-55036337D01*
X56474035Y-54822171D01*
X56338495Y-54628599D01*
X56171401Y-54461505D01*
X55977829Y-54325965D01*
X55763663Y-54226097D01*
X55763663Y-54226096D01*
X55535407Y-54164936D01*
X55361667Y-54149736D01*
X55361659Y-54149735D01*
X55358966Y-54149500D01*
X55241034Y-54149500D01*
X55238341Y-54149735D01*
X55238332Y-54149736D01*
X55064592Y-54164936D01*
X54836336Y-54226097D01*
X54622170Y-54325965D01*
X54428598Y-54461505D01*
X54261508Y-54628595D01*
X54261505Y-54628598D01*
X54261505Y-54628599D01*
X54139783Y-54802437D01*
X54125964Y-54822172D01*
X54026097Y-55036337D01*
X53964936Y-55264592D01*
X53944340Y-55500000D01*
X52391760Y-55500000D01*
X52375376Y-55464125D01*
X52281129Y-55355358D01*
X52281128Y-55355357D01*
X52160053Y-55277547D01*
X52021961Y-55237000D01*
X51878039Y-55237000D01*
X51739947Y-55277547D01*
X51618870Y-55355358D01*
X51524623Y-55464125D01*
X51464834Y-55595042D01*
X51444353Y-55737500D01*
X50465551Y-55737500D01*
X50466529Y-55735359D01*
X50487011Y-55592902D01*
X50476365Y-55518857D01*
X50486309Y-55449699D01*
X50532064Y-55396895D01*
X50564167Y-55382234D01*
X50640053Y-55359953D01*
X50761128Y-55282143D01*
X50855377Y-55173373D01*
X50915165Y-55042457D01*
X50935647Y-54900000D01*
X50915165Y-54757543D01*
X50899560Y-54723374D01*
X50855376Y-54626625D01*
X50761130Y-54517858D01*
X50731710Y-54498951D01*
X50662253Y-54454314D01*
X50616500Y-54401512D01*
X50606556Y-54332354D01*
X50635581Y-54268798D01*
X50662251Y-54245686D01*
X50761128Y-54182143D01*
X50765910Y-54176625D01*
X50855376Y-54073374D01*
X50855375Y-54073374D01*
X50855377Y-54073373D01*
X50915165Y-53942457D01*
X50935647Y-53800000D01*
X50915165Y-53657543D01*
X50914538Y-53656171D01*
X50855376Y-53526625D01*
X50761129Y-53417858D01*
X50761128Y-53417857D01*
X50640053Y-53340047D01*
X50501961Y-53299500D01*
X50358039Y-53299500D01*
X50219947Y-53340047D01*
X50098871Y-53417857D01*
X50043712Y-53481514D01*
X49984933Y-53519288D01*
X49915064Y-53519288D01*
X49856286Y-53481513D01*
X49801128Y-53417857D01*
X49801127Y-53417856D01*
X49727565Y-53370581D01*
X49680053Y-53340047D01*
X49541961Y-53299500D01*
X49398039Y-53299500D01*
X49259947Y-53340047D01*
X49138870Y-53417858D01*
X49044623Y-53526625D01*
X48984834Y-53657542D01*
X48964353Y-53800000D01*
X48984834Y-53942457D01*
X49044623Y-54073374D01*
X49134092Y-54176627D01*
X49138872Y-54182143D01*
X49259947Y-54259953D01*
X49398039Y-54300500D01*
X49541961Y-54300500D01*
X49680053Y-54259953D01*
X49801128Y-54182143D01*
X49856287Y-54118485D01*
X49915064Y-54080711D01*
X49984934Y-54080711D01*
X50043711Y-54118483D01*
X50083962Y-54164936D01*
X50098872Y-54182143D01*
X50197744Y-54245684D01*
X50243499Y-54298488D01*
X50253443Y-54367647D01*
X50224418Y-54431202D01*
X50197744Y-54454316D01*
X50098870Y-54517858D01*
X50004623Y-54626625D01*
X49944834Y-54757542D01*
X49924353Y-54900000D01*
X49934998Y-54974044D01*
X49925054Y-55043203D01*
X49879298Y-55096006D01*
X49847196Y-55110667D01*
X49771311Y-55132949D01*
X49650234Y-55210760D01*
X49555987Y-55319527D01*
X49496198Y-55450444D01*
X49475717Y-55592902D01*
X49496198Y-55735359D01*
X49555987Y-55866276D01*
X49645167Y-55969195D01*
X49650236Y-55975045D01*
X49771311Y-56052855D01*
X49783979Y-56056574D01*
X49842756Y-56094347D01*
X49871782Y-56157902D01*
X49861839Y-56227061D01*
X49836726Y-56263232D01*
X49727678Y-56372280D01*
X49666487Y-56492375D01*
X49645402Y-56625500D01*
X49666487Y-56758624D01*
X49727679Y-56878721D01*
X49822985Y-56974027D01*
X49822987Y-56974028D01*
X49943081Y-57035219D01*
X50009644Y-57045761D01*
X50076206Y-57056304D01*
X50076206Y-57056303D01*
X50076207Y-57056304D01*
X50209333Y-57035219D01*
X50288226Y-56995020D01*
X50356895Y-56982124D01*
X50421635Y-57008400D01*
X50461893Y-57065506D01*
X50466994Y-57086106D01*
X50490280Y-57233126D01*
X50534140Y-57319206D01*
X50547036Y-57387875D01*
X50520759Y-57452615D01*
X50463653Y-57492872D01*
X50423655Y-57499500D01*
X27124500Y-57499500D01*
X27057461Y-57479815D01*
X27011706Y-57427011D01*
X27000500Y-57375500D01*
X27000500Y-55500000D01*
X31344340Y-55500000D01*
X31364936Y-55735407D01*
X31416173Y-55926625D01*
X31426097Y-55963663D01*
X31525965Y-56177829D01*
X31661505Y-56371401D01*
X31828599Y-56538495D01*
X32022171Y-56674035D01*
X32236337Y-56773903D01*
X32464592Y-56835063D01*
X32641034Y-56850500D01*
X32643742Y-56850500D01*
X32756258Y-56850500D01*
X32758966Y-56850500D01*
X32935408Y-56835063D01*
X33163663Y-56773903D01*
X33377829Y-56674035D01*
X33412155Y-56650000D01*
X37344353Y-56650000D01*
X37364834Y-56792457D01*
X37424623Y-56923374D01*
X37518870Y-57032141D01*
X37518872Y-57032143D01*
X37639947Y-57109953D01*
X37778039Y-57150500D01*
X37921961Y-57150500D01*
X38060053Y-57109953D01*
X38181128Y-57032143D01*
X38275377Y-56923373D01*
X38335165Y-56792457D01*
X38350925Y-56682841D01*
X38379950Y-56619286D01*
X38438728Y-56581511D01*
X38508597Y-56581511D01*
X38540700Y-56596171D01*
X38639947Y-56659953D01*
X38778039Y-56700500D01*
X38921961Y-56700500D01*
X38923667Y-56699999D01*
X41519195Y-56699999D01*
X41540280Y-56833124D01*
X41601472Y-56953221D01*
X41696778Y-57048527D01*
X41696780Y-57048528D01*
X41816874Y-57109719D01*
X41950000Y-57130804D01*
X42083126Y-57109719D01*
X42203220Y-57048528D01*
X42298528Y-56953220D01*
X42359719Y-56833126D01*
X42364966Y-56800000D01*
X43569195Y-56800000D01*
X43590280Y-56933124D01*
X43651472Y-57053221D01*
X43746778Y-57148527D01*
X43746780Y-57148528D01*
X43866874Y-57209719D01*
X44000000Y-57230804D01*
X44133126Y-57209719D01*
X44253220Y-57148528D01*
X44348528Y-57053220D01*
X44409719Y-56933126D01*
X44430804Y-56800000D01*
X44409719Y-56666874D01*
X44348528Y-56546780D01*
X44348527Y-56546778D01*
X44253221Y-56451472D01*
X44133124Y-56390280D01*
X44000000Y-56369195D01*
X43866875Y-56390280D01*
X43746778Y-56451472D01*
X43651472Y-56546778D01*
X43590280Y-56666875D01*
X43569195Y-56800000D01*
X42364966Y-56800000D01*
X42380804Y-56700000D01*
X42359719Y-56566874D01*
X42298528Y-56446780D01*
X42298527Y-56446778D01*
X42203221Y-56351472D01*
X42083124Y-56290280D01*
X41950000Y-56269195D01*
X41816875Y-56290280D01*
X41696778Y-56351472D01*
X41601472Y-56446778D01*
X41540280Y-56566875D01*
X41519195Y-56699999D01*
X38923667Y-56699999D01*
X39060053Y-56659953D01*
X39181128Y-56582143D01*
X39275377Y-56473373D01*
X39335165Y-56342457D01*
X39355647Y-56200000D01*
X39335165Y-56057543D01*
X39333023Y-56052853D01*
X39275376Y-55926625D01*
X39208980Y-55850000D01*
X44844353Y-55850000D01*
X44864834Y-55992457D01*
X44924623Y-56123374D01*
X44986424Y-56194696D01*
X45018872Y-56232143D01*
X45139947Y-56309953D01*
X45278039Y-56350500D01*
X45421961Y-56350500D01*
X45560053Y-56309953D01*
X45681128Y-56232143D01*
X45775377Y-56123373D01*
X45835165Y-55992457D01*
X45855647Y-55850000D01*
X45835165Y-55707543D01*
X45835164Y-55707541D01*
X45819356Y-55672926D01*
X45809412Y-55603768D01*
X45838436Y-55540212D01*
X45897214Y-55502437D01*
X45967084Y-55502437D01*
X46002246Y-55525034D01*
X46003873Y-55522504D01*
X46018872Y-55532143D01*
X46139947Y-55609953D01*
X46278039Y-55650500D01*
X46421961Y-55650500D01*
X46560053Y-55609953D01*
X46681128Y-55532143D01*
X46681127Y-55532143D01*
X46696127Y-55522504D01*
X46697753Y-55525034D01*
X46732897Y-55502442D01*
X46802767Y-55502432D01*
X46861551Y-55540198D01*
X46890584Y-55603750D01*
X46880651Y-55672910D01*
X46880644Y-55672924D01*
X46864835Y-55707541D01*
X46844353Y-55849999D01*
X46864834Y-55992457D01*
X46924623Y-56123374D01*
X46986424Y-56194696D01*
X47018872Y-56232143D01*
X47139947Y-56309953D01*
X47278039Y-56350500D01*
X47421961Y-56350500D01*
X47560053Y-56309953D01*
X47681128Y-56232143D01*
X47775377Y-56123373D01*
X47835165Y-55992457D01*
X47855647Y-55850000D01*
X47835165Y-55707543D01*
X47835164Y-55707541D01*
X47775376Y-55576625D01*
X47681129Y-55467858D01*
X47681128Y-55467857D01*
X47560053Y-55390047D01*
X47421961Y-55349500D01*
X47278039Y-55349500D01*
X47139947Y-55390047D01*
X47003873Y-55477496D01*
X47002246Y-55474965D01*
X46967078Y-55497564D01*
X46897208Y-55497560D01*
X46838432Y-55459782D01*
X46809411Y-55396225D01*
X46819355Y-55327074D01*
X46835165Y-55292457D01*
X46855647Y-55150000D01*
X46835165Y-55007543D01*
X46822714Y-54980280D01*
X46819356Y-54972926D01*
X46809412Y-54903768D01*
X46838436Y-54840212D01*
X46897214Y-54802437D01*
X46967084Y-54802437D01*
X47002246Y-54825034D01*
X47003873Y-54822504D01*
X47018872Y-54832143D01*
X47139947Y-54909953D01*
X47278039Y-54950500D01*
X47421961Y-54950500D01*
X47560053Y-54909953D01*
X47681128Y-54832143D01*
X47775377Y-54723373D01*
X47835165Y-54592457D01*
X47855647Y-54450000D01*
X47835165Y-54307543D01*
X47797969Y-54226097D01*
X47775376Y-54176625D01*
X47681129Y-54067858D01*
X47681128Y-54067857D01*
X47560053Y-53990047D01*
X47421961Y-53949500D01*
X47278039Y-53949500D01*
X47139947Y-53990047D01*
X47018870Y-54067858D01*
X46924623Y-54176625D01*
X46864834Y-54307542D01*
X46844353Y-54449999D01*
X46864835Y-54592459D01*
X46880643Y-54627074D01*
X46890587Y-54696232D01*
X46861562Y-54759788D01*
X46802784Y-54797562D01*
X46732914Y-54797562D01*
X46697753Y-54774965D01*
X46696127Y-54777496D01*
X46658020Y-54753007D01*
X46560053Y-54690047D01*
X46421961Y-54649500D01*
X46278039Y-54649500D01*
X46139947Y-54690047D01*
X46018870Y-54767858D01*
X45924623Y-54876625D01*
X45864834Y-55007542D01*
X45844353Y-55150000D01*
X45864835Y-55292459D01*
X45880643Y-55327074D01*
X45890587Y-55396232D01*
X45861562Y-55459788D01*
X45802784Y-55497562D01*
X45732914Y-55497562D01*
X45697753Y-55474965D01*
X45696127Y-55477496D01*
X45654033Y-55450444D01*
X45560053Y-55390047D01*
X45421961Y-55349500D01*
X45278039Y-55349500D01*
X45139947Y-55390047D01*
X45018870Y-55467858D01*
X44924623Y-55576625D01*
X44864834Y-55707542D01*
X44844353Y-55850000D01*
X39208980Y-55850000D01*
X39181129Y-55817858D01*
X39181128Y-55817857D01*
X39060053Y-55740047D01*
X38921961Y-55699500D01*
X38778039Y-55699500D01*
X38639945Y-55740047D01*
X38540701Y-55803827D01*
X38473662Y-55823511D01*
X38406623Y-55803826D01*
X38360868Y-55751021D01*
X38350925Y-55717158D01*
X38349542Y-55707542D01*
X38335165Y-55607543D01*
X38329456Y-55595043D01*
X38275376Y-55476625D01*
X38181129Y-55367858D01*
X38181128Y-55367857D01*
X38060053Y-55290047D01*
X37921961Y-55249500D01*
X37778039Y-55249500D01*
X37639947Y-55290047D01*
X37518870Y-55367858D01*
X37424623Y-55476625D01*
X37364834Y-55607542D01*
X37344353Y-55749999D01*
X37364834Y-55892457D01*
X37424623Y-56023374D01*
X37507308Y-56118798D01*
X37536333Y-56182353D01*
X37526389Y-56251512D01*
X37507308Y-56281202D01*
X37424623Y-56376625D01*
X37364834Y-56507542D01*
X37344353Y-56650000D01*
X33412155Y-56650000D01*
X33571401Y-56538495D01*
X33738495Y-56371401D01*
X33874035Y-56177830D01*
X33973903Y-55963663D01*
X34035063Y-55735408D01*
X34055659Y-55500000D01*
X34052520Y-55464127D01*
X34035063Y-55264592D01*
X34020639Y-55210760D01*
X33973903Y-55036337D01*
X33874035Y-54822171D01*
X33738495Y-54628599D01*
X33571401Y-54461505D01*
X33554969Y-54449999D01*
X44794353Y-54449999D01*
X44814834Y-54592457D01*
X44874623Y-54723374D01*
X44960230Y-54822170D01*
X44968872Y-54832143D01*
X45089947Y-54909953D01*
X45228039Y-54950500D01*
X45371961Y-54950500D01*
X45510053Y-54909953D01*
X45631128Y-54832143D01*
X45725377Y-54723373D01*
X45785165Y-54592457D01*
X45805647Y-54450000D01*
X45785165Y-54307543D01*
X45747969Y-54226097D01*
X45725376Y-54176625D01*
X45631129Y-54067858D01*
X45631128Y-54067857D01*
X45510053Y-53990047D01*
X45371961Y-53949500D01*
X45228039Y-53949500D01*
X45089947Y-53990047D01*
X44968870Y-54067858D01*
X44874623Y-54176625D01*
X44814834Y-54307542D01*
X44794353Y-54449999D01*
X33554969Y-54449999D01*
X33377829Y-54325965D01*
X33163663Y-54226097D01*
X33163663Y-54226096D01*
X32935407Y-54164936D01*
X32761667Y-54149736D01*
X32761659Y-54149735D01*
X32758966Y-54149500D01*
X32641034Y-54149500D01*
X32638341Y-54149735D01*
X32638332Y-54149736D01*
X32464592Y-54164936D01*
X32236336Y-54226097D01*
X32022170Y-54325965D01*
X31828598Y-54461505D01*
X31661508Y-54628595D01*
X31661505Y-54628598D01*
X31661505Y-54628599D01*
X31539783Y-54802437D01*
X31525964Y-54822172D01*
X31426097Y-55036337D01*
X31364936Y-55264592D01*
X31344340Y-55500000D01*
X27000500Y-55500000D01*
X27000500Y-53674500D01*
X27020185Y-53607461D01*
X27072989Y-53561706D01*
X27124500Y-53550500D01*
X28097694Y-53550500D01*
X28164733Y-53570185D01*
X28186257Y-53587710D01*
X28188503Y-53590002D01*
X28195042Y-53593417D01*
X28213008Y-53610731D01*
X28233018Y-53616310D01*
X28257119Y-53625841D01*
X28286925Y-53641409D01*
X28300039Y-53643622D01*
X28306166Y-53644656D01*
X28329838Y-53656171D01*
X28345220Y-53654982D01*
X28375413Y-53656341D01*
X28396415Y-53659886D01*
X28425496Y-53655580D01*
X28453178Y-53659442D01*
X28463323Y-53654836D01*
X28496427Y-53645079D01*
X28506257Y-53643624D01*
X28605697Y-53594216D01*
X28685002Y-53516497D01*
X28736409Y-53418075D01*
X28738063Y-53408271D01*
X28748486Y-53375373D01*
X28750779Y-53370581D01*
X28748380Y-53363544D01*
X28749994Y-53337572D01*
X28752912Y-53320281D01*
X28754886Y-53308585D01*
X28751765Y-53287509D01*
X28751017Y-53257301D01*
X28751807Y-53249204D01*
X28748744Y-53245259D01*
X28741481Y-53218042D01*
X28738624Y-53198744D01*
X28738624Y-53198743D01*
X28723659Y-53168624D01*
X28714616Y-53144335D01*
X28711650Y-53132801D01*
X28709203Y-53131202D01*
X28692498Y-53105908D01*
X28689217Y-53099305D01*
X28689216Y-53099304D01*
X28689216Y-53099303D01*
X28685934Y-53095954D01*
X28653073Y-53034298D01*
X28650500Y-53009167D01*
X28650500Y-51330000D01*
X43244353Y-51330000D01*
X43264834Y-51472457D01*
X43324623Y-51603374D01*
X43408349Y-51699999D01*
X43418872Y-51712143D01*
X43539947Y-51789953D01*
X43678039Y-51830500D01*
X43821961Y-51830500D01*
X43960053Y-51789953D01*
X44081128Y-51712143D01*
X44141302Y-51642697D01*
X44200078Y-51604924D01*
X44269947Y-51604923D01*
X44328726Y-51642697D01*
X44357752Y-51706253D01*
X44357752Y-51706254D01*
X44377334Y-51842457D01*
X44437123Y-51973374D01*
X44531372Y-52082144D01*
X44557835Y-52099151D01*
X44603590Y-52151955D01*
X44613534Y-52221113D01*
X44601282Y-52259759D01*
X44590280Y-52281351D01*
X44569195Y-52414477D01*
X44590280Y-52547601D01*
X44651472Y-52667698D01*
X44746778Y-52763004D01*
X44746780Y-52763005D01*
X44866874Y-52824196D01*
X44964019Y-52839582D01*
X45027154Y-52869511D01*
X45064086Y-52928822D01*
X45067095Y-52942657D01*
X45079757Y-53022601D01*
X45140949Y-53142698D01*
X45236255Y-53238004D01*
X45236257Y-53238005D01*
X45356351Y-53299196D01*
X45489477Y-53320281D01*
X45622603Y-53299196D01*
X45742697Y-53238005D01*
X45838005Y-53142697D01*
X45899196Y-53022603D01*
X45920281Y-52889477D01*
X45899196Y-52756351D01*
X45838005Y-52636257D01*
X45838004Y-52636255D01*
X45742698Y-52540949D01*
X45622601Y-52479757D01*
X45525456Y-52464371D01*
X45462321Y-52434442D01*
X45444469Y-52405772D01*
X46601835Y-52405772D01*
X46622316Y-52548229D01*
X46682105Y-52679146D01*
X46776352Y-52787913D01*
X46776354Y-52787915D01*
X46897429Y-52865725D01*
X47035521Y-52906272D01*
X47179443Y-52906272D01*
X47317535Y-52865725D01*
X47438610Y-52787915D01*
X47532859Y-52679145D01*
X47592647Y-52548229D01*
X47613129Y-52405772D01*
X47602504Y-52331876D01*
X47612447Y-52262721D01*
X47658202Y-52209917D01*
X47725241Y-52190232D01*
X47760174Y-52195254D01*
X47778039Y-52200500D01*
X47778040Y-52200500D01*
X47921961Y-52200500D01*
X48060053Y-52159953D01*
X48181128Y-52082143D01*
X48275377Y-51973373D01*
X48335165Y-51842457D01*
X48348458Y-51750000D01*
X54369353Y-51750000D01*
X54389834Y-51892457D01*
X54449623Y-52023374D01*
X54515284Y-52099151D01*
X54543872Y-52132143D01*
X54664947Y-52209953D01*
X54803039Y-52250500D01*
X54946961Y-52250500D01*
X55085053Y-52209953D01*
X55206128Y-52132143D01*
X55300377Y-52023373D01*
X55360165Y-51892457D01*
X55380647Y-51750000D01*
X55819317Y-51750000D01*
X55839956Y-51906762D01*
X55900463Y-52052840D01*
X55996717Y-52178282D01*
X56102901Y-52259759D01*
X56122159Y-52274536D01*
X56268238Y-52335044D01*
X56425000Y-52355682D01*
X56581762Y-52335044D01*
X56727841Y-52274536D01*
X56853282Y-52178282D01*
X56949536Y-52052841D01*
X57010044Y-51906762D01*
X57030682Y-51750000D01*
X57010044Y-51593238D01*
X56949536Y-51447159D01*
X56933780Y-51426625D01*
X56853282Y-51321717D01*
X56727840Y-51225463D01*
X56581762Y-51164956D01*
X56448707Y-51147439D01*
X56428077Y-51138313D01*
X56420043Y-51143477D01*
X56401293Y-51147439D01*
X56268237Y-51164956D01*
X56122159Y-51225463D01*
X55996717Y-51321717D01*
X55900463Y-51447159D01*
X55839956Y-51593237D01*
X55819317Y-51750000D01*
X55380647Y-51750000D01*
X55360165Y-51607543D01*
X55358968Y-51604923D01*
X55300376Y-51476625D01*
X55206129Y-51367858D01*
X55206128Y-51367857D01*
X55085053Y-51290047D01*
X54946961Y-51249500D01*
X54803039Y-51249500D01*
X54664947Y-51290047D01*
X54543870Y-51367858D01*
X54449623Y-51476625D01*
X54389834Y-51607542D01*
X54369353Y-51750000D01*
X48348458Y-51750000D01*
X48355647Y-51700000D01*
X48335165Y-51557543D01*
X48298211Y-51476627D01*
X48275376Y-51426625D01*
X48181129Y-51317858D01*
X48181128Y-51317857D01*
X48060053Y-51240047D01*
X47921961Y-51199500D01*
X47778039Y-51199500D01*
X47639945Y-51240047D01*
X47540283Y-51304095D01*
X47473243Y-51323779D01*
X47441827Y-51314554D01*
X47449492Y-51367867D01*
X47430403Y-51409667D01*
X47432029Y-51410410D01*
X47364834Y-51557542D01*
X47344353Y-51699999D01*
X47354977Y-51773892D01*
X47345033Y-51843051D01*
X47299278Y-51895855D01*
X47232239Y-51915539D01*
X47197306Y-51910517D01*
X47179443Y-51905272D01*
X47035521Y-51905272D01*
X46897429Y-51945819D01*
X46776352Y-52023630D01*
X46682105Y-52132397D01*
X46622316Y-52263314D01*
X46601835Y-52405772D01*
X45444469Y-52405772D01*
X45425390Y-52375130D01*
X45422381Y-52361295D01*
X45409719Y-52281352D01*
X45409719Y-52281351D01*
X45348528Y-52161257D01*
X45348527Y-52161255D01*
X45308866Y-52121594D01*
X45275381Y-52060271D01*
X45280365Y-51990579D01*
X45283753Y-51982400D01*
X45287873Y-51973376D01*
X45287877Y-51973373D01*
X45347665Y-51842457D01*
X45368147Y-51700000D01*
X45347665Y-51557543D01*
X45287877Y-51426627D01*
X45287874Y-51426624D01*
X45283177Y-51416338D01*
X45273233Y-51347179D01*
X45302257Y-51283623D01*
X45361035Y-51245848D01*
X45430905Y-51245848D01*
X45463010Y-51260509D01*
X45480518Y-51271760D01*
X45539947Y-51309953D01*
X45678039Y-51350500D01*
X45821961Y-51350500D01*
X45960053Y-51309953D01*
X46081128Y-51232143D01*
X46175377Y-51123373D01*
X46235165Y-50992457D01*
X46235164Y-50992457D01*
X46237206Y-50987988D01*
X46282961Y-50935184D01*
X46350000Y-50915500D01*
X46417040Y-50935185D01*
X46462794Y-50987988D01*
X46524623Y-51123374D01*
X46618870Y-51232141D01*
X46618872Y-51232143D01*
X46739947Y-51309953D01*
X46878039Y-51350500D01*
X47021961Y-51350500D01*
X47160053Y-51309953D01*
X47259715Y-51245903D01*
X47326754Y-51226220D01*
X47358172Y-51235445D01*
X47350507Y-51182130D01*
X47369596Y-51140332D01*
X47367971Y-51139590D01*
X47435165Y-50992457D01*
X47443399Y-50935185D01*
X47455647Y-50850000D01*
X47436075Y-50713872D01*
X47435165Y-50707542D01*
X47408886Y-50650000D01*
X50244353Y-50650000D01*
X50264834Y-50792457D01*
X50324623Y-50923374D01*
X50384484Y-50992457D01*
X50418872Y-51032143D01*
X50539947Y-51109953D01*
X50678039Y-51150500D01*
X50821961Y-51150500D01*
X50960053Y-51109953D01*
X51081128Y-51032143D01*
X51175377Y-50923373D01*
X51235165Y-50792457D01*
X51255647Y-50650000D01*
X51235165Y-50507543D01*
X51217041Y-50467858D01*
X51208885Y-50450000D01*
X55074353Y-50450000D01*
X55094834Y-50592457D01*
X55154623Y-50723374D01*
X55246582Y-50829500D01*
X55248872Y-50832143D01*
X55369947Y-50909953D01*
X55508039Y-50950500D01*
X55651961Y-50950500D01*
X55790053Y-50909953D01*
X55911128Y-50832143D01*
X55925015Y-50816116D01*
X55983791Y-50778341D01*
X56053660Y-50778339D01*
X56085765Y-50793000D01*
X56121737Y-50816117D01*
X56189947Y-50859953D01*
X56328039Y-50900500D01*
X56385108Y-50900500D01*
X56424425Y-50912044D01*
X56445786Y-50901981D01*
X56464892Y-50900500D01*
X56471961Y-50900500D01*
X56610053Y-50859953D01*
X56731128Y-50782143D01*
X56825377Y-50673373D01*
X56885165Y-50542457D01*
X56905647Y-50400000D01*
X56891269Y-50300000D01*
X58019195Y-50300000D01*
X58040280Y-50433124D01*
X58101472Y-50553221D01*
X58196778Y-50648527D01*
X58196780Y-50648528D01*
X58316874Y-50709719D01*
X58383437Y-50720261D01*
X58449999Y-50730804D01*
X58449999Y-50730803D01*
X58450000Y-50730804D01*
X58583126Y-50709719D01*
X58703220Y-50648528D01*
X58798528Y-50553220D01*
X58859719Y-50433126D01*
X58880804Y-50300000D01*
X58859719Y-50166874D01*
X58798528Y-50046780D01*
X58798527Y-50046778D01*
X58703221Y-49951472D01*
X58583124Y-49890280D01*
X58449999Y-49869195D01*
X58316875Y-49890280D01*
X58196778Y-49951472D01*
X58101472Y-50046778D01*
X58040280Y-50166875D01*
X58019195Y-50300000D01*
X56891269Y-50300000D01*
X56885165Y-50257543D01*
X56848211Y-50176627D01*
X56825376Y-50126625D01*
X56731129Y-50017858D01*
X56731128Y-50017857D01*
X56610053Y-49940047D01*
X56471961Y-49899500D01*
X56328039Y-49899500D01*
X56189947Y-49940047D01*
X56068869Y-50017858D01*
X56054982Y-50033885D01*
X55996204Y-50071659D01*
X55926334Y-50071659D01*
X55894231Y-50056998D01*
X55858266Y-50033885D01*
X55790053Y-49990047D01*
X55651961Y-49949500D01*
X55508039Y-49949500D01*
X55369947Y-49990047D01*
X55248870Y-50067858D01*
X55154623Y-50176625D01*
X55094834Y-50307542D01*
X55074353Y-50450000D01*
X51208885Y-50450000D01*
X51175376Y-50376625D01*
X51081129Y-50267858D01*
X51081128Y-50267857D01*
X50960053Y-50190047D01*
X50821961Y-50149500D01*
X50678039Y-50149500D01*
X50539947Y-50190047D01*
X50418870Y-50267858D01*
X50324623Y-50376625D01*
X50264834Y-50507542D01*
X50244353Y-50650000D01*
X47408886Y-50650000D01*
X47375376Y-50576625D01*
X47281129Y-50467858D01*
X47281128Y-50467857D01*
X47160053Y-50390047D01*
X47160052Y-50390046D01*
X47160051Y-50390046D01*
X47088294Y-50368977D01*
X47029515Y-50331203D01*
X47000490Y-50267648D01*
X47010433Y-50198489D01*
X47056188Y-50145685D01*
X47088294Y-50131023D01*
X47160053Y-50109953D01*
X47281128Y-50032143D01*
X47375377Y-49923373D01*
X47435165Y-49792457D01*
X47455647Y-49650000D01*
X47437739Y-49525449D01*
X47435165Y-49507542D01*
X47375376Y-49376625D01*
X47281129Y-49267858D01*
X47281128Y-49267857D01*
X47160053Y-49190047D01*
X47021961Y-49149500D01*
X46878039Y-49149500D01*
X46739947Y-49190047D01*
X46618870Y-49267858D01*
X46524623Y-49376625D01*
X46462794Y-49512011D01*
X46417039Y-49564815D01*
X46349999Y-49584499D01*
X46282960Y-49564814D01*
X46237206Y-49512011D01*
X46175376Y-49376625D01*
X46081129Y-49267858D01*
X46081128Y-49267857D01*
X45960053Y-49190047D01*
X45821961Y-49149500D01*
X45678039Y-49149500D01*
X45539947Y-49190047D01*
X45418870Y-49267858D01*
X45324623Y-49376625D01*
X45264834Y-49507542D01*
X45244353Y-49649999D01*
X45264834Y-49792457D01*
X45324623Y-49923374D01*
X45406493Y-50017857D01*
X45418872Y-50032143D01*
X45539947Y-50109953D01*
X45611706Y-50131023D01*
X45670484Y-50168797D01*
X45699509Y-50232353D01*
X45689565Y-50301511D01*
X45643811Y-50354315D01*
X45611706Y-50368977D01*
X45539947Y-50390047D01*
X45418870Y-50467858D01*
X45324623Y-50576625D01*
X45264834Y-50707542D01*
X45244353Y-50849999D01*
X45264834Y-50992457D01*
X45329322Y-51133662D01*
X45339266Y-51202820D01*
X45310242Y-51266376D01*
X45251464Y-51304151D01*
X45181594Y-51304151D01*
X45149490Y-51289490D01*
X45072554Y-51240047D01*
X44934461Y-51199500D01*
X44790539Y-51199500D01*
X44652447Y-51240047D01*
X44531371Y-51317857D01*
X44471198Y-51387301D01*
X44412420Y-51425075D01*
X44342550Y-51425075D01*
X44283772Y-51387301D01*
X44254747Y-51323747D01*
X44239325Y-51216483D01*
X44235165Y-51187542D01*
X44175376Y-51056625D01*
X44081129Y-50947858D01*
X44081128Y-50947857D01*
X43960053Y-50870047D01*
X43821961Y-50829500D01*
X43678039Y-50829500D01*
X43539947Y-50870047D01*
X43418870Y-50947858D01*
X43324623Y-51056625D01*
X43264834Y-51187542D01*
X43244353Y-51330000D01*
X28650500Y-51330000D01*
X28650500Y-49499999D01*
X37319195Y-49499999D01*
X37340280Y-49633124D01*
X37401472Y-49753221D01*
X37496778Y-49848527D01*
X37496780Y-49848528D01*
X37616874Y-49909719D01*
X37750000Y-49930804D01*
X37883126Y-49909719D01*
X38003220Y-49848528D01*
X38098528Y-49753220D01*
X38159719Y-49633126D01*
X38180804Y-49500000D01*
X38159719Y-49366874D01*
X38098528Y-49246780D01*
X38098527Y-49246778D01*
X38003221Y-49151472D01*
X37883124Y-49090280D01*
X37750000Y-49069195D01*
X37616875Y-49090280D01*
X37496778Y-49151472D01*
X37401472Y-49246778D01*
X37340280Y-49366875D01*
X37319195Y-49499999D01*
X28650500Y-49499999D01*
X28650500Y-48990833D01*
X28670185Y-48923794D01*
X28685939Y-48904041D01*
X28686316Y-48903655D01*
X28689216Y-48900697D01*
X28692496Y-48894094D01*
X28709442Y-48875784D01*
X28714616Y-48855665D01*
X28723659Y-48831375D01*
X28738624Y-48801257D01*
X28741481Y-48781955D01*
X28752517Y-48758054D01*
X28751017Y-48742696D01*
X28751767Y-48712481D01*
X28752601Y-48706846D01*
X28753615Y-48700000D01*
X31499195Y-48700000D01*
X31520280Y-48833124D01*
X31581472Y-48953221D01*
X31676778Y-49048527D01*
X31676780Y-49048528D01*
X31796874Y-49109719D01*
X31863437Y-49120261D01*
X31929999Y-49130804D01*
X31929999Y-49130803D01*
X31930000Y-49130804D01*
X32063126Y-49109719D01*
X32183220Y-49048528D01*
X32278528Y-48953220D01*
X32339719Y-48833126D01*
X32360804Y-48700000D01*
X32339719Y-48566874D01*
X32278528Y-48446780D01*
X32278527Y-48446778D01*
X32183221Y-48351472D01*
X32063124Y-48290280D01*
X31929999Y-48269195D01*
X31796875Y-48290280D01*
X31676778Y-48351472D01*
X31581472Y-48446778D01*
X31520280Y-48566875D01*
X31499195Y-48700000D01*
X28753615Y-48700000D01*
X28754886Y-48691415D01*
X28749993Y-48662423D01*
X28753295Y-48634671D01*
X28748485Y-48624623D01*
X28738062Y-48591722D01*
X28736409Y-48581925D01*
X28685002Y-48483503D01*
X28685001Y-48483502D01*
X28685000Y-48483500D01*
X28605698Y-48405784D01*
X28506256Y-48356375D01*
X28496432Y-48354921D01*
X28463328Y-48345164D01*
X28458483Y-48342964D01*
X28451490Y-48345508D01*
X28425498Y-48344419D01*
X28396416Y-48340113D01*
X28375420Y-48343657D01*
X28345226Y-48345017D01*
X28337112Y-48344389D01*
X28333230Y-48347532D01*
X28306170Y-48355343D01*
X28286922Y-48358591D01*
X28257128Y-48374153D01*
X28233025Y-48383686D01*
X28221551Y-48386885D01*
X28220002Y-48389363D01*
X28195047Y-48406580D01*
X28188502Y-48409998D01*
X28186258Y-48412289D01*
X28125277Y-48446393D01*
X28097694Y-48449500D01*
X27124500Y-48449500D01*
X27057461Y-48429815D01*
X27011706Y-48377011D01*
X27000500Y-48325500D01*
X27000500Y-47874500D01*
X37869195Y-47874500D01*
X37890280Y-48007624D01*
X37951472Y-48127721D01*
X38046778Y-48223027D01*
X38046780Y-48223028D01*
X38166874Y-48284219D01*
X38300000Y-48305304D01*
X38433126Y-48284219D01*
X38539477Y-48230030D01*
X38608142Y-48217134D01*
X38672883Y-48243409D01*
X38683450Y-48252834D01*
X38694965Y-48264349D01*
X38694967Y-48264350D01*
X38815061Y-48325541D01*
X38948187Y-48346626D01*
X39081313Y-48325541D01*
X39201407Y-48264350D01*
X39296715Y-48169042D01*
X39357370Y-48050000D01*
X41994353Y-48050000D01*
X42014834Y-48192457D01*
X42074623Y-48323374D01*
X42166855Y-48429815D01*
X42168872Y-48432143D01*
X42289947Y-48509953D01*
X42428039Y-48550500D01*
X42571961Y-48550500D01*
X42710053Y-48509953D01*
X42831128Y-48432143D01*
X42925377Y-48323373D01*
X42985165Y-48192457D01*
X43005647Y-48050000D01*
X42998458Y-48000000D01*
X45594353Y-48000000D01*
X45614834Y-48142457D01*
X45674623Y-48273374D01*
X45764425Y-48377011D01*
X45768872Y-48382143D01*
X45889947Y-48459953D01*
X46028039Y-48500500D01*
X46171961Y-48500500D01*
X46310053Y-48459953D01*
X46397108Y-48404006D01*
X56409399Y-48404006D01*
X56430038Y-48560768D01*
X56490545Y-48706846D01*
X56586799Y-48832288D01*
X56706053Y-48923794D01*
X56712241Y-48928542D01*
X56858320Y-48989050D01*
X56994443Y-49006970D01*
X57015081Y-49009688D01*
X57015081Y-49009687D01*
X57015082Y-49009688D01*
X57171844Y-48989050D01*
X57317923Y-48928542D01*
X57443364Y-48832288D01*
X57539618Y-48706847D01*
X57600126Y-48560768D01*
X57620764Y-48404006D01*
X57600126Y-48247244D01*
X57539618Y-48101165D01*
X57480819Y-48024536D01*
X57443364Y-47975723D01*
X57317922Y-47879469D01*
X57171844Y-47818962D01*
X57015082Y-47798323D01*
X56858319Y-47818962D01*
X56712241Y-47879469D01*
X56586799Y-47975723D01*
X56490545Y-48101165D01*
X56430038Y-48247243D01*
X56409399Y-48404006D01*
X46397108Y-48404006D01*
X46431128Y-48382143D01*
X46525377Y-48273373D01*
X46585165Y-48142457D01*
X46605647Y-48000000D01*
X46585165Y-47857543D01*
X46567545Y-47818962D01*
X46525376Y-47726625D01*
X46431129Y-47617858D01*
X46431128Y-47617857D01*
X46310053Y-47540047D01*
X46173664Y-47500000D01*
X47394317Y-47500000D01*
X47414956Y-47656762D01*
X47475463Y-47802840D01*
X47571717Y-47928282D01*
X47665183Y-48000000D01*
X47697159Y-48024536D01*
X47843238Y-48085044D01*
X48000000Y-48105682D01*
X48156762Y-48085044D01*
X48302841Y-48024536D01*
X48428282Y-47928282D01*
X48524536Y-47802841D01*
X48585044Y-47656762D01*
X48605682Y-47500000D01*
X48585044Y-47343238D01*
X48524536Y-47197159D01*
X48467919Y-47123374D01*
X48428282Y-47071717D01*
X48401695Y-47051317D01*
X48360492Y-46994890D01*
X48356337Y-46925144D01*
X48383466Y-46871740D01*
X48402304Y-46850000D01*
X57144353Y-46850000D01*
X57164834Y-46992457D01*
X57224623Y-47123374D01*
X57288558Y-47197159D01*
X57318872Y-47232143D01*
X57439947Y-47309953D01*
X57578039Y-47350500D01*
X57721961Y-47350500D01*
X57860053Y-47309953D01*
X57981128Y-47232143D01*
X58075377Y-47123373D01*
X58135165Y-46992457D01*
X58155647Y-46850000D01*
X58135165Y-46707543D01*
X58128275Y-46692457D01*
X58075376Y-46576625D01*
X57981129Y-46467858D01*
X57981128Y-46467857D01*
X57860053Y-46390047D01*
X57721961Y-46349500D01*
X57578039Y-46349500D01*
X57439947Y-46390047D01*
X57318870Y-46467858D01*
X57224623Y-46576625D01*
X57164834Y-46707542D01*
X57144353Y-46850000D01*
X48402304Y-46850000D01*
X48425377Y-46823373D01*
X48485165Y-46692457D01*
X48505647Y-46550000D01*
X48485165Y-46407543D01*
X48471517Y-46377659D01*
X48425376Y-46276625D01*
X48331129Y-46167858D01*
X48331128Y-46167857D01*
X48210053Y-46090047D01*
X48071961Y-46049500D01*
X47928039Y-46049500D01*
X47789947Y-46090047D01*
X47668870Y-46167858D01*
X47574623Y-46276625D01*
X47514834Y-46407542D01*
X47494353Y-46550000D01*
X47514834Y-46692457D01*
X47560732Y-46792957D01*
X47574623Y-46823373D01*
X47613964Y-46868775D01*
X47616532Y-46871739D01*
X47645556Y-46935295D01*
X47635612Y-47004453D01*
X47598305Y-47051316D01*
X47571718Y-47071716D01*
X47475463Y-47197159D01*
X47414956Y-47343237D01*
X47394317Y-47500000D01*
X46173664Y-47500000D01*
X46171961Y-47499500D01*
X46028039Y-47499500D01*
X45889947Y-47540047D01*
X45768870Y-47617858D01*
X45674623Y-47726625D01*
X45614834Y-47857542D01*
X45594353Y-48000000D01*
X42998458Y-48000000D01*
X42985165Y-47907543D01*
X42972344Y-47879470D01*
X42925376Y-47776625D01*
X42831129Y-47667858D01*
X42831128Y-47667857D01*
X42710053Y-47590047D01*
X42571961Y-47549500D01*
X42428039Y-47549500D01*
X42289947Y-47590047D01*
X42168870Y-47667858D01*
X42074623Y-47776625D01*
X42014834Y-47907542D01*
X41994353Y-48050000D01*
X39357370Y-48050000D01*
X39357906Y-48048948D01*
X39378991Y-47915822D01*
X39357906Y-47782696D01*
X39296715Y-47662602D01*
X39296714Y-47662600D01*
X39201408Y-47567294D01*
X39081311Y-47506102D01*
X38948187Y-47485017D01*
X38815060Y-47506102D01*
X38708710Y-47560290D01*
X38640041Y-47573186D01*
X38575300Y-47546909D01*
X38564735Y-47537486D01*
X38553221Y-47525972D01*
X38433124Y-47464780D01*
X38300000Y-47443695D01*
X38166875Y-47464780D01*
X38046778Y-47525972D01*
X37951472Y-47621278D01*
X37890280Y-47741375D01*
X37869195Y-47874500D01*
X27000500Y-47874500D01*
X27000500Y-46350000D01*
X39900000Y-46350000D01*
X39900001Y-46350000D01*
X39902305Y-46352305D01*
X39961493Y-46369685D01*
X40007248Y-46422489D01*
X40017192Y-46491646D01*
X39994353Y-46650499D01*
X40014834Y-46792957D01*
X40074623Y-46923874D01*
X40136159Y-46994890D01*
X40168872Y-47032643D01*
X40289947Y-47110453D01*
X40428039Y-47151000D01*
X40571961Y-47151000D01*
X40710053Y-47110453D01*
X40831128Y-47032643D01*
X40925377Y-46923873D01*
X40985165Y-46792957D01*
X41005647Y-46650500D01*
X40985440Y-46509953D01*
X40982808Y-46491646D01*
X40992752Y-46422488D01*
X41038507Y-46369684D01*
X41105546Y-46350000D01*
X42100000Y-46350000D01*
X42100000Y-46050000D01*
X43244353Y-46050000D01*
X43264834Y-46192457D01*
X43324623Y-46323374D01*
X43397555Y-46407542D01*
X43418872Y-46432143D01*
X43539947Y-46509953D01*
X43678039Y-46550500D01*
X43821961Y-46550500D01*
X43960053Y-46509953D01*
X44051386Y-46451256D01*
X44118424Y-46431573D01*
X44185464Y-46451258D01*
X44212136Y-46474370D01*
X44218870Y-46482141D01*
X44218872Y-46482143D01*
X44286192Y-46525406D01*
X44325237Y-46550500D01*
X44339947Y-46559953D01*
X44478039Y-46600500D01*
X44621961Y-46600500D01*
X44760053Y-46559953D01*
X44881128Y-46482143D01*
X44975377Y-46373373D01*
X45035165Y-46242457D01*
X45055647Y-46100000D01*
X45035165Y-45957543D01*
X44996725Y-45873373D01*
X44975376Y-45826625D01*
X44881129Y-45717858D01*
X44881128Y-45717857D01*
X44760053Y-45640047D01*
X44621961Y-45599500D01*
X44478039Y-45599500D01*
X44339945Y-45640047D01*
X44248613Y-45698742D01*
X44181574Y-45718426D01*
X44114534Y-45698741D01*
X44087862Y-45675629D01*
X44081126Y-45667855D01*
X43960054Y-45590047D01*
X43821961Y-45549500D01*
X43678039Y-45549500D01*
X43539947Y-45590047D01*
X43418870Y-45667858D01*
X43324623Y-45776625D01*
X43264834Y-45907542D01*
X43244353Y-46050000D01*
X42100000Y-46050000D01*
X42100000Y-44150000D01*
X42994353Y-44150000D01*
X43014834Y-44292457D01*
X43074623Y-44423374D01*
X43098128Y-44450500D01*
X43168872Y-44532143D01*
X43289947Y-44609953D01*
X43428039Y-44650500D01*
X43571961Y-44650500D01*
X43710053Y-44609953D01*
X43831128Y-44532143D01*
X43925377Y-44423373D01*
X43985165Y-44292457D01*
X44005647Y-44150000D01*
X43985165Y-44007543D01*
X43977281Y-43990280D01*
X43958886Y-43950000D01*
X44894353Y-43950000D01*
X44914834Y-44092457D01*
X44974623Y-44223374D01*
X45068870Y-44332141D01*
X45068872Y-44332143D01*
X45189947Y-44409953D01*
X45328039Y-44450500D01*
X45471961Y-44450500D01*
X45610053Y-44409953D01*
X45625540Y-44400000D01*
X48519195Y-44400000D01*
X48540280Y-44533124D01*
X48601472Y-44653221D01*
X48696778Y-44748527D01*
X48696780Y-44748528D01*
X48816874Y-44809719D01*
X48950000Y-44830804D01*
X49083126Y-44809719D01*
X49203220Y-44748528D01*
X49298528Y-44653220D01*
X49300169Y-44649999D01*
X50219195Y-44649999D01*
X50240280Y-44783124D01*
X50301472Y-44903221D01*
X50396778Y-44998527D01*
X50396780Y-44998528D01*
X50516874Y-45059719D01*
X50561249Y-45066747D01*
X50649998Y-45080804D01*
X50649998Y-45080803D01*
X50650000Y-45080804D01*
X50705672Y-45071986D01*
X50774964Y-45080940D01*
X50828417Y-45125935D01*
X50849057Y-45192687D01*
X50830333Y-45260001D01*
X50818784Y-45275660D01*
X50774623Y-45326625D01*
X50714834Y-45457542D01*
X50694353Y-45600000D01*
X50714834Y-45742457D01*
X50774623Y-45873374D01*
X50804230Y-45907542D01*
X50868872Y-45982143D01*
X50989947Y-46059953D01*
X51128039Y-46100500D01*
X51271961Y-46100500D01*
X51410053Y-46059953D01*
X51531128Y-45982143D01*
X51625377Y-45873373D01*
X51681720Y-45750000D01*
X56244317Y-45750000D01*
X56264956Y-45906762D01*
X56325463Y-46052840D01*
X56421717Y-46178282D01*
X56547158Y-46274536D01*
X56547159Y-46274536D01*
X56693238Y-46335044D01*
X56850000Y-46355682D01*
X57006762Y-46335044D01*
X57152841Y-46274536D01*
X57278282Y-46178282D01*
X57374536Y-46052841D01*
X57435044Y-45906762D01*
X57455682Y-45750000D01*
X57819195Y-45750000D01*
X57840280Y-45883124D01*
X57901472Y-46003221D01*
X57996778Y-46098527D01*
X57996780Y-46098528D01*
X58116874Y-46159719D01*
X58168256Y-46167857D01*
X58249999Y-46180804D01*
X58249999Y-46180803D01*
X58250000Y-46180804D01*
X58383126Y-46159719D01*
X58503220Y-46098528D01*
X58598528Y-46003220D01*
X58644514Y-45912966D01*
X58692489Y-45862169D01*
X58760310Y-45845374D01*
X58826445Y-45867911D01*
X58865485Y-45912966D01*
X58911471Y-46003220D01*
X59006778Y-46098527D01*
X59006780Y-46098528D01*
X59126874Y-46159719D01*
X59260000Y-46180804D01*
X59393126Y-46159719D01*
X59513220Y-46098528D01*
X59608528Y-46003220D01*
X59669719Y-45883126D01*
X59690804Y-45750000D01*
X59669719Y-45616874D01*
X59608528Y-45496780D01*
X59608527Y-45496778D01*
X59513220Y-45401471D01*
X59495828Y-45392610D01*
X59445032Y-45344636D01*
X59432406Y-45293656D01*
X59381545Y-45326344D01*
X59327212Y-45329840D01*
X59260000Y-45319195D01*
X59126875Y-45340280D01*
X59006778Y-45401472D01*
X58911472Y-45496778D01*
X58865485Y-45587034D01*
X58817510Y-45637830D01*
X58749689Y-45654625D01*
X58683554Y-45632088D01*
X58644515Y-45587034D01*
X58598527Y-45496778D01*
X58503221Y-45401472D01*
X58383124Y-45340280D01*
X58250000Y-45319195D01*
X58116875Y-45340280D01*
X57996778Y-45401472D01*
X57901472Y-45496778D01*
X57840280Y-45616875D01*
X57819195Y-45750000D01*
X57455682Y-45750000D01*
X57435044Y-45593238D01*
X57374536Y-45447159D01*
X57319539Y-45375486D01*
X57294345Y-45310318D01*
X57308383Y-45241873D01*
X57319538Y-45224515D01*
X57374536Y-45152841D01*
X57435044Y-45006762D01*
X57455682Y-44850000D01*
X57435044Y-44693238D01*
X57421276Y-44660000D01*
X59144353Y-44660000D01*
X59164834Y-44802457D01*
X59224623Y-44933374D01*
X59318869Y-45042141D01*
X59318871Y-45042142D01*
X59318872Y-45042143D01*
X59413649Y-45103052D01*
X59459403Y-45155855D01*
X59465593Y-45198909D01*
X59505487Y-45167228D01*
X59560211Y-45161739D01*
X59560211Y-45160500D01*
X59572565Y-45160500D01*
X59575008Y-45160255D01*
X59576029Y-45160500D01*
X59578039Y-45160500D01*
X59721961Y-45160500D01*
X59860053Y-45119953D01*
X59981128Y-45042143D01*
X60075377Y-44933373D01*
X60135165Y-44802457D01*
X60155647Y-44660000D01*
X60135165Y-44517543D01*
X60134859Y-44516874D01*
X60075376Y-44386625D01*
X59981129Y-44277858D01*
X59981128Y-44277857D01*
X59860053Y-44200047D01*
X59721961Y-44159500D01*
X59578039Y-44159500D01*
X59439947Y-44200047D01*
X59318870Y-44277858D01*
X59224623Y-44386625D01*
X59164834Y-44517542D01*
X59144353Y-44660000D01*
X57421276Y-44660000D01*
X57374536Y-44547159D01*
X57351810Y-44517542D01*
X57278282Y-44421717D01*
X57152840Y-44325463D01*
X57006762Y-44264956D01*
X56850000Y-44244317D01*
X56693237Y-44264956D01*
X56547159Y-44325463D01*
X56421717Y-44421717D01*
X56325463Y-44547159D01*
X56264956Y-44693237D01*
X56244317Y-44850000D01*
X56264956Y-45006762D01*
X56325463Y-45152840D01*
X56380460Y-45224514D01*
X56405654Y-45289683D01*
X56391616Y-45358128D01*
X56380460Y-45375486D01*
X56325463Y-45447159D01*
X56264956Y-45593237D01*
X56244317Y-45750000D01*
X51681720Y-45750000D01*
X51685165Y-45742457D01*
X51705647Y-45600000D01*
X51685165Y-45457543D01*
X51681047Y-45448527D01*
X51625376Y-45326625D01*
X51531129Y-45217858D01*
X51531128Y-45217857D01*
X51410053Y-45140047D01*
X51271961Y-45099500D01*
X51128039Y-45099500D01*
X51110211Y-45099500D01*
X51110211Y-45098052D01*
X51063093Y-45098049D01*
X51004318Y-45060270D01*
X50975297Y-44996713D01*
X50985245Y-44927555D01*
X50989893Y-44920862D01*
X50989612Y-44920719D01*
X51025645Y-44850000D01*
X51059719Y-44783126D01*
X51080804Y-44650000D01*
X51059719Y-44516874D01*
X50998528Y-44396780D01*
X50998527Y-44396778D01*
X50903221Y-44301472D01*
X50783124Y-44240280D01*
X50650000Y-44219195D01*
X50516875Y-44240280D01*
X50396778Y-44301472D01*
X50301472Y-44396778D01*
X50240280Y-44516875D01*
X50219195Y-44649999D01*
X49300169Y-44649999D01*
X49359719Y-44533126D01*
X49377102Y-44423373D01*
X49383877Y-44380602D01*
X49386983Y-44381094D01*
X49391812Y-44343709D01*
X49436804Y-44290253D01*
X49503554Y-44269608D01*
X49561629Y-44283110D01*
X49662918Y-44334719D01*
X49796045Y-44355804D01*
X49929171Y-44334719D01*
X50049265Y-44273528D01*
X50144573Y-44178220D01*
X50205764Y-44058126D01*
X50226849Y-43925000D01*
X50205764Y-43791874D01*
X50144573Y-43671780D01*
X50144572Y-43671778D01*
X50049266Y-43576472D01*
X49929169Y-43515280D01*
X49796044Y-43494195D01*
X49662920Y-43515280D01*
X49542823Y-43576472D01*
X49447517Y-43671778D01*
X49386325Y-43791875D01*
X49362168Y-43944398D01*
X49359059Y-43943905D01*
X49354225Y-43981305D01*
X49309227Y-44034755D01*
X49242474Y-44055391D01*
X49184415Y-44041889D01*
X49083126Y-43990280D01*
X48949999Y-43969195D01*
X48816875Y-43990280D01*
X48696778Y-44051472D01*
X48601472Y-44146778D01*
X48540280Y-44266875D01*
X48519195Y-44400000D01*
X45625540Y-44400000D01*
X45731128Y-44332143D01*
X45825377Y-44223373D01*
X45885165Y-44092457D01*
X45905647Y-43950000D01*
X45885165Y-43807543D01*
X45878009Y-43791874D01*
X45825376Y-43676625D01*
X45731129Y-43567858D01*
X45731128Y-43567857D01*
X45610053Y-43490047D01*
X45471961Y-43449500D01*
X45328039Y-43449500D01*
X45189947Y-43490047D01*
X45068870Y-43567858D01*
X44974623Y-43676625D01*
X44914834Y-43807542D01*
X44894353Y-43950000D01*
X43958886Y-43950000D01*
X43925376Y-43876625D01*
X43831129Y-43767858D01*
X43831128Y-43767857D01*
X43710053Y-43690047D01*
X43571961Y-43649500D01*
X43428039Y-43649500D01*
X43289947Y-43690047D01*
X43168870Y-43767858D01*
X43074623Y-43876625D01*
X43014834Y-44007542D01*
X42994353Y-44150000D01*
X42100000Y-44150000D01*
X42100000Y-44144963D01*
X42072573Y-44094735D01*
X42077557Y-44025043D01*
X42100026Y-43987175D01*
X42105616Y-43980724D01*
X42165404Y-43849808D01*
X42185886Y-43707351D01*
X42165404Y-43564894D01*
X42143694Y-43517357D01*
X42105615Y-43433976D01*
X42011368Y-43325209D01*
X42011367Y-43325208D01*
X41890292Y-43247398D01*
X41752200Y-43206851D01*
X41608278Y-43206851D01*
X41586717Y-43213181D01*
X41573321Y-43217115D01*
X41503452Y-43217114D01*
X41444674Y-43179338D01*
X41427903Y-43154431D01*
X41398528Y-43096779D01*
X41334168Y-43032419D01*
X41300683Y-42971096D01*
X41305667Y-42901404D01*
X41334166Y-42857058D01*
X41388005Y-42803220D01*
X41416329Y-42747630D01*
X41464303Y-42696835D01*
X41532124Y-42680039D01*
X41598259Y-42702576D01*
X41614495Y-42716244D01*
X41696778Y-42798527D01*
X41696780Y-42798528D01*
X41816874Y-42859719D01*
X41866507Y-42867580D01*
X41949999Y-42880804D01*
X41949999Y-42880803D01*
X41950000Y-42880804D01*
X42083126Y-42859719D01*
X42102201Y-42850000D01*
X43994353Y-42850000D01*
X43995750Y-42859719D01*
X44014834Y-42992457D01*
X44074623Y-43123374D01*
X44168870Y-43232141D01*
X44168872Y-43232143D01*
X44289947Y-43309953D01*
X44428039Y-43350500D01*
X44571961Y-43350500D01*
X44710053Y-43309953D01*
X44831128Y-43232143D01*
X44925377Y-43123373D01*
X44985165Y-42992457D01*
X44991269Y-42949999D01*
X46794353Y-42949999D01*
X46814834Y-43092457D01*
X46874623Y-43223374D01*
X46968870Y-43332141D01*
X46968872Y-43332143D01*
X47089947Y-43409953D01*
X47228039Y-43450500D01*
X47371961Y-43450500D01*
X47510053Y-43409953D01*
X47631128Y-43332143D01*
X47725377Y-43223373D01*
X47785165Y-43092457D01*
X47805647Y-42950000D01*
X47791269Y-42850000D01*
X58094317Y-42850000D01*
X58114956Y-43006762D01*
X58175463Y-43152840D01*
X58271717Y-43278282D01*
X58375000Y-43357533D01*
X58397159Y-43374536D01*
X58543238Y-43435044D01*
X58700000Y-43455682D01*
X58856762Y-43435044D01*
X59002841Y-43374536D01*
X59128282Y-43278282D01*
X59224536Y-43152841D01*
X59285044Y-43006762D01*
X59305682Y-42850000D01*
X59285044Y-42693238D01*
X59224536Y-42547159D01*
X59180713Y-42490047D01*
X59128282Y-42421717D01*
X59002840Y-42325463D01*
X58856762Y-42264956D01*
X58700000Y-42244317D01*
X58543237Y-42264956D01*
X58397159Y-42325463D01*
X58271717Y-42421717D01*
X58175463Y-42547159D01*
X58114956Y-42693237D01*
X58094317Y-42850000D01*
X47791269Y-42850000D01*
X47785165Y-42807543D01*
X47783191Y-42803221D01*
X47725376Y-42676625D01*
X47631129Y-42567858D01*
X47631128Y-42567857D01*
X47510053Y-42490047D01*
X47371961Y-42449500D01*
X47228039Y-42449500D01*
X47089947Y-42490047D01*
X46968870Y-42567858D01*
X46874623Y-42676625D01*
X46814834Y-42807542D01*
X46794353Y-42949999D01*
X44991269Y-42949999D01*
X45005647Y-42850000D01*
X44985165Y-42707543D01*
X44983191Y-42703221D01*
X44925376Y-42576625D01*
X44831129Y-42467858D01*
X44831128Y-42467857D01*
X44710053Y-42390047D01*
X44571961Y-42349500D01*
X44428039Y-42349500D01*
X44289947Y-42390047D01*
X44168870Y-42467858D01*
X44074623Y-42576625D01*
X44014834Y-42707542D01*
X44000457Y-42807542D01*
X43994353Y-42850000D01*
X42102201Y-42850000D01*
X42203220Y-42798528D01*
X42298528Y-42703220D01*
X42359719Y-42583126D01*
X42380804Y-42450000D01*
X42376324Y-42421717D01*
X42361925Y-42330804D01*
X42359719Y-42316874D01*
X42298528Y-42196780D01*
X42298527Y-42196778D01*
X42203221Y-42101472D01*
X42083124Y-42040280D01*
X41950000Y-42019195D01*
X41816875Y-42040280D01*
X41696778Y-42101472D01*
X41601471Y-42196779D01*
X41573146Y-42252370D01*
X41525172Y-42303165D01*
X41457350Y-42319960D01*
X41391216Y-42297422D01*
X41374981Y-42283755D01*
X41292698Y-42201472D01*
X41172601Y-42140280D01*
X41039477Y-42119195D01*
X40906352Y-42140280D01*
X40786255Y-42201472D01*
X40690949Y-42296778D01*
X40629757Y-42416875D01*
X40608672Y-42549999D01*
X40629757Y-42683124D01*
X40690949Y-42803221D01*
X40755308Y-42867580D01*
X40788793Y-42928903D01*
X40783809Y-42998595D01*
X40755309Y-43042942D01*
X40701471Y-43096779D01*
X40640280Y-43216875D01*
X40628002Y-43294398D01*
X40598073Y-43357533D01*
X40538761Y-43394464D01*
X40505529Y-43399000D01*
X40428039Y-43399000D01*
X40289947Y-43439547D01*
X40168870Y-43517358D01*
X40074623Y-43626125D01*
X40014834Y-43757042D01*
X39994353Y-43899500D01*
X40010003Y-44008354D01*
X40000059Y-44077512D01*
X39954304Y-44130316D01*
X39905293Y-44144706D01*
X39900000Y-44150000D01*
X39900000Y-46350000D01*
X27000500Y-46350000D01*
X27000500Y-45200000D01*
X28944353Y-45200000D01*
X28964834Y-45342457D01*
X29024623Y-45473374D01*
X29118870Y-45582141D01*
X29118872Y-45582143D01*
X29239947Y-45659953D01*
X29378039Y-45700500D01*
X29521961Y-45700500D01*
X29660053Y-45659953D01*
X29781128Y-45582143D01*
X29875377Y-45473373D01*
X29935165Y-45342457D01*
X29955647Y-45200000D01*
X29941269Y-45100000D01*
X35069195Y-45100000D01*
X35090280Y-45233124D01*
X35151472Y-45353221D01*
X35246778Y-45448527D01*
X35246780Y-45448528D01*
X35366874Y-45509719D01*
X35500000Y-45530804D01*
X35633126Y-45509719D01*
X35753220Y-45448528D01*
X35848528Y-45353220D01*
X35909719Y-45233126D01*
X35930804Y-45100000D01*
X35909719Y-44966874D01*
X35848528Y-44846780D01*
X35848527Y-44846778D01*
X35753221Y-44751472D01*
X35633124Y-44690280D01*
X35500000Y-44669195D01*
X35366875Y-44690280D01*
X35246778Y-44751472D01*
X35151472Y-44846778D01*
X35090280Y-44966875D01*
X35069195Y-45100000D01*
X29941269Y-45100000D01*
X29935165Y-45057543D01*
X29908213Y-44998528D01*
X29875376Y-44926625D01*
X29781129Y-44817858D01*
X29781128Y-44817857D01*
X29660053Y-44740047D01*
X29521961Y-44699500D01*
X29378039Y-44699500D01*
X29239947Y-44740047D01*
X29118870Y-44817858D01*
X29024623Y-44926625D01*
X28964834Y-45057542D01*
X28944353Y-45200000D01*
X27000500Y-45200000D01*
X27000500Y-41905055D01*
X27324500Y-41905055D01*
X27365209Y-42070224D01*
X27408770Y-42153221D01*
X27444266Y-42220852D01*
X27557071Y-42348183D01*
X27697070Y-42444818D01*
X27856128Y-42505140D01*
X27982628Y-42520500D01*
X27986377Y-42520500D01*
X28863623Y-42520500D01*
X28867372Y-42520500D01*
X28993872Y-42505140D01*
X29152930Y-42444818D01*
X29292929Y-42348183D01*
X29405734Y-42220852D01*
X29484790Y-42070225D01*
X29525500Y-41905056D01*
X29525500Y-41734944D01*
X29484790Y-41569775D01*
X29405734Y-41419148D01*
X29292929Y-41291817D01*
X29292928Y-41291816D01*
X29292927Y-41291815D01*
X29152930Y-41195182D01*
X28993872Y-41134860D01*
X28871092Y-41119951D01*
X28871080Y-41119950D01*
X28867372Y-41119500D01*
X27982628Y-41119500D01*
X27978920Y-41119950D01*
X27978907Y-41119951D01*
X27856127Y-41134860D01*
X27697069Y-41195182D01*
X27557072Y-41291815D01*
X27444265Y-41419149D01*
X27365209Y-41569775D01*
X27324500Y-41734944D01*
X27324500Y-41905055D01*
X27000500Y-41905055D01*
X27000500Y-39250000D01*
X30509195Y-39250000D01*
X30530280Y-39383124D01*
X30591472Y-39503221D01*
X30686778Y-39598527D01*
X30686780Y-39598528D01*
X30806874Y-39659719D01*
X30940000Y-39680804D01*
X31073126Y-39659719D01*
X31193220Y-39598528D01*
X31288528Y-39503220D01*
X31339515Y-39403151D01*
X31387489Y-39352356D01*
X31455310Y-39335561D01*
X31521445Y-39358098D01*
X31560485Y-39403152D01*
X31611472Y-39503221D01*
X31706778Y-39598527D01*
X31706780Y-39598528D01*
X31800396Y-39646228D01*
X31828156Y-39660372D01*
X31878952Y-39708346D01*
X31895747Y-39776167D01*
X31873210Y-39842302D01*
X31819316Y-39885417D01*
X31814770Y-39887300D01*
X31814767Y-39887301D01*
X31814767Y-39887302D01*
X31728860Y-39953221D01*
X31694549Y-39979549D01*
X31602301Y-40099768D01*
X31544312Y-40239764D01*
X31524533Y-40390000D01*
X31544312Y-40540235D01*
X31555347Y-40566875D01*
X31602302Y-40680233D01*
X31694549Y-40800451D01*
X31814767Y-40892698D01*
X31814768Y-40892698D01*
X31814769Y-40892699D01*
X31865231Y-40913601D01*
X31919635Y-40957441D01*
X31941700Y-41023735D01*
X31924421Y-41091435D01*
X31873284Y-41139046D01*
X31861750Y-41144104D01*
X31727070Y-41195181D01*
X31587072Y-41291815D01*
X31474265Y-41419149D01*
X31395209Y-41569775D01*
X31354500Y-41734944D01*
X31354500Y-41905055D01*
X31395209Y-42070224D01*
X31438770Y-42153221D01*
X31474266Y-42220852D01*
X31587071Y-42348183D01*
X31727070Y-42444818D01*
X31886128Y-42505140D01*
X32012628Y-42520500D01*
X32016377Y-42520500D01*
X33193623Y-42520500D01*
X33197372Y-42520500D01*
X33323872Y-42505140D01*
X33482930Y-42444818D01*
X33622929Y-42348183D01*
X33735734Y-42220852D01*
X33814790Y-42070225D01*
X33855500Y-41905056D01*
X33855500Y-41900000D01*
X37219195Y-41900000D01*
X37240280Y-42033124D01*
X37301472Y-42153221D01*
X37396778Y-42248527D01*
X37396780Y-42248528D01*
X37516874Y-42309719D01*
X37650000Y-42330804D01*
X37783126Y-42309719D01*
X37903220Y-42248528D01*
X37903222Y-42248525D01*
X37918705Y-42240637D01*
X37987374Y-42227741D01*
X38031295Y-42240637D01*
X38046778Y-42248526D01*
X38046780Y-42248528D01*
X38166874Y-42309719D01*
X38300000Y-42330804D01*
X38433126Y-42309719D01*
X38553220Y-42248528D01*
X38553221Y-42248526D01*
X38568454Y-42240765D01*
X38637124Y-42227868D01*
X38681045Y-42240764D01*
X38696283Y-42248528D01*
X38816377Y-42309719D01*
X38949503Y-42330804D01*
X39082629Y-42309719D01*
X39202723Y-42248528D01*
X39298031Y-42153220D01*
X39359222Y-42033126D01*
X39380307Y-41900000D01*
X39359222Y-41766874D01*
X39298031Y-41646780D01*
X39298030Y-41646778D01*
X39202724Y-41551472D01*
X39082627Y-41490280D01*
X38949503Y-41469195D01*
X38816376Y-41490280D01*
X38681045Y-41559235D01*
X38612376Y-41572131D01*
X38568456Y-41559235D01*
X38433124Y-41490280D01*
X38300000Y-41469195D01*
X38166873Y-41490280D01*
X38031294Y-41559361D01*
X37962625Y-41572257D01*
X37918706Y-41559361D01*
X37783126Y-41490280D01*
X37649999Y-41469195D01*
X37516875Y-41490280D01*
X37396778Y-41551472D01*
X37301472Y-41646778D01*
X37240280Y-41766875D01*
X37219195Y-41900000D01*
X33855500Y-41900000D01*
X33855500Y-41734944D01*
X33814790Y-41569775D01*
X33735734Y-41419148D01*
X33622929Y-41291817D01*
X33622928Y-41291816D01*
X33621220Y-41289888D01*
X33591499Y-41226654D01*
X33600683Y-41157391D01*
X33645855Y-41104088D01*
X33657734Y-41097180D01*
X33753220Y-41048528D01*
X33848528Y-40953220D01*
X33875645Y-40900000D01*
X40869692Y-40900000D01*
X40890777Y-41033124D01*
X40951969Y-41153221D01*
X41047275Y-41248527D01*
X41047277Y-41248528D01*
X41167371Y-41309719D01*
X41300497Y-41330804D01*
X41433623Y-41309719D01*
X41553717Y-41248528D01*
X41553718Y-41248526D01*
X41568951Y-41240765D01*
X41637621Y-41227868D01*
X41681542Y-41240764D01*
X41696780Y-41248528D01*
X41816874Y-41309719D01*
X41950000Y-41330804D01*
X42083126Y-41309719D01*
X42203220Y-41248528D01*
X42298528Y-41153220D01*
X42359719Y-41033126D01*
X42380804Y-40900000D01*
X42359719Y-40766874D01*
X42298528Y-40646780D01*
X42298527Y-40646778D01*
X42203221Y-40551472D01*
X42200332Y-40550000D01*
X43115000Y-40550000D01*
X43115000Y-41750000D01*
X44915000Y-41750000D01*
X44915000Y-41149999D01*
X45919195Y-41149999D01*
X45940280Y-41283124D01*
X46001472Y-41403221D01*
X46096778Y-41498527D01*
X46096780Y-41498528D01*
X46216874Y-41559719D01*
X46350000Y-41580804D01*
X46483126Y-41559719D01*
X46603220Y-41498528D01*
X46698528Y-41403220D01*
X46759719Y-41283126D01*
X46764966Y-41249999D01*
X52444353Y-41249999D01*
X52464834Y-41392457D01*
X52524623Y-41523374D01*
X52610952Y-41623003D01*
X52618872Y-41632143D01*
X52739947Y-41709953D01*
X52878039Y-41750500D01*
X53021961Y-41750500D01*
X53160053Y-41709953D01*
X53281128Y-41632143D01*
X53375377Y-41523373D01*
X53435165Y-41392457D01*
X53455647Y-41250000D01*
X53435165Y-41107543D01*
X53433587Y-41104088D01*
X53375376Y-40976625D01*
X53281129Y-40867858D01*
X53281128Y-40867857D01*
X53160053Y-40790047D01*
X53021961Y-40749500D01*
X52878039Y-40749500D01*
X52739947Y-40790047D01*
X52618870Y-40867858D01*
X52524623Y-40976625D01*
X52464834Y-41107542D01*
X52444353Y-41249999D01*
X46764966Y-41249999D01*
X46780804Y-41150000D01*
X46759719Y-41016874D01*
X46698528Y-40896780D01*
X46698527Y-40896778D01*
X46603221Y-40801472D01*
X46483124Y-40740280D01*
X46350000Y-40719195D01*
X46216875Y-40740280D01*
X46096778Y-40801472D01*
X46001472Y-40896778D01*
X45940280Y-41016875D01*
X45919195Y-41149999D01*
X44915000Y-41149999D01*
X44915000Y-40550000D01*
X43115000Y-40550000D01*
X42200332Y-40550000D01*
X42083124Y-40490280D01*
X41950000Y-40469195D01*
X41816873Y-40490280D01*
X41681542Y-40559235D01*
X41612873Y-40572131D01*
X41568953Y-40559235D01*
X41433621Y-40490280D01*
X41300497Y-40469195D01*
X41167372Y-40490280D01*
X41047275Y-40551472D01*
X40951969Y-40646778D01*
X40890777Y-40766875D01*
X40869692Y-40900000D01*
X33875645Y-40900000D01*
X33909719Y-40833126D01*
X33930804Y-40700000D01*
X33909719Y-40566874D01*
X33848528Y-40446780D01*
X33848527Y-40446778D01*
X33753221Y-40351472D01*
X33648816Y-40298275D01*
X33598020Y-40250300D01*
X33581225Y-40182479D01*
X33592315Y-40136283D01*
X33635165Y-40042457D01*
X33655647Y-39900000D01*
X33635165Y-39757543D01*
X33634657Y-39756431D01*
X33608886Y-39700000D01*
X34869195Y-39700000D01*
X34890280Y-39833124D01*
X34951472Y-39953221D01*
X35046778Y-40048527D01*
X35046780Y-40048528D01*
X35166874Y-40109719D01*
X35300000Y-40130804D01*
X35433126Y-40109719D01*
X35553220Y-40048528D01*
X35648528Y-39953220D01*
X35709719Y-39833126D01*
X35709719Y-39833125D01*
X35714515Y-39823713D01*
X35762489Y-39772916D01*
X35830310Y-39756121D01*
X35896445Y-39778658D01*
X35935485Y-39823713D01*
X36001471Y-39953220D01*
X36096778Y-40048527D01*
X36096780Y-40048528D01*
X36216874Y-40109719D01*
X36350000Y-40130804D01*
X36483126Y-40109719D01*
X36603220Y-40048528D01*
X36698528Y-39953220D01*
X36759719Y-39833126D01*
X36780804Y-39700000D01*
X36759719Y-39566874D01*
X36698528Y-39446780D01*
X36698527Y-39446778D01*
X36603221Y-39351472D01*
X36483124Y-39290280D01*
X36350000Y-39269195D01*
X36216875Y-39290280D01*
X36096778Y-39351472D01*
X36001472Y-39446778D01*
X35935485Y-39576287D01*
X35887511Y-39627083D01*
X35819690Y-39643878D01*
X35753555Y-39621341D01*
X35714515Y-39576287D01*
X35684743Y-39517857D01*
X35648528Y-39446780D01*
X35648527Y-39446778D01*
X35553221Y-39351472D01*
X35433124Y-39290280D01*
X35300000Y-39269195D01*
X35166875Y-39290280D01*
X35046778Y-39351472D01*
X34951472Y-39446778D01*
X34890280Y-39566875D01*
X34869195Y-39700000D01*
X33608886Y-39700000D01*
X33575376Y-39626625D01*
X33481129Y-39517858D01*
X33481128Y-39517857D01*
X33360053Y-39440047D01*
X33221961Y-39399500D01*
X33078039Y-39399500D01*
X32939947Y-39440047D01*
X32818870Y-39517858D01*
X32724623Y-39626625D01*
X32664834Y-39757542D01*
X32651393Y-39851030D01*
X32622368Y-39914585D01*
X32563589Y-39952359D01*
X32493720Y-39952359D01*
X32453168Y-39931757D01*
X32395233Y-39887302D01*
X32264441Y-39833126D01*
X32255236Y-39829313D01*
X32255235Y-39829312D01*
X32240154Y-39823066D01*
X32240585Y-39822024D01*
X32193937Y-39801386D01*
X32155468Y-39743060D01*
X32154639Y-39673195D01*
X32191713Y-39613973D01*
X32210776Y-39600972D01*
X32308527Y-39503221D01*
X32308528Y-39503220D01*
X32369719Y-39383126D01*
X32390804Y-39250000D01*
X32369719Y-39116874D01*
X32308528Y-38996780D01*
X32308527Y-38996778D01*
X32213221Y-38901472D01*
X32093124Y-38840280D01*
X31959999Y-38819195D01*
X31826875Y-38840280D01*
X31706778Y-38901472D01*
X31611472Y-38996778D01*
X31560485Y-39096847D01*
X31512510Y-39147643D01*
X31444689Y-39164438D01*
X31378554Y-39141901D01*
X31339515Y-39096847D01*
X31288527Y-38996778D01*
X31193221Y-38901472D01*
X31073124Y-38840280D01*
X30940000Y-38819195D01*
X30806875Y-38840280D01*
X30686778Y-38901472D01*
X30591472Y-38996778D01*
X30530280Y-39116875D01*
X30509195Y-39250000D01*
X27000500Y-39250000D01*
X27000500Y-38400000D01*
X39069195Y-38400000D01*
X39090280Y-38533124D01*
X39151472Y-38653221D01*
X39221446Y-38723195D01*
X39254931Y-38784518D01*
X39249947Y-38854210D01*
X39221446Y-38898557D01*
X39173721Y-38946281D01*
X39112529Y-39066378D01*
X39091444Y-39199503D01*
X39112529Y-39332627D01*
X39173721Y-39452724D01*
X39269027Y-39548030D01*
X39269029Y-39548031D01*
X39389123Y-39609222D01*
X39419120Y-39613973D01*
X39522248Y-39630307D01*
X39522248Y-39630306D01*
X39522249Y-39630307D01*
X39578858Y-39621341D01*
X39674773Y-39606150D01*
X39675359Y-39609855D01*
X39710377Y-39603270D01*
X39775124Y-39629530D01*
X39815395Y-39686627D01*
X39818405Y-39756431D01*
X39808518Y-39782948D01*
X39740280Y-39916873D01*
X39719195Y-40050000D01*
X39740280Y-40183124D01*
X39801472Y-40303221D01*
X39896778Y-40398527D01*
X39896780Y-40398528D01*
X40016874Y-40459719D01*
X40076703Y-40469195D01*
X40149999Y-40480804D01*
X40149999Y-40480803D01*
X40150000Y-40480804D01*
X40283126Y-40459719D01*
X40403220Y-40398528D01*
X40498528Y-40303220D01*
X40559719Y-40183126D01*
X40580804Y-40050000D01*
X40559719Y-39916874D01*
X40498528Y-39796780D01*
X40498527Y-39796778D01*
X40403221Y-39701472D01*
X40283124Y-39640280D01*
X40150000Y-39619195D01*
X39997476Y-39643353D01*
X39996888Y-39639646D01*
X39961833Y-39646228D01*
X39897094Y-39619948D01*
X39856841Y-39562839D01*
X39853853Y-39493033D01*
X39863730Y-39466553D01*
X39873806Y-39446778D01*
X39931968Y-39332629D01*
X39953053Y-39199503D01*
X39949429Y-39176625D01*
X39936794Y-39096847D01*
X39931968Y-39066377D01*
X39870777Y-38946283D01*
X39870776Y-38946281D01*
X39800803Y-38876308D01*
X39767318Y-38814985D01*
X39772302Y-38745293D01*
X39800803Y-38700946D01*
X39848527Y-38653221D01*
X39848528Y-38653220D01*
X39909719Y-38533126D01*
X39930804Y-38400000D01*
X39924079Y-38357543D01*
X39913771Y-38292457D01*
X39909719Y-38266874D01*
X39902184Y-38252087D01*
X39889289Y-38183419D01*
X39915565Y-38118678D01*
X39972672Y-38078421D01*
X40042477Y-38075429D01*
X40068964Y-38085307D01*
X40116874Y-38109719D01*
X40250000Y-38130804D01*
X40383126Y-38109719D01*
X40503220Y-38048528D01*
X40598528Y-37953220D01*
X40659719Y-37833126D01*
X40668139Y-37779964D01*
X41244353Y-37779964D01*
X41264834Y-37922422D01*
X41324623Y-38053339D01*
X41408380Y-38150000D01*
X41418872Y-38162108D01*
X41539947Y-38239918D01*
X41678039Y-38280465D01*
X41821961Y-38280465D01*
X41925716Y-38250000D01*
X43394353Y-38250000D01*
X43414834Y-38392457D01*
X43474623Y-38523374D01*
X43549644Y-38609953D01*
X43568872Y-38632143D01*
X43689947Y-38709953D01*
X43828039Y-38750500D01*
X43971961Y-38750500D01*
X44110053Y-38709953D01*
X44231128Y-38632143D01*
X44325377Y-38523373D01*
X44336051Y-38500000D01*
X46244353Y-38500000D01*
X46264834Y-38642457D01*
X46324623Y-38773374D01*
X46418872Y-38882144D01*
X46498195Y-38933122D01*
X46543950Y-38985925D01*
X46553894Y-39055084D01*
X46524869Y-39118639D01*
X46474623Y-39176625D01*
X46414834Y-39307542D01*
X46394353Y-39449999D01*
X46414834Y-39592457D01*
X46474623Y-39723374D01*
X46561567Y-39823713D01*
X46568872Y-39832143D01*
X46689947Y-39909953D01*
X46828039Y-39950500D01*
X46971961Y-39950500D01*
X47110053Y-39909953D01*
X47231128Y-39832143D01*
X47325377Y-39723373D01*
X47385165Y-39592457D01*
X47405647Y-39450000D01*
X47385165Y-39307543D01*
X47377281Y-39290280D01*
X47325376Y-39176625D01*
X47231129Y-39067858D01*
X47231128Y-39067857D01*
X47151803Y-39016878D01*
X47106049Y-38964075D01*
X47096105Y-38894917D01*
X47125129Y-38831362D01*
X47175377Y-38773373D01*
X47235165Y-38642457D01*
X47255647Y-38500000D01*
X47235165Y-38357543D01*
X47175377Y-38226627D01*
X47175376Y-38226626D01*
X47175376Y-38226625D01*
X47108979Y-38149999D01*
X51244353Y-38149999D01*
X51264834Y-38292457D01*
X51324623Y-38423374D01*
X51418870Y-38532141D01*
X51418872Y-38532143D01*
X51539947Y-38609953D01*
X51678039Y-38650500D01*
X51821961Y-38650500D01*
X51960053Y-38609953D01*
X52081128Y-38532143D01*
X52175377Y-38423373D01*
X52235165Y-38292457D01*
X52255647Y-38150000D01*
X52235165Y-38007543D01*
X52227281Y-37990280D01*
X52175376Y-37876625D01*
X52081129Y-37767858D01*
X52081128Y-37767857D01*
X51960053Y-37690047D01*
X51821961Y-37649500D01*
X51678039Y-37649500D01*
X51539947Y-37690047D01*
X51418870Y-37767858D01*
X51324623Y-37876625D01*
X51264834Y-38007542D01*
X51244353Y-38149999D01*
X47108979Y-38149999D01*
X47081129Y-38117858D01*
X47081128Y-38117857D01*
X46960053Y-38040047D01*
X46821961Y-37999500D01*
X46678039Y-37999500D01*
X46539947Y-38040047D01*
X46418870Y-38117858D01*
X46324623Y-38226625D01*
X46264834Y-38357542D01*
X46244353Y-38500000D01*
X44336051Y-38500000D01*
X44385165Y-38392457D01*
X44405647Y-38250000D01*
X44385165Y-38107543D01*
X44381765Y-38100099D01*
X44325376Y-37976625D01*
X44231129Y-37867858D01*
X44231128Y-37867857D01*
X44110053Y-37790047D01*
X43971961Y-37749500D01*
X43828039Y-37749500D01*
X43689947Y-37790047D01*
X43568870Y-37867858D01*
X43474623Y-37976625D01*
X43414834Y-38107542D01*
X43394353Y-38250000D01*
X41925716Y-38250000D01*
X41960053Y-38239918D01*
X42081128Y-38162108D01*
X42175377Y-38053338D01*
X42203459Y-37991847D01*
X42249211Y-37939047D01*
X42316250Y-37919362D01*
X42383290Y-37939046D01*
X42403932Y-37955681D01*
X42496778Y-38048527D01*
X42496780Y-38048528D01*
X42616874Y-38109719D01*
X42750000Y-38130804D01*
X42883126Y-38109719D01*
X43003220Y-38048528D01*
X43098528Y-37953220D01*
X43159719Y-37833126D01*
X43180804Y-37700000D01*
X43159719Y-37566874D01*
X43098528Y-37446780D01*
X43098527Y-37446778D01*
X43003221Y-37351472D01*
X42883124Y-37290280D01*
X42750000Y-37269195D01*
X42616875Y-37290280D01*
X42496778Y-37351472D01*
X42401471Y-37446779D01*
X42382163Y-37484673D01*
X42334188Y-37535469D01*
X42266367Y-37552263D01*
X42200232Y-37529725D01*
X42177966Y-37509579D01*
X42081130Y-37397823D01*
X42017237Y-37356762D01*
X41960053Y-37320012D01*
X41821961Y-37279465D01*
X41678039Y-37279465D01*
X41539947Y-37320012D01*
X41418870Y-37397823D01*
X41324623Y-37506590D01*
X41264834Y-37637507D01*
X41244353Y-37779964D01*
X40668139Y-37779964D01*
X40680804Y-37700000D01*
X40659719Y-37566874D01*
X40598528Y-37446780D01*
X40598527Y-37446778D01*
X40503221Y-37351472D01*
X40383124Y-37290280D01*
X40249999Y-37269195D01*
X40116875Y-37290280D01*
X39996778Y-37351472D01*
X39901472Y-37446778D01*
X39840280Y-37566875D01*
X39819195Y-37700000D01*
X39840280Y-37833125D01*
X39847815Y-37847913D01*
X39860710Y-37916582D01*
X39834433Y-37981322D01*
X39777326Y-38021578D01*
X39707520Y-38024570D01*
X39681035Y-38014691D01*
X39633126Y-37990280D01*
X39500000Y-37969195D01*
X39366875Y-37990280D01*
X39246778Y-38051472D01*
X39151472Y-38146778D01*
X39090280Y-38266875D01*
X39069195Y-38400000D01*
X27000500Y-38400000D01*
X27000500Y-36799999D01*
X38644353Y-36799999D01*
X38664834Y-36942457D01*
X38724623Y-37073374D01*
X38795420Y-37155078D01*
X38818872Y-37182143D01*
X38939947Y-37259953D01*
X39078039Y-37300500D01*
X39221961Y-37300500D01*
X39360053Y-37259953D01*
X39453342Y-37200000D01*
X48494317Y-37200000D01*
X48514956Y-37356762D01*
X48575463Y-37502840D01*
X48671717Y-37628282D01*
X48744829Y-37684382D01*
X48797159Y-37724536D01*
X48943238Y-37785044D01*
X49100000Y-37805682D01*
X49256762Y-37785044D01*
X49402841Y-37724536D01*
X49528282Y-37628282D01*
X49624536Y-37502841D01*
X49635861Y-37475499D01*
X52419195Y-37475499D01*
X52440280Y-37608624D01*
X52501472Y-37728721D01*
X52596778Y-37824027D01*
X52596780Y-37824028D01*
X52716874Y-37885219D01*
X52783437Y-37895761D01*
X52849999Y-37906304D01*
X52849999Y-37906303D01*
X52850000Y-37906304D01*
X52983126Y-37885219D01*
X53103220Y-37824028D01*
X53103219Y-37824028D01*
X53120719Y-37815112D01*
X53120944Y-37815554D01*
X53161878Y-37793198D01*
X53231570Y-37798176D01*
X53256105Y-37813942D01*
X53270550Y-37821302D01*
X53270551Y-37821303D01*
X53390645Y-37882494D01*
X53523771Y-37903579D01*
X53656897Y-37882494D01*
X53776991Y-37821303D01*
X53872299Y-37725995D01*
X53933490Y-37605901D01*
X53954575Y-37472775D01*
X53933490Y-37339649D01*
X53872299Y-37219555D01*
X53872298Y-37219553D01*
X53776992Y-37124247D01*
X53656895Y-37063055D01*
X53523771Y-37041970D01*
X53390646Y-37063055D01*
X53253052Y-37133163D01*
X53252826Y-37132720D01*
X53211881Y-37155078D01*
X53142189Y-37150094D01*
X53117657Y-37134328D01*
X52983124Y-37065780D01*
X52850000Y-37044695D01*
X52716875Y-37065780D01*
X52596778Y-37126972D01*
X52501472Y-37222278D01*
X52440280Y-37342375D01*
X52419195Y-37475499D01*
X49635861Y-37475499D01*
X49685044Y-37356762D01*
X49705682Y-37200000D01*
X49685044Y-37043238D01*
X49624536Y-36897159D01*
X49579237Y-36838124D01*
X49528282Y-36771717D01*
X49402840Y-36675463D01*
X49256762Y-36614956D01*
X49100000Y-36594317D01*
X48943237Y-36614956D01*
X48797159Y-36675463D01*
X48671717Y-36771717D01*
X48575463Y-36897159D01*
X48514956Y-37043237D01*
X48494317Y-37200000D01*
X39453342Y-37200000D01*
X39481128Y-37182143D01*
X39575377Y-37073373D01*
X39635165Y-36942457D01*
X39655647Y-36800000D01*
X39635165Y-36657543D01*
X39628275Y-36642457D01*
X39575376Y-36526625D01*
X39552305Y-36500000D01*
X51544353Y-36500000D01*
X51564834Y-36642457D01*
X51624623Y-36773374D01*
X51688097Y-36846627D01*
X51718872Y-36882143D01*
X51839947Y-36959953D01*
X51978039Y-37000500D01*
X52121961Y-37000500D01*
X52260053Y-36959953D01*
X52381128Y-36882143D01*
X52475377Y-36773373D01*
X52535165Y-36642457D01*
X52555647Y-36500000D01*
X54344353Y-36500000D01*
X54364834Y-36642457D01*
X54424623Y-36773374D01*
X54488097Y-36846627D01*
X54518872Y-36882143D01*
X54639947Y-36959953D01*
X54778039Y-37000500D01*
X54921961Y-37000500D01*
X55060053Y-36959953D01*
X55181128Y-36882143D01*
X55275377Y-36773373D01*
X55306603Y-36704999D01*
X55681695Y-36704999D01*
X55702780Y-36838124D01*
X55763972Y-36958221D01*
X55859278Y-37053527D01*
X55859280Y-37053528D01*
X55979374Y-37114719D01*
X56039532Y-37124247D01*
X56112499Y-37135804D01*
X56112499Y-37135803D01*
X56112500Y-37135804D01*
X56245626Y-37114719D01*
X56365720Y-37053528D01*
X56461028Y-36958220D01*
X56522219Y-36838126D01*
X56543304Y-36705000D01*
X56522219Y-36571874D01*
X56461028Y-36451780D01*
X56461027Y-36451778D01*
X56365721Y-36356472D01*
X56245624Y-36295280D01*
X56112499Y-36274195D01*
X55979375Y-36295280D01*
X55859278Y-36356472D01*
X55763972Y-36451778D01*
X55702780Y-36571875D01*
X55681695Y-36704999D01*
X55306603Y-36704999D01*
X55335165Y-36642457D01*
X55355647Y-36500000D01*
X55335165Y-36357543D01*
X55308657Y-36299500D01*
X55275376Y-36226625D01*
X55181129Y-36117858D01*
X55181128Y-36117857D01*
X55060053Y-36040047D01*
X54923664Y-36000000D01*
X57844353Y-36000000D01*
X57864834Y-36142457D01*
X57924623Y-36273374D01*
X57996628Y-36356472D01*
X58018872Y-36382143D01*
X58139947Y-36459953D01*
X58278039Y-36500500D01*
X58315901Y-36500500D01*
X58382940Y-36520185D01*
X58428695Y-36572989D01*
X58438639Y-36642147D01*
X58409614Y-36705703D01*
X58382940Y-36728816D01*
X58368869Y-36737858D01*
X58274623Y-36846625D01*
X58214834Y-36977542D01*
X58194353Y-37120000D01*
X58214834Y-37262457D01*
X58274623Y-37393374D01*
X58380547Y-37515618D01*
X58378003Y-37517821D01*
X58404577Y-37548490D01*
X58414520Y-37617649D01*
X58385494Y-37681204D01*
X58376692Y-37688830D01*
X58274623Y-37806625D01*
X58214834Y-37937542D01*
X58194353Y-38080000D01*
X58214834Y-38222457D01*
X58274623Y-38353374D01*
X58368870Y-38462141D01*
X58368872Y-38462143D01*
X58489947Y-38539953D01*
X58628039Y-38580500D01*
X58771961Y-38580500D01*
X58910053Y-38539953D01*
X59031128Y-38462143D01*
X59125377Y-38353373D01*
X59185165Y-38222457D01*
X59188188Y-38201430D01*
X59217212Y-38137875D01*
X59275990Y-38100100D01*
X59345859Y-38100099D01*
X59404638Y-38137873D01*
X59433399Y-38199678D01*
X59440280Y-38243124D01*
X59501472Y-38363221D01*
X59596778Y-38458527D01*
X59596780Y-38458528D01*
X59716874Y-38519719D01*
X59783436Y-38530261D01*
X59849999Y-38540804D01*
X59849999Y-38540803D01*
X59850000Y-38540804D01*
X59983126Y-38519719D01*
X60103220Y-38458528D01*
X60198528Y-38363220D01*
X60259719Y-38243126D01*
X60280804Y-38110000D01*
X60280759Y-38109719D01*
X60264576Y-38007542D01*
X60259719Y-37976874D01*
X60198528Y-37856780D01*
X60198527Y-37856778D01*
X60103221Y-37761472D01*
X59983124Y-37700280D01*
X59850000Y-37679195D01*
X59716875Y-37700280D01*
X59596778Y-37761472D01*
X59501472Y-37856778D01*
X59440280Y-37976875D01*
X59437921Y-37991772D01*
X59407991Y-38054906D01*
X59348680Y-38091837D01*
X59278817Y-38090839D01*
X59220585Y-38052229D01*
X59192710Y-37990020D01*
X59185165Y-37937542D01*
X59125376Y-37806625D01*
X59019453Y-37684382D01*
X59021996Y-37682178D01*
X58995427Y-37651520D01*
X58985478Y-37582362D01*
X59014498Y-37518804D01*
X59023305Y-37511172D01*
X59125376Y-37393374D01*
X59125375Y-37393374D01*
X59125377Y-37393373D01*
X59185165Y-37262457D01*
X59205647Y-37120000D01*
X59185165Y-36977543D01*
X59177131Y-36959952D01*
X59125376Y-36846625D01*
X59031129Y-36737858D01*
X59031128Y-36737857D01*
X58910053Y-36660047D01*
X58771961Y-36619500D01*
X58734099Y-36619500D01*
X58667060Y-36599815D01*
X58621305Y-36547011D01*
X58611361Y-36477853D01*
X58640386Y-36414297D01*
X58667060Y-36391184D01*
X58668250Y-36390419D01*
X58681128Y-36382143D01*
X58775377Y-36273373D01*
X58835165Y-36142457D01*
X58855647Y-36000000D01*
X58835165Y-35857543D01*
X58827281Y-35840280D01*
X58775376Y-35726625D01*
X58681129Y-35617858D01*
X58681128Y-35617857D01*
X58560053Y-35540047D01*
X58421961Y-35499500D01*
X58278039Y-35499500D01*
X58139947Y-35540047D01*
X58018870Y-35617858D01*
X57924623Y-35726625D01*
X57864834Y-35857542D01*
X57844353Y-36000000D01*
X54923664Y-36000000D01*
X54921961Y-35999500D01*
X54778039Y-35999500D01*
X54639947Y-36040047D01*
X54518870Y-36117858D01*
X54424623Y-36226625D01*
X54364834Y-36357542D01*
X54344353Y-36500000D01*
X52555647Y-36500000D01*
X52535165Y-36357543D01*
X52508657Y-36299500D01*
X52475376Y-36226625D01*
X52381129Y-36117858D01*
X52381128Y-36117857D01*
X52260053Y-36040047D01*
X52121961Y-35999500D01*
X51978039Y-35999500D01*
X51839947Y-36040047D01*
X51718870Y-36117858D01*
X51624623Y-36226625D01*
X51564834Y-36357542D01*
X51544353Y-36500000D01*
X39552305Y-36500000D01*
X39481129Y-36417858D01*
X39481128Y-36417857D01*
X39360053Y-36340047D01*
X39221961Y-36299500D01*
X39078039Y-36299500D01*
X38939947Y-36340047D01*
X38818870Y-36417858D01*
X38724623Y-36526625D01*
X38664834Y-36657542D01*
X38644353Y-36799999D01*
X27000500Y-36799999D01*
X27000500Y-36250000D01*
X30519195Y-36250000D01*
X30540280Y-36383124D01*
X30601472Y-36503221D01*
X30696778Y-36598527D01*
X30696780Y-36598528D01*
X30816874Y-36659719D01*
X30883436Y-36670261D01*
X30949999Y-36680804D01*
X30949999Y-36680803D01*
X30950000Y-36680804D01*
X31083126Y-36659719D01*
X31203220Y-36598528D01*
X31298528Y-36503220D01*
X31344515Y-36412964D01*
X31392487Y-36362170D01*
X31460308Y-36345374D01*
X31526443Y-36367911D01*
X31565484Y-36412965D01*
X31611472Y-36503221D01*
X31706778Y-36598527D01*
X31706780Y-36598528D01*
X31826874Y-36659719D01*
X31960000Y-36680804D01*
X32093126Y-36659719D01*
X32213220Y-36598528D01*
X32308528Y-36503220D01*
X32369719Y-36383126D01*
X32390804Y-36250000D01*
X32369719Y-36116874D01*
X32308528Y-35996780D01*
X32308527Y-35996778D01*
X32213221Y-35901472D01*
X32093124Y-35840280D01*
X31959999Y-35819195D01*
X31826875Y-35840280D01*
X31706778Y-35901472D01*
X31611471Y-35996779D01*
X31565483Y-36087035D01*
X31517509Y-36137830D01*
X31449687Y-36154625D01*
X31383553Y-36132087D01*
X31344514Y-36087033D01*
X31298528Y-35996779D01*
X31203221Y-35901472D01*
X31083124Y-35840280D01*
X30950000Y-35819195D01*
X30816875Y-35840280D01*
X30696778Y-35901472D01*
X30601472Y-35996778D01*
X30540280Y-36116875D01*
X30519195Y-36250000D01*
X27000500Y-36250000D01*
X27000500Y-33265055D01*
X27324500Y-33265055D01*
X27365209Y-33430224D01*
X27392458Y-33482141D01*
X27444266Y-33580852D01*
X27461230Y-33600000D01*
X27557072Y-33708184D01*
X27573026Y-33719196D01*
X27697070Y-33804818D01*
X27856128Y-33865140D01*
X27982628Y-33880500D01*
X27986377Y-33880500D01*
X28863623Y-33880500D01*
X28867372Y-33880500D01*
X28993872Y-33865140D01*
X29152930Y-33804818D01*
X29292929Y-33708183D01*
X29405734Y-33580852D01*
X29484790Y-33430225D01*
X29525500Y-33265056D01*
X29525500Y-33265055D01*
X31354500Y-33265055D01*
X31395209Y-33430224D01*
X31422458Y-33482141D01*
X31474266Y-33580852D01*
X31491230Y-33600000D01*
X31587072Y-33708184D01*
X31727069Y-33804818D01*
X31861750Y-33855895D01*
X31917453Y-33898073D01*
X31941510Y-33963670D01*
X31926283Y-34031860D01*
X31876608Y-34080994D01*
X31865233Y-34086398D01*
X31814767Y-34107301D01*
X31694549Y-34199549D01*
X31602301Y-34319768D01*
X31544312Y-34459764D01*
X31524533Y-34609999D01*
X31544312Y-34760235D01*
X31597827Y-34889429D01*
X31602302Y-34900233D01*
X31694549Y-35020451D01*
X31814767Y-35112698D01*
X31954764Y-35170687D01*
X32067280Y-35185500D01*
X32071333Y-35185500D01*
X32138667Y-35185500D01*
X32142720Y-35185500D01*
X32255236Y-35170687D01*
X32395233Y-35112698D01*
X32453170Y-35068240D01*
X32518336Y-35043047D01*
X32586781Y-35057085D01*
X32636772Y-35105898D01*
X32651393Y-35148970D01*
X32664834Y-35242457D01*
X32724623Y-35373374D01*
X32747695Y-35400000D01*
X32818872Y-35482143D01*
X32939947Y-35559953D01*
X33078039Y-35600500D01*
X33221961Y-35600500D01*
X33360053Y-35559953D01*
X33481128Y-35482143D01*
X33575377Y-35373373D01*
X33635165Y-35242457D01*
X33655647Y-35100000D01*
X33635165Y-34957543D01*
X33592316Y-34863719D01*
X33582373Y-34794563D01*
X33602724Y-34750000D01*
X37094353Y-34750000D01*
X37114834Y-34892457D01*
X37174623Y-35023374D01*
X37252023Y-35112698D01*
X37268872Y-35132143D01*
X37389947Y-35209953D01*
X37528039Y-35250500D01*
X37671961Y-35250500D01*
X37808112Y-35210523D01*
X41458672Y-35210523D01*
X41479757Y-35343647D01*
X41540949Y-35463744D01*
X41636255Y-35559050D01*
X41636257Y-35559051D01*
X41756351Y-35620242D01*
X41889477Y-35641327D01*
X42022603Y-35620242D01*
X42142697Y-35559051D01*
X42161656Y-35540091D01*
X42222977Y-35506607D01*
X42292669Y-35511591D01*
X42348603Y-35553461D01*
X42359822Y-35571478D01*
X42401472Y-35653221D01*
X42496778Y-35748527D01*
X42496780Y-35748528D01*
X42616874Y-35809719D01*
X42750000Y-35830804D01*
X42883126Y-35809719D01*
X43003220Y-35748528D01*
X43098528Y-35653220D01*
X43159719Y-35533126D01*
X43172884Y-35449999D01*
X55669195Y-35449999D01*
X55690280Y-35583124D01*
X55751472Y-35703221D01*
X55846778Y-35798527D01*
X55846780Y-35798528D01*
X55966874Y-35859719D01*
X56100000Y-35880804D01*
X56233126Y-35859719D01*
X56353220Y-35798528D01*
X56448528Y-35703220D01*
X56509719Y-35583126D01*
X56530804Y-35450000D01*
X56509719Y-35316874D01*
X56448528Y-35196780D01*
X56448527Y-35196778D01*
X56353221Y-35101472D01*
X56233124Y-35040280D01*
X56100000Y-35019195D01*
X55966875Y-35040280D01*
X55846778Y-35101472D01*
X55751472Y-35196778D01*
X55690280Y-35316875D01*
X55669195Y-35449999D01*
X43172884Y-35449999D01*
X43173598Y-35445492D01*
X43203528Y-35382357D01*
X43262839Y-35345425D01*
X43315470Y-35342416D01*
X43400000Y-35355804D01*
X43533126Y-35334719D01*
X43653220Y-35273528D01*
X43748528Y-35178220D01*
X43809719Y-35058126D01*
X43830804Y-34925000D01*
X43809719Y-34791874D01*
X43748528Y-34671780D01*
X43748527Y-34671778D01*
X43653221Y-34576472D01*
X43601266Y-34550000D01*
X44743695Y-34550000D01*
X44764780Y-34683124D01*
X44825972Y-34803221D01*
X44921278Y-34898527D01*
X44921280Y-34898528D01*
X45041374Y-34959719D01*
X45174500Y-34980804D01*
X45307626Y-34959719D01*
X45427720Y-34898528D01*
X45462526Y-34863722D01*
X45499569Y-34826680D01*
X45560892Y-34793195D01*
X45630584Y-34798179D01*
X45674931Y-34826680D01*
X45746778Y-34898527D01*
X45746780Y-34898528D01*
X45866874Y-34959719D01*
X46000000Y-34980804D01*
X46133126Y-34959719D01*
X46253220Y-34898528D01*
X46262316Y-34889431D01*
X46323636Y-34855945D01*
X46393328Y-34860926D01*
X46437680Y-34889429D01*
X46546778Y-34998527D01*
X46546780Y-34998528D01*
X46666874Y-35059719D01*
X46800000Y-35080804D01*
X46933126Y-35059719D01*
X47053220Y-34998528D01*
X47105462Y-34946285D01*
X47166783Y-34912802D01*
X47236475Y-34917786D01*
X47292409Y-34959657D01*
X47305936Y-34982455D01*
X47324624Y-35023375D01*
X47402023Y-35112698D01*
X47418872Y-35132143D01*
X47539947Y-35209953D01*
X47678039Y-35250500D01*
X47821961Y-35250500D01*
X47960053Y-35209953D01*
X48081128Y-35132143D01*
X48175377Y-35023373D01*
X48235165Y-34892457D01*
X48255647Y-34750000D01*
X48235165Y-34607543D01*
X48220975Y-34576472D01*
X48175376Y-34476625D01*
X48081129Y-34367858D01*
X48081128Y-34367857D01*
X47960053Y-34290047D01*
X47821961Y-34249500D01*
X47737418Y-34249500D01*
X47670379Y-34229815D01*
X47624624Y-34177011D01*
X47620740Y-34150000D01*
X55669195Y-34150000D01*
X55690280Y-34283124D01*
X55751472Y-34403221D01*
X55846778Y-34498527D01*
X55846780Y-34498528D01*
X55966874Y-34559719D01*
X56100000Y-34580804D01*
X56233126Y-34559719D01*
X56353220Y-34498528D01*
X56448528Y-34403220D01*
X56509719Y-34283126D01*
X56530804Y-34150000D01*
X56509719Y-34016874D01*
X56448528Y-33896780D01*
X56448527Y-33896778D01*
X56353221Y-33801472D01*
X56233124Y-33740280D01*
X56099999Y-33719195D01*
X55966875Y-33740280D01*
X55846778Y-33801472D01*
X55751472Y-33896778D01*
X55690280Y-34016875D01*
X55669195Y-34150000D01*
X47620740Y-34150000D01*
X47614680Y-34107853D01*
X47643705Y-34044297D01*
X47670379Y-34021184D01*
X47718465Y-33990281D01*
X47731128Y-33982143D01*
X47742348Y-33969195D01*
X47825376Y-33873374D01*
X47825375Y-33873374D01*
X47825377Y-33873373D01*
X47885165Y-33742457D01*
X47905647Y-33600000D01*
X47885165Y-33457543D01*
X47863324Y-33409719D01*
X47825376Y-33326625D01*
X47731129Y-33217858D01*
X47731128Y-33217857D01*
X47610053Y-33140047D01*
X47471961Y-33099500D01*
X47328039Y-33099500D01*
X47189947Y-33140047D01*
X47068870Y-33217858D01*
X46974623Y-33326625D01*
X46914834Y-33457542D01*
X46894353Y-33600000D01*
X46914834Y-33742457D01*
X46974623Y-33873374D01*
X47057653Y-33969196D01*
X47068872Y-33982143D01*
X47189947Y-34059953D01*
X47328039Y-34100500D01*
X47412582Y-34100500D01*
X47479621Y-34120185D01*
X47525376Y-34172989D01*
X47535320Y-34242147D01*
X47506295Y-34305703D01*
X47479621Y-34328816D01*
X47418871Y-34367856D01*
X47359947Y-34435860D01*
X47301169Y-34473634D01*
X47231299Y-34473634D01*
X47172521Y-34435860D01*
X47155749Y-34410951D01*
X47148528Y-34396779D01*
X47053221Y-34301472D01*
X46933124Y-34240280D01*
X46799999Y-34219195D01*
X46666875Y-34240280D01*
X46546778Y-34301472D01*
X46537681Y-34310570D01*
X46476358Y-34344055D01*
X46406666Y-34339071D01*
X46362319Y-34310570D01*
X46253221Y-34201472D01*
X46133124Y-34140280D01*
X46000000Y-34119195D01*
X45866875Y-34140280D01*
X45746778Y-34201472D01*
X45674931Y-34273320D01*
X45613608Y-34306805D01*
X45543916Y-34301821D01*
X45499569Y-34273320D01*
X45427721Y-34201472D01*
X45307624Y-34140280D01*
X45174500Y-34119195D01*
X45041375Y-34140280D01*
X44921278Y-34201472D01*
X44825972Y-34296778D01*
X44764780Y-34416875D01*
X44743695Y-34550000D01*
X43601266Y-34550000D01*
X43533124Y-34515280D01*
X43382021Y-34491347D01*
X43318887Y-34461417D01*
X43281956Y-34402106D01*
X43278947Y-34388272D01*
X43259719Y-34266875D01*
X43259719Y-34266874D01*
X43198528Y-34146780D01*
X43198527Y-34146778D01*
X43103221Y-34051472D01*
X42983124Y-33990280D01*
X42850000Y-33969195D01*
X42716875Y-33990280D01*
X42596778Y-34051472D01*
X42501472Y-34146778D01*
X42440280Y-34266875D01*
X42419195Y-34399999D01*
X42440280Y-34533124D01*
X42501472Y-34653221D01*
X42596778Y-34748527D01*
X42627220Y-34764038D01*
X42678016Y-34812011D01*
X42694812Y-34879832D01*
X42672275Y-34945967D01*
X42627221Y-34985008D01*
X42496779Y-35051471D01*
X42477819Y-35070432D01*
X42416495Y-35103916D01*
X42346804Y-35098930D01*
X42290871Y-35057058D01*
X42279654Y-35039044D01*
X42270180Y-35020451D01*
X42238005Y-34957303D01*
X42238004Y-34957301D01*
X42142698Y-34861995D01*
X42022601Y-34800803D01*
X41889477Y-34779718D01*
X41756352Y-34800803D01*
X41636255Y-34861995D01*
X41540949Y-34957301D01*
X41479757Y-35077398D01*
X41458672Y-35210523D01*
X37808112Y-35210523D01*
X37810053Y-35209953D01*
X37931128Y-35132143D01*
X38025377Y-35023373D01*
X38085165Y-34892457D01*
X38105647Y-34750000D01*
X38091269Y-34650000D01*
X39648115Y-34650000D01*
X39669200Y-34783124D01*
X39730392Y-34903221D01*
X39825698Y-34998527D01*
X39825700Y-34998528D01*
X39945794Y-35059719D01*
X40012357Y-35070261D01*
X40078919Y-35080804D01*
X40078919Y-35080803D01*
X40078920Y-35080804D01*
X40212046Y-35059719D01*
X40332140Y-34998528D01*
X40427448Y-34903220D01*
X40488639Y-34783126D01*
X40509724Y-34650000D01*
X40488639Y-34516874D01*
X40427448Y-34396780D01*
X40427447Y-34396778D01*
X40332141Y-34301472D01*
X40212044Y-34240280D01*
X40078919Y-34219195D01*
X39945795Y-34240280D01*
X39825698Y-34301472D01*
X39730392Y-34396778D01*
X39669200Y-34516875D01*
X39648115Y-34650000D01*
X38091269Y-34650000D01*
X38085165Y-34607543D01*
X38070975Y-34576472D01*
X38025376Y-34476625D01*
X37931129Y-34367858D01*
X37931128Y-34367857D01*
X37810053Y-34290047D01*
X37671961Y-34249500D01*
X37528039Y-34249500D01*
X37389947Y-34290047D01*
X37268870Y-34367858D01*
X37174623Y-34476625D01*
X37114834Y-34607542D01*
X37094353Y-34750000D01*
X33602724Y-34750000D01*
X33611397Y-34731007D01*
X33648817Y-34701724D01*
X33753220Y-34648528D01*
X33848527Y-34553221D01*
X33848528Y-34553220D01*
X33909719Y-34433126D01*
X33930804Y-34300000D01*
X33909719Y-34166874D01*
X33848528Y-34046780D01*
X33848527Y-34046778D01*
X33753221Y-33951472D01*
X33657741Y-33902823D01*
X33606945Y-33854849D01*
X33590150Y-33787028D01*
X33612687Y-33720893D01*
X33621220Y-33710111D01*
X33622926Y-33708184D01*
X33622929Y-33708183D01*
X33735734Y-33580852D01*
X33814790Y-33430225D01*
X33855500Y-33265056D01*
X33855500Y-33094944D01*
X33814790Y-32929775D01*
X33793914Y-32889999D01*
X34869195Y-32889999D01*
X34890280Y-33023124D01*
X34951472Y-33143221D01*
X35046778Y-33238527D01*
X35046780Y-33238528D01*
X35166874Y-33299719D01*
X35300000Y-33320804D01*
X35433126Y-33299719D01*
X35553220Y-33238528D01*
X35648528Y-33143220D01*
X35709719Y-33023126D01*
X35709719Y-33023125D01*
X35714515Y-33013713D01*
X35762489Y-32962916D01*
X35830310Y-32946121D01*
X35896445Y-32968658D01*
X35935485Y-33013713D01*
X36001471Y-33143220D01*
X36096778Y-33238527D01*
X36096780Y-33238528D01*
X36216874Y-33299719D01*
X36283436Y-33310261D01*
X36349999Y-33320804D01*
X36349999Y-33320803D01*
X36350000Y-33320804D01*
X36483126Y-33299719D01*
X36603220Y-33238528D01*
X36698528Y-33143220D01*
X36759719Y-33023126D01*
X36763382Y-32999999D01*
X39219195Y-32999999D01*
X39240280Y-33133124D01*
X39301472Y-33253221D01*
X39396778Y-33348527D01*
X39396780Y-33348528D01*
X39516874Y-33409719D01*
X39650000Y-33430804D01*
X39783126Y-33409719D01*
X39903220Y-33348528D01*
X39998528Y-33253220D01*
X40059719Y-33133126D01*
X40080804Y-33000000D01*
X40059719Y-32866874D01*
X39998528Y-32746780D01*
X39998527Y-32746779D01*
X39998526Y-32746777D01*
X39964429Y-32712679D01*
X39930945Y-32651356D01*
X39931042Y-32650000D01*
X46169195Y-32650000D01*
X46190280Y-32783124D01*
X46251472Y-32903221D01*
X46346778Y-32998527D01*
X46346780Y-32998528D01*
X46466874Y-33059719D01*
X46600000Y-33080804D01*
X46733126Y-33059719D01*
X46853220Y-32998528D01*
X46948528Y-32903220D01*
X47009719Y-32783126D01*
X47022179Y-32704454D01*
X48844695Y-32704454D01*
X48865780Y-32837579D01*
X48926972Y-32957676D01*
X49022278Y-33052982D01*
X49022280Y-33052983D01*
X49142374Y-33114174D01*
X49275500Y-33135259D01*
X49408626Y-33114174D01*
X49436444Y-33100000D01*
X51544353Y-33100000D01*
X51564834Y-33242457D01*
X51624623Y-33373374D01*
X51697555Y-33457542D01*
X51718872Y-33482143D01*
X51839947Y-33559953D01*
X51978039Y-33600500D01*
X52121961Y-33600500D01*
X52260053Y-33559953D01*
X52381128Y-33482143D01*
X52475377Y-33373373D01*
X52535165Y-33242457D01*
X52555647Y-33100000D01*
X54344353Y-33100000D01*
X54364834Y-33242457D01*
X54424623Y-33373374D01*
X54497555Y-33457542D01*
X54518872Y-33482143D01*
X54639947Y-33559953D01*
X54778039Y-33600500D01*
X54921961Y-33600500D01*
X55060053Y-33559953D01*
X55181128Y-33482143D01*
X55275377Y-33373373D01*
X55335165Y-33242457D01*
X55355647Y-33100000D01*
X55335165Y-32957543D01*
X55308885Y-32900000D01*
X55594353Y-32900000D01*
X55614834Y-33042457D01*
X55674623Y-33173374D01*
X55734484Y-33242457D01*
X55768872Y-33282143D01*
X55889947Y-33359953D01*
X56028039Y-33400500D01*
X56171961Y-33400500D01*
X56310053Y-33359953D01*
X56431128Y-33282143D01*
X56525377Y-33173373D01*
X56585165Y-33042457D01*
X56605647Y-32900000D01*
X56585165Y-32757543D01*
X56584859Y-32756874D01*
X56525376Y-32626625D01*
X56431129Y-32517858D01*
X56431128Y-32517857D01*
X56310053Y-32440047D01*
X56171961Y-32399500D01*
X56028039Y-32399500D01*
X55889947Y-32440047D01*
X55768870Y-32517858D01*
X55674623Y-32626625D01*
X55614834Y-32757542D01*
X55594353Y-32900000D01*
X55308885Y-32900000D01*
X55304318Y-32889999D01*
X55275376Y-32826625D01*
X55181128Y-32717856D01*
X55129628Y-32684760D01*
X55083872Y-32631957D01*
X55073928Y-32562798D01*
X55102952Y-32499242D01*
X55108971Y-32492776D01*
X55198528Y-32403220D01*
X55259719Y-32283126D01*
X55280804Y-32150000D01*
X55278131Y-32133126D01*
X55259719Y-32016875D01*
X55259719Y-32016874D01*
X55198528Y-31896780D01*
X55190764Y-31881542D01*
X55177868Y-31812872D01*
X55190765Y-31768951D01*
X55198526Y-31753718D01*
X55198528Y-31753717D01*
X55259719Y-31633623D01*
X55280804Y-31500497D01*
X55259719Y-31367371D01*
X55198528Y-31247277D01*
X55198527Y-31247275D01*
X55103221Y-31151969D01*
X54983124Y-31090777D01*
X54849999Y-31069692D01*
X54716875Y-31090777D01*
X54596778Y-31151969D01*
X54501472Y-31247275D01*
X54440280Y-31367372D01*
X54419195Y-31500497D01*
X54440280Y-31633621D01*
X54509235Y-31768953D01*
X54522131Y-31837623D01*
X54509235Y-31881542D01*
X54440280Y-32016873D01*
X54419195Y-32150000D01*
X54440280Y-32283124D01*
X54501472Y-32403221D01*
X54591014Y-32492763D01*
X54624499Y-32554086D01*
X54619515Y-32623778D01*
X54577643Y-32679711D01*
X54570372Y-32684760D01*
X54518870Y-32717858D01*
X54424623Y-32826625D01*
X54364834Y-32957542D01*
X54344353Y-33100000D01*
X52555647Y-33100000D01*
X52535165Y-32957543D01*
X52504318Y-32889999D01*
X52475376Y-32826625D01*
X52381129Y-32717858D01*
X52381128Y-32717857D01*
X52260053Y-32640047D01*
X52121961Y-32599500D01*
X51978039Y-32599500D01*
X51839947Y-32640047D01*
X51718870Y-32717858D01*
X51624623Y-32826625D01*
X51564834Y-32957542D01*
X51544353Y-33100000D01*
X49436444Y-33100000D01*
X49528720Y-33052983D01*
X49624028Y-32957675D01*
X49685219Y-32837581D01*
X49706304Y-32704455D01*
X49685219Y-32571329D01*
X49624028Y-32451235D01*
X49624027Y-32451233D01*
X49528721Y-32355927D01*
X49408624Y-32294735D01*
X49275500Y-32273650D01*
X49142375Y-32294735D01*
X49022278Y-32355927D01*
X48926972Y-32451233D01*
X48865780Y-32571330D01*
X48844695Y-32704454D01*
X47022179Y-32704454D01*
X47030804Y-32650000D01*
X47009719Y-32516874D01*
X46948528Y-32396780D01*
X46948527Y-32396778D01*
X46853221Y-32301472D01*
X46733124Y-32240280D01*
X46599999Y-32219195D01*
X46466875Y-32240280D01*
X46346778Y-32301472D01*
X46251472Y-32396778D01*
X46190280Y-32516875D01*
X46169195Y-32650000D01*
X39931042Y-32650000D01*
X39935930Y-32581664D01*
X39964431Y-32537317D01*
X39998527Y-32503221D01*
X39998528Y-32503220D01*
X40059719Y-32383126D01*
X40080804Y-32250000D01*
X40059719Y-32116874D01*
X39998528Y-31996780D01*
X39998527Y-31996778D01*
X39903221Y-31901472D01*
X39783124Y-31840280D01*
X39650000Y-31819195D01*
X39516875Y-31840280D01*
X39396778Y-31901472D01*
X39301472Y-31996778D01*
X39240280Y-32116875D01*
X39219195Y-32250000D01*
X39240280Y-32383124D01*
X39301472Y-32503221D01*
X39335569Y-32537317D01*
X39369055Y-32598640D01*
X39364071Y-32668331D01*
X39335571Y-32712679D01*
X39301473Y-32746777D01*
X39240280Y-32866875D01*
X39219195Y-32999999D01*
X36763382Y-32999999D01*
X36780804Y-32890000D01*
X36759719Y-32756874D01*
X36698528Y-32636780D01*
X36698527Y-32636778D01*
X36638109Y-32576360D01*
X36604624Y-32515037D01*
X36609608Y-32445345D01*
X36651480Y-32389412D01*
X36669487Y-32378199D01*
X36727720Y-32348528D01*
X36823028Y-32253220D01*
X36884219Y-32133126D01*
X36905304Y-32000000D01*
X36884219Y-31866874D01*
X36829238Y-31758968D01*
X41144693Y-31758968D01*
X41165778Y-31892093D01*
X41226970Y-32012190D01*
X41322276Y-32107496D01*
X41322278Y-32107497D01*
X41442372Y-32168688D01*
X41479295Y-32174536D01*
X41575497Y-32189773D01*
X41575497Y-32189772D01*
X41575498Y-32189773D01*
X41708624Y-32168688D01*
X41828718Y-32107497D01*
X41830439Y-32105775D01*
X41891759Y-32072290D01*
X41961451Y-32077272D01*
X41993607Y-32095079D01*
X42065183Y-32150000D01*
X42097159Y-32174536D01*
X42243238Y-32235044D01*
X42400000Y-32255682D01*
X42556762Y-32235044D01*
X42702841Y-32174536D01*
X42828282Y-32078282D01*
X42924536Y-31952841D01*
X42985044Y-31806762D01*
X43005682Y-31650000D01*
X43394317Y-31650000D01*
X43414956Y-31806762D01*
X43475463Y-31952840D01*
X43571717Y-32078282D01*
X43665183Y-32150000D01*
X43697159Y-32174536D01*
X43843238Y-32235044D01*
X44000000Y-32255682D01*
X44156762Y-32235044D01*
X44302841Y-32174536D01*
X44428282Y-32078282D01*
X44524536Y-31952841D01*
X44585044Y-31806762D01*
X44605682Y-31650000D01*
X44994317Y-31650000D01*
X45014956Y-31806762D01*
X45075463Y-31952840D01*
X45171717Y-32078282D01*
X45265183Y-32150000D01*
X45297159Y-32174536D01*
X45443238Y-32235044D01*
X45600000Y-32255682D01*
X45756762Y-32235044D01*
X45902841Y-32174536D01*
X46028282Y-32078282D01*
X46124536Y-31952841D01*
X46185044Y-31806762D01*
X46204350Y-31660115D01*
X48471403Y-31660115D01*
X48492488Y-31793240D01*
X48553680Y-31913337D01*
X48648986Y-32008643D01*
X48648988Y-32008644D01*
X48769082Y-32069835D01*
X48902208Y-32090920D01*
X49035334Y-32069835D01*
X49155428Y-32008644D01*
X49250736Y-31913336D01*
X49311927Y-31793242D01*
X49333012Y-31660116D01*
X49327584Y-31625843D01*
X49324494Y-31606332D01*
X49333449Y-31537039D01*
X49378445Y-31483587D01*
X49445196Y-31462947D01*
X49503262Y-31476449D01*
X49534319Y-31492274D01*
X49667445Y-31513359D01*
X49800571Y-31492274D01*
X49920665Y-31431083D01*
X50015973Y-31335775D01*
X50044392Y-31280000D01*
X50894353Y-31280000D01*
X50914834Y-31422457D01*
X50974623Y-31553374D01*
X51068870Y-31662141D01*
X51068872Y-31662143D01*
X51189947Y-31739953D01*
X51328039Y-31780500D01*
X51471961Y-31780500D01*
X51610053Y-31739953D01*
X51731128Y-31662143D01*
X51806638Y-31574999D01*
X51831287Y-31546553D01*
X51890064Y-31508778D01*
X51959934Y-31508778D01*
X52018712Y-31546552D01*
X52018713Y-31546553D01*
X52118870Y-31662141D01*
X52118872Y-31662143D01*
X52239947Y-31739953D01*
X52378039Y-31780500D01*
X52521961Y-31780500D01*
X52660053Y-31739953D01*
X52781128Y-31662143D01*
X52875377Y-31553373D01*
X52935165Y-31422457D01*
X52955647Y-31280000D01*
X52935165Y-31137543D01*
X52934615Y-31136339D01*
X52875376Y-31006625D01*
X52837952Y-30963435D01*
X55605759Y-30963435D01*
X55626844Y-31096560D01*
X55688036Y-31216657D01*
X55783342Y-31311963D01*
X55783344Y-31311964D01*
X55903438Y-31373155D01*
X56036564Y-31394240D01*
X56169690Y-31373155D01*
X56289784Y-31311964D01*
X56342664Y-31259084D01*
X56398980Y-31202769D01*
X56400589Y-31204378D01*
X56428483Y-31174836D01*
X56496302Y-31158033D01*
X56562440Y-31180563D01*
X56601372Y-31225487D01*
X56696778Y-31320893D01*
X56696780Y-31320894D01*
X56816874Y-31382085D01*
X56950000Y-31403170D01*
X57083126Y-31382085D01*
X57203220Y-31320894D01*
X57298528Y-31225586D01*
X57359719Y-31105492D01*
X57368508Y-31050000D01*
X58519195Y-31050000D01*
X58540280Y-31183124D01*
X58601472Y-31303221D01*
X58696778Y-31398527D01*
X58696780Y-31398528D01*
X58816874Y-31459719D01*
X58883436Y-31470261D01*
X58949999Y-31480804D01*
X58949999Y-31480803D01*
X58950000Y-31480804D01*
X59083126Y-31459719D01*
X59203220Y-31398528D01*
X59298528Y-31303220D01*
X59359719Y-31183126D01*
X59380804Y-31050000D01*
X59375014Y-31013446D01*
X59367094Y-30963436D01*
X59359719Y-30916874D01*
X59298528Y-30796780D01*
X59298527Y-30796778D01*
X59203221Y-30701472D01*
X59083124Y-30640280D01*
X58950000Y-30619195D01*
X58816875Y-30640280D01*
X58696778Y-30701472D01*
X58601472Y-30796778D01*
X58540280Y-30916875D01*
X58519195Y-31050000D01*
X57368508Y-31050000D01*
X57380804Y-30972366D01*
X57359719Y-30839240D01*
X57298528Y-30719146D01*
X57298527Y-30719144D01*
X57203221Y-30623838D01*
X57083124Y-30562646D01*
X56950000Y-30541561D01*
X56816875Y-30562646D01*
X56696778Y-30623838D01*
X56587584Y-30733033D01*
X56585974Y-30731423D01*
X56558065Y-30760973D01*
X56490244Y-30777767D01*
X56424109Y-30755228D01*
X56385196Y-30710319D01*
X56289785Y-30614908D01*
X56169688Y-30553716D01*
X56036564Y-30532631D01*
X55903439Y-30553716D01*
X55783342Y-30614908D01*
X55688036Y-30710214D01*
X55626844Y-30830311D01*
X55605759Y-30963435D01*
X52837952Y-30963435D01*
X52781129Y-30897858D01*
X52781128Y-30897857D01*
X52660053Y-30820047D01*
X52521961Y-30779500D01*
X52378039Y-30779500D01*
X52239947Y-30820047D01*
X52118869Y-30897858D01*
X52018713Y-31013446D01*
X51959935Y-31051221D01*
X51890065Y-31051221D01*
X51831287Y-31013447D01*
X51831287Y-31013446D01*
X51731130Y-30897858D01*
X51693903Y-30873934D01*
X51610053Y-30820047D01*
X51471961Y-30779500D01*
X51328039Y-30779500D01*
X51189947Y-30820047D01*
X51068870Y-30897858D01*
X50974623Y-31006625D01*
X50914834Y-31137542D01*
X50894353Y-31280000D01*
X50044392Y-31280000D01*
X50077164Y-31215681D01*
X50098249Y-31082555D01*
X50077164Y-30949429D01*
X50015973Y-30829335D01*
X50015972Y-30829333D01*
X49920666Y-30734027D01*
X49800569Y-30672835D01*
X49667445Y-30651750D01*
X49534320Y-30672835D01*
X49414223Y-30734027D01*
X49318917Y-30829333D01*
X49257725Y-30949430D01*
X49236640Y-31082553D01*
X49245159Y-31136339D01*
X49236203Y-31205633D01*
X49191206Y-31259084D01*
X49124454Y-31279723D01*
X49066390Y-31266221D01*
X49035332Y-31250396D01*
X48902208Y-31229311D01*
X48769083Y-31250396D01*
X48648986Y-31311588D01*
X48553680Y-31406894D01*
X48492488Y-31526991D01*
X48471403Y-31660115D01*
X46204350Y-31660115D01*
X46205682Y-31650000D01*
X46188978Y-31523123D01*
X46199743Y-31454091D01*
X46246123Y-31401835D01*
X46313392Y-31382949D01*
X46368212Y-31396455D01*
X46372279Y-31398527D01*
X46372280Y-31398528D01*
X46492374Y-31459719D01*
X46625500Y-31480804D01*
X46758626Y-31459719D01*
X46878720Y-31398528D01*
X46974028Y-31303220D01*
X47035219Y-31183126D01*
X47056304Y-31050000D01*
X47050514Y-31013446D01*
X47042594Y-30963436D01*
X47035219Y-30916874D01*
X46974028Y-30796780D01*
X46974027Y-30796778D01*
X46878721Y-30701472D01*
X46758624Y-30640280D01*
X46625500Y-30619195D01*
X46492375Y-30640280D01*
X46372278Y-30701472D01*
X46276972Y-30796778D01*
X46215780Y-30916875D01*
X46194695Y-31050000D01*
X46200057Y-31083852D01*
X46191102Y-31153146D01*
X46146106Y-31206597D01*
X46079355Y-31227237D01*
X46012041Y-31208512D01*
X46002098Y-31201626D01*
X45902840Y-31125463D01*
X45756762Y-31064956D01*
X45600000Y-31044317D01*
X45443237Y-31064956D01*
X45297159Y-31125463D01*
X45171717Y-31221717D01*
X45075463Y-31347159D01*
X45014956Y-31493237D01*
X44994317Y-31650000D01*
X44605682Y-31650000D01*
X44585044Y-31493238D01*
X44524536Y-31347159D01*
X44515801Y-31335775D01*
X44428282Y-31221717D01*
X44302840Y-31125463D01*
X44156762Y-31064956D01*
X44000000Y-31044317D01*
X43843237Y-31064956D01*
X43697159Y-31125463D01*
X43571717Y-31221717D01*
X43475463Y-31347159D01*
X43414956Y-31493237D01*
X43394317Y-31650000D01*
X43005682Y-31650000D01*
X42985044Y-31493238D01*
X42924536Y-31347159D01*
X42915801Y-31335775D01*
X42828282Y-31221717D01*
X42702840Y-31125463D01*
X42556762Y-31064956D01*
X42400000Y-31044317D01*
X42243237Y-31064956D01*
X42097159Y-31125463D01*
X41971717Y-31221717D01*
X41890197Y-31327958D01*
X41833769Y-31369161D01*
X41764023Y-31373316D01*
X41735527Y-31362957D01*
X41708624Y-31349249D01*
X41575498Y-31328164D01*
X41442373Y-31349249D01*
X41322276Y-31410441D01*
X41226970Y-31505747D01*
X41165778Y-31625844D01*
X41144693Y-31758968D01*
X36829238Y-31758968D01*
X36823028Y-31746780D01*
X36823027Y-31746778D01*
X36727721Y-31651472D01*
X36607624Y-31590280D01*
X36474500Y-31569195D01*
X36341375Y-31590280D01*
X36221278Y-31651472D01*
X36125972Y-31746778D01*
X36064780Y-31866875D01*
X36043695Y-32000000D01*
X36064780Y-32133124D01*
X36125972Y-32253221D01*
X36186390Y-32313639D01*
X36219875Y-32374962D01*
X36214891Y-32444654D01*
X36173019Y-32500587D01*
X36155004Y-32511805D01*
X36096778Y-32541472D01*
X36001472Y-32636778D01*
X35935485Y-32766287D01*
X35887511Y-32817083D01*
X35819690Y-32833878D01*
X35753555Y-32811341D01*
X35714515Y-32766287D01*
X35687200Y-32712679D01*
X35648528Y-32636780D01*
X35648527Y-32636778D01*
X35553221Y-32541472D01*
X35433124Y-32480280D01*
X35300000Y-32459195D01*
X35166875Y-32480280D01*
X35046778Y-32541472D01*
X34951472Y-32636778D01*
X34890280Y-32756875D01*
X34869195Y-32889999D01*
X33793914Y-32889999D01*
X33735734Y-32779148D01*
X33622929Y-32651817D01*
X33622928Y-32651816D01*
X33622927Y-32651815D01*
X33482930Y-32555182D01*
X33323872Y-32494860D01*
X33201092Y-32479951D01*
X33201080Y-32479950D01*
X33197372Y-32479500D01*
X32012628Y-32479500D01*
X32008920Y-32479950D01*
X32008907Y-32479951D01*
X31886127Y-32494860D01*
X31727069Y-32555182D01*
X31587072Y-32651815D01*
X31474265Y-32779149D01*
X31395209Y-32929775D01*
X31354500Y-33094944D01*
X31354500Y-33265055D01*
X29525500Y-33265055D01*
X29525500Y-33094944D01*
X29484790Y-32929775D01*
X29405734Y-32779148D01*
X29292929Y-32651817D01*
X29292928Y-32651816D01*
X29292927Y-32651815D01*
X29152930Y-32555182D01*
X28993872Y-32494860D01*
X28871092Y-32479951D01*
X28871080Y-32479950D01*
X28867372Y-32479500D01*
X27982628Y-32479500D01*
X27978920Y-32479950D01*
X27978907Y-32479951D01*
X27856127Y-32494860D01*
X27697069Y-32555182D01*
X27557072Y-32651815D01*
X27444265Y-32779149D01*
X27365209Y-32929775D01*
X27324500Y-33094944D01*
X27324500Y-33265055D01*
X27000500Y-33265055D01*
X27000500Y-31575000D01*
X29014353Y-31575000D01*
X29016550Y-31590280D01*
X29034834Y-31717457D01*
X29094623Y-31848374D01*
X29140633Y-31901472D01*
X29188872Y-31957143D01*
X29309947Y-32034953D01*
X29448039Y-32075500D01*
X29591961Y-32075500D01*
X29730053Y-32034953D01*
X29851128Y-31957143D01*
X29945377Y-31848373D01*
X30005165Y-31717457D01*
X30017739Y-31630000D01*
X32219195Y-31630000D01*
X32240280Y-31763124D01*
X32301472Y-31883221D01*
X32396778Y-31978527D01*
X32396780Y-31978528D01*
X32516874Y-32039719D01*
X32650000Y-32060804D01*
X32783126Y-32039719D01*
X32903220Y-31978528D01*
X32998528Y-31883220D01*
X33059719Y-31763126D01*
X33080804Y-31630000D01*
X33059719Y-31496874D01*
X32998528Y-31376780D01*
X32998527Y-31376778D01*
X32903221Y-31281472D01*
X32783124Y-31220280D01*
X32650000Y-31199195D01*
X32516875Y-31220280D01*
X32396778Y-31281472D01*
X32301472Y-31376778D01*
X32240280Y-31496875D01*
X32219195Y-31630000D01*
X30017739Y-31630000D01*
X30025647Y-31575000D01*
X30005165Y-31432543D01*
X30004498Y-31431083D01*
X29946105Y-31303221D01*
X29945377Y-31301627D01*
X29945376Y-31301626D01*
X29945376Y-31301625D01*
X29851129Y-31192858D01*
X29851128Y-31192857D01*
X29784441Y-31150000D01*
X38419195Y-31150000D01*
X38440280Y-31283124D01*
X38501472Y-31403221D01*
X38596778Y-31498527D01*
X38596780Y-31498528D01*
X38716874Y-31559719D01*
X38850000Y-31580804D01*
X38983126Y-31559719D01*
X39103220Y-31498528D01*
X39198528Y-31403220D01*
X39259719Y-31283126D01*
X39280804Y-31150000D01*
X39259719Y-31016874D01*
X39198528Y-30896780D01*
X39198527Y-30896778D01*
X39103221Y-30801472D01*
X38983124Y-30740280D01*
X38850000Y-30719195D01*
X38716875Y-30740280D01*
X38596778Y-30801472D01*
X38501472Y-30896778D01*
X38440280Y-31016875D01*
X38419195Y-31150000D01*
X29784441Y-31150000D01*
X29730053Y-31115047D01*
X29591961Y-31074500D01*
X29448039Y-31074500D01*
X29309947Y-31115047D01*
X29188870Y-31192858D01*
X29094623Y-31301625D01*
X29034834Y-31432542D01*
X29015187Y-31569196D01*
X29014353Y-31575000D01*
X27000500Y-31575000D01*
X27000500Y-29950000D01*
X31319195Y-29950000D01*
X31340280Y-30083124D01*
X31401472Y-30203221D01*
X31496778Y-30298527D01*
X31496780Y-30298528D01*
X31616874Y-30359719D01*
X31750000Y-30380804D01*
X31883126Y-30359719D01*
X32003220Y-30298528D01*
X32071748Y-30230000D01*
X35609353Y-30230000D01*
X35629834Y-30372457D01*
X35689623Y-30503374D01*
X35783870Y-30612141D01*
X35783872Y-30612143D01*
X35904947Y-30689953D01*
X36043039Y-30730500D01*
X36186961Y-30730500D01*
X36325053Y-30689953D01*
X36446128Y-30612143D01*
X36499975Y-30550000D01*
X41019195Y-30550000D01*
X41040280Y-30683124D01*
X41101472Y-30803221D01*
X41196778Y-30898527D01*
X41196780Y-30898528D01*
X41316874Y-30959719D01*
X41450000Y-30980804D01*
X41583126Y-30959719D01*
X41703220Y-30898528D01*
X41798528Y-30803220D01*
X41859719Y-30683126D01*
X41868178Y-30629712D01*
X41898108Y-30566577D01*
X41957419Y-30529645D01*
X42027281Y-30530643D01*
X42066136Y-30550731D01*
X42097159Y-30574536D01*
X42243238Y-30635044D01*
X42400000Y-30655682D01*
X42556762Y-30635044D01*
X42702841Y-30574536D01*
X42828282Y-30478282D01*
X42924536Y-30352841D01*
X42985044Y-30206762D01*
X43005682Y-30050000D01*
X43394317Y-30050000D01*
X43414956Y-30206762D01*
X43475463Y-30352840D01*
X43571717Y-30478282D01*
X43681665Y-30562647D01*
X43697159Y-30574536D01*
X43843238Y-30635044D01*
X44000000Y-30655682D01*
X44156762Y-30635044D01*
X44302841Y-30574536D01*
X44428282Y-30478282D01*
X44524536Y-30352841D01*
X44585044Y-30206762D01*
X44605682Y-30050000D01*
X44994317Y-30050000D01*
X45014956Y-30206762D01*
X45075463Y-30352840D01*
X45171717Y-30478282D01*
X45281665Y-30562647D01*
X45297159Y-30574536D01*
X45443238Y-30635044D01*
X45600000Y-30655682D01*
X45756762Y-30635044D01*
X45902841Y-30574536D01*
X46028282Y-30478282D01*
X46124536Y-30352841D01*
X46185044Y-30206762D01*
X46189160Y-30175499D01*
X53719195Y-30175499D01*
X53740280Y-30308624D01*
X53801472Y-30428721D01*
X53896778Y-30524027D01*
X53896780Y-30524028D01*
X54016874Y-30585219D01*
X54083437Y-30595761D01*
X54149999Y-30606304D01*
X54149999Y-30606303D01*
X54150000Y-30606304D01*
X54283126Y-30585219D01*
X54403220Y-30524028D01*
X54498528Y-30428720D01*
X54533273Y-30360528D01*
X54581247Y-30309733D01*
X54649068Y-30292937D01*
X54715203Y-30315474D01*
X54754243Y-30360528D01*
X54801472Y-30453221D01*
X54896778Y-30548527D01*
X54896780Y-30548528D01*
X55016874Y-30609719D01*
X55150000Y-30630804D01*
X55283126Y-30609719D01*
X55403220Y-30548528D01*
X55498528Y-30453220D01*
X55559719Y-30333126D01*
X55580804Y-30200000D01*
X55559719Y-30066874D01*
X55498528Y-29946780D01*
X55498527Y-29946778D01*
X55403221Y-29851472D01*
X55283124Y-29790280D01*
X55150000Y-29769195D01*
X55016875Y-29790280D01*
X54896778Y-29851472D01*
X54801471Y-29946779D01*
X54766725Y-30014972D01*
X54718751Y-30065767D01*
X54650930Y-30082562D01*
X54584795Y-30060024D01*
X54545756Y-30014970D01*
X54498528Y-29922279D01*
X54403221Y-29826972D01*
X54283124Y-29765780D01*
X54150000Y-29744695D01*
X54016875Y-29765780D01*
X53896778Y-29826972D01*
X53801472Y-29922278D01*
X53740280Y-30042375D01*
X53719195Y-30175499D01*
X46189160Y-30175499D01*
X46205682Y-30050000D01*
X46185044Y-29893238D01*
X46124536Y-29747159D01*
X46094034Y-29707408D01*
X46028282Y-29621717D01*
X45902840Y-29525463D01*
X45756762Y-29464956D01*
X45600000Y-29444317D01*
X45443237Y-29464956D01*
X45297159Y-29525463D01*
X45171717Y-29621717D01*
X45075463Y-29747159D01*
X45014956Y-29893237D01*
X44994317Y-30050000D01*
X44605682Y-30050000D01*
X44585044Y-29893238D01*
X44524536Y-29747159D01*
X44494034Y-29707408D01*
X44428282Y-29621717D01*
X44302840Y-29525463D01*
X44156762Y-29464956D01*
X44000000Y-29444317D01*
X43843237Y-29464956D01*
X43697159Y-29525463D01*
X43571717Y-29621717D01*
X43475463Y-29747159D01*
X43414956Y-29893237D01*
X43394317Y-30050000D01*
X43005682Y-30050000D01*
X42985044Y-29893238D01*
X42924536Y-29747159D01*
X42894034Y-29707408D01*
X42828282Y-29621717D01*
X42702840Y-29525463D01*
X42556762Y-29464956D01*
X42400000Y-29444317D01*
X42243237Y-29464956D01*
X42097159Y-29525463D01*
X41971717Y-29621717D01*
X41875463Y-29747159D01*
X41814956Y-29893237D01*
X41792804Y-30061494D01*
X41764537Y-30125390D01*
X41706213Y-30163861D01*
X41636348Y-30164692D01*
X41613571Y-30155793D01*
X41583126Y-30140280D01*
X41450000Y-30119195D01*
X41316875Y-30140280D01*
X41196778Y-30201472D01*
X41101472Y-30296778D01*
X41040280Y-30416875D01*
X41019195Y-30550000D01*
X36499975Y-30550000D01*
X36540377Y-30503373D01*
X36600165Y-30372457D01*
X36620647Y-30230000D01*
X36600165Y-30087543D01*
X36597890Y-30082562D01*
X36540376Y-29956625D01*
X36446129Y-29847858D01*
X36446128Y-29847857D01*
X36325053Y-29770047D01*
X36186961Y-29729500D01*
X36043039Y-29729500D01*
X35904947Y-29770047D01*
X35783870Y-29847858D01*
X35689623Y-29956625D01*
X35629834Y-30087542D01*
X35609353Y-30230000D01*
X32071748Y-30230000D01*
X32098528Y-30203220D01*
X32159719Y-30083126D01*
X32180804Y-29950000D01*
X32159719Y-29816874D01*
X32098528Y-29696780D01*
X32098527Y-29696778D01*
X32003221Y-29601472D01*
X31883124Y-29540280D01*
X31750000Y-29519195D01*
X31616875Y-29540280D01*
X31496778Y-29601472D01*
X31401472Y-29696778D01*
X31340280Y-29816875D01*
X31319195Y-29950000D01*
X27000500Y-29950000D01*
X27000500Y-29453659D01*
X32835392Y-29453659D01*
X32846949Y-29519196D01*
X32865668Y-29625354D01*
X32934721Y-29785438D01*
X33038832Y-29925283D01*
X33172386Y-30037349D01*
X33328185Y-30115594D01*
X33497829Y-30155800D01*
X33497831Y-30155800D01*
X33624837Y-30155800D01*
X33628436Y-30155800D01*
X33758164Y-30140637D01*
X33921993Y-30081008D01*
X34067654Y-29985205D01*
X34187296Y-29858393D01*
X34274467Y-29707407D01*
X34324469Y-29540388D01*
X34334607Y-29366340D01*
X34304332Y-29194646D01*
X34235279Y-29034562D01*
X34172325Y-28950000D01*
X41069195Y-28950000D01*
X41090280Y-29083124D01*
X41151472Y-29203221D01*
X41246778Y-29298527D01*
X41246780Y-29298528D01*
X41366874Y-29359719D01*
X41500000Y-29380804D01*
X41633126Y-29359719D01*
X41730707Y-29309999D01*
X59119195Y-29309999D01*
X59140280Y-29443124D01*
X59201472Y-29563221D01*
X59296778Y-29658527D01*
X59296780Y-29658528D01*
X59416874Y-29719719D01*
X59550000Y-29740804D01*
X59683126Y-29719719D01*
X59803220Y-29658528D01*
X59898528Y-29563220D01*
X59959719Y-29443126D01*
X59980804Y-29310000D01*
X59959719Y-29176874D01*
X59898528Y-29056780D01*
X59898527Y-29056778D01*
X59803221Y-28961472D01*
X59703152Y-28910485D01*
X59652356Y-28862511D01*
X59635561Y-28794690D01*
X59658098Y-28728555D01*
X59703152Y-28689515D01*
X59803220Y-28638528D01*
X59898528Y-28543220D01*
X59959719Y-28423126D01*
X59980804Y-28290000D01*
X59978131Y-28273126D01*
X59959719Y-28156875D01*
X59959719Y-28156874D01*
X59898528Y-28036780D01*
X59898527Y-28036778D01*
X59803221Y-27941472D01*
X59683124Y-27880280D01*
X59550000Y-27859195D01*
X59416875Y-27880280D01*
X59296778Y-27941472D01*
X59201472Y-28036778D01*
X59140280Y-28156875D01*
X59119195Y-28290000D01*
X59140280Y-28423124D01*
X59201472Y-28543221D01*
X59296778Y-28638527D01*
X59396847Y-28689515D01*
X59447643Y-28737490D01*
X59464438Y-28805311D01*
X59441901Y-28871446D01*
X59396847Y-28910485D01*
X59296778Y-28961472D01*
X59201472Y-29056778D01*
X59140280Y-29176875D01*
X59119195Y-29309999D01*
X41730707Y-29309999D01*
X41753220Y-29298528D01*
X41848528Y-29203220D01*
X41909719Y-29083126D01*
X41912792Y-29063719D01*
X41942722Y-29000584D01*
X42002033Y-28963652D01*
X42071895Y-28964650D01*
X42082718Y-28968555D01*
X42160044Y-29000584D01*
X42243238Y-29035044D01*
X42400000Y-29055682D01*
X42556762Y-29035044D01*
X42702841Y-28974536D01*
X42828282Y-28878282D01*
X42924536Y-28752841D01*
X42985044Y-28606762D01*
X43005682Y-28450000D01*
X42985044Y-28293238D01*
X42924536Y-28147159D01*
X42919043Y-28140000D01*
X42828282Y-28021717D01*
X42702840Y-27925463D01*
X42556762Y-27864956D01*
X42400000Y-27844317D01*
X42243237Y-27864956D01*
X42097159Y-27925463D01*
X41971717Y-28021717D01*
X41875463Y-28147159D01*
X41814956Y-28293237D01*
X41795947Y-28437619D01*
X41767680Y-28501516D01*
X41709355Y-28539986D01*
X41652951Y-28540656D01*
X41652524Y-28543353D01*
X41500000Y-28519195D01*
X41366875Y-28540280D01*
X41246778Y-28601472D01*
X41151472Y-28696778D01*
X41090280Y-28816875D01*
X41069195Y-28950000D01*
X34172325Y-28950000D01*
X34131168Y-28894717D01*
X33997614Y-28782651D01*
X33841815Y-28704406D01*
X33672171Y-28664200D01*
X33541564Y-28664200D01*
X33537997Y-28664616D01*
X33537995Y-28664617D01*
X33411833Y-28679363D01*
X33248005Y-28738992D01*
X33102346Y-28834794D01*
X32982704Y-28961606D01*
X32895533Y-29112591D01*
X32845531Y-29279613D01*
X32835392Y-29453659D01*
X27000500Y-29453659D01*
X27000500Y-28950000D01*
X27844353Y-28950000D01*
X27864834Y-29092457D01*
X27924623Y-29223374D01*
X27999684Y-29309999D01*
X28018872Y-29332143D01*
X28139947Y-29409953D01*
X28278039Y-29450500D01*
X28421961Y-29450500D01*
X28560053Y-29409953D01*
X28681128Y-29332143D01*
X28775377Y-29223373D01*
X28835165Y-29092457D01*
X28855647Y-28950000D01*
X28835165Y-28807543D01*
X28829295Y-28794690D01*
X28781263Y-28689515D01*
X28775377Y-28676627D01*
X28775376Y-28676626D01*
X28775376Y-28676625D01*
X28681129Y-28567858D01*
X28681128Y-28567857D01*
X28560053Y-28490047D01*
X28421961Y-28449500D01*
X28278039Y-28449500D01*
X28139947Y-28490047D01*
X28018870Y-28567858D01*
X27924623Y-28676625D01*
X27864834Y-28807542D01*
X27844353Y-28950000D01*
X27000500Y-28950000D01*
X27000500Y-28140000D01*
X34669195Y-28140000D01*
X34690280Y-28273124D01*
X34751472Y-28393221D01*
X34846778Y-28488527D01*
X34846780Y-28488528D01*
X34966874Y-28549719D01*
X35100000Y-28570804D01*
X35233126Y-28549719D01*
X35353220Y-28488528D01*
X35448528Y-28393220D01*
X35509719Y-28273126D01*
X35530804Y-28140000D01*
X35509719Y-28006874D01*
X35448528Y-27886780D01*
X35448527Y-27886778D01*
X35353221Y-27791472D01*
X35233124Y-27730280D01*
X35100000Y-27709195D01*
X34966875Y-27730280D01*
X34846778Y-27791472D01*
X34751472Y-27886778D01*
X34690280Y-28006875D01*
X34669195Y-28140000D01*
X27000500Y-28140000D01*
X27000500Y-27400000D01*
X29094353Y-27400000D01*
X29114834Y-27542457D01*
X29174623Y-27673374D01*
X29268870Y-27782141D01*
X29268872Y-27782143D01*
X29389947Y-27859953D01*
X29528039Y-27900500D01*
X29671961Y-27900500D01*
X29810053Y-27859953D01*
X29931128Y-27782143D01*
X30025377Y-27673373D01*
X30081720Y-27550000D01*
X35619195Y-27550000D01*
X35640280Y-27683124D01*
X35701472Y-27803221D01*
X35796778Y-27898527D01*
X35796780Y-27898528D01*
X35916874Y-27959719D01*
X36050000Y-27980804D01*
X36183126Y-27959719D01*
X36303220Y-27898528D01*
X36398528Y-27803220D01*
X36459719Y-27683126D01*
X36480804Y-27550000D01*
X36459719Y-27416874D01*
X36445938Y-27389828D01*
X36433043Y-27321161D01*
X36433599Y-27319791D01*
X36405894Y-27304145D01*
X36303221Y-27201472D01*
X36183124Y-27140280D01*
X36050000Y-27119195D01*
X35916875Y-27140280D01*
X35796778Y-27201472D01*
X35701472Y-27296778D01*
X35640280Y-27416875D01*
X35619195Y-27550000D01*
X30081720Y-27550000D01*
X30085165Y-27542457D01*
X30105647Y-27400000D01*
X30085165Y-27257543D01*
X30079631Y-27245426D01*
X30025376Y-27126625D01*
X29931129Y-27017858D01*
X29931128Y-27017857D01*
X29810053Y-26940047D01*
X29671961Y-26899500D01*
X29528039Y-26899500D01*
X29389947Y-26940047D01*
X29268870Y-27017858D01*
X29174623Y-27126625D01*
X29114834Y-27257542D01*
X29094353Y-27400000D01*
X27000500Y-27400000D01*
X27000500Y-26870000D01*
X31494353Y-26870000D01*
X31514834Y-27012457D01*
X31574623Y-27143374D01*
X31668870Y-27252141D01*
X31668872Y-27252143D01*
X31789947Y-27329953D01*
X31928039Y-27370500D01*
X32071961Y-27370500D01*
X32210053Y-27329953D01*
X32331128Y-27252143D01*
X32425377Y-27143373D01*
X32485165Y-27012457D01*
X32505647Y-26870000D01*
X32485165Y-26727543D01*
X32474057Y-26703221D01*
X32425376Y-26596625D01*
X32331129Y-26487858D01*
X32331128Y-26487857D01*
X32272220Y-26449999D01*
X36469195Y-26449999D01*
X36490280Y-26583124D01*
X36551472Y-26703221D01*
X36568716Y-26720465D01*
X36602201Y-26781788D01*
X36597217Y-26851480D01*
X36591522Y-26864437D01*
X36590280Y-26866873D01*
X36569195Y-27000000D01*
X36590280Y-27133126D01*
X36604060Y-27160170D01*
X36616956Y-27228839D01*
X36616400Y-27230208D01*
X36644105Y-27245854D01*
X36746778Y-27348527D01*
X36746780Y-27348528D01*
X36866874Y-27409719D01*
X36947687Y-27422518D01*
X36952413Y-27423267D01*
X37015548Y-27453196D01*
X37043500Y-27489443D01*
X37057477Y-27516875D01*
X37101472Y-27603221D01*
X37196778Y-27698527D01*
X37196780Y-27698528D01*
X37316874Y-27759719D01*
X37450000Y-27780804D01*
X37583126Y-27759719D01*
X37693706Y-27703375D01*
X37762374Y-27690479D01*
X37806292Y-27703375D01*
X37916874Y-27759719D01*
X38050000Y-27780804D01*
X38183126Y-27759719D01*
X38268705Y-27716113D01*
X38337374Y-27703218D01*
X38381293Y-27716113D01*
X38466874Y-27759719D01*
X38533437Y-27770261D01*
X38599999Y-27780804D01*
X38599999Y-27780803D01*
X38600000Y-27780804D01*
X38721362Y-27761582D01*
X38790655Y-27770536D01*
X38844107Y-27815532D01*
X38864747Y-27882284D01*
X38846022Y-27949597D01*
X38834476Y-27965254D01*
X38824623Y-27976624D01*
X38764834Y-28107542D01*
X38744353Y-28250000D01*
X38764834Y-28392457D01*
X38824623Y-28523374D01*
X38896879Y-28606762D01*
X38918872Y-28632143D01*
X39039947Y-28709953D01*
X39178039Y-28750500D01*
X39321961Y-28750500D01*
X39460053Y-28709953D01*
X39581128Y-28632143D01*
X39675377Y-28523373D01*
X39735165Y-28392457D01*
X39755647Y-28250000D01*
X39735165Y-28107543D01*
X39728941Y-28093915D01*
X39675376Y-27976625D01*
X39581129Y-27867858D01*
X39581128Y-27867857D01*
X39460053Y-27790047D01*
X39321961Y-27749500D01*
X39178039Y-27749500D01*
X39178038Y-27749500D01*
X39096524Y-27773434D01*
X39026654Y-27773434D01*
X38967876Y-27735659D01*
X38938852Y-27672103D01*
X38948796Y-27602945D01*
X38951105Y-27598162D01*
X39009719Y-27483126D01*
X39020563Y-27414661D01*
X42823070Y-27414661D01*
X42844155Y-27547786D01*
X42905347Y-27667883D01*
X43000653Y-27763189D01*
X43000655Y-27763190D01*
X43120749Y-27824381D01*
X43175963Y-27833126D01*
X43253874Y-27845466D01*
X43253874Y-27845465D01*
X43253875Y-27845466D01*
X43387001Y-27824381D01*
X43464499Y-27784893D01*
X43533166Y-27771998D01*
X43597906Y-27798274D01*
X43631280Y-27839090D01*
X43634619Y-27845644D01*
X43647511Y-27914314D01*
X43621232Y-27979053D01*
X43599619Y-28000308D01*
X43571717Y-28021718D01*
X43475463Y-28147159D01*
X43414956Y-28293237D01*
X43394317Y-28450000D01*
X43414956Y-28606762D01*
X43475463Y-28752840D01*
X43571717Y-28878282D01*
X43682975Y-28963652D01*
X43697159Y-28974536D01*
X43843238Y-29035044D01*
X44000000Y-29055682D01*
X44156762Y-29035044D01*
X44302841Y-28974536D01*
X44428282Y-28878282D01*
X44524536Y-28752841D01*
X44585044Y-28606762D01*
X44605682Y-28450000D01*
X44585044Y-28293238D01*
X44557135Y-28225861D01*
X44549667Y-28156395D01*
X44580942Y-28093915D01*
X44641031Y-28058263D01*
X44652299Y-28055938D01*
X44699083Y-28048528D01*
X44783126Y-28035217D01*
X44903220Y-27974026D01*
X44903220Y-27974025D01*
X44915898Y-27967566D01*
X44984567Y-27954670D01*
X45049308Y-27980946D01*
X45089565Y-28038053D01*
X45092557Y-28107858D01*
X45081034Y-28131795D01*
X45081711Y-28132076D01*
X45014956Y-28293237D01*
X44994317Y-28450000D01*
X45014956Y-28606762D01*
X45075463Y-28752840D01*
X45171717Y-28878282D01*
X45282975Y-28963652D01*
X45297159Y-28974536D01*
X45443238Y-29035044D01*
X45600000Y-29055682D01*
X45756762Y-29035044D01*
X45902841Y-28974536D01*
X46028282Y-28878282D01*
X46124536Y-28752841D01*
X46185044Y-28606762D01*
X46205682Y-28450000D01*
X46185869Y-28299503D01*
X49769195Y-28299503D01*
X49790280Y-28432627D01*
X49851472Y-28552724D01*
X49946778Y-28648030D01*
X49946780Y-28648031D01*
X50066874Y-28709222D01*
X50200000Y-28730307D01*
X50333126Y-28709222D01*
X50453220Y-28648031D01*
X50548528Y-28552723D01*
X50609719Y-28432629D01*
X50630804Y-28299503D01*
X50609719Y-28166377D01*
X50553633Y-28056302D01*
X50540764Y-28031045D01*
X50527868Y-27962375D01*
X50540765Y-27918454D01*
X50548526Y-27903221D01*
X50548528Y-27903220D01*
X50609719Y-27783126D01*
X50622885Y-27700000D01*
X52409692Y-27700000D01*
X52430777Y-27833124D01*
X52491969Y-27953221D01*
X52587275Y-28048527D01*
X52587277Y-28048528D01*
X52707371Y-28109719D01*
X52840497Y-28130804D01*
X52973623Y-28109719D01*
X53093717Y-28048528D01*
X53142245Y-28000000D01*
X56724353Y-28000000D01*
X56744834Y-28142457D01*
X56804623Y-28273374D01*
X56898870Y-28382141D01*
X56898872Y-28382143D01*
X57019947Y-28459953D01*
X57158039Y-28500500D01*
X57301961Y-28500500D01*
X57440053Y-28459953D01*
X57561128Y-28382143D01*
X57655377Y-28273373D01*
X57715165Y-28142457D01*
X57735647Y-28000000D01*
X57715165Y-27857543D01*
X57709125Y-27844318D01*
X57655376Y-27726625D01*
X57561129Y-27617858D01*
X57561128Y-27617857D01*
X57440053Y-27540047D01*
X57301961Y-27499500D01*
X57158039Y-27499500D01*
X57019947Y-27540047D01*
X56898870Y-27617858D01*
X56804623Y-27726625D01*
X56744834Y-27857542D01*
X56724353Y-28000000D01*
X53142245Y-28000000D01*
X53189025Y-27953220D01*
X53250216Y-27833126D01*
X53271301Y-27700000D01*
X53250216Y-27566874D01*
X53250216Y-27566873D01*
X53216454Y-27500612D01*
X53203557Y-27431943D01*
X53229833Y-27367203D01*
X53286939Y-27326945D01*
X53356745Y-27323953D01*
X53383232Y-27333832D01*
X53516873Y-27401925D01*
X53650000Y-27423010D01*
X53783126Y-27401925D01*
X53903220Y-27340734D01*
X53998528Y-27245426D01*
X54059719Y-27125332D01*
X54080804Y-26992206D01*
X54059719Y-26859080D01*
X53998528Y-26738986D01*
X53998527Y-26738984D01*
X53903221Y-26643678D01*
X53783124Y-26582486D01*
X53650000Y-26561401D01*
X53516875Y-26582486D01*
X53396778Y-26643678D01*
X53301472Y-26738984D01*
X53240280Y-26859081D01*
X53219195Y-26992206D01*
X53240280Y-27125330D01*
X53274043Y-27191593D01*
X53286939Y-27260262D01*
X53260663Y-27325003D01*
X53203556Y-27365260D01*
X53133751Y-27368252D01*
X53107264Y-27358373D01*
X52973623Y-27290280D01*
X52840497Y-27269195D01*
X52707372Y-27290280D01*
X52587275Y-27351472D01*
X52491969Y-27446778D01*
X52430777Y-27566875D01*
X52409692Y-27700000D01*
X50622885Y-27700000D01*
X50630804Y-27650000D01*
X50622594Y-27598162D01*
X50615600Y-27554004D01*
X50624554Y-27484711D01*
X50669550Y-27431259D01*
X50718676Y-27412133D01*
X50745843Y-27407830D01*
X50783126Y-27401925D01*
X50903220Y-27340734D01*
X50998528Y-27245426D01*
X51059719Y-27125332D01*
X51080804Y-26992206D01*
X51059719Y-26859080D01*
X50998528Y-26738986D01*
X50998527Y-26738984D01*
X50903221Y-26643678D01*
X50783124Y-26582486D01*
X50650000Y-26561401D01*
X50516875Y-26582486D01*
X50396778Y-26643678D01*
X50301472Y-26738984D01*
X50240280Y-26859081D01*
X50219195Y-26992206D01*
X50234399Y-27088202D01*
X50225444Y-27157495D01*
X50180448Y-27210947D01*
X50131325Y-27230072D01*
X50066875Y-27240280D01*
X49946778Y-27301472D01*
X49851472Y-27396778D01*
X49790280Y-27516875D01*
X49769195Y-27650000D01*
X49790280Y-27783124D01*
X49859235Y-27918456D01*
X49872131Y-27987126D01*
X49859235Y-28031045D01*
X49790280Y-28166376D01*
X49769195Y-28299503D01*
X46185869Y-28299503D01*
X46185044Y-28293238D01*
X46126714Y-28152419D01*
X46119246Y-28082951D01*
X46150521Y-28020472D01*
X46210610Y-27984820D01*
X46230604Y-27983891D01*
X46230602Y-27983877D01*
X46348179Y-27965254D01*
X46383126Y-27959719D01*
X46503220Y-27898528D01*
X46598528Y-27803220D01*
X46659719Y-27683126D01*
X46680804Y-27550000D01*
X46659719Y-27416874D01*
X46598528Y-27296780D01*
X46598527Y-27296778D01*
X46503221Y-27201472D01*
X46383124Y-27140280D01*
X46250000Y-27119195D01*
X46116875Y-27140280D01*
X45996778Y-27201472D01*
X45901471Y-27296779D01*
X45884968Y-27329168D01*
X45836992Y-27379963D01*
X45769171Y-27396757D01*
X45703036Y-27374218D01*
X45686803Y-27360552D01*
X45603221Y-27276970D01*
X45483124Y-27215778D01*
X45350000Y-27194693D01*
X45216875Y-27215778D01*
X45096777Y-27276971D01*
X45087678Y-27286070D01*
X45026354Y-27319554D01*
X44956663Y-27314568D01*
X44912316Y-27286066D01*
X44903220Y-27276970D01*
X44783124Y-27215778D01*
X44650000Y-27194693D01*
X44516873Y-27215778D01*
X44381294Y-27284859D01*
X44312625Y-27297755D01*
X44268706Y-27284859D01*
X44133126Y-27215778D01*
X44000000Y-27194693D01*
X43866873Y-27215778D01*
X43789376Y-27255265D01*
X43720707Y-27268161D01*
X43655966Y-27241884D01*
X43622597Y-27201075D01*
X43602402Y-27161440D01*
X43507096Y-27066134D01*
X43386999Y-27004942D01*
X43253875Y-26983857D01*
X43120750Y-27004942D01*
X43000653Y-27066134D01*
X42905347Y-27161440D01*
X42844155Y-27281537D01*
X42823070Y-27414661D01*
X39020563Y-27414661D01*
X39030804Y-27350000D01*
X39009719Y-27216874D01*
X38948528Y-27096780D01*
X38948527Y-27096778D01*
X38853221Y-27001472D01*
X38733124Y-26940280D01*
X38600000Y-26919195D01*
X38466873Y-26940280D01*
X38381294Y-26983885D01*
X38312625Y-26996781D01*
X38268706Y-26983885D01*
X38183126Y-26940280D01*
X38050000Y-26919195D01*
X37916873Y-26940280D01*
X37806294Y-26996623D01*
X37737625Y-27009519D01*
X37693706Y-26996623D01*
X37583126Y-26940280D01*
X37497585Y-26926732D01*
X37434450Y-26896803D01*
X37406498Y-26860553D01*
X37405747Y-26859080D01*
X37367579Y-26784169D01*
X37348528Y-26746779D01*
X37331283Y-26729534D01*
X37297798Y-26668211D01*
X37302782Y-26598519D01*
X37308481Y-26585555D01*
X37309719Y-26583126D01*
X37330804Y-26450000D01*
X37309719Y-26316874D01*
X37248528Y-26196780D01*
X37248527Y-26196778D01*
X37153221Y-26101472D01*
X37033124Y-26040280D01*
X36900000Y-26019195D01*
X36766875Y-26040280D01*
X36646778Y-26101472D01*
X36551472Y-26196778D01*
X36490280Y-26316875D01*
X36469195Y-26449999D01*
X32272220Y-26449999D01*
X32210053Y-26410047D01*
X32071961Y-26369500D01*
X31928039Y-26369500D01*
X31789947Y-26410047D01*
X31668870Y-26487858D01*
X31574623Y-26596625D01*
X31514834Y-26727542D01*
X31494353Y-26870000D01*
X27000500Y-26870000D01*
X27000500Y-26674500D01*
X27020185Y-26607461D01*
X27072989Y-26561706D01*
X27124500Y-26550500D01*
X28097694Y-26550500D01*
X28164733Y-26570185D01*
X28186257Y-26587710D01*
X28188503Y-26590002D01*
X28195042Y-26593417D01*
X28213008Y-26610731D01*
X28233018Y-26616310D01*
X28257119Y-26625841D01*
X28286925Y-26641409D01*
X28300039Y-26643622D01*
X28306166Y-26644656D01*
X28329838Y-26656171D01*
X28345220Y-26654982D01*
X28375413Y-26656341D01*
X28396415Y-26659886D01*
X28425496Y-26655580D01*
X28453178Y-26659442D01*
X28463323Y-26654836D01*
X28496427Y-26645079D01*
X28506257Y-26643624D01*
X28605697Y-26594216D01*
X28685002Y-26516497D01*
X28736409Y-26418075D01*
X28738063Y-26408271D01*
X28748486Y-26375373D01*
X28750779Y-26370581D01*
X28748380Y-26363544D01*
X28749994Y-26337572D01*
X28754886Y-26308585D01*
X28751765Y-26287509D01*
X28751017Y-26257301D01*
X28751807Y-26249204D01*
X28748744Y-26245259D01*
X28741481Y-26218042D01*
X28738624Y-26198744D01*
X28738624Y-26198743D01*
X28723659Y-26168624D01*
X28714616Y-26144335D01*
X28711650Y-26132801D01*
X28709203Y-26131202D01*
X28692498Y-26105908D01*
X28689217Y-26099305D01*
X28689216Y-26099304D01*
X28689216Y-26099303D01*
X28685934Y-26095954D01*
X28653073Y-26034298D01*
X28650500Y-26009167D01*
X28650500Y-21990833D01*
X28670185Y-21923794D01*
X28685939Y-21904041D01*
X28687116Y-21902840D01*
X28689216Y-21900697D01*
X28692496Y-21894094D01*
X28709442Y-21875784D01*
X28714616Y-21855665D01*
X28723659Y-21831375D01*
X28738624Y-21801257D01*
X28741481Y-21781955D01*
X28752517Y-21758054D01*
X28751017Y-21742696D01*
X28751456Y-21725000D01*
X29144195Y-21725000D01*
X29165280Y-21858124D01*
X29226472Y-21978221D01*
X29321778Y-22073527D01*
X29321780Y-22073528D01*
X29441874Y-22134719D01*
X29495655Y-22143237D01*
X29574999Y-22155804D01*
X29574999Y-22155803D01*
X29575000Y-22155804D01*
X29708126Y-22134719D01*
X29828220Y-22073528D01*
X29923528Y-21978220D01*
X29984719Y-21858126D01*
X30005804Y-21725000D01*
X30001844Y-21700000D01*
X29984719Y-21591875D01*
X29984719Y-21591874D01*
X29923528Y-21471780D01*
X29923527Y-21471778D01*
X29828221Y-21376472D01*
X29708124Y-21315280D01*
X29575000Y-21294195D01*
X29441875Y-21315280D01*
X29321778Y-21376472D01*
X29226472Y-21471778D01*
X29165280Y-21591875D01*
X29144195Y-21725000D01*
X28751456Y-21725000D01*
X28751767Y-21712481D01*
X28753072Y-21703666D01*
X28754886Y-21691415D01*
X28749993Y-21662423D01*
X28753295Y-21634671D01*
X28748485Y-21624623D01*
X28738062Y-21591722D01*
X28736409Y-21581925D01*
X28685002Y-21483503D01*
X28685001Y-21483502D01*
X28685000Y-21483500D01*
X28605698Y-21405784D01*
X28506256Y-21356375D01*
X28496432Y-21354921D01*
X28463328Y-21345164D01*
X28458483Y-21342964D01*
X28451490Y-21345508D01*
X28425498Y-21344419D01*
X28396416Y-21340113D01*
X28375420Y-21343657D01*
X28345226Y-21345017D01*
X28337112Y-21344389D01*
X28333230Y-21347532D01*
X28306170Y-21355343D01*
X28286922Y-21358591D01*
X28257128Y-21374153D01*
X28233025Y-21383686D01*
X28221551Y-21386885D01*
X28220002Y-21389363D01*
X28195047Y-21406580D01*
X28188502Y-21409998D01*
X28186258Y-21412289D01*
X28125277Y-21446393D01*
X28097694Y-21449500D01*
X27124500Y-21449500D01*
X27057461Y-21429815D01*
X27011706Y-21377011D01*
X27000500Y-21325500D01*
X27000500Y-18570077D01*
X27020185Y-18503038D01*
X27072989Y-18457283D01*
X27142147Y-18447339D01*
X27171947Y-18455514D01*
X27243238Y-18485044D01*
X27400000Y-18505682D01*
X27556762Y-18485044D01*
X27702841Y-18424536D01*
X27774513Y-18369539D01*
X27839682Y-18344345D01*
X27908127Y-18358383D01*
X27925484Y-18369538D01*
X27997159Y-18424536D01*
X28143238Y-18485044D01*
X28300000Y-18505682D01*
X28456762Y-18485044D01*
X28602841Y-18424536D01*
X28699516Y-18350354D01*
X28764682Y-18325162D01*
X28833127Y-18339200D01*
X28850477Y-18350349D01*
X28947159Y-18424536D01*
X29093238Y-18485044D01*
X29250000Y-18505682D01*
X29406762Y-18485044D01*
X29552841Y-18424536D01*
X29649516Y-18350354D01*
X29714682Y-18325162D01*
X29783127Y-18339200D01*
X29800477Y-18350349D01*
X29897159Y-18424536D01*
X30043238Y-18485044D01*
X30200000Y-18505682D01*
X30356762Y-18485044D01*
X30423457Y-18457417D01*
X30492926Y-18449949D01*
X30555405Y-18481224D01*
X30581394Y-18515684D01*
X30633885Y-18618704D01*
X30646781Y-18687374D01*
X30633885Y-18731293D01*
X30590280Y-18816873D01*
X30569195Y-18950000D01*
X30590280Y-19083126D01*
X30633885Y-19168706D01*
X30646781Y-19237375D01*
X30633885Y-19281294D01*
X30590280Y-19366873D01*
X30569195Y-19500000D01*
X30590280Y-19633124D01*
X30633885Y-19718704D01*
X30646781Y-19787374D01*
X30633885Y-19831293D01*
X30590280Y-19916873D01*
X30569195Y-20050000D01*
X30590280Y-20183126D01*
X30633885Y-20268706D01*
X30646781Y-20337375D01*
X30633885Y-20381294D01*
X30590280Y-20466873D01*
X30569195Y-20600000D01*
X30590280Y-20733124D01*
X30633885Y-20818704D01*
X30646781Y-20887374D01*
X30633885Y-20931293D01*
X30590280Y-21016873D01*
X30569195Y-21150000D01*
X30590280Y-21283126D01*
X30633885Y-21368706D01*
X30646781Y-21437375D01*
X30633885Y-21481294D01*
X30590280Y-21566873D01*
X30569195Y-21700000D01*
X30590280Y-21833124D01*
X30633885Y-21918704D01*
X30646781Y-21987374D01*
X30633885Y-22031294D01*
X30595256Y-22107108D01*
X30547282Y-22157904D01*
X30504170Y-22173286D01*
X30396875Y-22190280D01*
X30276778Y-22251472D01*
X30181472Y-22346778D01*
X30120280Y-22466875D01*
X30099195Y-22600000D01*
X30120280Y-22733124D01*
X30181472Y-22853221D01*
X30276778Y-22948527D01*
X30276780Y-22948528D01*
X30396874Y-23009719D01*
X30415228Y-23012626D01*
X30504936Y-23026835D01*
X30568071Y-23056764D01*
X30605002Y-23116076D01*
X30604004Y-23185938D01*
X30596024Y-23205600D01*
X30590280Y-23216872D01*
X30569195Y-23350000D01*
X30590280Y-23483124D01*
X30651472Y-23603221D01*
X30746778Y-23698527D01*
X30746780Y-23698528D01*
X30866874Y-23759719D01*
X30900293Y-23765012D01*
X30999999Y-23780804D01*
X30999999Y-23780803D01*
X31000000Y-23780804D01*
X31133126Y-23759719D01*
X31169840Y-23741011D01*
X31238509Y-23728116D01*
X31292429Y-23750000D01*
X31300000Y-23750000D01*
X31827914Y-23750000D01*
X31894953Y-23769685D01*
X31940708Y-23822489D01*
X31950652Y-23891647D01*
X31935301Y-23935997D01*
X31920124Y-23962287D01*
X31879533Y-24032592D01*
X31859353Y-24100000D01*
X31830266Y-24197159D01*
X31829531Y-24199613D01*
X31819392Y-24373659D01*
X31837344Y-24475464D01*
X31849668Y-24545354D01*
X31899000Y-24659719D01*
X31918721Y-24705438D01*
X32022832Y-24845283D01*
X32149830Y-24951848D01*
X32188532Y-25010020D01*
X32189640Y-25079880D01*
X32152803Y-25139250D01*
X32089715Y-25169280D01*
X32050728Y-25169311D01*
X32049998Y-25169195D01*
X31916875Y-25190280D01*
X31796778Y-25251472D01*
X31701472Y-25346778D01*
X31640280Y-25466875D01*
X31619195Y-25600000D01*
X31640280Y-25733124D01*
X31701472Y-25853221D01*
X31796778Y-25948527D01*
X31796780Y-25948528D01*
X31916874Y-26009719D01*
X32050000Y-26030804D01*
X32183126Y-26009719D01*
X32303220Y-25948528D01*
X32398528Y-25853220D01*
X32459719Y-25733126D01*
X32480804Y-25600000D01*
X32459719Y-25466874D01*
X32398528Y-25346780D01*
X32398527Y-25346778D01*
X32326673Y-25274924D01*
X32293188Y-25213601D01*
X32298172Y-25143909D01*
X32340044Y-25087976D01*
X32405508Y-25063559D01*
X32442946Y-25066584D01*
X32481829Y-25075800D01*
X32481831Y-25075800D01*
X32608837Y-25075800D01*
X32612436Y-25075800D01*
X32742164Y-25060637D01*
X32905993Y-25001008D01*
X33051654Y-24905205D01*
X33171296Y-24778393D01*
X33258467Y-24627407D01*
X33308469Y-24460388D01*
X33318607Y-24286340D01*
X33288332Y-24114646D01*
X33219279Y-23954562D01*
X33214427Y-23948045D01*
X33190185Y-23882520D01*
X33205217Y-23814287D01*
X33254752Y-23765012D01*
X33313892Y-23750000D01*
X33859914Y-23750000D01*
X33926953Y-23769685D01*
X33972708Y-23822489D01*
X33982652Y-23891647D01*
X33967301Y-23935997D01*
X33952124Y-23962287D01*
X33911533Y-24032592D01*
X33891353Y-24100000D01*
X33862266Y-24197159D01*
X33861531Y-24199613D01*
X33851392Y-24373659D01*
X33869344Y-24475464D01*
X33881668Y-24545354D01*
X33950721Y-24705438D01*
X34054832Y-24845283D01*
X34188386Y-24957349D01*
X34344185Y-25035594D01*
X34513829Y-25075800D01*
X34513831Y-25075800D01*
X34640837Y-25075800D01*
X34644436Y-25075800D01*
X34774164Y-25060637D01*
X34937993Y-25001008D01*
X35083654Y-24905205D01*
X35203296Y-24778393D01*
X35290467Y-24627407D01*
X35340469Y-24460388D01*
X35350607Y-24286340D01*
X35320332Y-24114646D01*
X35251279Y-23954562D01*
X35246427Y-23948045D01*
X35222185Y-23882520D01*
X35237217Y-23814287D01*
X35264502Y-23787144D01*
X35263679Y-23786321D01*
X35286181Y-23763818D01*
X35347503Y-23730331D01*
X35417195Y-23735314D01*
X35430158Y-23741012D01*
X35466873Y-23759719D01*
X35599998Y-23780804D01*
X35599998Y-23780803D01*
X35600000Y-23780804D01*
X35631889Y-23775753D01*
X35701182Y-23784707D01*
X35754634Y-23829702D01*
X35773761Y-23878828D01*
X35790280Y-23983124D01*
X35833885Y-24068704D01*
X35846781Y-24137374D01*
X35833885Y-24181293D01*
X35790280Y-24266873D01*
X35769195Y-24400000D01*
X35790280Y-24533124D01*
X35851472Y-24653221D01*
X35946778Y-24748527D01*
X35946780Y-24748528D01*
X36066874Y-24809719D01*
X36200000Y-24830804D01*
X36333126Y-24809719D01*
X36453220Y-24748528D01*
X36548528Y-24653220D01*
X36609719Y-24533126D01*
X36630804Y-24400000D01*
X36609719Y-24266874D01*
X36566114Y-24181294D01*
X36553218Y-24112624D01*
X36566112Y-24068707D01*
X36609719Y-23983126D01*
X36630804Y-23850000D01*
X36609719Y-23716874D01*
X36566114Y-23631294D01*
X36553218Y-23562624D01*
X36566112Y-23518707D01*
X36609719Y-23433126D01*
X36630804Y-23300000D01*
X36627503Y-23279161D01*
X36611094Y-23175557D01*
X36609719Y-23166874D01*
X36566113Y-23081294D01*
X36553218Y-23012626D01*
X36566114Y-22968705D01*
X36574197Y-22952841D01*
X36609719Y-22883126D01*
X36630804Y-22750000D01*
X36609719Y-22616874D01*
X36566113Y-22531294D01*
X36553218Y-22462626D01*
X36566114Y-22418705D01*
X36575112Y-22401046D01*
X36609719Y-22333126D01*
X36630804Y-22200000D01*
X36609719Y-22066874D01*
X36566113Y-21981294D01*
X36553218Y-21912626D01*
X36566114Y-21868705D01*
X36570253Y-21860582D01*
X36609719Y-21783126D01*
X36630804Y-21650000D01*
X36609719Y-21516874D01*
X36575900Y-21450500D01*
X36566114Y-21431294D01*
X36553218Y-21362624D01*
X36566112Y-21318707D01*
X36609719Y-21233126D01*
X36630804Y-21100000D01*
X36626844Y-21075000D01*
X36617334Y-21014956D01*
X36609719Y-20966874D01*
X36548528Y-20846780D01*
X36548527Y-20846778D01*
X36453221Y-20751472D01*
X36333124Y-20690280D01*
X36199998Y-20669195D01*
X36168108Y-20674246D01*
X36098815Y-20665291D01*
X36045363Y-20620294D01*
X36026238Y-20571171D01*
X36009719Y-20466875D01*
X36009719Y-20466874D01*
X35966113Y-20381294D01*
X35953218Y-20312626D01*
X35966114Y-20268705D01*
X35979090Y-20243238D01*
X36009719Y-20183126D01*
X36030804Y-20050000D01*
X36009719Y-19916874D01*
X35948528Y-19796780D01*
X35948527Y-19796778D01*
X35853221Y-19701472D01*
X35733124Y-19640280D01*
X35600000Y-19619195D01*
X35447476Y-19643353D01*
X35446899Y-19639713D01*
X35411605Y-19646336D01*
X35346869Y-19620049D01*
X35306622Y-19562936D01*
X35300000Y-19522957D01*
X35300000Y-18927042D01*
X35319685Y-18860003D01*
X35372489Y-18814248D01*
X35441647Y-18804304D01*
X35450594Y-18807140D01*
X35466872Y-18809718D01*
X35466874Y-18809719D01*
X35564365Y-18825160D01*
X35599999Y-18830804D01*
X35599999Y-18830803D01*
X35600000Y-18830804D01*
X35635635Y-18825160D01*
X35692171Y-18816206D01*
X35761464Y-18825160D01*
X35799251Y-18850998D01*
X35801470Y-18853218D01*
X35801472Y-18853220D01*
X35896780Y-18948528D01*
X36016874Y-19009719D01*
X36083437Y-19020261D01*
X36149999Y-19030804D01*
X36149999Y-19030803D01*
X36150000Y-19030804D01*
X36283126Y-19009719D01*
X36285556Y-19008480D01*
X36354224Y-18995583D01*
X36418965Y-19021857D01*
X36429534Y-19031283D01*
X36446778Y-19048527D01*
X36446780Y-19048528D01*
X36566874Y-19109719D01*
X36572027Y-19110535D01*
X36584424Y-19112499D01*
X36647559Y-19142428D01*
X36684491Y-19201739D01*
X36687500Y-19215572D01*
X36690280Y-19233124D01*
X36751472Y-19353221D01*
X36846778Y-19448527D01*
X36855712Y-19453079D01*
X36906509Y-19501052D01*
X36923306Y-19568873D01*
X36921894Y-19582960D01*
X36919195Y-19600000D01*
X36940280Y-19733124D01*
X37001472Y-19853221D01*
X37096778Y-19948527D01*
X37096780Y-19948528D01*
X37216874Y-20009719D01*
X37235216Y-20012624D01*
X37349999Y-20030804D01*
X37349999Y-20030803D01*
X37350000Y-20030804D01*
X37483126Y-20009719D01*
X37603220Y-19948528D01*
X37604216Y-19947532D01*
X37665538Y-19914045D01*
X37735230Y-19919027D01*
X37748191Y-19924723D01*
X37816874Y-19959719D01*
X37950000Y-19980804D01*
X38083126Y-19959719D01*
X38203220Y-19898528D01*
X38298528Y-19803220D01*
X38359719Y-19683126D01*
X38380804Y-19550000D01*
X38359719Y-19416874D01*
X38358480Y-19414443D01*
X38345581Y-19345777D01*
X38371855Y-19281036D01*
X38381268Y-19270479D01*
X38398528Y-19253220D01*
X38456499Y-19139444D01*
X38504474Y-19088649D01*
X38547587Y-19073267D01*
X38557373Y-19071717D01*
X38633126Y-19059719D01*
X38743705Y-19003375D01*
X38812374Y-18990480D01*
X38856294Y-19003375D01*
X38966874Y-19059719D01*
X39042627Y-19071717D01*
X39052413Y-19073267D01*
X39115548Y-19103196D01*
X39143501Y-19139446D01*
X39183885Y-19218706D01*
X39196781Y-19287376D01*
X39183885Y-19331294D01*
X39140280Y-19416873D01*
X39119195Y-19550000D01*
X39140280Y-19683126D01*
X39183885Y-19768706D01*
X39196781Y-19837375D01*
X39183885Y-19881294D01*
X39140280Y-19966873D01*
X39119195Y-20099999D01*
X39140280Y-20233124D01*
X39183885Y-20318704D01*
X39196781Y-20387374D01*
X39183885Y-20431293D01*
X39140280Y-20516873D01*
X39131950Y-20569467D01*
X39102020Y-20632602D01*
X39042708Y-20669532D01*
X39028875Y-20672541D01*
X38916873Y-20690280D01*
X38831294Y-20733885D01*
X38762625Y-20746781D01*
X38718706Y-20733885D01*
X38633126Y-20690280D01*
X38500000Y-20669195D01*
X38366873Y-20690280D01*
X38281294Y-20733885D01*
X38212625Y-20746781D01*
X38168706Y-20733885D01*
X38083126Y-20690280D01*
X37950000Y-20669195D01*
X37816873Y-20690280D01*
X37731294Y-20733885D01*
X37662625Y-20746781D01*
X37618706Y-20733885D01*
X37533126Y-20690280D01*
X37400000Y-20669195D01*
X37266875Y-20690280D01*
X37146778Y-20751472D01*
X37051472Y-20846778D01*
X36990280Y-20966875D01*
X36969195Y-21100000D01*
X36990280Y-21233124D01*
X37033885Y-21318704D01*
X37046781Y-21387374D01*
X37033885Y-21431293D01*
X36990280Y-21516873D01*
X36969195Y-21650000D01*
X36990280Y-21783124D01*
X37033885Y-21868704D01*
X37046781Y-21937374D01*
X37033885Y-21981293D01*
X36990280Y-22066873D01*
X36969195Y-22200000D01*
X36990280Y-22333126D01*
X37033885Y-22418706D01*
X37046781Y-22487375D01*
X37033885Y-22531294D01*
X36990280Y-22616873D01*
X36969195Y-22749999D01*
X36990280Y-22883126D01*
X37033885Y-22968706D01*
X37046781Y-23037375D01*
X37033885Y-23081294D01*
X36990280Y-23166873D01*
X36969195Y-23300000D01*
X36990280Y-23433124D01*
X37021147Y-23493704D01*
X37034043Y-23562374D01*
X37021148Y-23606292D01*
X36990280Y-23666875D01*
X36969195Y-23800000D01*
X36990280Y-23933124D01*
X37051472Y-24053221D01*
X37146778Y-24148527D01*
X37146780Y-24148528D01*
X37266874Y-24209719D01*
X37400000Y-24230804D01*
X37533126Y-24209719D01*
X37618705Y-24166113D01*
X37687374Y-24153218D01*
X37731293Y-24166113D01*
X37816874Y-24209719D01*
X37880119Y-24219736D01*
X37949999Y-24230804D01*
X37949999Y-24230803D01*
X37950000Y-24230804D01*
X38083126Y-24209719D01*
X38168705Y-24166113D01*
X38237374Y-24153218D01*
X38281293Y-24166113D01*
X38366874Y-24209719D01*
X38500000Y-24230804D01*
X38633126Y-24209719D01*
X38718705Y-24166113D01*
X38787374Y-24153218D01*
X38831293Y-24166113D01*
X38916874Y-24209719D01*
X38973857Y-24218744D01*
X38980119Y-24219736D01*
X39043254Y-24249665D01*
X39080186Y-24308976D01*
X39083195Y-24361606D01*
X39069195Y-24449999D01*
X39090280Y-24583124D01*
X39151472Y-24703221D01*
X39160570Y-24712319D01*
X39194055Y-24773642D01*
X39189071Y-24843334D01*
X39160570Y-24887681D01*
X39151472Y-24896778D01*
X39090280Y-25016875D01*
X39069195Y-25150000D01*
X39090280Y-25283124D01*
X39146385Y-25393238D01*
X39151472Y-25403220D01*
X39210571Y-25462319D01*
X39244055Y-25523640D01*
X39239071Y-25593332D01*
X39210571Y-25637680D01*
X39151471Y-25696779D01*
X39090280Y-25816875D01*
X39069195Y-25950000D01*
X39090280Y-26083124D01*
X39151472Y-26203221D01*
X39246778Y-26298527D01*
X39246780Y-26298528D01*
X39366874Y-26359719D01*
X39500000Y-26380804D01*
X39633126Y-26359719D01*
X39753220Y-26298528D01*
X39848528Y-26203220D01*
X39909719Y-26083126D01*
X39930804Y-25950000D01*
X39909719Y-25816874D01*
X39848528Y-25696780D01*
X39789427Y-25637679D01*
X39755944Y-25576359D01*
X39760928Y-25506667D01*
X39789427Y-25462320D01*
X39848528Y-25403220D01*
X39909719Y-25283126D01*
X39930804Y-25150000D01*
X39909719Y-25016874D01*
X39888468Y-24975168D01*
X39875573Y-24906500D01*
X39901849Y-24841759D01*
X39958956Y-24801502D01*
X40028761Y-24798510D01*
X40065992Y-24814558D01*
X40089947Y-24829953D01*
X40228039Y-24870500D01*
X40371961Y-24870500D01*
X40510053Y-24829953D01*
X40631128Y-24752143D01*
X40711213Y-24659719D01*
X40731287Y-24636553D01*
X40790064Y-24598778D01*
X40859934Y-24598778D01*
X40918712Y-24636552D01*
X40918713Y-24636553D01*
X41018870Y-24752141D01*
X41018872Y-24752143D01*
X41139947Y-24829953D01*
X41278039Y-24870500D01*
X41421961Y-24870500D01*
X41560053Y-24829953D01*
X41681128Y-24752143D01*
X41775377Y-24643373D01*
X41835165Y-24512457D01*
X41855647Y-24370000D01*
X41837739Y-24245449D01*
X41835165Y-24227542D01*
X41775376Y-24096625D01*
X41681129Y-23987858D01*
X41681128Y-23987857D01*
X41560053Y-23910047D01*
X41560051Y-23910046D01*
X41545055Y-23900409D01*
X41546249Y-23898549D01*
X41508799Y-23874480D01*
X41479777Y-23810923D01*
X41489722Y-23741765D01*
X41535479Y-23688962D01*
X41583117Y-23670807D01*
X41653126Y-23659719D01*
X41773220Y-23598528D01*
X41868528Y-23503220D01*
X41929719Y-23383126D01*
X41950804Y-23250000D01*
X41929719Y-23116874D01*
X41868528Y-22996780D01*
X41868527Y-22996778D01*
X41773221Y-22901472D01*
X41653124Y-22840280D01*
X41520000Y-22819195D01*
X41386875Y-22840280D01*
X41266778Y-22901472D01*
X41171472Y-22996778D01*
X41110280Y-23116875D01*
X41089195Y-23250000D01*
X41110280Y-23383124D01*
X41171472Y-23503221D01*
X41266778Y-23598527D01*
X41266780Y-23598528D01*
X41314104Y-23622641D01*
X41338390Y-23635015D01*
X41389186Y-23682989D01*
X41405981Y-23750810D01*
X41383444Y-23816945D01*
X41328729Y-23860397D01*
X41282095Y-23869500D01*
X41278039Y-23869500D01*
X41139947Y-23910047D01*
X41018869Y-23987858D01*
X40918713Y-24103446D01*
X40859935Y-24141221D01*
X40790065Y-24141221D01*
X40731287Y-24103447D01*
X40731287Y-24103446D01*
X40631130Y-23987858D01*
X40545965Y-23933126D01*
X40510053Y-23910047D01*
X40510052Y-23910046D01*
X40510051Y-23910046D01*
X40502819Y-23907923D01*
X40444041Y-23870148D01*
X40415016Y-23806592D01*
X40424960Y-23737434D01*
X40462268Y-23690570D01*
X40463165Y-23689880D01*
X40478282Y-23678282D01*
X40574536Y-23552841D01*
X40635044Y-23406762D01*
X40655682Y-23250000D01*
X40635044Y-23093238D01*
X40574536Y-22947159D01*
X40541213Y-22903731D01*
X40478282Y-22821717D01*
X40352840Y-22725463D01*
X40206762Y-22664956D01*
X40049998Y-22644317D01*
X39953411Y-22657033D01*
X39884376Y-22646267D01*
X39832121Y-22599887D01*
X39813236Y-22532618D01*
X39822665Y-22486646D01*
X39835044Y-22456762D01*
X39855682Y-22300000D01*
X39851122Y-22265370D01*
X39861889Y-22196335D01*
X39908268Y-22144079D01*
X39975537Y-22125194D01*
X40021512Y-22134623D01*
X40143238Y-22185044D01*
X40300000Y-22205682D01*
X40456762Y-22185044D01*
X40602841Y-22124536D01*
X40728282Y-22028282D01*
X40749983Y-22000000D01*
X41394317Y-22000000D01*
X41414956Y-22156762D01*
X41475463Y-22302840D01*
X41571717Y-22428282D01*
X41687174Y-22516874D01*
X41697159Y-22524536D01*
X41843238Y-22585044D01*
X42000000Y-22605682D01*
X42156762Y-22585044D01*
X42302841Y-22524536D01*
X42428282Y-22428282D01*
X42524536Y-22302841D01*
X42585044Y-22156762D01*
X42599099Y-22050000D01*
X43594317Y-22050000D01*
X43614956Y-22206762D01*
X43675463Y-22352840D01*
X43771717Y-22478282D01*
X43862911Y-22548257D01*
X43897159Y-22574536D01*
X44043238Y-22635044D01*
X44200000Y-22655682D01*
X44356762Y-22635044D01*
X44502841Y-22574536D01*
X44628282Y-22478282D01*
X44724536Y-22352841D01*
X44770795Y-22241161D01*
X44814634Y-22186759D01*
X44880928Y-22164694D01*
X44948628Y-22181973D01*
X44996239Y-22233110D01*
X44999916Y-22241163D01*
X45025463Y-22302840D01*
X45121717Y-22428282D01*
X45237174Y-22516874D01*
X45247159Y-22524536D01*
X45393238Y-22585044D01*
X45550000Y-22605682D01*
X45706762Y-22585044D01*
X45706762Y-22585043D01*
X45722948Y-22582913D01*
X45723575Y-22587679D01*
X45761668Y-22583558D01*
X45824168Y-22614791D01*
X45859861Y-22674856D01*
X45862672Y-22689415D01*
X45864956Y-22706762D01*
X45925463Y-22852840D01*
X46021717Y-22978282D01*
X46119379Y-23053220D01*
X46147159Y-23074536D01*
X46293238Y-23135044D01*
X46384930Y-23147115D01*
X46386256Y-23147290D01*
X46450153Y-23175557D01*
X46488624Y-23233881D01*
X46489455Y-23303746D01*
X46463785Y-23351431D01*
X46424623Y-23396627D01*
X46395957Y-23459395D01*
X46350201Y-23512198D01*
X46283161Y-23531882D01*
X46216122Y-23512197D01*
X46172678Y-23464177D01*
X46148527Y-23416778D01*
X46053221Y-23321472D01*
X45933124Y-23260280D01*
X45800000Y-23239195D01*
X45666875Y-23260280D01*
X45546778Y-23321472D01*
X45451472Y-23416778D01*
X45390280Y-23536875D01*
X45369195Y-23669999D01*
X45390280Y-23803124D01*
X45451472Y-23923221D01*
X45546778Y-24018527D01*
X45546780Y-24018528D01*
X45666874Y-24079719D01*
X45733437Y-24090261D01*
X45799999Y-24100804D01*
X45799999Y-24100803D01*
X45800000Y-24100804D01*
X45933126Y-24079719D01*
X46053220Y-24018528D01*
X46148528Y-23923220D01*
X46172677Y-23875823D01*
X46220652Y-23825027D01*
X46288473Y-23808231D01*
X46354608Y-23830768D01*
X46395957Y-23880605D01*
X46424623Y-23943374D01*
X46517015Y-24050000D01*
X46518872Y-24052143D01*
X46639947Y-24129953D01*
X46778039Y-24170500D01*
X46921961Y-24170500D01*
X47060053Y-24129953D01*
X47181128Y-24052143D01*
X47275377Y-23943373D01*
X47335165Y-23812457D01*
X47355647Y-23670000D01*
X47335165Y-23527543D01*
X47282339Y-23411872D01*
X47272396Y-23342717D01*
X47301420Y-23279161D01*
X47360198Y-23241386D01*
X47411317Y-23237424D01*
X47550000Y-23255682D01*
X47706762Y-23235044D01*
X47852841Y-23174536D01*
X47978282Y-23078282D01*
X48074536Y-22952841D01*
X48135044Y-22806762D01*
X48155682Y-22650000D01*
X48135044Y-22493238D01*
X48074536Y-22347159D01*
X48063644Y-22332964D01*
X47978282Y-22221717D01*
X47852840Y-22125463D01*
X47706762Y-22064956D01*
X47550000Y-22044317D01*
X47393237Y-22064956D01*
X47247159Y-22125463D01*
X47115168Y-22226743D01*
X47049999Y-22251937D01*
X46981554Y-22237898D01*
X46941306Y-22203853D01*
X46878282Y-22121717D01*
X46752840Y-22025463D01*
X46669568Y-21990971D01*
X46615164Y-21947130D01*
X46593099Y-21880836D01*
X46610378Y-21813137D01*
X46661515Y-21765526D01*
X46730275Y-21753120D01*
X46733202Y-21753470D01*
X46750000Y-21755682D01*
X46906762Y-21735044D01*
X47052841Y-21674536D01*
X47178282Y-21578282D01*
X47274536Y-21452841D01*
X47335044Y-21306762D01*
X47355682Y-21150000D01*
X47335044Y-20993238D01*
X47274536Y-20847159D01*
X47274244Y-20846778D01*
X47178282Y-20721717D01*
X47052840Y-20625463D01*
X46906762Y-20564956D01*
X46750000Y-20544317D01*
X46593237Y-20564956D01*
X46447159Y-20625463D01*
X46321717Y-20721717D01*
X46225463Y-20847159D01*
X46164956Y-20993237D01*
X46144317Y-21150000D01*
X46164956Y-21306762D01*
X46225463Y-21452840D01*
X46321717Y-21578282D01*
X46445517Y-21673276D01*
X46447159Y-21674536D01*
X46530432Y-21709028D01*
X46584835Y-21752868D01*
X46606900Y-21819162D01*
X46589621Y-21886862D01*
X46538484Y-21934472D01*
X46469725Y-21946879D01*
X46466797Y-21946529D01*
X46449999Y-21944317D01*
X46313230Y-21962324D01*
X46293238Y-21964956D01*
X46293237Y-21964956D01*
X46277053Y-21967087D01*
X46276425Y-21962324D01*
X46238188Y-21966416D01*
X46175724Y-21935109D01*
X46140102Y-21875002D01*
X46137327Y-21860582D01*
X46137004Y-21858126D01*
X46135044Y-21843238D01*
X46074536Y-21697159D01*
X46070129Y-21691416D01*
X45978282Y-21571717D01*
X45852840Y-21475463D01*
X45706762Y-21414956D01*
X45550000Y-21394317D01*
X45393237Y-21414956D01*
X45247159Y-21475463D01*
X45121717Y-21571717D01*
X45025464Y-21697158D01*
X44979205Y-21808837D01*
X44935364Y-21863240D01*
X44869070Y-21885305D01*
X44801370Y-21868026D01*
X44753760Y-21816888D01*
X44750093Y-21808860D01*
X44724536Y-21747159D01*
X44724535Y-21747158D01*
X44724535Y-21747157D01*
X44628282Y-21621717D01*
X44502840Y-21525463D01*
X44356762Y-21464956D01*
X44200000Y-21444317D01*
X44043237Y-21464956D01*
X43897159Y-21525463D01*
X43771717Y-21621717D01*
X43675463Y-21747159D01*
X43614956Y-21893237D01*
X43594317Y-22050000D01*
X42599099Y-22050000D01*
X42605682Y-22000000D01*
X42585044Y-21843238D01*
X42524536Y-21697159D01*
X42520129Y-21691416D01*
X42428282Y-21571717D01*
X42302840Y-21475463D01*
X42156762Y-21414956D01*
X42000000Y-21394317D01*
X41843237Y-21414956D01*
X41697159Y-21475463D01*
X41571717Y-21571717D01*
X41475463Y-21697159D01*
X41414956Y-21843237D01*
X41394317Y-22000000D01*
X40749983Y-22000000D01*
X40824536Y-21902841D01*
X40885044Y-21756762D01*
X40905682Y-21600000D01*
X40903302Y-21581925D01*
X40897314Y-21536438D01*
X40908080Y-21467403D01*
X40954459Y-21415147D01*
X41021728Y-21396262D01*
X41036438Y-21397314D01*
X41099999Y-21405682D01*
X41099999Y-21405681D01*
X41100000Y-21405682D01*
X41256762Y-21385044D01*
X41402841Y-21324536D01*
X41528282Y-21228282D01*
X41624536Y-21102841D01*
X41685044Y-20956762D01*
X41705682Y-20800000D01*
X41685044Y-20643238D01*
X41624536Y-20497159D01*
X41602702Y-20468704D01*
X41528282Y-20371717D01*
X41402840Y-20275463D01*
X41256762Y-20214956D01*
X41099999Y-20194317D01*
X40933022Y-20216301D01*
X40863987Y-20205535D01*
X40811731Y-20159155D01*
X40792846Y-20091887D01*
X40813327Y-20025086D01*
X40841351Y-19994986D01*
X40845922Y-19991479D01*
X40928282Y-19928282D01*
X41024536Y-19802841D01*
X41085044Y-19656762D01*
X41105682Y-19500000D01*
X42644340Y-19500000D01*
X42664936Y-19735407D01*
X42704517Y-19883124D01*
X42726097Y-19963663D01*
X42825965Y-20177829D01*
X42961505Y-20371401D01*
X43128599Y-20538495D01*
X43322171Y-20674035D01*
X43536337Y-20773903D01*
X43764592Y-20835063D01*
X43941034Y-20850500D01*
X43943742Y-20850500D01*
X44056258Y-20850500D01*
X44058966Y-20850500D01*
X44235408Y-20835063D01*
X44463663Y-20773903D01*
X44677829Y-20674035D01*
X44871401Y-20538495D01*
X45038495Y-20371401D01*
X45174035Y-20177830D01*
X45273903Y-19963663D01*
X45335063Y-19735408D01*
X45355659Y-19500000D01*
X45335063Y-19264592D01*
X45273903Y-19036337D01*
X45174035Y-18822171D01*
X45038495Y-18628599D01*
X44871401Y-18461505D01*
X44677829Y-18325965D01*
X44463663Y-18226097D01*
X44235407Y-18164936D01*
X44061667Y-18149736D01*
X44061659Y-18149735D01*
X44058966Y-18149500D01*
X43941034Y-18149500D01*
X43938341Y-18149735D01*
X43938332Y-18149736D01*
X43764592Y-18164936D01*
X43536336Y-18226097D01*
X43322170Y-18325965D01*
X43128598Y-18461505D01*
X42961508Y-18628595D01*
X42961505Y-18628598D01*
X42961505Y-18628599D01*
X42829674Y-18816874D01*
X42825964Y-18822172D01*
X42726097Y-19036337D01*
X42664936Y-19264592D01*
X42644340Y-19500000D01*
X41105682Y-19500000D01*
X41085044Y-19343238D01*
X41024536Y-19197159D01*
X40983161Y-19143238D01*
X40928282Y-19071717D01*
X40802840Y-18975463D01*
X40656762Y-18914956D01*
X40500000Y-18894317D01*
X40343237Y-18914956D01*
X40197159Y-18975463D01*
X40166137Y-18999267D01*
X40100968Y-19024460D01*
X40032523Y-19010421D01*
X39982534Y-18961606D01*
X39968179Y-18920287D01*
X39959719Y-18866875D01*
X39959719Y-18866874D01*
X39898528Y-18746780D01*
X39898527Y-18746778D01*
X39848631Y-18696882D01*
X39815146Y-18635559D01*
X39820130Y-18565867D01*
X39862002Y-18509934D01*
X39927466Y-18485517D01*
X39952487Y-18486261D01*
X40100000Y-18505682D01*
X40256762Y-18485044D01*
X40402841Y-18424536D01*
X40499516Y-18350354D01*
X40564682Y-18325162D01*
X40633127Y-18339200D01*
X40650477Y-18350349D01*
X40747159Y-18424536D01*
X40893238Y-18485044D01*
X41050000Y-18505682D01*
X41206762Y-18485044D01*
X41352841Y-18424536D01*
X41478282Y-18328282D01*
X41574536Y-18202841D01*
X41635044Y-18056762D01*
X41655682Y-17900000D01*
X41635044Y-17743238D01*
X41617744Y-17701472D01*
X41605517Y-17671952D01*
X41598048Y-17602482D01*
X41629324Y-17540003D01*
X41689413Y-17504352D01*
X41720078Y-17500500D01*
X46279922Y-17500500D01*
X46346961Y-17520185D01*
G37*
%TD.AperFunction*%
M02*
