%TF.GenerationSoftware,KiCad,Pcbnew,7.0.2-0*%
%TF.CreationDate,2023-07-19T09:37:30-04:00*%
%TF.ProjectId,ESPWatchS3,45535057-6174-4636-9853-332e6b696361,rev?*%
%TF.SameCoordinates,Original*%
%TF.FileFunction,Drillmap*%
%TF.FilePolarity,Positive*%
%FSLAX45Y45*%
G04 Gerber Fmt 4.5, Leading zero omitted, Abs format (unit mm)*
G04 Created by KiCad (PCBNEW 7.0.2-0) date 2023-07-19 09:37:30*
%MOMM*%
%LPD*%
G01*
G04 APERTURE LIST*
%ADD10C,0.100000*%
%ADD11C,0.200000*%
%ADD12C,0.065000*%
%ADD13C,0.099060*%
%ADD14C,0.220000*%
G04 APERTURE END LIST*
D10*
X2700000Y-1750000D02*
X6100000Y-1750000D01*
X6100000Y-5750000D01*
X2700000Y-5750000D01*
X2700000Y-1750000D01*
D11*
D12*
X3178000Y-3428500D02*
X3243000Y-3493500D01*
X3243000Y-3428500D02*
X3178000Y-3493500D01*
X3178000Y-4006500D02*
X3243000Y-4071500D01*
X3243000Y-4006500D02*
X3178000Y-4071500D01*
D13*
X3306430Y-2433000D02*
G75*
G03*
X3306430Y-2433000I-49530J0D01*
G01*
X3408030Y-2941000D02*
G75*
G03*
X3408030Y-2941000I-49530J0D01*
G01*
X3509630Y-2433000D02*
G75*
G03*
X3509630Y-2433000I-49530J0D01*
G01*
D14*
X3270000Y-5440000D02*
X3270000Y-5660000D01*
X3160000Y-5550000D02*
X3380000Y-5550000D01*
X4400000Y-1840000D02*
X4400000Y-2060000D01*
X4290000Y-1950000D02*
X4510000Y-1950000D01*
X5530000Y-5440000D02*
X5530000Y-5660000D01*
X5420000Y-5550000D02*
X5640000Y-5550000D01*
D11*
X2942619Y-6067524D02*
X2942619Y-5867524D01*
X2942619Y-5867524D02*
X2990238Y-5867524D01*
X2990238Y-5867524D02*
X3018809Y-5877048D01*
X3018809Y-5877048D02*
X3037857Y-5896095D01*
X3037857Y-5896095D02*
X3047381Y-5915143D01*
X3047381Y-5915143D02*
X3056905Y-5953238D01*
X3056905Y-5953238D02*
X3056905Y-5981809D01*
X3056905Y-5981809D02*
X3047381Y-6019905D01*
X3047381Y-6019905D02*
X3037857Y-6038952D01*
X3037857Y-6038952D02*
X3018809Y-6058000D01*
X3018809Y-6058000D02*
X2990238Y-6067524D01*
X2990238Y-6067524D02*
X2942619Y-6067524D01*
X3142619Y-6067524D02*
X3142619Y-5934190D01*
X3142619Y-5972286D02*
X3152143Y-5953238D01*
X3152143Y-5953238D02*
X3161667Y-5943714D01*
X3161667Y-5943714D02*
X3180714Y-5934190D01*
X3180714Y-5934190D02*
X3199762Y-5934190D01*
X3266428Y-6067524D02*
X3266428Y-5934190D01*
X3266428Y-5867524D02*
X3256905Y-5877048D01*
X3256905Y-5877048D02*
X3266428Y-5886571D01*
X3266428Y-5886571D02*
X3275952Y-5877048D01*
X3275952Y-5877048D02*
X3266428Y-5867524D01*
X3266428Y-5867524D02*
X3266428Y-5886571D01*
X3390238Y-6067524D02*
X3371190Y-6058000D01*
X3371190Y-6058000D02*
X3361667Y-6038952D01*
X3361667Y-6038952D02*
X3361667Y-5867524D01*
X3495000Y-6067524D02*
X3475952Y-6058000D01*
X3475952Y-6058000D02*
X3466428Y-6038952D01*
X3466428Y-6038952D02*
X3466428Y-5867524D01*
X3723571Y-6067524D02*
X3723571Y-5867524D01*
X3723571Y-5867524D02*
X3790238Y-6010381D01*
X3790238Y-6010381D02*
X3856905Y-5867524D01*
X3856905Y-5867524D02*
X3856905Y-6067524D01*
X4037857Y-6067524D02*
X4037857Y-5962762D01*
X4037857Y-5962762D02*
X4028333Y-5943714D01*
X4028333Y-5943714D02*
X4009286Y-5934190D01*
X4009286Y-5934190D02*
X3971190Y-5934190D01*
X3971190Y-5934190D02*
X3952143Y-5943714D01*
X4037857Y-6058000D02*
X4018809Y-6067524D01*
X4018809Y-6067524D02*
X3971190Y-6067524D01*
X3971190Y-6067524D02*
X3952143Y-6058000D01*
X3952143Y-6058000D02*
X3942619Y-6038952D01*
X3942619Y-6038952D02*
X3942619Y-6019905D01*
X3942619Y-6019905D02*
X3952143Y-6000857D01*
X3952143Y-6000857D02*
X3971190Y-5991333D01*
X3971190Y-5991333D02*
X4018809Y-5991333D01*
X4018809Y-5991333D02*
X4037857Y-5981809D01*
X4133095Y-5934190D02*
X4133095Y-6134190D01*
X4133095Y-5943714D02*
X4152143Y-5934190D01*
X4152143Y-5934190D02*
X4190238Y-5934190D01*
X4190238Y-5934190D02*
X4209286Y-5943714D01*
X4209286Y-5943714D02*
X4218810Y-5953238D01*
X4218810Y-5953238D02*
X4228333Y-5972286D01*
X4228333Y-5972286D02*
X4228333Y-6029428D01*
X4228333Y-6029428D02*
X4218810Y-6048476D01*
X4218810Y-6048476D02*
X4209286Y-6058000D01*
X4209286Y-6058000D02*
X4190238Y-6067524D01*
X4190238Y-6067524D02*
X4152143Y-6067524D01*
X4152143Y-6067524D02*
X4133095Y-6058000D01*
X4314048Y-6048476D02*
X4323571Y-6058000D01*
X4323571Y-6058000D02*
X4314048Y-6067524D01*
X4314048Y-6067524D02*
X4304524Y-6058000D01*
X4304524Y-6058000D02*
X4314048Y-6048476D01*
X4314048Y-6048476D02*
X4314048Y-6067524D01*
X4314048Y-5943714D02*
X4323571Y-5953238D01*
X4323571Y-5953238D02*
X4314048Y-5962762D01*
X4314048Y-5962762D02*
X4304524Y-5953238D01*
X4304524Y-5953238D02*
X4314048Y-5943714D01*
X4314048Y-5943714D02*
X4314048Y-5962762D01*
D12*
X2630000Y-6362500D02*
X2695000Y-6427500D01*
X2695000Y-6362500D02*
X2630000Y-6427500D01*
D11*
X2980714Y-6287524D02*
X2999762Y-6287524D01*
X2999762Y-6287524D02*
X3018809Y-6297048D01*
X3018809Y-6297048D02*
X3028333Y-6306571D01*
X3028333Y-6306571D02*
X3037857Y-6325619D01*
X3037857Y-6325619D02*
X3047381Y-6363714D01*
X3047381Y-6363714D02*
X3047381Y-6411333D01*
X3047381Y-6411333D02*
X3037857Y-6449428D01*
X3037857Y-6449428D02*
X3028333Y-6468476D01*
X3028333Y-6468476D02*
X3018809Y-6478000D01*
X3018809Y-6478000D02*
X2999762Y-6487524D01*
X2999762Y-6487524D02*
X2980714Y-6487524D01*
X2980714Y-6487524D02*
X2961667Y-6478000D01*
X2961667Y-6478000D02*
X2952143Y-6468476D01*
X2952143Y-6468476D02*
X2942619Y-6449428D01*
X2942619Y-6449428D02*
X2933095Y-6411333D01*
X2933095Y-6411333D02*
X2933095Y-6363714D01*
X2933095Y-6363714D02*
X2942619Y-6325619D01*
X2942619Y-6325619D02*
X2952143Y-6306571D01*
X2952143Y-6306571D02*
X2961667Y-6297048D01*
X2961667Y-6297048D02*
X2980714Y-6287524D01*
X3133095Y-6468476D02*
X3142619Y-6478000D01*
X3142619Y-6478000D02*
X3133095Y-6487524D01*
X3133095Y-6487524D02*
X3123571Y-6478000D01*
X3123571Y-6478000D02*
X3133095Y-6468476D01*
X3133095Y-6468476D02*
X3133095Y-6487524D01*
X3314048Y-6287524D02*
X3275952Y-6287524D01*
X3275952Y-6287524D02*
X3256905Y-6297048D01*
X3256905Y-6297048D02*
X3247381Y-6306571D01*
X3247381Y-6306571D02*
X3228333Y-6335143D01*
X3228333Y-6335143D02*
X3218809Y-6373238D01*
X3218809Y-6373238D02*
X3218809Y-6449428D01*
X3218809Y-6449428D02*
X3228333Y-6468476D01*
X3228333Y-6468476D02*
X3237857Y-6478000D01*
X3237857Y-6478000D02*
X3256905Y-6487524D01*
X3256905Y-6487524D02*
X3295000Y-6487524D01*
X3295000Y-6487524D02*
X3314048Y-6478000D01*
X3314048Y-6478000D02*
X3323571Y-6468476D01*
X3323571Y-6468476D02*
X3333095Y-6449428D01*
X3333095Y-6449428D02*
X3333095Y-6401809D01*
X3333095Y-6401809D02*
X3323571Y-6382762D01*
X3323571Y-6382762D02*
X3314048Y-6373238D01*
X3314048Y-6373238D02*
X3295000Y-6363714D01*
X3295000Y-6363714D02*
X3256905Y-6363714D01*
X3256905Y-6363714D02*
X3237857Y-6373238D01*
X3237857Y-6373238D02*
X3228333Y-6382762D01*
X3228333Y-6382762D02*
X3218809Y-6401809D01*
X3514048Y-6287524D02*
X3418809Y-6287524D01*
X3418809Y-6287524D02*
X3409286Y-6382762D01*
X3409286Y-6382762D02*
X3418809Y-6373238D01*
X3418809Y-6373238D02*
X3437857Y-6363714D01*
X3437857Y-6363714D02*
X3485476Y-6363714D01*
X3485476Y-6363714D02*
X3504524Y-6373238D01*
X3504524Y-6373238D02*
X3514048Y-6382762D01*
X3514048Y-6382762D02*
X3523571Y-6401809D01*
X3523571Y-6401809D02*
X3523571Y-6449428D01*
X3523571Y-6449428D02*
X3514048Y-6468476D01*
X3514048Y-6468476D02*
X3504524Y-6478000D01*
X3504524Y-6478000D02*
X3485476Y-6487524D01*
X3485476Y-6487524D02*
X3437857Y-6487524D01*
X3437857Y-6487524D02*
X3418809Y-6478000D01*
X3418809Y-6478000D02*
X3409286Y-6468476D01*
X3647381Y-6287524D02*
X3666429Y-6287524D01*
X3666429Y-6287524D02*
X3685476Y-6297048D01*
X3685476Y-6297048D02*
X3695000Y-6306571D01*
X3695000Y-6306571D02*
X3704524Y-6325619D01*
X3704524Y-6325619D02*
X3714048Y-6363714D01*
X3714048Y-6363714D02*
X3714048Y-6411333D01*
X3714048Y-6411333D02*
X3704524Y-6449428D01*
X3704524Y-6449428D02*
X3695000Y-6468476D01*
X3695000Y-6468476D02*
X3685476Y-6478000D01*
X3685476Y-6478000D02*
X3666429Y-6487524D01*
X3666429Y-6487524D02*
X3647381Y-6487524D01*
X3647381Y-6487524D02*
X3628333Y-6478000D01*
X3628333Y-6478000D02*
X3618809Y-6468476D01*
X3618809Y-6468476D02*
X3609286Y-6449428D01*
X3609286Y-6449428D02*
X3599762Y-6411333D01*
X3599762Y-6411333D02*
X3599762Y-6363714D01*
X3599762Y-6363714D02*
X3609286Y-6325619D01*
X3609286Y-6325619D02*
X3618809Y-6306571D01*
X3618809Y-6306571D02*
X3628333Y-6297048D01*
X3628333Y-6297048D02*
X3647381Y-6287524D01*
X3799762Y-6487524D02*
X3799762Y-6354190D01*
X3799762Y-6373238D02*
X3809286Y-6363714D01*
X3809286Y-6363714D02*
X3828333Y-6354190D01*
X3828333Y-6354190D02*
X3856905Y-6354190D01*
X3856905Y-6354190D02*
X3875952Y-6363714D01*
X3875952Y-6363714D02*
X3885476Y-6382762D01*
X3885476Y-6382762D02*
X3885476Y-6487524D01*
X3885476Y-6382762D02*
X3895000Y-6363714D01*
X3895000Y-6363714D02*
X3914048Y-6354190D01*
X3914048Y-6354190D02*
X3942619Y-6354190D01*
X3942619Y-6354190D02*
X3961667Y-6363714D01*
X3961667Y-6363714D02*
X3971190Y-6382762D01*
X3971190Y-6382762D02*
X3971190Y-6487524D01*
X4066429Y-6487524D02*
X4066429Y-6354190D01*
X4066429Y-6373238D02*
X4075952Y-6363714D01*
X4075952Y-6363714D02*
X4095000Y-6354190D01*
X4095000Y-6354190D02*
X4123571Y-6354190D01*
X4123571Y-6354190D02*
X4142619Y-6363714D01*
X4142619Y-6363714D02*
X4152143Y-6382762D01*
X4152143Y-6382762D02*
X4152143Y-6487524D01*
X4152143Y-6382762D02*
X4161667Y-6363714D01*
X4161667Y-6363714D02*
X4180714Y-6354190D01*
X4180714Y-6354190D02*
X4209286Y-6354190D01*
X4209286Y-6354190D02*
X4228333Y-6363714D01*
X4228333Y-6363714D02*
X4237857Y-6382762D01*
X4237857Y-6382762D02*
X4237857Y-6487524D01*
X4628333Y-6278000D02*
X4456905Y-6535143D01*
X4885476Y-6287524D02*
X4904524Y-6287524D01*
X4904524Y-6287524D02*
X4923572Y-6297048D01*
X4923572Y-6297048D02*
X4933095Y-6306571D01*
X4933095Y-6306571D02*
X4942619Y-6325619D01*
X4942619Y-6325619D02*
X4952143Y-6363714D01*
X4952143Y-6363714D02*
X4952143Y-6411333D01*
X4952143Y-6411333D02*
X4942619Y-6449428D01*
X4942619Y-6449428D02*
X4933095Y-6468476D01*
X4933095Y-6468476D02*
X4923572Y-6478000D01*
X4923572Y-6478000D02*
X4904524Y-6487524D01*
X4904524Y-6487524D02*
X4885476Y-6487524D01*
X4885476Y-6487524D02*
X4866429Y-6478000D01*
X4866429Y-6478000D02*
X4856905Y-6468476D01*
X4856905Y-6468476D02*
X4847381Y-6449428D01*
X4847381Y-6449428D02*
X4837857Y-6411333D01*
X4837857Y-6411333D02*
X4837857Y-6363714D01*
X4837857Y-6363714D02*
X4847381Y-6325619D01*
X4847381Y-6325619D02*
X4856905Y-6306571D01*
X4856905Y-6306571D02*
X4866429Y-6297048D01*
X4866429Y-6297048D02*
X4885476Y-6287524D01*
X5037857Y-6468476D02*
X5047381Y-6478000D01*
X5047381Y-6478000D02*
X5037857Y-6487524D01*
X5037857Y-6487524D02*
X5028334Y-6478000D01*
X5028334Y-6478000D02*
X5037857Y-6468476D01*
X5037857Y-6468476D02*
X5037857Y-6487524D01*
X5171191Y-6287524D02*
X5190238Y-6287524D01*
X5190238Y-6287524D02*
X5209286Y-6297048D01*
X5209286Y-6297048D02*
X5218810Y-6306571D01*
X5218810Y-6306571D02*
X5228334Y-6325619D01*
X5228334Y-6325619D02*
X5237857Y-6363714D01*
X5237857Y-6363714D02*
X5237857Y-6411333D01*
X5237857Y-6411333D02*
X5228334Y-6449428D01*
X5228334Y-6449428D02*
X5218810Y-6468476D01*
X5218810Y-6468476D02*
X5209286Y-6478000D01*
X5209286Y-6478000D02*
X5190238Y-6487524D01*
X5190238Y-6487524D02*
X5171191Y-6487524D01*
X5171191Y-6487524D02*
X5152143Y-6478000D01*
X5152143Y-6478000D02*
X5142619Y-6468476D01*
X5142619Y-6468476D02*
X5133095Y-6449428D01*
X5133095Y-6449428D02*
X5123572Y-6411333D01*
X5123572Y-6411333D02*
X5123572Y-6363714D01*
X5123572Y-6363714D02*
X5133095Y-6325619D01*
X5133095Y-6325619D02*
X5142619Y-6306571D01*
X5142619Y-6306571D02*
X5152143Y-6297048D01*
X5152143Y-6297048D02*
X5171191Y-6287524D01*
X5314048Y-6306571D02*
X5323572Y-6297048D01*
X5323572Y-6297048D02*
X5342619Y-6287524D01*
X5342619Y-6287524D02*
X5390238Y-6287524D01*
X5390238Y-6287524D02*
X5409286Y-6297048D01*
X5409286Y-6297048D02*
X5418810Y-6306571D01*
X5418810Y-6306571D02*
X5428334Y-6325619D01*
X5428334Y-6325619D02*
X5428334Y-6344667D01*
X5428334Y-6344667D02*
X5418810Y-6373238D01*
X5418810Y-6373238D02*
X5304524Y-6487524D01*
X5304524Y-6487524D02*
X5428334Y-6487524D01*
X5609286Y-6287524D02*
X5514048Y-6287524D01*
X5514048Y-6287524D02*
X5504524Y-6382762D01*
X5504524Y-6382762D02*
X5514048Y-6373238D01*
X5514048Y-6373238D02*
X5533095Y-6363714D01*
X5533095Y-6363714D02*
X5580715Y-6363714D01*
X5580715Y-6363714D02*
X5599762Y-6373238D01*
X5599762Y-6373238D02*
X5609286Y-6382762D01*
X5609286Y-6382762D02*
X5618810Y-6401809D01*
X5618810Y-6401809D02*
X5618810Y-6449428D01*
X5618810Y-6449428D02*
X5609286Y-6468476D01*
X5609286Y-6468476D02*
X5599762Y-6478000D01*
X5599762Y-6478000D02*
X5580715Y-6487524D01*
X5580715Y-6487524D02*
X5533095Y-6487524D01*
X5533095Y-6487524D02*
X5514048Y-6478000D01*
X5514048Y-6478000D02*
X5504524Y-6468476D01*
X5790238Y-6287524D02*
X5752143Y-6287524D01*
X5752143Y-6287524D02*
X5733095Y-6297048D01*
X5733095Y-6297048D02*
X5723572Y-6306571D01*
X5723572Y-6306571D02*
X5704524Y-6335143D01*
X5704524Y-6335143D02*
X5695000Y-6373238D01*
X5695000Y-6373238D02*
X5695000Y-6449428D01*
X5695000Y-6449428D02*
X5704524Y-6468476D01*
X5704524Y-6468476D02*
X5714048Y-6478000D01*
X5714048Y-6478000D02*
X5733095Y-6487524D01*
X5733095Y-6487524D02*
X5771191Y-6487524D01*
X5771191Y-6487524D02*
X5790238Y-6478000D01*
X5790238Y-6478000D02*
X5799762Y-6468476D01*
X5799762Y-6468476D02*
X5809286Y-6449428D01*
X5809286Y-6449428D02*
X5809286Y-6401809D01*
X5809286Y-6401809D02*
X5799762Y-6382762D01*
X5799762Y-6382762D02*
X5790238Y-6373238D01*
X5790238Y-6373238D02*
X5771191Y-6363714D01*
X5771191Y-6363714D02*
X5733095Y-6363714D01*
X5733095Y-6363714D02*
X5714048Y-6373238D01*
X5714048Y-6373238D02*
X5704524Y-6382762D01*
X5704524Y-6382762D02*
X5695000Y-6401809D01*
X5885476Y-6287524D02*
X5885476Y-6325619D01*
X5961667Y-6287524D02*
X5961667Y-6325619D01*
X6256905Y-6563714D02*
X6247381Y-6554190D01*
X6247381Y-6554190D02*
X6228334Y-6525619D01*
X6228334Y-6525619D02*
X6218810Y-6506571D01*
X6218810Y-6506571D02*
X6209286Y-6478000D01*
X6209286Y-6478000D02*
X6199762Y-6430381D01*
X6199762Y-6430381D02*
X6199762Y-6392286D01*
X6199762Y-6392286D02*
X6209286Y-6344667D01*
X6209286Y-6344667D02*
X6218810Y-6316095D01*
X6218810Y-6316095D02*
X6228334Y-6297048D01*
X6228334Y-6297048D02*
X6247381Y-6268476D01*
X6247381Y-6268476D02*
X6256905Y-6258952D01*
X6323572Y-6306571D02*
X6333095Y-6297048D01*
X6333095Y-6297048D02*
X6352143Y-6287524D01*
X6352143Y-6287524D02*
X6399762Y-6287524D01*
X6399762Y-6287524D02*
X6418810Y-6297048D01*
X6418810Y-6297048D02*
X6428334Y-6306571D01*
X6428334Y-6306571D02*
X6437857Y-6325619D01*
X6437857Y-6325619D02*
X6437857Y-6344667D01*
X6437857Y-6344667D02*
X6428334Y-6373238D01*
X6428334Y-6373238D02*
X6314048Y-6487524D01*
X6314048Y-6487524D02*
X6437857Y-6487524D01*
X6675953Y-6487524D02*
X6675953Y-6287524D01*
X6761667Y-6487524D02*
X6761667Y-6382762D01*
X6761667Y-6382762D02*
X6752143Y-6363714D01*
X6752143Y-6363714D02*
X6733096Y-6354190D01*
X6733096Y-6354190D02*
X6704524Y-6354190D01*
X6704524Y-6354190D02*
X6685476Y-6363714D01*
X6685476Y-6363714D02*
X6675953Y-6373238D01*
X6885476Y-6487524D02*
X6866429Y-6478000D01*
X6866429Y-6478000D02*
X6856905Y-6468476D01*
X6856905Y-6468476D02*
X6847381Y-6449428D01*
X6847381Y-6449428D02*
X6847381Y-6392286D01*
X6847381Y-6392286D02*
X6856905Y-6373238D01*
X6856905Y-6373238D02*
X6866429Y-6363714D01*
X6866429Y-6363714D02*
X6885476Y-6354190D01*
X6885476Y-6354190D02*
X6914048Y-6354190D01*
X6914048Y-6354190D02*
X6933096Y-6363714D01*
X6933096Y-6363714D02*
X6942619Y-6373238D01*
X6942619Y-6373238D02*
X6952143Y-6392286D01*
X6952143Y-6392286D02*
X6952143Y-6449428D01*
X6952143Y-6449428D02*
X6942619Y-6468476D01*
X6942619Y-6468476D02*
X6933096Y-6478000D01*
X6933096Y-6478000D02*
X6914048Y-6487524D01*
X6914048Y-6487524D02*
X6885476Y-6487524D01*
X7066429Y-6487524D02*
X7047381Y-6478000D01*
X7047381Y-6478000D02*
X7037857Y-6458952D01*
X7037857Y-6458952D02*
X7037857Y-6287524D01*
X7218810Y-6478000D02*
X7199762Y-6487524D01*
X7199762Y-6487524D02*
X7161667Y-6487524D01*
X7161667Y-6487524D02*
X7142619Y-6478000D01*
X7142619Y-6478000D02*
X7133096Y-6458952D01*
X7133096Y-6458952D02*
X7133096Y-6382762D01*
X7133096Y-6382762D02*
X7142619Y-6363714D01*
X7142619Y-6363714D02*
X7161667Y-6354190D01*
X7161667Y-6354190D02*
X7199762Y-6354190D01*
X7199762Y-6354190D02*
X7218810Y-6363714D01*
X7218810Y-6363714D02*
X7228334Y-6382762D01*
X7228334Y-6382762D02*
X7228334Y-6401809D01*
X7228334Y-6401809D02*
X7133096Y-6420857D01*
X7304524Y-6478000D02*
X7323572Y-6487524D01*
X7323572Y-6487524D02*
X7361667Y-6487524D01*
X7361667Y-6487524D02*
X7380715Y-6478000D01*
X7380715Y-6478000D02*
X7390238Y-6458952D01*
X7390238Y-6458952D02*
X7390238Y-6449428D01*
X7390238Y-6449428D02*
X7380715Y-6430381D01*
X7380715Y-6430381D02*
X7361667Y-6420857D01*
X7361667Y-6420857D02*
X7333096Y-6420857D01*
X7333096Y-6420857D02*
X7314048Y-6411333D01*
X7314048Y-6411333D02*
X7304524Y-6392286D01*
X7304524Y-6392286D02*
X7304524Y-6382762D01*
X7304524Y-6382762D02*
X7314048Y-6363714D01*
X7314048Y-6363714D02*
X7333096Y-6354190D01*
X7333096Y-6354190D02*
X7361667Y-6354190D01*
X7361667Y-6354190D02*
X7380715Y-6363714D01*
X7456905Y-6563714D02*
X7466429Y-6554190D01*
X7466429Y-6554190D02*
X7485477Y-6525619D01*
X7485477Y-6525619D02*
X7495000Y-6506571D01*
X7495000Y-6506571D02*
X7504524Y-6478000D01*
X7504524Y-6478000D02*
X7514048Y-6430381D01*
X7514048Y-6430381D02*
X7514048Y-6392286D01*
X7514048Y-6392286D02*
X7504524Y-6344667D01*
X7504524Y-6344667D02*
X7495000Y-6316095D01*
X7495000Y-6316095D02*
X7485477Y-6297048D01*
X7485477Y-6297048D02*
X7466429Y-6268476D01*
X7466429Y-6268476D02*
X7456905Y-6258952D01*
X7818810Y-6563714D02*
X7809286Y-6554190D01*
X7809286Y-6554190D02*
X7790238Y-6525619D01*
X7790238Y-6525619D02*
X7780715Y-6506571D01*
X7780715Y-6506571D02*
X7771191Y-6478000D01*
X7771191Y-6478000D02*
X7761667Y-6430381D01*
X7761667Y-6430381D02*
X7761667Y-6392286D01*
X7761667Y-6392286D02*
X7771191Y-6344667D01*
X7771191Y-6344667D02*
X7780715Y-6316095D01*
X7780715Y-6316095D02*
X7790238Y-6297048D01*
X7790238Y-6297048D02*
X7809286Y-6268476D01*
X7809286Y-6268476D02*
X7818810Y-6258952D01*
X7895000Y-6354190D02*
X7895000Y-6487524D01*
X7895000Y-6373238D02*
X7904524Y-6363714D01*
X7904524Y-6363714D02*
X7923572Y-6354190D01*
X7923572Y-6354190D02*
X7952143Y-6354190D01*
X7952143Y-6354190D02*
X7971191Y-6363714D01*
X7971191Y-6363714D02*
X7980715Y-6382762D01*
X7980715Y-6382762D02*
X7980715Y-6487524D01*
X8104524Y-6487524D02*
X8085477Y-6478000D01*
X8085477Y-6478000D02*
X8075953Y-6468476D01*
X8075953Y-6468476D02*
X8066429Y-6449428D01*
X8066429Y-6449428D02*
X8066429Y-6392286D01*
X8066429Y-6392286D02*
X8075953Y-6373238D01*
X8075953Y-6373238D02*
X8085477Y-6363714D01*
X8085477Y-6363714D02*
X8104524Y-6354190D01*
X8104524Y-6354190D02*
X8133096Y-6354190D01*
X8133096Y-6354190D02*
X8152143Y-6363714D01*
X8152143Y-6363714D02*
X8161667Y-6373238D01*
X8161667Y-6373238D02*
X8171191Y-6392286D01*
X8171191Y-6392286D02*
X8171191Y-6449428D01*
X8171191Y-6449428D02*
X8161667Y-6468476D01*
X8161667Y-6468476D02*
X8152143Y-6478000D01*
X8152143Y-6478000D02*
X8133096Y-6487524D01*
X8133096Y-6487524D02*
X8104524Y-6487524D01*
X8228334Y-6354190D02*
X8304524Y-6354190D01*
X8256905Y-6287524D02*
X8256905Y-6458952D01*
X8256905Y-6458952D02*
X8266429Y-6478000D01*
X8266429Y-6478000D02*
X8285477Y-6487524D01*
X8285477Y-6487524D02*
X8304524Y-6487524D01*
X8523572Y-6354190D02*
X8523572Y-6554190D01*
X8523572Y-6363714D02*
X8542620Y-6354190D01*
X8542620Y-6354190D02*
X8580715Y-6354190D01*
X8580715Y-6354190D02*
X8599762Y-6363714D01*
X8599762Y-6363714D02*
X8609286Y-6373238D01*
X8609286Y-6373238D02*
X8618810Y-6392286D01*
X8618810Y-6392286D02*
X8618810Y-6449428D01*
X8618810Y-6449428D02*
X8609286Y-6468476D01*
X8609286Y-6468476D02*
X8599762Y-6478000D01*
X8599762Y-6478000D02*
X8580715Y-6487524D01*
X8580715Y-6487524D02*
X8542620Y-6487524D01*
X8542620Y-6487524D02*
X8523572Y-6478000D01*
X8733096Y-6487524D02*
X8714048Y-6478000D01*
X8714048Y-6478000D02*
X8704524Y-6458952D01*
X8704524Y-6458952D02*
X8704524Y-6287524D01*
X8895001Y-6487524D02*
X8895001Y-6382762D01*
X8895001Y-6382762D02*
X8885477Y-6363714D01*
X8885477Y-6363714D02*
X8866429Y-6354190D01*
X8866429Y-6354190D02*
X8828334Y-6354190D01*
X8828334Y-6354190D02*
X8809286Y-6363714D01*
X8895001Y-6478000D02*
X8875953Y-6487524D01*
X8875953Y-6487524D02*
X8828334Y-6487524D01*
X8828334Y-6487524D02*
X8809286Y-6478000D01*
X8809286Y-6478000D02*
X8799762Y-6458952D01*
X8799762Y-6458952D02*
X8799762Y-6439905D01*
X8799762Y-6439905D02*
X8809286Y-6420857D01*
X8809286Y-6420857D02*
X8828334Y-6411333D01*
X8828334Y-6411333D02*
X8875953Y-6411333D01*
X8875953Y-6411333D02*
X8895001Y-6401809D01*
X8961667Y-6354190D02*
X9037858Y-6354190D01*
X8990239Y-6287524D02*
X8990239Y-6458952D01*
X8990239Y-6458952D02*
X8999762Y-6478000D01*
X8999762Y-6478000D02*
X9018810Y-6487524D01*
X9018810Y-6487524D02*
X9037858Y-6487524D01*
X9180715Y-6478000D02*
X9161667Y-6487524D01*
X9161667Y-6487524D02*
X9123572Y-6487524D01*
X9123572Y-6487524D02*
X9104524Y-6478000D01*
X9104524Y-6478000D02*
X9095001Y-6458952D01*
X9095001Y-6458952D02*
X9095001Y-6382762D01*
X9095001Y-6382762D02*
X9104524Y-6363714D01*
X9104524Y-6363714D02*
X9123572Y-6354190D01*
X9123572Y-6354190D02*
X9161667Y-6354190D01*
X9161667Y-6354190D02*
X9180715Y-6363714D01*
X9180715Y-6363714D02*
X9190239Y-6382762D01*
X9190239Y-6382762D02*
X9190239Y-6401809D01*
X9190239Y-6401809D02*
X9095001Y-6420857D01*
X9361667Y-6487524D02*
X9361667Y-6287524D01*
X9361667Y-6478000D02*
X9342620Y-6487524D01*
X9342620Y-6487524D02*
X9304524Y-6487524D01*
X9304524Y-6487524D02*
X9285477Y-6478000D01*
X9285477Y-6478000D02*
X9275953Y-6468476D01*
X9275953Y-6468476D02*
X9266429Y-6449428D01*
X9266429Y-6449428D02*
X9266429Y-6392286D01*
X9266429Y-6392286D02*
X9275953Y-6373238D01*
X9275953Y-6373238D02*
X9285477Y-6363714D01*
X9285477Y-6363714D02*
X9304524Y-6354190D01*
X9304524Y-6354190D02*
X9342620Y-6354190D01*
X9342620Y-6354190D02*
X9361667Y-6363714D01*
X9437858Y-6563714D02*
X9447382Y-6554190D01*
X9447382Y-6554190D02*
X9466429Y-6525619D01*
X9466429Y-6525619D02*
X9475953Y-6506571D01*
X9475953Y-6506571D02*
X9485477Y-6478000D01*
X9485477Y-6478000D02*
X9495001Y-6430381D01*
X9495001Y-6430381D02*
X9495001Y-6392286D01*
X9495001Y-6392286D02*
X9485477Y-6344667D01*
X9485477Y-6344667D02*
X9475953Y-6316095D01*
X9475953Y-6316095D02*
X9466429Y-6297048D01*
X9466429Y-6297048D02*
X9447382Y-6268476D01*
X9447382Y-6268476D02*
X9437858Y-6258952D01*
D13*
X2695000Y-6659000D02*
G75*
G03*
X2695000Y-6659000I-49530J0D01*
G01*
D11*
X2980714Y-6551524D02*
X2999762Y-6551524D01*
X2999762Y-6551524D02*
X3018809Y-6561048D01*
X3018809Y-6561048D02*
X3028333Y-6570571D01*
X3028333Y-6570571D02*
X3037857Y-6589619D01*
X3037857Y-6589619D02*
X3047381Y-6627714D01*
X3047381Y-6627714D02*
X3047381Y-6675333D01*
X3047381Y-6675333D02*
X3037857Y-6713428D01*
X3037857Y-6713428D02*
X3028333Y-6732476D01*
X3028333Y-6732476D02*
X3018809Y-6742000D01*
X3018809Y-6742000D02*
X2999762Y-6751524D01*
X2999762Y-6751524D02*
X2980714Y-6751524D01*
X2980714Y-6751524D02*
X2961667Y-6742000D01*
X2961667Y-6742000D02*
X2952143Y-6732476D01*
X2952143Y-6732476D02*
X2942619Y-6713428D01*
X2942619Y-6713428D02*
X2933095Y-6675333D01*
X2933095Y-6675333D02*
X2933095Y-6627714D01*
X2933095Y-6627714D02*
X2942619Y-6589619D01*
X2942619Y-6589619D02*
X2952143Y-6570571D01*
X2952143Y-6570571D02*
X2961667Y-6561048D01*
X2961667Y-6561048D02*
X2980714Y-6551524D01*
X3133095Y-6732476D02*
X3142619Y-6742000D01*
X3142619Y-6742000D02*
X3133095Y-6751524D01*
X3133095Y-6751524D02*
X3123571Y-6742000D01*
X3123571Y-6742000D02*
X3133095Y-6732476D01*
X3133095Y-6732476D02*
X3133095Y-6751524D01*
X3237857Y-6751524D02*
X3275952Y-6751524D01*
X3275952Y-6751524D02*
X3295000Y-6742000D01*
X3295000Y-6742000D02*
X3304524Y-6732476D01*
X3304524Y-6732476D02*
X3323571Y-6703905D01*
X3323571Y-6703905D02*
X3333095Y-6665809D01*
X3333095Y-6665809D02*
X3333095Y-6589619D01*
X3333095Y-6589619D02*
X3323571Y-6570571D01*
X3323571Y-6570571D02*
X3314048Y-6561048D01*
X3314048Y-6561048D02*
X3295000Y-6551524D01*
X3295000Y-6551524D02*
X3256905Y-6551524D01*
X3256905Y-6551524D02*
X3237857Y-6561048D01*
X3237857Y-6561048D02*
X3228333Y-6570571D01*
X3228333Y-6570571D02*
X3218809Y-6589619D01*
X3218809Y-6589619D02*
X3218809Y-6637238D01*
X3218809Y-6637238D02*
X3228333Y-6656286D01*
X3228333Y-6656286D02*
X3237857Y-6665809D01*
X3237857Y-6665809D02*
X3256905Y-6675333D01*
X3256905Y-6675333D02*
X3295000Y-6675333D01*
X3295000Y-6675333D02*
X3314048Y-6665809D01*
X3314048Y-6665809D02*
X3323571Y-6656286D01*
X3323571Y-6656286D02*
X3333095Y-6637238D01*
X3428333Y-6751524D02*
X3466428Y-6751524D01*
X3466428Y-6751524D02*
X3485476Y-6742000D01*
X3485476Y-6742000D02*
X3495000Y-6732476D01*
X3495000Y-6732476D02*
X3514048Y-6703905D01*
X3514048Y-6703905D02*
X3523571Y-6665809D01*
X3523571Y-6665809D02*
X3523571Y-6589619D01*
X3523571Y-6589619D02*
X3514048Y-6570571D01*
X3514048Y-6570571D02*
X3504524Y-6561048D01*
X3504524Y-6561048D02*
X3485476Y-6551524D01*
X3485476Y-6551524D02*
X3447381Y-6551524D01*
X3447381Y-6551524D02*
X3428333Y-6561048D01*
X3428333Y-6561048D02*
X3418809Y-6570571D01*
X3418809Y-6570571D02*
X3409286Y-6589619D01*
X3409286Y-6589619D02*
X3409286Y-6637238D01*
X3409286Y-6637238D02*
X3418809Y-6656286D01*
X3418809Y-6656286D02*
X3428333Y-6665809D01*
X3428333Y-6665809D02*
X3447381Y-6675333D01*
X3447381Y-6675333D02*
X3485476Y-6675333D01*
X3485476Y-6675333D02*
X3504524Y-6665809D01*
X3504524Y-6665809D02*
X3514048Y-6656286D01*
X3514048Y-6656286D02*
X3523571Y-6637238D01*
X3714048Y-6751524D02*
X3599762Y-6751524D01*
X3656905Y-6751524D02*
X3656905Y-6551524D01*
X3656905Y-6551524D02*
X3637857Y-6580095D01*
X3637857Y-6580095D02*
X3618809Y-6599143D01*
X3618809Y-6599143D02*
X3599762Y-6608667D01*
X3799762Y-6751524D02*
X3799762Y-6618190D01*
X3799762Y-6637238D02*
X3809286Y-6627714D01*
X3809286Y-6627714D02*
X3828333Y-6618190D01*
X3828333Y-6618190D02*
X3856905Y-6618190D01*
X3856905Y-6618190D02*
X3875952Y-6627714D01*
X3875952Y-6627714D02*
X3885476Y-6646762D01*
X3885476Y-6646762D02*
X3885476Y-6751524D01*
X3885476Y-6646762D02*
X3895000Y-6627714D01*
X3895000Y-6627714D02*
X3914048Y-6618190D01*
X3914048Y-6618190D02*
X3942619Y-6618190D01*
X3942619Y-6618190D02*
X3961667Y-6627714D01*
X3961667Y-6627714D02*
X3971190Y-6646762D01*
X3971190Y-6646762D02*
X3971190Y-6751524D01*
X4066429Y-6751524D02*
X4066429Y-6618190D01*
X4066429Y-6637238D02*
X4075952Y-6627714D01*
X4075952Y-6627714D02*
X4095000Y-6618190D01*
X4095000Y-6618190D02*
X4123571Y-6618190D01*
X4123571Y-6618190D02*
X4142619Y-6627714D01*
X4142619Y-6627714D02*
X4152143Y-6646762D01*
X4152143Y-6646762D02*
X4152143Y-6751524D01*
X4152143Y-6646762D02*
X4161667Y-6627714D01*
X4161667Y-6627714D02*
X4180714Y-6618190D01*
X4180714Y-6618190D02*
X4209286Y-6618190D01*
X4209286Y-6618190D02*
X4228333Y-6627714D01*
X4228333Y-6627714D02*
X4237857Y-6646762D01*
X4237857Y-6646762D02*
X4237857Y-6751524D01*
X4628333Y-6542000D02*
X4456905Y-6799143D01*
X4885476Y-6551524D02*
X4904524Y-6551524D01*
X4904524Y-6551524D02*
X4923572Y-6561048D01*
X4923572Y-6561048D02*
X4933095Y-6570571D01*
X4933095Y-6570571D02*
X4942619Y-6589619D01*
X4942619Y-6589619D02*
X4952143Y-6627714D01*
X4952143Y-6627714D02*
X4952143Y-6675333D01*
X4952143Y-6675333D02*
X4942619Y-6713428D01*
X4942619Y-6713428D02*
X4933095Y-6732476D01*
X4933095Y-6732476D02*
X4923572Y-6742000D01*
X4923572Y-6742000D02*
X4904524Y-6751524D01*
X4904524Y-6751524D02*
X4885476Y-6751524D01*
X4885476Y-6751524D02*
X4866429Y-6742000D01*
X4866429Y-6742000D02*
X4856905Y-6732476D01*
X4856905Y-6732476D02*
X4847381Y-6713428D01*
X4847381Y-6713428D02*
X4837857Y-6675333D01*
X4837857Y-6675333D02*
X4837857Y-6627714D01*
X4837857Y-6627714D02*
X4847381Y-6589619D01*
X4847381Y-6589619D02*
X4856905Y-6570571D01*
X4856905Y-6570571D02*
X4866429Y-6561048D01*
X4866429Y-6561048D02*
X4885476Y-6551524D01*
X5037857Y-6732476D02*
X5047381Y-6742000D01*
X5047381Y-6742000D02*
X5037857Y-6751524D01*
X5037857Y-6751524D02*
X5028334Y-6742000D01*
X5028334Y-6742000D02*
X5037857Y-6732476D01*
X5037857Y-6732476D02*
X5037857Y-6751524D01*
X5171191Y-6551524D02*
X5190238Y-6551524D01*
X5190238Y-6551524D02*
X5209286Y-6561048D01*
X5209286Y-6561048D02*
X5218810Y-6570571D01*
X5218810Y-6570571D02*
X5228334Y-6589619D01*
X5228334Y-6589619D02*
X5237857Y-6627714D01*
X5237857Y-6627714D02*
X5237857Y-6675333D01*
X5237857Y-6675333D02*
X5228334Y-6713428D01*
X5228334Y-6713428D02*
X5218810Y-6732476D01*
X5218810Y-6732476D02*
X5209286Y-6742000D01*
X5209286Y-6742000D02*
X5190238Y-6751524D01*
X5190238Y-6751524D02*
X5171191Y-6751524D01*
X5171191Y-6751524D02*
X5152143Y-6742000D01*
X5152143Y-6742000D02*
X5142619Y-6732476D01*
X5142619Y-6732476D02*
X5133095Y-6713428D01*
X5133095Y-6713428D02*
X5123572Y-6675333D01*
X5123572Y-6675333D02*
X5123572Y-6627714D01*
X5123572Y-6627714D02*
X5133095Y-6589619D01*
X5133095Y-6589619D02*
X5142619Y-6570571D01*
X5142619Y-6570571D02*
X5152143Y-6561048D01*
X5152143Y-6561048D02*
X5171191Y-6551524D01*
X5304524Y-6551524D02*
X5428334Y-6551524D01*
X5428334Y-6551524D02*
X5361667Y-6627714D01*
X5361667Y-6627714D02*
X5390238Y-6627714D01*
X5390238Y-6627714D02*
X5409286Y-6637238D01*
X5409286Y-6637238D02*
X5418810Y-6646762D01*
X5418810Y-6646762D02*
X5428334Y-6665809D01*
X5428334Y-6665809D02*
X5428334Y-6713428D01*
X5428334Y-6713428D02*
X5418810Y-6732476D01*
X5418810Y-6732476D02*
X5409286Y-6742000D01*
X5409286Y-6742000D02*
X5390238Y-6751524D01*
X5390238Y-6751524D02*
X5333095Y-6751524D01*
X5333095Y-6751524D02*
X5314048Y-6742000D01*
X5314048Y-6742000D02*
X5304524Y-6732476D01*
X5523572Y-6751524D02*
X5561667Y-6751524D01*
X5561667Y-6751524D02*
X5580715Y-6742000D01*
X5580715Y-6742000D02*
X5590238Y-6732476D01*
X5590238Y-6732476D02*
X5609286Y-6703905D01*
X5609286Y-6703905D02*
X5618810Y-6665809D01*
X5618810Y-6665809D02*
X5618810Y-6589619D01*
X5618810Y-6589619D02*
X5609286Y-6570571D01*
X5609286Y-6570571D02*
X5599762Y-6561048D01*
X5599762Y-6561048D02*
X5580715Y-6551524D01*
X5580715Y-6551524D02*
X5542619Y-6551524D01*
X5542619Y-6551524D02*
X5523572Y-6561048D01*
X5523572Y-6561048D02*
X5514048Y-6570571D01*
X5514048Y-6570571D02*
X5504524Y-6589619D01*
X5504524Y-6589619D02*
X5504524Y-6637238D01*
X5504524Y-6637238D02*
X5514048Y-6656286D01*
X5514048Y-6656286D02*
X5523572Y-6665809D01*
X5523572Y-6665809D02*
X5542619Y-6675333D01*
X5542619Y-6675333D02*
X5580715Y-6675333D01*
X5580715Y-6675333D02*
X5599762Y-6665809D01*
X5599762Y-6665809D02*
X5609286Y-6656286D01*
X5609286Y-6656286D02*
X5618810Y-6637238D01*
X5742619Y-6551524D02*
X5761667Y-6551524D01*
X5761667Y-6551524D02*
X5780714Y-6561048D01*
X5780714Y-6561048D02*
X5790238Y-6570571D01*
X5790238Y-6570571D02*
X5799762Y-6589619D01*
X5799762Y-6589619D02*
X5809286Y-6627714D01*
X5809286Y-6627714D02*
X5809286Y-6675333D01*
X5809286Y-6675333D02*
X5799762Y-6713428D01*
X5799762Y-6713428D02*
X5790238Y-6732476D01*
X5790238Y-6732476D02*
X5780714Y-6742000D01*
X5780714Y-6742000D02*
X5761667Y-6751524D01*
X5761667Y-6751524D02*
X5742619Y-6751524D01*
X5742619Y-6751524D02*
X5723572Y-6742000D01*
X5723572Y-6742000D02*
X5714048Y-6732476D01*
X5714048Y-6732476D02*
X5704524Y-6713428D01*
X5704524Y-6713428D02*
X5695000Y-6675333D01*
X5695000Y-6675333D02*
X5695000Y-6627714D01*
X5695000Y-6627714D02*
X5704524Y-6589619D01*
X5704524Y-6589619D02*
X5714048Y-6570571D01*
X5714048Y-6570571D02*
X5723572Y-6561048D01*
X5723572Y-6561048D02*
X5742619Y-6551524D01*
X5885476Y-6551524D02*
X5885476Y-6589619D01*
X5961667Y-6551524D02*
X5961667Y-6589619D01*
X6256905Y-6827714D02*
X6247381Y-6818190D01*
X6247381Y-6818190D02*
X6228334Y-6789619D01*
X6228334Y-6789619D02*
X6218810Y-6770571D01*
X6218810Y-6770571D02*
X6209286Y-6742000D01*
X6209286Y-6742000D02*
X6199762Y-6694381D01*
X6199762Y-6694381D02*
X6199762Y-6656286D01*
X6199762Y-6656286D02*
X6209286Y-6608667D01*
X6209286Y-6608667D02*
X6218810Y-6580095D01*
X6218810Y-6580095D02*
X6228334Y-6561048D01*
X6228334Y-6561048D02*
X6247381Y-6532476D01*
X6247381Y-6532476D02*
X6256905Y-6522952D01*
X6314048Y-6551524D02*
X6437857Y-6551524D01*
X6437857Y-6551524D02*
X6371191Y-6627714D01*
X6371191Y-6627714D02*
X6399762Y-6627714D01*
X6399762Y-6627714D02*
X6418810Y-6637238D01*
X6418810Y-6637238D02*
X6428334Y-6646762D01*
X6428334Y-6646762D02*
X6437857Y-6665809D01*
X6437857Y-6665809D02*
X6437857Y-6713428D01*
X6437857Y-6713428D02*
X6428334Y-6732476D01*
X6428334Y-6732476D02*
X6418810Y-6742000D01*
X6418810Y-6742000D02*
X6399762Y-6751524D01*
X6399762Y-6751524D02*
X6342619Y-6751524D01*
X6342619Y-6751524D02*
X6323572Y-6742000D01*
X6323572Y-6742000D02*
X6314048Y-6732476D01*
X6675953Y-6751524D02*
X6675953Y-6551524D01*
X6761667Y-6751524D02*
X6761667Y-6646762D01*
X6761667Y-6646762D02*
X6752143Y-6627714D01*
X6752143Y-6627714D02*
X6733096Y-6618190D01*
X6733096Y-6618190D02*
X6704524Y-6618190D01*
X6704524Y-6618190D02*
X6685476Y-6627714D01*
X6685476Y-6627714D02*
X6675953Y-6637238D01*
X6885476Y-6751524D02*
X6866429Y-6742000D01*
X6866429Y-6742000D02*
X6856905Y-6732476D01*
X6856905Y-6732476D02*
X6847381Y-6713428D01*
X6847381Y-6713428D02*
X6847381Y-6656286D01*
X6847381Y-6656286D02*
X6856905Y-6637238D01*
X6856905Y-6637238D02*
X6866429Y-6627714D01*
X6866429Y-6627714D02*
X6885476Y-6618190D01*
X6885476Y-6618190D02*
X6914048Y-6618190D01*
X6914048Y-6618190D02*
X6933096Y-6627714D01*
X6933096Y-6627714D02*
X6942619Y-6637238D01*
X6942619Y-6637238D02*
X6952143Y-6656286D01*
X6952143Y-6656286D02*
X6952143Y-6713428D01*
X6952143Y-6713428D02*
X6942619Y-6732476D01*
X6942619Y-6732476D02*
X6933096Y-6742000D01*
X6933096Y-6742000D02*
X6914048Y-6751524D01*
X6914048Y-6751524D02*
X6885476Y-6751524D01*
X7066429Y-6751524D02*
X7047381Y-6742000D01*
X7047381Y-6742000D02*
X7037857Y-6722952D01*
X7037857Y-6722952D02*
X7037857Y-6551524D01*
X7218810Y-6742000D02*
X7199762Y-6751524D01*
X7199762Y-6751524D02*
X7161667Y-6751524D01*
X7161667Y-6751524D02*
X7142619Y-6742000D01*
X7142619Y-6742000D02*
X7133096Y-6722952D01*
X7133096Y-6722952D02*
X7133096Y-6646762D01*
X7133096Y-6646762D02*
X7142619Y-6627714D01*
X7142619Y-6627714D02*
X7161667Y-6618190D01*
X7161667Y-6618190D02*
X7199762Y-6618190D01*
X7199762Y-6618190D02*
X7218810Y-6627714D01*
X7218810Y-6627714D02*
X7228334Y-6646762D01*
X7228334Y-6646762D02*
X7228334Y-6665809D01*
X7228334Y-6665809D02*
X7133096Y-6684857D01*
X7304524Y-6742000D02*
X7323572Y-6751524D01*
X7323572Y-6751524D02*
X7361667Y-6751524D01*
X7361667Y-6751524D02*
X7380715Y-6742000D01*
X7380715Y-6742000D02*
X7390238Y-6722952D01*
X7390238Y-6722952D02*
X7390238Y-6713428D01*
X7390238Y-6713428D02*
X7380715Y-6694381D01*
X7380715Y-6694381D02*
X7361667Y-6684857D01*
X7361667Y-6684857D02*
X7333096Y-6684857D01*
X7333096Y-6684857D02*
X7314048Y-6675333D01*
X7314048Y-6675333D02*
X7304524Y-6656286D01*
X7304524Y-6656286D02*
X7304524Y-6646762D01*
X7304524Y-6646762D02*
X7314048Y-6627714D01*
X7314048Y-6627714D02*
X7333096Y-6618190D01*
X7333096Y-6618190D02*
X7361667Y-6618190D01*
X7361667Y-6618190D02*
X7380715Y-6627714D01*
X7456905Y-6827714D02*
X7466429Y-6818190D01*
X7466429Y-6818190D02*
X7485477Y-6789619D01*
X7485477Y-6789619D02*
X7495000Y-6770571D01*
X7495000Y-6770571D02*
X7504524Y-6742000D01*
X7504524Y-6742000D02*
X7514048Y-6694381D01*
X7514048Y-6694381D02*
X7514048Y-6656286D01*
X7514048Y-6656286D02*
X7504524Y-6608667D01*
X7504524Y-6608667D02*
X7495000Y-6580095D01*
X7495000Y-6580095D02*
X7485477Y-6561048D01*
X7485477Y-6561048D02*
X7466429Y-6532476D01*
X7466429Y-6532476D02*
X7456905Y-6522952D01*
X7818810Y-6827714D02*
X7809286Y-6818190D01*
X7809286Y-6818190D02*
X7790238Y-6789619D01*
X7790238Y-6789619D02*
X7780715Y-6770571D01*
X7780715Y-6770571D02*
X7771191Y-6742000D01*
X7771191Y-6742000D02*
X7761667Y-6694381D01*
X7761667Y-6694381D02*
X7761667Y-6656286D01*
X7761667Y-6656286D02*
X7771191Y-6608667D01*
X7771191Y-6608667D02*
X7780715Y-6580095D01*
X7780715Y-6580095D02*
X7790238Y-6561048D01*
X7790238Y-6561048D02*
X7809286Y-6532476D01*
X7809286Y-6532476D02*
X7818810Y-6522952D01*
X7895000Y-6618190D02*
X7895000Y-6751524D01*
X7895000Y-6637238D02*
X7904524Y-6627714D01*
X7904524Y-6627714D02*
X7923572Y-6618190D01*
X7923572Y-6618190D02*
X7952143Y-6618190D01*
X7952143Y-6618190D02*
X7971191Y-6627714D01*
X7971191Y-6627714D02*
X7980715Y-6646762D01*
X7980715Y-6646762D02*
X7980715Y-6751524D01*
X8104524Y-6751524D02*
X8085477Y-6742000D01*
X8085477Y-6742000D02*
X8075953Y-6732476D01*
X8075953Y-6732476D02*
X8066429Y-6713428D01*
X8066429Y-6713428D02*
X8066429Y-6656286D01*
X8066429Y-6656286D02*
X8075953Y-6637238D01*
X8075953Y-6637238D02*
X8085477Y-6627714D01*
X8085477Y-6627714D02*
X8104524Y-6618190D01*
X8104524Y-6618190D02*
X8133096Y-6618190D01*
X8133096Y-6618190D02*
X8152143Y-6627714D01*
X8152143Y-6627714D02*
X8161667Y-6637238D01*
X8161667Y-6637238D02*
X8171191Y-6656286D01*
X8171191Y-6656286D02*
X8171191Y-6713428D01*
X8171191Y-6713428D02*
X8161667Y-6732476D01*
X8161667Y-6732476D02*
X8152143Y-6742000D01*
X8152143Y-6742000D02*
X8133096Y-6751524D01*
X8133096Y-6751524D02*
X8104524Y-6751524D01*
X8228334Y-6618190D02*
X8304524Y-6618190D01*
X8256905Y-6551524D02*
X8256905Y-6722952D01*
X8256905Y-6722952D02*
X8266429Y-6742000D01*
X8266429Y-6742000D02*
X8285477Y-6751524D01*
X8285477Y-6751524D02*
X8304524Y-6751524D01*
X8523572Y-6618190D02*
X8523572Y-6818190D01*
X8523572Y-6627714D02*
X8542620Y-6618190D01*
X8542620Y-6618190D02*
X8580715Y-6618190D01*
X8580715Y-6618190D02*
X8599762Y-6627714D01*
X8599762Y-6627714D02*
X8609286Y-6637238D01*
X8609286Y-6637238D02*
X8618810Y-6656286D01*
X8618810Y-6656286D02*
X8618810Y-6713428D01*
X8618810Y-6713428D02*
X8609286Y-6732476D01*
X8609286Y-6732476D02*
X8599762Y-6742000D01*
X8599762Y-6742000D02*
X8580715Y-6751524D01*
X8580715Y-6751524D02*
X8542620Y-6751524D01*
X8542620Y-6751524D02*
X8523572Y-6742000D01*
X8733096Y-6751524D02*
X8714048Y-6742000D01*
X8714048Y-6742000D02*
X8704524Y-6722952D01*
X8704524Y-6722952D02*
X8704524Y-6551524D01*
X8895001Y-6751524D02*
X8895001Y-6646762D01*
X8895001Y-6646762D02*
X8885477Y-6627714D01*
X8885477Y-6627714D02*
X8866429Y-6618190D01*
X8866429Y-6618190D02*
X8828334Y-6618190D01*
X8828334Y-6618190D02*
X8809286Y-6627714D01*
X8895001Y-6742000D02*
X8875953Y-6751524D01*
X8875953Y-6751524D02*
X8828334Y-6751524D01*
X8828334Y-6751524D02*
X8809286Y-6742000D01*
X8809286Y-6742000D02*
X8799762Y-6722952D01*
X8799762Y-6722952D02*
X8799762Y-6703905D01*
X8799762Y-6703905D02*
X8809286Y-6684857D01*
X8809286Y-6684857D02*
X8828334Y-6675333D01*
X8828334Y-6675333D02*
X8875953Y-6675333D01*
X8875953Y-6675333D02*
X8895001Y-6665809D01*
X8961667Y-6618190D02*
X9037858Y-6618190D01*
X8990239Y-6551524D02*
X8990239Y-6722952D01*
X8990239Y-6722952D02*
X8999762Y-6742000D01*
X8999762Y-6742000D02*
X9018810Y-6751524D01*
X9018810Y-6751524D02*
X9037858Y-6751524D01*
X9180715Y-6742000D02*
X9161667Y-6751524D01*
X9161667Y-6751524D02*
X9123572Y-6751524D01*
X9123572Y-6751524D02*
X9104524Y-6742000D01*
X9104524Y-6742000D02*
X9095001Y-6722952D01*
X9095001Y-6722952D02*
X9095001Y-6646762D01*
X9095001Y-6646762D02*
X9104524Y-6627714D01*
X9104524Y-6627714D02*
X9123572Y-6618190D01*
X9123572Y-6618190D02*
X9161667Y-6618190D01*
X9161667Y-6618190D02*
X9180715Y-6627714D01*
X9180715Y-6627714D02*
X9190239Y-6646762D01*
X9190239Y-6646762D02*
X9190239Y-6665809D01*
X9190239Y-6665809D02*
X9095001Y-6684857D01*
X9361667Y-6751524D02*
X9361667Y-6551524D01*
X9361667Y-6742000D02*
X9342620Y-6751524D01*
X9342620Y-6751524D02*
X9304524Y-6751524D01*
X9304524Y-6751524D02*
X9285477Y-6742000D01*
X9285477Y-6742000D02*
X9275953Y-6732476D01*
X9275953Y-6732476D02*
X9266429Y-6713428D01*
X9266429Y-6713428D02*
X9266429Y-6656286D01*
X9266429Y-6656286D02*
X9275953Y-6637238D01*
X9275953Y-6637238D02*
X9285477Y-6627714D01*
X9285477Y-6627714D02*
X9304524Y-6618190D01*
X9304524Y-6618190D02*
X9342620Y-6618190D01*
X9342620Y-6618190D02*
X9361667Y-6627714D01*
X9437858Y-6827714D02*
X9447382Y-6818190D01*
X9447382Y-6818190D02*
X9466429Y-6789619D01*
X9466429Y-6789619D02*
X9475953Y-6770571D01*
X9475953Y-6770571D02*
X9485477Y-6742000D01*
X9485477Y-6742000D02*
X9495001Y-6694381D01*
X9495001Y-6694381D02*
X9495001Y-6656286D01*
X9495001Y-6656286D02*
X9485477Y-6608667D01*
X9485477Y-6608667D02*
X9475953Y-6580095D01*
X9475953Y-6580095D02*
X9466429Y-6561048D01*
X9466429Y-6561048D02*
X9447382Y-6532476D01*
X9447382Y-6532476D02*
X9437858Y-6522952D01*
X2595000Y-6823000D02*
X2595000Y-7023000D01*
X2495000Y-6923000D02*
X2695000Y-6923000D01*
X2933095Y-6834571D02*
X2942619Y-6825048D01*
X2942619Y-6825048D02*
X2961667Y-6815524D01*
X2961667Y-6815524D02*
X3009286Y-6815524D01*
X3009286Y-6815524D02*
X3028333Y-6825048D01*
X3028333Y-6825048D02*
X3037857Y-6834571D01*
X3037857Y-6834571D02*
X3047381Y-6853619D01*
X3047381Y-6853619D02*
X3047381Y-6872667D01*
X3047381Y-6872667D02*
X3037857Y-6901238D01*
X3037857Y-6901238D02*
X2923571Y-7015524D01*
X2923571Y-7015524D02*
X3047381Y-7015524D01*
X3133095Y-6996476D02*
X3142619Y-7006000D01*
X3142619Y-7006000D02*
X3133095Y-7015524D01*
X3133095Y-7015524D02*
X3123571Y-7006000D01*
X3123571Y-7006000D02*
X3133095Y-6996476D01*
X3133095Y-6996476D02*
X3133095Y-7015524D01*
X3218809Y-6834571D02*
X3228333Y-6825048D01*
X3228333Y-6825048D02*
X3247381Y-6815524D01*
X3247381Y-6815524D02*
X3295000Y-6815524D01*
X3295000Y-6815524D02*
X3314048Y-6825048D01*
X3314048Y-6825048D02*
X3323571Y-6834571D01*
X3323571Y-6834571D02*
X3333095Y-6853619D01*
X3333095Y-6853619D02*
X3333095Y-6872667D01*
X3333095Y-6872667D02*
X3323571Y-6901238D01*
X3323571Y-6901238D02*
X3209286Y-7015524D01*
X3209286Y-7015524D02*
X3333095Y-7015524D01*
X3456905Y-6815524D02*
X3475952Y-6815524D01*
X3475952Y-6815524D02*
X3495000Y-6825048D01*
X3495000Y-6825048D02*
X3504524Y-6834571D01*
X3504524Y-6834571D02*
X3514048Y-6853619D01*
X3514048Y-6853619D02*
X3523571Y-6891714D01*
X3523571Y-6891714D02*
X3523571Y-6939333D01*
X3523571Y-6939333D02*
X3514048Y-6977428D01*
X3514048Y-6977428D02*
X3504524Y-6996476D01*
X3504524Y-6996476D02*
X3495000Y-7006000D01*
X3495000Y-7006000D02*
X3475952Y-7015524D01*
X3475952Y-7015524D02*
X3456905Y-7015524D01*
X3456905Y-7015524D02*
X3437857Y-7006000D01*
X3437857Y-7006000D02*
X3428333Y-6996476D01*
X3428333Y-6996476D02*
X3418809Y-6977428D01*
X3418809Y-6977428D02*
X3409286Y-6939333D01*
X3409286Y-6939333D02*
X3409286Y-6891714D01*
X3409286Y-6891714D02*
X3418809Y-6853619D01*
X3418809Y-6853619D02*
X3428333Y-6834571D01*
X3428333Y-6834571D02*
X3437857Y-6825048D01*
X3437857Y-6825048D02*
X3456905Y-6815524D01*
X3647381Y-6815524D02*
X3666429Y-6815524D01*
X3666429Y-6815524D02*
X3685476Y-6825048D01*
X3685476Y-6825048D02*
X3695000Y-6834571D01*
X3695000Y-6834571D02*
X3704524Y-6853619D01*
X3704524Y-6853619D02*
X3714048Y-6891714D01*
X3714048Y-6891714D02*
X3714048Y-6939333D01*
X3714048Y-6939333D02*
X3704524Y-6977428D01*
X3704524Y-6977428D02*
X3695000Y-6996476D01*
X3695000Y-6996476D02*
X3685476Y-7006000D01*
X3685476Y-7006000D02*
X3666429Y-7015524D01*
X3666429Y-7015524D02*
X3647381Y-7015524D01*
X3647381Y-7015524D02*
X3628333Y-7006000D01*
X3628333Y-7006000D02*
X3618809Y-6996476D01*
X3618809Y-6996476D02*
X3609286Y-6977428D01*
X3609286Y-6977428D02*
X3599762Y-6939333D01*
X3599762Y-6939333D02*
X3599762Y-6891714D01*
X3599762Y-6891714D02*
X3609286Y-6853619D01*
X3609286Y-6853619D02*
X3618809Y-6834571D01*
X3618809Y-6834571D02*
X3628333Y-6825048D01*
X3628333Y-6825048D02*
X3647381Y-6815524D01*
X3799762Y-7015524D02*
X3799762Y-6882190D01*
X3799762Y-6901238D02*
X3809286Y-6891714D01*
X3809286Y-6891714D02*
X3828333Y-6882190D01*
X3828333Y-6882190D02*
X3856905Y-6882190D01*
X3856905Y-6882190D02*
X3875952Y-6891714D01*
X3875952Y-6891714D02*
X3885476Y-6910762D01*
X3885476Y-6910762D02*
X3885476Y-7015524D01*
X3885476Y-6910762D02*
X3895000Y-6891714D01*
X3895000Y-6891714D02*
X3914048Y-6882190D01*
X3914048Y-6882190D02*
X3942619Y-6882190D01*
X3942619Y-6882190D02*
X3961667Y-6891714D01*
X3961667Y-6891714D02*
X3971190Y-6910762D01*
X3971190Y-6910762D02*
X3971190Y-7015524D01*
X4066429Y-7015524D02*
X4066429Y-6882190D01*
X4066429Y-6901238D02*
X4075952Y-6891714D01*
X4075952Y-6891714D02*
X4095000Y-6882190D01*
X4095000Y-6882190D02*
X4123571Y-6882190D01*
X4123571Y-6882190D02*
X4142619Y-6891714D01*
X4142619Y-6891714D02*
X4152143Y-6910762D01*
X4152143Y-6910762D02*
X4152143Y-7015524D01*
X4152143Y-6910762D02*
X4161667Y-6891714D01*
X4161667Y-6891714D02*
X4180714Y-6882190D01*
X4180714Y-6882190D02*
X4209286Y-6882190D01*
X4209286Y-6882190D02*
X4228333Y-6891714D01*
X4228333Y-6891714D02*
X4237857Y-6910762D01*
X4237857Y-6910762D02*
X4237857Y-7015524D01*
X4628333Y-6806000D02*
X4456905Y-7063143D01*
X4885476Y-6815524D02*
X4904524Y-6815524D01*
X4904524Y-6815524D02*
X4923572Y-6825048D01*
X4923572Y-6825048D02*
X4933095Y-6834571D01*
X4933095Y-6834571D02*
X4942619Y-6853619D01*
X4942619Y-6853619D02*
X4952143Y-6891714D01*
X4952143Y-6891714D02*
X4952143Y-6939333D01*
X4952143Y-6939333D02*
X4942619Y-6977428D01*
X4942619Y-6977428D02*
X4933095Y-6996476D01*
X4933095Y-6996476D02*
X4923572Y-7006000D01*
X4923572Y-7006000D02*
X4904524Y-7015524D01*
X4904524Y-7015524D02*
X4885476Y-7015524D01*
X4885476Y-7015524D02*
X4866429Y-7006000D01*
X4866429Y-7006000D02*
X4856905Y-6996476D01*
X4856905Y-6996476D02*
X4847381Y-6977428D01*
X4847381Y-6977428D02*
X4837857Y-6939333D01*
X4837857Y-6939333D02*
X4837857Y-6891714D01*
X4837857Y-6891714D02*
X4847381Y-6853619D01*
X4847381Y-6853619D02*
X4856905Y-6834571D01*
X4856905Y-6834571D02*
X4866429Y-6825048D01*
X4866429Y-6825048D02*
X4885476Y-6815524D01*
X5037857Y-6996476D02*
X5047381Y-7006000D01*
X5047381Y-7006000D02*
X5037857Y-7015524D01*
X5037857Y-7015524D02*
X5028334Y-7006000D01*
X5028334Y-7006000D02*
X5037857Y-6996476D01*
X5037857Y-6996476D02*
X5037857Y-7015524D01*
X5171191Y-6815524D02*
X5190238Y-6815524D01*
X5190238Y-6815524D02*
X5209286Y-6825048D01*
X5209286Y-6825048D02*
X5218810Y-6834571D01*
X5218810Y-6834571D02*
X5228334Y-6853619D01*
X5228334Y-6853619D02*
X5237857Y-6891714D01*
X5237857Y-6891714D02*
X5237857Y-6939333D01*
X5237857Y-6939333D02*
X5228334Y-6977428D01*
X5228334Y-6977428D02*
X5218810Y-6996476D01*
X5218810Y-6996476D02*
X5209286Y-7006000D01*
X5209286Y-7006000D02*
X5190238Y-7015524D01*
X5190238Y-7015524D02*
X5171191Y-7015524D01*
X5171191Y-7015524D02*
X5152143Y-7006000D01*
X5152143Y-7006000D02*
X5142619Y-6996476D01*
X5142619Y-6996476D02*
X5133095Y-6977428D01*
X5133095Y-6977428D02*
X5123572Y-6939333D01*
X5123572Y-6939333D02*
X5123572Y-6891714D01*
X5123572Y-6891714D02*
X5133095Y-6853619D01*
X5133095Y-6853619D02*
X5142619Y-6834571D01*
X5142619Y-6834571D02*
X5152143Y-6825048D01*
X5152143Y-6825048D02*
X5171191Y-6815524D01*
X5352143Y-6901238D02*
X5333095Y-6891714D01*
X5333095Y-6891714D02*
X5323572Y-6882190D01*
X5323572Y-6882190D02*
X5314048Y-6863143D01*
X5314048Y-6863143D02*
X5314048Y-6853619D01*
X5314048Y-6853619D02*
X5323572Y-6834571D01*
X5323572Y-6834571D02*
X5333095Y-6825048D01*
X5333095Y-6825048D02*
X5352143Y-6815524D01*
X5352143Y-6815524D02*
X5390238Y-6815524D01*
X5390238Y-6815524D02*
X5409286Y-6825048D01*
X5409286Y-6825048D02*
X5418810Y-6834571D01*
X5418810Y-6834571D02*
X5428334Y-6853619D01*
X5428334Y-6853619D02*
X5428334Y-6863143D01*
X5428334Y-6863143D02*
X5418810Y-6882190D01*
X5418810Y-6882190D02*
X5409286Y-6891714D01*
X5409286Y-6891714D02*
X5390238Y-6901238D01*
X5390238Y-6901238D02*
X5352143Y-6901238D01*
X5352143Y-6901238D02*
X5333095Y-6910762D01*
X5333095Y-6910762D02*
X5323572Y-6920286D01*
X5323572Y-6920286D02*
X5314048Y-6939333D01*
X5314048Y-6939333D02*
X5314048Y-6977428D01*
X5314048Y-6977428D02*
X5323572Y-6996476D01*
X5323572Y-6996476D02*
X5333095Y-7006000D01*
X5333095Y-7006000D02*
X5352143Y-7015524D01*
X5352143Y-7015524D02*
X5390238Y-7015524D01*
X5390238Y-7015524D02*
X5409286Y-7006000D01*
X5409286Y-7006000D02*
X5418810Y-6996476D01*
X5418810Y-6996476D02*
X5428334Y-6977428D01*
X5428334Y-6977428D02*
X5428334Y-6939333D01*
X5428334Y-6939333D02*
X5418810Y-6920286D01*
X5418810Y-6920286D02*
X5409286Y-6910762D01*
X5409286Y-6910762D02*
X5390238Y-6901238D01*
X5599762Y-6815524D02*
X5561667Y-6815524D01*
X5561667Y-6815524D02*
X5542619Y-6825048D01*
X5542619Y-6825048D02*
X5533095Y-6834571D01*
X5533095Y-6834571D02*
X5514048Y-6863143D01*
X5514048Y-6863143D02*
X5504524Y-6901238D01*
X5504524Y-6901238D02*
X5504524Y-6977428D01*
X5504524Y-6977428D02*
X5514048Y-6996476D01*
X5514048Y-6996476D02*
X5523572Y-7006000D01*
X5523572Y-7006000D02*
X5542619Y-7015524D01*
X5542619Y-7015524D02*
X5580715Y-7015524D01*
X5580715Y-7015524D02*
X5599762Y-7006000D01*
X5599762Y-7006000D02*
X5609286Y-6996476D01*
X5609286Y-6996476D02*
X5618810Y-6977428D01*
X5618810Y-6977428D02*
X5618810Y-6929809D01*
X5618810Y-6929809D02*
X5609286Y-6910762D01*
X5609286Y-6910762D02*
X5599762Y-6901238D01*
X5599762Y-6901238D02*
X5580715Y-6891714D01*
X5580715Y-6891714D02*
X5542619Y-6891714D01*
X5542619Y-6891714D02*
X5523572Y-6901238D01*
X5523572Y-6901238D02*
X5514048Y-6910762D01*
X5514048Y-6910762D02*
X5504524Y-6929809D01*
X5790238Y-6815524D02*
X5752143Y-6815524D01*
X5752143Y-6815524D02*
X5733095Y-6825048D01*
X5733095Y-6825048D02*
X5723572Y-6834571D01*
X5723572Y-6834571D02*
X5704524Y-6863143D01*
X5704524Y-6863143D02*
X5695000Y-6901238D01*
X5695000Y-6901238D02*
X5695000Y-6977428D01*
X5695000Y-6977428D02*
X5704524Y-6996476D01*
X5704524Y-6996476D02*
X5714048Y-7006000D01*
X5714048Y-7006000D02*
X5733095Y-7015524D01*
X5733095Y-7015524D02*
X5771191Y-7015524D01*
X5771191Y-7015524D02*
X5790238Y-7006000D01*
X5790238Y-7006000D02*
X5799762Y-6996476D01*
X5799762Y-6996476D02*
X5809286Y-6977428D01*
X5809286Y-6977428D02*
X5809286Y-6929809D01*
X5809286Y-6929809D02*
X5799762Y-6910762D01*
X5799762Y-6910762D02*
X5790238Y-6901238D01*
X5790238Y-6901238D02*
X5771191Y-6891714D01*
X5771191Y-6891714D02*
X5733095Y-6891714D01*
X5733095Y-6891714D02*
X5714048Y-6901238D01*
X5714048Y-6901238D02*
X5704524Y-6910762D01*
X5704524Y-6910762D02*
X5695000Y-6929809D01*
X5885476Y-6815524D02*
X5885476Y-6853619D01*
X5961667Y-6815524D02*
X5961667Y-6853619D01*
X6256905Y-7091714D02*
X6247381Y-7082190D01*
X6247381Y-7082190D02*
X6228334Y-7053619D01*
X6228334Y-7053619D02*
X6218810Y-7034571D01*
X6218810Y-7034571D02*
X6209286Y-7006000D01*
X6209286Y-7006000D02*
X6199762Y-6958381D01*
X6199762Y-6958381D02*
X6199762Y-6920286D01*
X6199762Y-6920286D02*
X6209286Y-6872667D01*
X6209286Y-6872667D02*
X6218810Y-6844095D01*
X6218810Y-6844095D02*
X6228334Y-6825048D01*
X6228334Y-6825048D02*
X6247381Y-6796476D01*
X6247381Y-6796476D02*
X6256905Y-6786952D01*
X6314048Y-6815524D02*
X6437857Y-6815524D01*
X6437857Y-6815524D02*
X6371191Y-6891714D01*
X6371191Y-6891714D02*
X6399762Y-6891714D01*
X6399762Y-6891714D02*
X6418810Y-6901238D01*
X6418810Y-6901238D02*
X6428334Y-6910762D01*
X6428334Y-6910762D02*
X6437857Y-6929809D01*
X6437857Y-6929809D02*
X6437857Y-6977428D01*
X6437857Y-6977428D02*
X6428334Y-6996476D01*
X6428334Y-6996476D02*
X6418810Y-7006000D01*
X6418810Y-7006000D02*
X6399762Y-7015524D01*
X6399762Y-7015524D02*
X6342619Y-7015524D01*
X6342619Y-7015524D02*
X6323572Y-7006000D01*
X6323572Y-7006000D02*
X6314048Y-6996476D01*
X6675953Y-7015524D02*
X6675953Y-6815524D01*
X6761667Y-7015524D02*
X6761667Y-6910762D01*
X6761667Y-6910762D02*
X6752143Y-6891714D01*
X6752143Y-6891714D02*
X6733096Y-6882190D01*
X6733096Y-6882190D02*
X6704524Y-6882190D01*
X6704524Y-6882190D02*
X6685476Y-6891714D01*
X6685476Y-6891714D02*
X6675953Y-6901238D01*
X6885476Y-7015524D02*
X6866429Y-7006000D01*
X6866429Y-7006000D02*
X6856905Y-6996476D01*
X6856905Y-6996476D02*
X6847381Y-6977428D01*
X6847381Y-6977428D02*
X6847381Y-6920286D01*
X6847381Y-6920286D02*
X6856905Y-6901238D01*
X6856905Y-6901238D02*
X6866429Y-6891714D01*
X6866429Y-6891714D02*
X6885476Y-6882190D01*
X6885476Y-6882190D02*
X6914048Y-6882190D01*
X6914048Y-6882190D02*
X6933096Y-6891714D01*
X6933096Y-6891714D02*
X6942619Y-6901238D01*
X6942619Y-6901238D02*
X6952143Y-6920286D01*
X6952143Y-6920286D02*
X6952143Y-6977428D01*
X6952143Y-6977428D02*
X6942619Y-6996476D01*
X6942619Y-6996476D02*
X6933096Y-7006000D01*
X6933096Y-7006000D02*
X6914048Y-7015524D01*
X6914048Y-7015524D02*
X6885476Y-7015524D01*
X7066429Y-7015524D02*
X7047381Y-7006000D01*
X7047381Y-7006000D02*
X7037857Y-6986952D01*
X7037857Y-6986952D02*
X7037857Y-6815524D01*
X7218810Y-7006000D02*
X7199762Y-7015524D01*
X7199762Y-7015524D02*
X7161667Y-7015524D01*
X7161667Y-7015524D02*
X7142619Y-7006000D01*
X7142619Y-7006000D02*
X7133096Y-6986952D01*
X7133096Y-6986952D02*
X7133096Y-6910762D01*
X7133096Y-6910762D02*
X7142619Y-6891714D01*
X7142619Y-6891714D02*
X7161667Y-6882190D01*
X7161667Y-6882190D02*
X7199762Y-6882190D01*
X7199762Y-6882190D02*
X7218810Y-6891714D01*
X7218810Y-6891714D02*
X7228334Y-6910762D01*
X7228334Y-6910762D02*
X7228334Y-6929809D01*
X7228334Y-6929809D02*
X7133096Y-6948857D01*
X7304524Y-7006000D02*
X7323572Y-7015524D01*
X7323572Y-7015524D02*
X7361667Y-7015524D01*
X7361667Y-7015524D02*
X7380715Y-7006000D01*
X7380715Y-7006000D02*
X7390238Y-6986952D01*
X7390238Y-6986952D02*
X7390238Y-6977428D01*
X7390238Y-6977428D02*
X7380715Y-6958381D01*
X7380715Y-6958381D02*
X7361667Y-6948857D01*
X7361667Y-6948857D02*
X7333096Y-6948857D01*
X7333096Y-6948857D02*
X7314048Y-6939333D01*
X7314048Y-6939333D02*
X7304524Y-6920286D01*
X7304524Y-6920286D02*
X7304524Y-6910762D01*
X7304524Y-6910762D02*
X7314048Y-6891714D01*
X7314048Y-6891714D02*
X7333096Y-6882190D01*
X7333096Y-6882190D02*
X7361667Y-6882190D01*
X7361667Y-6882190D02*
X7380715Y-6891714D01*
X7456905Y-7091714D02*
X7466429Y-7082190D01*
X7466429Y-7082190D02*
X7485477Y-7053619D01*
X7485477Y-7053619D02*
X7495000Y-7034571D01*
X7495000Y-7034571D02*
X7504524Y-7006000D01*
X7504524Y-7006000D02*
X7514048Y-6958381D01*
X7514048Y-6958381D02*
X7514048Y-6920286D01*
X7514048Y-6920286D02*
X7504524Y-6872667D01*
X7504524Y-6872667D02*
X7495000Y-6844095D01*
X7495000Y-6844095D02*
X7485477Y-6825048D01*
X7485477Y-6825048D02*
X7466429Y-6796476D01*
X7466429Y-6796476D02*
X7456905Y-6786952D01*
X7818810Y-7091714D02*
X7809286Y-7082190D01*
X7809286Y-7082190D02*
X7790238Y-7053619D01*
X7790238Y-7053619D02*
X7780715Y-7034571D01*
X7780715Y-7034571D02*
X7771191Y-7006000D01*
X7771191Y-7006000D02*
X7761667Y-6958381D01*
X7761667Y-6958381D02*
X7761667Y-6920286D01*
X7761667Y-6920286D02*
X7771191Y-6872667D01*
X7771191Y-6872667D02*
X7780715Y-6844095D01*
X7780715Y-6844095D02*
X7790238Y-6825048D01*
X7790238Y-6825048D02*
X7809286Y-6796476D01*
X7809286Y-6796476D02*
X7818810Y-6786952D01*
X7895000Y-6882190D02*
X7895000Y-7015524D01*
X7895000Y-6901238D02*
X7904524Y-6891714D01*
X7904524Y-6891714D02*
X7923572Y-6882190D01*
X7923572Y-6882190D02*
X7952143Y-6882190D01*
X7952143Y-6882190D02*
X7971191Y-6891714D01*
X7971191Y-6891714D02*
X7980715Y-6910762D01*
X7980715Y-6910762D02*
X7980715Y-7015524D01*
X8104524Y-7015524D02*
X8085477Y-7006000D01*
X8085477Y-7006000D02*
X8075953Y-6996476D01*
X8075953Y-6996476D02*
X8066429Y-6977428D01*
X8066429Y-6977428D02*
X8066429Y-6920286D01*
X8066429Y-6920286D02*
X8075953Y-6901238D01*
X8075953Y-6901238D02*
X8085477Y-6891714D01*
X8085477Y-6891714D02*
X8104524Y-6882190D01*
X8104524Y-6882190D02*
X8133096Y-6882190D01*
X8133096Y-6882190D02*
X8152143Y-6891714D01*
X8152143Y-6891714D02*
X8161667Y-6901238D01*
X8161667Y-6901238D02*
X8171191Y-6920286D01*
X8171191Y-6920286D02*
X8171191Y-6977428D01*
X8171191Y-6977428D02*
X8161667Y-6996476D01*
X8161667Y-6996476D02*
X8152143Y-7006000D01*
X8152143Y-7006000D02*
X8133096Y-7015524D01*
X8133096Y-7015524D02*
X8104524Y-7015524D01*
X8228334Y-6882190D02*
X8304524Y-6882190D01*
X8256905Y-6815524D02*
X8256905Y-6986952D01*
X8256905Y-6986952D02*
X8266429Y-7006000D01*
X8266429Y-7006000D02*
X8285477Y-7015524D01*
X8285477Y-7015524D02*
X8304524Y-7015524D01*
X8523572Y-6882190D02*
X8523572Y-7082190D01*
X8523572Y-6891714D02*
X8542620Y-6882190D01*
X8542620Y-6882190D02*
X8580715Y-6882190D01*
X8580715Y-6882190D02*
X8599762Y-6891714D01*
X8599762Y-6891714D02*
X8609286Y-6901238D01*
X8609286Y-6901238D02*
X8618810Y-6920286D01*
X8618810Y-6920286D02*
X8618810Y-6977428D01*
X8618810Y-6977428D02*
X8609286Y-6996476D01*
X8609286Y-6996476D02*
X8599762Y-7006000D01*
X8599762Y-7006000D02*
X8580715Y-7015524D01*
X8580715Y-7015524D02*
X8542620Y-7015524D01*
X8542620Y-7015524D02*
X8523572Y-7006000D01*
X8733096Y-7015524D02*
X8714048Y-7006000D01*
X8714048Y-7006000D02*
X8704524Y-6986952D01*
X8704524Y-6986952D02*
X8704524Y-6815524D01*
X8895001Y-7015524D02*
X8895001Y-6910762D01*
X8895001Y-6910762D02*
X8885477Y-6891714D01*
X8885477Y-6891714D02*
X8866429Y-6882190D01*
X8866429Y-6882190D02*
X8828334Y-6882190D01*
X8828334Y-6882190D02*
X8809286Y-6891714D01*
X8895001Y-7006000D02*
X8875953Y-7015524D01*
X8875953Y-7015524D02*
X8828334Y-7015524D01*
X8828334Y-7015524D02*
X8809286Y-7006000D01*
X8809286Y-7006000D02*
X8799762Y-6986952D01*
X8799762Y-6986952D02*
X8799762Y-6967905D01*
X8799762Y-6967905D02*
X8809286Y-6948857D01*
X8809286Y-6948857D02*
X8828334Y-6939333D01*
X8828334Y-6939333D02*
X8875953Y-6939333D01*
X8875953Y-6939333D02*
X8895001Y-6929809D01*
X8961667Y-6882190D02*
X9037858Y-6882190D01*
X8990239Y-6815524D02*
X8990239Y-6986952D01*
X8990239Y-6986952D02*
X8999762Y-7006000D01*
X8999762Y-7006000D02*
X9018810Y-7015524D01*
X9018810Y-7015524D02*
X9037858Y-7015524D01*
X9180715Y-7006000D02*
X9161667Y-7015524D01*
X9161667Y-7015524D02*
X9123572Y-7015524D01*
X9123572Y-7015524D02*
X9104524Y-7006000D01*
X9104524Y-7006000D02*
X9095001Y-6986952D01*
X9095001Y-6986952D02*
X9095001Y-6910762D01*
X9095001Y-6910762D02*
X9104524Y-6891714D01*
X9104524Y-6891714D02*
X9123572Y-6882190D01*
X9123572Y-6882190D02*
X9161667Y-6882190D01*
X9161667Y-6882190D02*
X9180715Y-6891714D01*
X9180715Y-6891714D02*
X9190239Y-6910762D01*
X9190239Y-6910762D02*
X9190239Y-6929809D01*
X9190239Y-6929809D02*
X9095001Y-6948857D01*
X9361667Y-7015524D02*
X9361667Y-6815524D01*
X9361667Y-7006000D02*
X9342620Y-7015524D01*
X9342620Y-7015524D02*
X9304524Y-7015524D01*
X9304524Y-7015524D02*
X9285477Y-7006000D01*
X9285477Y-7006000D02*
X9275953Y-6996476D01*
X9275953Y-6996476D02*
X9266429Y-6977428D01*
X9266429Y-6977428D02*
X9266429Y-6920286D01*
X9266429Y-6920286D02*
X9275953Y-6901238D01*
X9275953Y-6901238D02*
X9285477Y-6891714D01*
X9285477Y-6891714D02*
X9304524Y-6882190D01*
X9304524Y-6882190D02*
X9342620Y-6882190D01*
X9342620Y-6882190D02*
X9361667Y-6891714D01*
X9437858Y-7091714D02*
X9447382Y-7082190D01*
X9447382Y-7082190D02*
X9466429Y-7053619D01*
X9466429Y-7053619D02*
X9475953Y-7034571D01*
X9475953Y-7034571D02*
X9485477Y-7006000D01*
X9485477Y-7006000D02*
X9495001Y-6958381D01*
X9495001Y-6958381D02*
X9495001Y-6920286D01*
X9495001Y-6920286D02*
X9485477Y-6872667D01*
X9485477Y-6872667D02*
X9475953Y-6844095D01*
X9475953Y-6844095D02*
X9466429Y-6825048D01*
X9466429Y-6825048D02*
X9447382Y-6796476D01*
X9447382Y-6796476D02*
X9437858Y-6786952D01*
M02*
